<svg width="32" height="32" viewBox="0 0 32 32" fill="none" xmlns="http://www.w3.org/2000/svg">
<rect width="32" height="32" rx="16" fill="#44444A"/>
<path d="M16.0124 9.94043C13.8057 9.94043 12.0124 11.7338 12.0124 13.9404V15.8671C12.0124 16.2738 11.8391 16.8938 11.6324 17.2404L10.8657 18.5138C10.3924 19.3004 10.7191 20.1738 11.5857 20.4671C14.4591 21.4271 17.5591 21.4271 20.4324 20.4671C21.2391 20.2004 21.5924 19.2471 21.1524 18.5138L20.3857 17.2404C20.1857 16.8938 20.0124 16.2738 20.0124 15.8671V13.9404C20.0124 11.7404 18.2124 9.94043 16.0124 9.94043Z" stroke="#EDF1F3" stroke-miterlimit="10" stroke-linecap="round"/>
<path d="M17.2479 10.133C17.0412 10.073 16.8279 10.0263 16.6079 9.99964C15.9679 9.91964 15.3546 9.9663 14.7812 10.133C14.9746 9.63964 15.4546 9.29297 16.0146 9.29297C16.5746 9.29297 17.0546 9.63964 17.2479 10.133Z" stroke="#EDF1F3" stroke-miterlimit="10" stroke-linecap="round" stroke-linejoin="round"/>
<path d="M18.0117 20.707C18.0117 21.807 17.1117 22.707 16.0117 22.707C15.4651 22.707 14.9584 22.4804 14.5984 22.1204C14.2384 21.7604 14.0117 21.2537 14.0117 20.707" stroke="#EDF1F3" stroke-miterlimit="10"/>
</svg>
