<svg width="32" height="32" viewBox="0 0 32 32" fill="none" xmlns="http://www.w3.org/2000/svg">
<rect width="32" height="32" rx="16" fill="#44444A"/>
<path d="M16.1057 15.2463C16.0391 15.2397 15.9591 15.2397 15.8857 15.2463C14.2991 15.193 13.0391 13.893 13.0391 12.293C13.0391 10.6597 14.3591 9.33301 15.9991 9.33301C17.6324 9.33301 18.9591 10.6597 18.9591 12.293C18.9524 13.893 17.6924 15.193 16.1057 15.2463Z" stroke="#EDF1F3" stroke-linecap="round" stroke-linejoin="round"/>
<path d="M12.7725 17.707C11.1592 18.787 11.1592 20.547 12.7725 21.6203C14.6058 22.847 17.6125 22.847 19.4458 21.6203C21.0592 20.5403 21.0592 18.7803 19.4458 17.707C17.6192 16.487 14.6125 16.487 12.7725 17.707Z" stroke="#EDF1F3" stroke-linecap="round" stroke-linejoin="round"/>
</svg>
