<svg width="327" height="470" viewBox="0 0 327 470" fill="none" xmlns="http://www.w3.org/2000/svg">
<g clip-path="url(#clip0_9685_40873)">
<rect width="327" height="470" rx="10" fill="#1E1E20"/>
<path d="M21.1477 38V26.3636H25.6023C26.4432 26.3636 27.142 26.4962 27.6989 26.7614C28.2595 27.0227 28.678 27.3807 28.9545 27.8352C29.2348 28.2898 29.375 28.8049 29.375 29.3807C29.375 29.8542 29.2841 30.2595 29.1023 30.5966C28.9205 30.9299 28.6761 31.2008 28.3693 31.4091C28.0625 31.6174 27.7197 31.767 27.3409 31.858V31.9716C27.7538 31.9943 28.1496 32.1212 28.5284 32.3523C28.911 32.5795 29.2235 32.9015 29.4659 33.3182C29.7083 33.7348 29.8295 34.2386 29.8295 34.8295C29.8295 35.4318 29.6837 35.9735 29.392 36.4545C29.1004 36.9318 28.661 37.3087 28.0739 37.5852C27.4867 37.8617 26.7481 38 25.858 38H21.1477ZM23.2557 36.2386H25.5227C26.2879 36.2386 26.839 36.0928 27.1761 35.8011C27.517 35.5057 27.6875 35.1269 27.6875 34.6648C27.6875 34.3201 27.6023 34.0095 27.4318 33.733C27.2614 33.4527 27.0189 33.233 26.7045 33.0739C26.3902 32.911 26.0152 32.8295 25.5795 32.8295H23.2557V36.2386ZM23.2557 31.3125H25.3409C25.7045 31.3125 26.0322 31.2462 26.3239 31.1136C26.6155 30.9773 26.8447 30.786 27.0114 30.5398C27.1818 30.2898 27.267 29.9943 27.267 29.6534C27.267 29.2027 27.108 28.8314 26.7898 28.5398C26.4754 28.2481 26.0076 28.1023 25.3864 28.1023H23.2557V31.3125ZM33.7638 38.1761C33.2108 38.1761 32.7127 38.0777 32.2695 37.8807C31.8301 37.6799 31.4816 37.3845 31.224 36.9943C30.9702 36.6042 30.8434 36.1231 30.8434 35.5511C30.8434 35.0587 30.9343 34.6515 31.1161 34.3295C31.2979 34.0076 31.546 33.75 31.8604 33.5568C32.1748 33.3636 32.529 33.2178 32.9229 33.1193C33.3206 33.017 33.7316 32.9432 34.1559 32.8977C34.6672 32.8447 35.082 32.7973 35.4002 32.7557C35.7184 32.7102 35.9494 32.642 36.0934 32.5511C36.2411 32.4564 36.3149 32.3106 36.3149 32.1136V32.0795C36.3149 31.6515 36.188 31.3201 35.9343 31.0852C35.6805 30.8504 35.3149 30.733 34.8377 30.733C34.3339 30.733 33.9343 30.8428 33.6388 31.0625C33.3471 31.2822 33.1502 31.5417 33.0479 31.8409L31.1274 31.5682C31.279 31.0379 31.529 30.5947 31.8774 30.2386C32.2259 29.8788 32.6521 29.6098 33.1559 29.4318C33.6596 29.25 34.2165 29.1591 34.8263 29.1591C35.2468 29.1591 35.6653 29.2083 36.082 29.3068C36.4987 29.4053 36.8793 29.5682 37.224 29.7955C37.5687 30.0189 37.8452 30.3239 38.0536 30.7102C38.2657 31.0966 38.3718 31.5795 38.3718 32.1591V38H36.3945V36.8011H36.3263C36.2013 37.0436 36.0252 37.2708 35.7979 37.483C35.5744 37.6913 35.2922 37.8598 34.9513 37.9886C34.6142 38.1136 34.2184 38.1761 33.7638 38.1761ZM34.2979 36.6648C34.7108 36.6648 35.0687 36.5833 35.3718 36.4205C35.6748 36.2538 35.9077 36.0341 36.0706 35.7614C36.2373 35.4886 36.3206 35.1913 36.3206 34.8693V33.8409C36.2562 33.8939 36.1464 33.9432 35.9911 33.9886C35.8396 34.0341 35.6691 34.0739 35.4797 34.108C35.2903 34.142 35.1028 34.1723 34.9172 34.1989C34.7316 34.2254 34.5706 34.2481 34.4343 34.267C34.1274 34.3087 33.8528 34.3769 33.6104 34.4716C33.368 34.5663 33.1767 34.6989 33.0365 34.8693C32.8964 35.036 32.8263 35.2519 32.8263 35.517C32.8263 35.8958 32.9646 36.1818 33.2411 36.375C33.5176 36.5682 33.8699 36.6648 34.2979 36.6648ZM42.1768 26.3636V38H40.1199V26.3636H42.1768ZM46.4832 38.1761C45.9302 38.1761 45.432 38.0777 44.9889 37.8807C44.5495 37.6799 44.201 37.3845 43.9434 36.9943C43.6896 36.6042 43.5627 36.1231 43.5627 35.5511C43.5627 35.0587 43.6536 34.6515 43.8355 34.3295C44.0173 34.0076 44.2654 33.75 44.5798 33.5568C44.8942 33.3636 45.2483 33.2178 45.6423 33.1193C46.04 33.017 46.451 32.9432 46.8752 32.8977C47.3866 32.8447 47.8014 32.7973 48.1195 32.7557C48.4377 32.7102 48.6688 32.642 48.8127 32.5511C48.9605 32.4564 49.0343 32.3106 49.0343 32.1136V32.0795C49.0343 31.6515 48.9074 31.3201 48.6536 31.0852C48.3998 30.8504 48.0343 30.733 47.557 30.733C47.0533 30.733 46.6536 30.8428 46.3582 31.0625C46.0665 31.2822 45.8695 31.5417 45.7673 31.8409L43.8468 31.5682C43.9983 31.0379 44.2483 30.5947 44.5968 30.2386C44.9453 29.8788 45.3714 29.6098 45.8752 29.4318C46.379 29.25 46.9358 29.1591 47.5457 29.1591C47.9661 29.1591 48.3847 29.2083 48.8014 29.3068C49.218 29.4053 49.5987 29.5682 49.9434 29.7955C50.2881 30.0189 50.5646 30.3239 50.773 30.7102C50.9851 31.0966 51.0911 31.5795 51.0911 32.1591V38H49.1139V36.8011H49.0457C48.9207 37.0436 48.7445 37.2708 48.5173 37.483C48.2938 37.6913 48.0116 37.8598 47.6707 37.9886C47.3336 38.1136 46.9377 38.1761 46.4832 38.1761ZM47.0173 36.6648C47.4302 36.6648 47.7881 36.5833 48.0911 36.4205C48.3942 36.2538 48.6271 36.0341 48.79 35.7614C48.9567 35.4886 49.04 35.1913 49.04 34.8693V33.8409C48.9756 33.8939 48.8658 33.9432 48.7105 33.9886C48.5589 34.0341 48.3885 34.0739 48.1991 34.108C48.0097 34.142 47.8222 34.1723 47.6366 34.1989C47.451 34.2254 47.29 34.2481 47.1536 34.267C46.8468 34.3087 46.5722 34.3769 46.3298 34.4716C46.0873 34.5663 45.8961 34.6989 45.7559 34.8693C45.6158 35.036 45.5457 35.2519 45.5457 35.517C45.5457 35.8958 45.6839 36.1818 45.9605 36.375C46.237 36.5682 46.5892 36.6648 47.0173 36.6648ZM54.8961 32.8864V38H52.8393V29.2727H54.8052V30.7557H54.9075C55.1083 30.267 55.4283 29.8788 55.8677 29.5909C56.3109 29.303 56.8583 29.1591 57.5098 29.1591C58.112 29.1591 58.6367 29.2879 59.0836 29.5455C59.5344 29.803 59.8829 30.1761 60.1291 30.6648C60.3791 31.1534 60.5022 31.7462 60.4984 32.4432V38H58.4416V32.7614C58.4416 32.178 58.2901 31.7216 57.987 31.392C57.6878 31.0625 57.273 30.8977 56.7427 30.8977C56.3829 30.8977 56.0628 30.9773 55.7825 31.1364C55.506 31.2917 55.2882 31.517 55.1291 31.8125C54.9738 32.108 54.8961 32.4659 54.8961 32.8864ZM66.0761 38.1705C65.2049 38.1705 64.4568 37.9792 63.8318 37.5966C63.2106 37.214 62.7314 36.6856 62.3943 36.0114C62.061 35.3333 61.8943 34.553 61.8943 33.6705C61.8943 32.7841 62.0648 32.0019 62.4057 31.3239C62.7466 30.642 63.2277 30.1117 63.8489 29.733C64.4739 29.3504 65.2125 29.1591 66.0648 29.1591C66.7731 29.1591 67.4 29.2898 67.9455 29.5511C68.4947 29.8087 68.9322 30.1742 69.258 30.6477C69.5837 31.1174 69.7693 31.6667 69.8148 32.2955H67.8489C67.7693 31.875 67.5799 31.5246 67.2807 31.2443C66.9852 30.9602 66.5894 30.8182 66.0932 30.8182C65.6727 30.8182 65.3034 30.9318 64.9852 31.1591C64.667 31.3826 64.4189 31.7045 64.2409 32.125C64.0667 32.5455 63.9795 33.0492 63.9795 33.6364C63.9795 34.2311 64.0667 34.7424 64.2409 35.1705C64.4152 35.5947 64.6595 35.9223 64.9739 36.1534C65.292 36.3807 65.6652 36.4943 66.0932 36.4943C66.3962 36.4943 66.667 36.4375 66.9057 36.3239C67.1481 36.2064 67.3508 36.0379 67.5136 35.8182C67.6765 35.5985 67.7883 35.3314 67.8489 35.017H69.8148C69.7655 35.6345 69.5837 36.1818 69.2693 36.6591C68.9549 37.1326 68.5269 37.5038 67.9852 37.7727C67.4436 38.0379 66.8072 38.1705 66.0761 38.1705ZM75.0473 38.1705C74.1723 38.1705 73.4166 37.9886 72.7803 37.625C72.1477 37.2576 71.661 36.7386 71.3201 36.0682C70.9791 35.3939 70.8087 34.6004 70.8087 33.6875C70.8087 32.7898 70.9791 32.0019 71.3201 31.3239C71.6648 30.642 72.1458 30.1117 72.7632 29.733C73.3807 29.3504 74.106 29.1591 74.9394 29.1591C75.4773 29.1591 75.9848 29.2462 76.4621 29.4205C76.9432 29.5909 77.3674 29.8561 77.7348 30.2159C78.106 30.5758 78.3977 31.0341 78.6098 31.5909C78.822 32.1439 78.928 32.803 78.928 33.5682V34.1989H71.7746V32.8125H76.9564C76.9526 32.4186 76.8674 32.0682 76.7007 31.7614C76.5341 31.4508 76.3011 31.2064 76.0019 31.0284C75.7064 30.8504 75.3617 30.7614 74.9678 30.7614C74.5473 30.7614 74.178 30.8636 73.8598 31.0682C73.5416 31.2689 73.2935 31.5341 73.1155 31.8636C72.9413 32.1894 72.8523 32.5473 72.8485 32.9375V34.1477C72.8485 34.6553 72.9413 35.0909 73.1269 35.4545C73.3125 35.8144 73.572 36.0909 73.9053 36.2841C74.2386 36.4735 74.6288 36.5682 75.0757 36.5682C75.375 36.5682 75.6458 36.5265 75.8882 36.4432C76.1307 36.3561 76.3409 36.2292 76.5189 36.0625C76.697 35.8958 76.8314 35.6894 76.9223 35.4432L78.8428 35.6591C78.7216 36.1667 78.4905 36.6098 78.1496 36.9886C77.8125 37.3636 77.3807 37.6553 76.8541 37.8636C76.3276 38.0682 75.7254 38.1705 75.0473 38.1705ZM94.4855 32.1818C94.4855 33.4356 94.2506 34.5095 93.7809 35.4034C93.315 36.2936 92.6786 36.9754 91.8718 37.4489C91.0688 37.9223 90.1578 38.1591 89.1389 38.1591C88.1199 38.1591 87.207 37.9223 86.4002 37.4489C85.5972 36.9716 84.9608 36.2879 84.4911 35.3977C84.0252 34.5038 83.7923 33.4318 83.7923 32.1818C83.7923 30.928 84.0252 29.8561 84.4911 28.9659C84.9608 28.072 85.5972 27.3883 86.4002 26.9148C87.207 26.4413 88.1199 26.2045 89.1389 26.2045C90.1578 26.2045 91.0688 26.4413 91.8718 26.9148C92.6786 27.3883 93.315 28.072 93.7809 28.9659C94.2506 29.8561 94.4855 30.928 94.4855 32.1818ZM92.3661 32.1818C92.3661 31.2992 92.2279 30.5549 91.9514 29.9489C91.6786 29.339 91.2998 28.8788 90.815 28.5682C90.3302 28.2538 89.7714 28.0966 89.1389 28.0966C88.5063 28.0966 87.9476 28.2538 87.4627 28.5682C86.9779 28.8788 86.5972 29.339 86.3207 29.9489C86.048 30.5549 85.9116 31.2992 85.9116 32.1818C85.9116 33.0644 86.048 33.8106 86.3207 34.4205C86.5972 35.0265 86.9779 35.4867 87.4627 35.8011C87.9476 36.1117 88.5063 36.267 89.1389 36.267C89.7714 36.267 90.3302 36.1117 90.815 35.8011C91.2998 35.4867 91.6786 35.0265 91.9514 34.4205C92.2279 33.8106 92.3661 33.0644 92.3661 32.1818ZM103.863 29.2727L100.755 38H98.4822L95.3743 29.2727H97.5674L99.5731 35.7557H99.664L101.675 29.2727H103.863ZM108.533 38.1705C107.658 38.1705 106.902 37.9886 106.266 37.625C105.633 37.2576 105.147 36.7386 104.806 36.0682C104.465 35.3939 104.294 34.6004 104.294 33.6875C104.294 32.7898 104.465 32.0019 104.806 31.3239C105.15 30.642 105.631 30.1117 106.249 29.733C106.866 29.3504 107.592 29.1591 108.425 29.1591C108.963 29.1591 109.47 29.2462 109.948 29.4205C110.429 29.5909 110.853 29.8561 111.22 30.2159C111.592 30.5758 111.883 31.0341 112.095 31.5909C112.308 32.1439 112.414 32.803 112.414 33.5682V34.1989H105.26V32.8125H110.442C110.438 32.4186 110.353 32.0682 110.186 31.7614C110.02 31.4508 109.787 31.2064 109.488 31.0284C109.192 30.8504 108.847 30.7614 108.453 30.7614C108.033 30.7614 107.664 30.8636 107.345 31.0682C107.027 31.2689 106.779 31.5341 106.601 31.8636C106.427 32.1894 106.338 32.5473 106.334 32.9375V34.1477C106.334 34.6553 106.427 35.0909 106.613 35.4545C106.798 35.8144 107.058 36.0909 107.391 36.2841C107.724 36.4735 108.114 36.5682 108.561 36.5682C108.861 36.5682 109.131 36.5265 109.374 36.4432C109.616 36.3561 109.827 36.2292 110.005 36.0625C110.183 35.8958 110.317 35.6894 110.408 35.4432L112.328 35.6591C112.207 36.1667 111.976 36.6098 111.635 36.9886C111.298 37.3636 110.866 37.6553 110.34 37.8636C109.813 38.0682 109.211 38.1705 108.533 38.1705ZM113.834 38V29.2727H115.828V30.7273H115.919C116.078 30.2235 116.351 29.8352 116.737 29.5625C117.127 29.286 117.572 29.1477 118.072 29.1477C118.186 29.1477 118.313 29.1534 118.453 29.1648C118.597 29.1723 118.716 29.1856 118.811 29.2045V31.0966C118.724 31.0663 118.586 31.0398 118.396 31.017C118.211 30.9905 118.031 30.9773 117.856 30.9773C117.481 30.9773 117.144 31.0587 116.845 31.2216C116.55 31.3807 116.317 31.6023 116.146 31.8864C115.976 32.1705 115.891 32.4981 115.891 32.8693V38H113.834ZM127.919 29.2727L124.811 38H122.538L119.43 29.2727H121.623L123.629 35.7557H123.72L125.731 29.2727H127.919ZM129.022 38V29.2727H131.079V38H129.022ZM130.056 28.0341C129.73 28.0341 129.45 27.9261 129.215 27.7102C128.98 27.4905 128.863 27.2273 128.863 26.9205C128.863 26.6098 128.98 26.3466 129.215 26.1307C129.45 25.911 129.73 25.8011 130.056 25.8011C130.385 25.8011 130.666 25.911 130.897 26.1307C131.132 26.3466 131.249 26.6098 131.249 26.9205C131.249 27.2273 131.132 27.4905 130.897 27.7102C130.666 27.9261 130.385 28.0341 130.056 28.0341ZM136.737 38.1705C135.862 38.1705 135.107 37.9886 134.47 37.625C133.838 37.2576 133.351 36.7386 133.01 36.0682C132.669 35.3939 132.499 34.6004 132.499 33.6875C132.499 32.7898 132.669 32.0019 133.01 31.3239C133.355 30.642 133.836 30.1117 134.453 29.733C135.071 29.3504 135.796 29.1591 136.629 29.1591C137.167 29.1591 137.675 29.2462 138.152 29.4205C138.633 29.5909 139.057 29.8561 139.425 30.2159C139.796 30.5758 140.088 31.0341 140.3 31.5909C140.512 32.1439 140.618 32.803 140.618 33.5682V34.1989H133.465V32.8125H138.646C138.643 32.4186 138.557 32.0682 138.391 31.7614C138.224 31.4508 137.991 31.2064 137.692 31.0284C137.396 30.8504 137.052 30.7614 136.658 30.7614C136.237 30.7614 135.868 30.8636 135.55 31.0682C135.232 31.2689 134.984 31.5341 134.806 31.8636C134.631 32.1894 134.542 32.5473 134.538 32.9375V34.1477C134.538 34.6553 134.631 35.0909 134.817 35.4545C135.002 35.8144 135.262 36.0909 135.595 36.2841C135.929 36.4735 136.319 36.5682 136.766 36.5682C137.065 36.5682 137.336 36.5265 137.578 36.4432C137.821 36.3561 138.031 36.2292 138.209 36.0625C138.387 35.8958 138.521 35.6894 138.612 35.4432L140.533 35.6591C140.412 36.1667 140.181 36.6098 139.84 36.9886C139.502 37.3636 139.071 37.6553 138.544 37.8636C138.018 38.0682 137.415 38.1705 136.737 38.1705ZM143.792 38L141.326 29.2727H143.423L144.957 35.4091H145.037L146.605 29.2727H148.679L150.247 35.375H150.332L151.843 29.2727H153.946L151.474 38H149.332L147.696 32.1023H147.576L145.94 38H143.792Z" fill="white"/>
<g filter="url(#filter0_d_9685_40873)">
<g clip-path="url(#clip1_9685_40873)">
<rect x="20" y="56" width="219" height="30" rx="6" fill="#2C2C30"/>
<path d="M46.3466 66.2727V75H45.2898V67.3807H45.2386L43.108 68.7955V67.7216L45.2898 66.2727H46.3466ZM51.2252 75.1364C50.6797 75.1364 50.1982 74.9986 49.7806 74.723C49.363 74.4446 49.0363 74.0526 48.8005 73.5469C48.5647 73.0384 48.4468 72.4375 48.4468 71.7443C48.4468 71.0568 48.5647 70.4602 48.8005 69.9545C49.0363 69.4489 49.3644 69.0582 49.7848 68.7827C50.2053 68.5071 50.6911 68.3693 51.2422 68.3693C51.6684 68.3693 52.005 68.4403 52.2522 68.5824C52.5022 68.7216 52.6925 68.8807 52.8232 69.0597C52.9567 69.2358 53.0604 69.3807 53.1343 69.4943H53.2195V66.2727H54.2252V75H53.2536V73.9943H53.1343C53.0604 74.1136 52.9553 74.2642 52.8189 74.446C52.6826 74.625 52.488 74.7855 52.2351 74.9276C51.9823 75.0668 51.6456 75.1364 51.2252 75.1364ZM51.3615 74.233C51.7649 74.233 52.1059 74.1278 52.3843 73.9176C52.6627 73.7045 52.8743 73.4105 53.0192 73.0355C53.1641 72.6577 53.2365 72.2216 53.2365 71.7273C53.2365 71.2386 53.1655 70.8111 53.0235 70.4446C52.8814 70.0753 52.6712 69.7884 52.3928 69.5838C52.1144 69.3764 51.7706 69.2727 51.3615 69.2727C50.9354 69.2727 50.5803 69.3821 50.2962 69.6009C50.0149 69.8168 49.8033 70.1108 49.6613 70.483C49.522 70.8523 49.4524 71.267 49.4524 71.7273C49.4524 72.1932 49.5235 72.6165 49.6655 72.9972C49.8104 73.375 50.0235 73.6761 50.3047 73.9006C50.5888 74.1222 50.9411 74.233 51.3615 74.233Z" fill="#ACB5BB"/>
<g filter="url(#filter1_di_9685_40873)">
<rect x="77.75" y="60" width="49.75" height="22" rx="4" fill="#44444A"/>
<path d="M96.8011 75L100.705 67.2784V67.2102H96.2045V66.2727H101.795V67.2614L97.9091 75H96.8011ZM105.143 75.1364C104.598 75.1364 104.116 74.9986 103.699 74.723C103.281 74.4446 102.954 74.0526 102.718 73.5469C102.483 73.0384 102.365 72.4375 102.365 71.7443C102.365 71.0568 102.483 70.4602 102.718 69.9545C102.954 69.4489 103.282 69.0582 103.703 68.7827C104.123 68.5071 104.609 68.3693 105.16 68.3693C105.586 68.3693 105.923 68.4403 106.17 68.5824C106.42 68.7216 106.61 68.8807 106.741 69.0597C106.875 69.2358 106.978 69.3807 107.052 69.4943H107.137V66.2727H108.143V75H107.172V73.9943H107.052C106.978 74.1136 106.873 74.2642 106.737 74.446C106.601 74.625 106.406 74.7855 106.153 74.9276C105.9 75.0668 105.564 75.1364 105.143 75.1364ZM105.28 74.233C105.683 74.233 106.024 74.1278 106.302 73.9176C106.581 73.7045 106.792 73.4105 106.937 73.0355C107.082 72.6577 107.155 72.2216 107.155 71.7273C107.155 71.2386 107.083 70.8111 106.941 70.4446C106.799 70.0753 106.589 69.7884 106.311 69.5838C106.032 69.3764 105.689 69.2727 105.28 69.2727C104.853 69.2727 104.498 69.3821 104.214 69.6009C103.933 69.8168 103.721 70.1108 103.579 70.483C103.44 70.8523 103.37 71.267 103.37 71.7273C103.37 72.1932 103.441 72.6165 103.583 72.9972C103.728 73.375 103.941 73.6761 104.223 73.9006C104.507 74.1222 104.859 74.233 105.28 74.233Z" fill="white"/>
</g>
<path d="M148.727 75.1193C148.165 75.1193 147.663 75.0227 147.223 74.8295C146.786 74.6364 146.438 74.3679 146.179 74.0241C145.923 73.6776 145.784 73.2756 145.761 72.8182H146.835C146.858 73.0994 146.955 73.3423 147.125 73.5469C147.295 73.7486 147.518 73.9048 147.794 74.0156C148.07 74.1264 148.375 74.1818 148.71 74.1818C149.085 74.1818 149.418 74.1165 149.707 73.9858C149.997 73.8551 150.224 73.6733 150.389 73.4403C150.554 73.2074 150.636 72.9375 150.636 72.6307C150.636 72.3097 150.557 72.027 150.398 71.7827C150.239 71.5355 150.006 71.3423 149.699 71.2031C149.392 71.0639 149.017 70.9943 148.574 70.9943H147.875V70.0568H148.574C148.92 70.0568 149.224 69.9943 149.486 69.8693C149.75 69.7443 149.956 69.5682 150.104 69.3409C150.254 69.1136 150.33 68.8466 150.33 68.5398C150.33 68.2443 150.264 67.9872 150.134 67.7685C150.003 67.5497 149.818 67.3793 149.58 67.2571C149.344 67.1349 149.065 67.0739 148.744 67.0739C148.443 67.0739 148.159 67.1293 147.892 67.2401C147.628 67.348 147.412 67.5057 147.244 67.7131C147.077 67.9176 146.986 68.1648 146.972 68.4545H145.949C145.966 67.9972 146.104 67.5966 146.362 67.2528C146.621 66.9062 146.959 66.6364 147.376 66.4432C147.797 66.25 148.259 66.1534 148.761 66.1534C149.301 66.1534 149.764 66.2628 150.151 66.4815C150.537 66.6974 150.834 66.983 151.041 67.3381C151.249 67.6932 151.352 68.0767 151.352 68.4886C151.352 68.9801 151.223 69.3991 150.964 69.7457C150.709 70.0923 150.361 70.3324 149.92 70.4659V70.5341C150.472 70.625 150.902 70.8594 151.212 71.2372C151.521 71.6122 151.676 72.0767 151.676 72.6307C151.676 73.1051 151.547 73.5312 151.288 73.9091C151.033 74.2841 150.683 74.5795 150.24 74.7955C149.797 75.0114 149.293 75.1193 148.727 75.1193ZM156.146 75.1193C155.504 75.1193 154.957 74.9446 154.505 74.5952C154.053 74.2429 153.708 73.733 153.469 73.0653C153.231 72.3949 153.112 71.5852 153.112 70.6364C153.112 69.6932 153.231 68.8878 153.469 68.2202C153.711 67.5497 154.058 67.0384 154.509 66.6861C154.964 66.331 155.509 66.1534 156.146 66.1534C156.782 66.1534 157.326 66.331 157.778 66.6861C158.232 67.0384 158.579 67.5497 158.818 68.2202C159.059 68.8878 159.18 69.6932 159.18 70.6364C159.18 71.5852 159.06 72.3949 158.822 73.0653C158.583 73.733 158.238 74.2429 157.786 74.5952C157.335 74.9446 156.788 75.1193 156.146 75.1193ZM156.146 74.1818C156.782 74.1818 157.276 73.875 157.629 73.2614C157.981 72.6477 158.157 71.7727 158.157 70.6364C158.157 69.8807 158.076 69.2372 157.914 68.706C157.755 68.1747 157.525 67.7699 157.224 67.4915C156.925 67.2131 156.566 67.0739 156.146 67.0739C155.515 67.0739 155.022 67.3849 154.667 68.0071C154.312 68.6264 154.134 69.5028 154.134 70.6364C154.134 71.392 154.214 72.0341 154.373 72.5625C154.532 73.0909 154.761 73.4929 155.059 73.7685C155.36 74.044 155.722 74.1818 156.146 74.1818ZM163.168 75.1364C162.622 75.1364 162.141 74.9986 161.723 74.723C161.305 74.4446 160.979 74.0526 160.743 73.5469C160.507 73.0384 160.389 72.4375 160.389 71.7443C160.389 71.0568 160.507 70.4602 160.743 69.9545C160.979 69.4489 161.307 69.0582 161.727 68.7827C162.148 68.5071 162.634 68.3693 163.185 68.3693C163.611 68.3693 163.948 68.4403 164.195 68.5824C164.445 68.7216 164.635 68.8807 164.766 69.0597C164.899 69.2358 165.003 69.3807 165.077 69.4943H165.162V66.2727H166.168V75H165.196V73.9943H165.077C165.003 74.1136 164.898 74.2642 164.761 74.446C164.625 74.625 164.43 74.7855 164.178 74.9276C163.925 75.0668 163.588 75.1364 163.168 75.1364ZM163.304 74.233C163.707 74.233 164.048 74.1278 164.327 73.9176C164.605 73.7045 164.817 73.4105 164.962 73.0355C165.107 72.6577 165.179 72.2216 165.179 71.7273C165.179 71.2386 165.108 70.8111 164.966 70.4446C164.824 70.0753 164.614 69.7884 164.335 69.5838C164.057 69.3764 163.713 69.2727 163.304 69.2727C162.878 69.2727 162.523 69.3821 162.239 69.6009C161.957 69.8168 161.746 70.1108 161.604 70.483C161.465 70.8523 161.395 71.267 161.395 71.7273C161.395 72.1932 161.466 72.6165 161.608 72.9972C161.753 73.375 161.966 73.6761 162.247 73.9006C162.531 74.1222 162.884 74.233 163.304 74.233Z" fill="#ACB5BB"/>
<path d="M196.205 69H195.148C195.085 68.696 194.976 68.429 194.82 68.1989C194.666 67.9688 194.479 67.7756 194.257 67.6193C194.038 67.4602 193.795 67.3409 193.528 67.2614C193.261 67.1818 192.983 67.142 192.693 67.142C192.165 67.142 191.686 67.2756 191.257 67.5426C190.831 67.8097 190.491 68.2031 190.239 68.723C189.989 69.2429 189.864 69.8807 189.864 70.6364C189.864 71.392 189.989 72.0298 190.239 72.5497C190.491 73.0696 190.831 73.4631 191.257 73.7301C191.686 73.9972 192.165 74.1307 192.693 74.1307C192.983 74.1307 193.261 74.0909 193.528 74.0114C193.795 73.9318 194.038 73.8139 194.257 73.6577C194.479 73.4986 194.666 73.304 194.82 73.0739C194.976 72.8409 195.085 72.5739 195.148 72.2727H196.205C196.125 72.7187 195.98 73.1179 195.77 73.4702C195.56 73.8224 195.298 74.1222 194.986 74.3693C194.673 74.6136 194.322 74.7997 193.933 74.9276C193.547 75.0554 193.134 75.1193 192.693 75.1193C191.949 75.1193 191.287 74.9375 190.707 74.5739C190.128 74.2102 189.672 73.6932 189.339 73.0227C189.007 72.3523 188.841 71.5568 188.841 70.6364C188.841 69.7159 189.007 68.9205 189.339 68.25C189.672 67.5795 190.128 67.0625 190.707 66.6989C191.287 66.3352 191.949 66.1534 192.693 66.1534C193.134 66.1534 193.547 66.2173 193.933 66.3452C194.322 66.473 194.673 66.6605 194.986 66.9077C195.298 67.152 195.56 67.4503 195.77 67.8026C195.98 68.152 196.125 68.5511 196.205 69ZM201.781 72.3239V68.4545H202.787V75H201.781V73.892H201.713C201.559 74.2244 201.321 74.5071 200.997 74.7401C200.673 74.9702 200.264 75.0852 199.77 75.0852C199.36 75.0852 198.997 74.9957 198.679 74.8168C198.36 74.6349 198.11 74.3622 197.929 73.9986C197.747 73.6321 197.656 73.1705 197.656 72.6136V68.4545H198.662V72.5455C198.662 73.0227 198.795 73.4034 199.062 73.6875C199.332 73.9716 199.676 74.1136 200.093 74.1136C200.343 74.1136 200.598 74.0497 200.856 73.9219C201.118 73.794 201.336 73.598 201.512 73.3338C201.691 73.0696 201.781 72.733 201.781 72.3239ZM209.145 69.9205L208.242 70.1761C208.185 70.0256 208.101 69.8793 207.99 69.7372C207.882 69.5923 207.734 69.473 207.547 69.3793C207.359 69.2855 207.119 69.2386 206.827 69.2386C206.426 69.2386 206.092 69.331 205.825 69.5156C205.561 69.6974 205.429 69.929 205.429 70.2102C205.429 70.4602 205.52 70.6577 205.702 70.8026C205.884 70.9474 206.168 71.0682 206.554 71.1648L207.526 71.4034C208.111 71.5455 208.547 71.7628 208.834 72.0554C209.121 72.3452 209.264 72.7187 209.264 73.1761C209.264 73.5511 209.156 73.8864 208.94 74.1818C208.727 74.4773 208.429 74.7102 208.046 74.8807C207.662 75.0511 207.216 75.1364 206.707 75.1364C206.04 75.1364 205.487 74.9915 205.05 74.7017C204.612 74.4119 204.335 73.9886 204.219 73.4318L205.173 73.1932C205.264 73.5455 205.436 73.8097 205.689 73.9858C205.945 74.1619 206.278 74.25 206.69 74.25C207.159 74.25 207.531 74.1506 207.807 73.9517C208.085 73.75 208.224 73.5085 208.224 73.2273C208.224 73 208.145 72.8097 207.986 72.6562C207.827 72.5 207.582 72.3835 207.253 72.3068L206.162 72.0511C205.563 71.9091 205.122 71.6889 204.841 71.3906C204.563 71.0895 204.423 70.7131 204.423 70.2614C204.423 69.892 204.527 69.5653 204.734 69.2812C204.945 68.9972 205.23 68.7741 205.591 68.6122C205.955 68.4503 206.367 68.3693 206.827 68.3693C207.474 68.3693 207.983 68.5114 208.352 68.7955C208.724 69.0795 208.989 69.4545 209.145 69.9205ZM213.505 68.4545V69.3068H210.113V68.4545H213.505ZM211.101 66.8864H212.107V73.125C212.107 73.4091 212.148 73.6222 212.231 73.7642C212.316 73.9034 212.424 73.9972 212.554 74.0455C212.688 74.0909 212.829 74.1136 212.976 74.1136C213.087 74.1136 213.178 74.108 213.249 74.0966C213.32 74.0824 213.377 74.071 213.419 74.0625L213.624 74.9659C213.556 74.9915 213.461 75.017 213.339 75.0426C213.216 75.071 213.062 75.0852 212.874 75.0852C212.59 75.0852 212.312 75.0241 212.039 74.902C211.769 74.7798 211.544 74.5938 211.365 74.3438C211.189 74.0938 211.101 73.7784 211.101 73.3977V66.8864ZM217.486 75.1364C216.895 75.1364 216.377 74.9957 215.931 74.7145C215.488 74.4332 215.141 74.0398 214.891 73.5341C214.644 73.0284 214.52 72.4375 214.52 71.7614C214.52 71.0795 214.644 70.4844 214.891 69.9759C215.141 69.4673 215.488 69.0724 215.931 68.7912C216.377 68.5099 216.895 68.3693 217.486 68.3693C218.077 68.3693 218.594 68.5099 219.037 68.7912C219.483 69.0724 219.83 69.4673 220.077 69.9759C220.327 70.4844 220.452 71.0795 220.452 71.7614C220.452 72.4375 220.327 73.0284 220.077 73.5341C219.83 74.0398 219.483 74.4332 219.037 74.7145C218.594 74.9957 218.077 75.1364 217.486 75.1364ZM217.486 74.233C217.935 74.233 218.304 74.1179 218.594 73.8878C218.884 73.6577 219.098 73.3551 219.238 72.9801C219.377 72.6051 219.446 72.1989 219.446 71.7614C219.446 71.3239 219.377 70.9162 219.238 70.5384C219.098 70.1605 218.884 69.8551 218.594 69.6222C218.304 69.3892 217.935 69.2727 217.486 69.2727C217.037 69.2727 216.668 69.3892 216.378 69.6222C216.089 69.8551 215.874 70.1605 215.735 70.5384C215.596 70.9162 215.526 71.3239 215.526 71.7614C215.526 72.1989 215.596 72.6051 215.735 72.9801C215.874 73.3551 216.089 73.6577 216.378 73.8878C216.668 74.1179 217.037 74.233 217.486 74.233ZM221.867 75V68.4545H222.839V69.4773H222.924C223.061 69.1278 223.281 68.8565 223.585 68.6634C223.889 68.4673 224.254 68.3693 224.68 68.3693C225.112 68.3693 225.471 68.4673 225.758 68.6634C226.048 68.8565 226.274 69.1278 226.436 69.4773H226.504C226.671 69.1392 226.923 68.8707 227.258 68.6719C227.593 68.4702 227.995 68.3693 228.464 68.3693C229.049 68.3693 229.528 68.5526 229.9 68.919C230.272 69.2827 230.458 69.8494 230.458 70.6193V75H229.453V70.6193C229.453 70.1364 229.32 69.7912 229.056 69.5838C228.792 69.3764 228.481 69.2727 228.123 69.2727C227.663 69.2727 227.306 69.4119 227.053 69.6903C226.801 69.9659 226.674 70.3153 226.674 70.7386V75H225.651V70.517C225.651 70.1449 225.531 69.8452 225.289 69.6179C225.048 69.3878 224.737 69.2727 224.356 69.2727C224.095 69.2727 223.85 69.3423 223.623 69.4815C223.399 69.6207 223.217 69.8139 223.078 70.0611C222.941 70.3054 222.873 70.5881 222.873 70.9091V75H221.867Z" fill="#ACB5BB"/>
</g>
<rect x="20.5" y="56.5" width="218" height="29" rx="5.5" stroke="url(#paint0_linear_9685_40873)"/>
</g>
<g filter="url(#filter2_d_9685_40873)">
<g clip-path="url(#clip2_9685_40873)">
<rect x="251" y="56" width="56" height="30" rx="6" fill="#2C2C30"/>
<g filter="url(#filter3_di_9685_40873)">
<rect x="255" y="60" width="22" height="22" rx="5" fill="#44444A"/>
<path d="M262.001 65.666V66.9993M262.001 70.3327V76.3327M266.001 65.666V72.3327M266.001 75.666V76.3327M270.001 65.666V66.3327M270.001 70.3327V76.3327M260.668 67.666C260.668 67.4892 260.738 67.3196 260.863 67.1946C260.988 67.0696 261.158 66.9993 261.335 66.9993H262.668C262.845 66.9993 263.014 67.0696 263.139 67.1946C263.264 67.3196 263.335 67.4892 263.335 67.666V69.666C263.335 69.8428 263.264 70.0124 263.139 70.1374C263.014 70.2624 262.845 70.3327 262.668 70.3327H261.335C261.158 70.3327 260.988 70.2624 260.863 70.1374C260.738 70.0124 260.668 69.8428 260.668 69.666V67.666ZM264.668 72.9993C264.668 72.8225 264.738 72.653 264.863 72.5279C264.988 72.4029 265.158 72.3327 265.335 72.3327H266.668C266.845 72.3327 267.014 72.4029 267.139 72.5279C267.264 72.653 267.335 72.8225 267.335 72.9993V74.9993C267.335 75.1762 267.264 75.3457 267.139 75.4708C267.014 75.5958 266.845 75.666 266.668 75.666H265.335C265.158 75.666 264.988 75.5958 264.863 75.4708C264.738 75.3457 264.668 75.1762 264.668 74.9993V72.9993ZM268.668 66.9993C268.668 66.8225 268.738 66.653 268.863 66.5279C268.988 66.4029 269.158 66.3327 269.335 66.3327H270.668C270.845 66.3327 271.014 66.4029 271.139 66.5279C271.264 66.653 271.335 66.8225 271.335 66.9993V69.666C271.335 69.8428 271.264 70.0124 271.139 70.1374C271.014 70.2624 270.845 70.3327 270.668 70.3327H269.335C269.158 70.3327 268.988 70.2624 268.863 70.1374C268.738 70.0124 268.668 69.8428 268.668 69.666V66.9993Z" stroke="white" stroke-width="1.2" stroke-linecap="round" stroke-linejoin="round"/>
</g>
<path d="M286.668 75.6667H297.335M286.668 73L289.335 69L292.001 70.3333L294.668 67L297.335 69.6667V73H286.668Z" stroke="#ACB5BB" stroke-width="1.2" stroke-linecap="round" stroke-linejoin="round"/>
</g>
<rect x="251.5" y="56.5" width="55" height="29" rx="5.5" stroke="url(#paint1_linear_9685_40873)"/>
</g>
<g clip-path="url(#clip3_9685_40873)">
<path d="M120 133V417" stroke="#2C2C30"/>
<path d="M221 133V417" stroke="#2C2C30"/>
<path d="M-401.052 168.37L-451.482 198.753C-460.491 204.181 -466 213.931 -466 224.45V306.5C-466 323.069 -452.569 336.5 -436 336.5H584.5C601.069 336.5 614.5 323.069 614.5 306.5V246.532C614.5 236.514 609.5 227.158 601.172 221.591L533.829 176.576C525.778 171.194 515.623 170.03 506.563 173.45L384.577 219.497C375.438 222.947 365.193 221.732 357.115 216.24L236.133 133.988C225.575 126.81 211.631 127.101 201.381 134.712L76.8366 227.196C70.5316 231.877 62.6422 233.9 54.8623 232.83L-76.4242 214.767C-80.1093 214.26 -83.8564 214.443 -87.4747 215.306L-222.997 247.637C-230.687 249.471 -238.789 248.196 -245.544 244.09L-369.986 168.432C-379.523 162.634 -391.491 162.61 -401.052 168.37Z" fill="url(#paint2_linear_9685_40873)" fill-opacity="0.1"/>
<path d="M-466 207.5L-401.052 168.37C-391.491 162.61 -379.523 162.634 -369.986 168.432L-245.544 244.09C-238.789 248.196 -230.687 249.471 -222.997 247.637L-87.4747 215.306C-83.8565 214.443 -80.1093 214.26 -76.4242 214.767L54.8623 232.83C62.6422 233.9 70.5316 231.877 76.8366 227.196L201.381 134.712C211.631 127.101 225.575 126.81 236.133 133.988L357.115 216.24C365.193 221.732 375.438 222.947 384.577 219.497L506.563 173.45C515.623 170.03 525.778 171.194 533.829 176.576L614.5 230.5" stroke="url(#paint3_linear_9685_40873)" stroke-width="2"/>
<path d="M-466 307.5L-395.539 352.577C-389.091 356.702 -381.311 358.207 -373.79 356.783L-239.081 331.273C-236.373 330.76 -233.608 330.623 -230.862 330.865L-84.2707 343.8C-82.7591 343.933 -81.2395 343.952 -79.7251 343.855L62.9348 334.759C65.6326 334.587 68.2947 334.051 70.8489 333.166L211.499 284.426C216.097 282.833 221.014 282.382 225.825 283.112L367.22 304.578C369.069 304.859 370.888 305.312 372.653 305.931L518.093 356.98C520.026 357.658 522.023 358.137 524.053 358.408L614.5 370.5" stroke="#ECAC31" stroke-width="2"/>
<g filter="url(#filter4_i_9685_40873)">
<circle cx="222" cy="128" r="5" fill="url(#paint4_linear_9685_40873)"/>
</g>
<circle cx="222" cy="128" r="6.5" stroke="#161618" stroke-width="3"/>
<path d="M221.5 133V283" stroke="#6C7278" stroke-width="1.5" stroke-dasharray="6 6"/>
<g filter="url(#filter5_i_9685_40873)">
<circle cx="222" cy="283" r="5" fill="#ECAC31"/>
</g>
<circle cx="222" cy="283" r="6.5" stroke="#161618" stroke-width="3"/>
<g filter="url(#filter6_di_9685_40873)">
<g clip-path="url(#clip4_9685_40873)">
<path d="M77.5 150C77.5 144.343 77.5 141.515 79.2574 139.757C81.0147 138 83.8431 138 89.5 138H213.5V212C213.5 217.657 213.5 220.485 211.743 222.243C209.985 224 207.157 224 201.5 224H89.5C83.8431 224 81.0147 224 79.2574 222.243C77.5 220.485 77.5 217.657 77.5 212V150Z" fill="#2C2C30"/>
<g opacity="0.5" filter="url(#filter7_f_9685_40873)">
<rect x="158.492" y="42.7969" width="47" height="100" transform="rotate(54.4193 158.492 42.7969)" fill="#D9D9D9" fill-opacity="0.5"/>
</g>
<path d="M91.4716 152.273V161H90.4148V153.381H90.3636L88.233 154.795V153.722L90.4148 152.273H91.4716ZM96.7593 161.119C96.4013 161.114 96.0434 161.045 95.6854 160.915C95.3274 160.784 95.0007 160.564 94.7053 160.254C94.4098 159.942 94.1726 159.52 93.9936 158.989C93.8147 158.455 93.7252 157.784 93.7252 156.977C93.7252 156.205 93.7976 155.52 93.9425 154.923C94.0874 154.324 94.2976 153.82 94.5732 153.411C94.8488 152.999 95.1811 152.686 95.5703 152.473C95.9624 152.26 96.4041 152.153 96.8956 152.153C97.3843 152.153 97.8189 152.251 98.1996 152.447C98.5831 152.641 98.8956 152.911 99.1371 153.257C99.3786 153.604 99.5348 154.003 99.6059 154.455H98.5661C98.4695 154.062 98.282 153.737 98.0036 153.479C97.7252 153.22 97.3559 153.091 96.8956 153.091C96.2195 153.091 95.6868 153.385 95.2976 153.973C94.9113 154.561 94.7166 155.386 94.7138 156.449H94.782C94.9411 156.207 95.13 156.001 95.3488 155.831C95.5703 155.658 95.8147 155.524 96.0817 155.43C96.3488 155.337 96.6314 155.29 96.9297 155.29C97.4297 155.29 97.8871 155.415 98.3019 155.665C98.7166 155.912 99.049 156.254 99.299 156.692C99.549 157.126 99.674 157.625 99.674 158.188C99.674 158.727 99.5533 159.222 99.3118 159.67C99.0703 160.116 98.7309 160.472 98.2934 160.736C97.8587 160.997 97.3473 161.125 96.7593 161.119ZM96.7593 160.182C97.1172 160.182 97.4382 160.092 97.7223 159.913C98.0093 159.734 98.2351 159.494 98.3999 159.193C98.5675 158.892 98.6513 158.557 98.6513 158.188C98.6513 157.827 98.5703 157.499 98.4084 157.203C98.2493 156.905 98.0291 156.668 97.7479 156.491C97.4695 156.315 97.1513 156.227 96.7934 156.227C96.5235 156.227 96.272 156.281 96.0391 156.389C95.8061 156.494 95.6016 156.639 95.4255 156.824C95.2522 157.009 95.1158 157.22 95.0164 157.459C94.9169 157.695 94.8672 157.943 94.8672 158.205C94.8672 158.551 94.9482 158.875 95.1101 159.176C95.2749 159.477 95.4993 159.72 95.7834 159.905C96.0703 160.089 96.3956 160.182 96.7593 160.182ZM107.979 152.273H109.036V158.511C109.036 159.068 108.934 159.541 108.729 159.93C108.525 160.32 108.236 160.615 107.864 160.817C107.492 161.018 107.053 161.119 106.547 161.119C106.07 161.119 105.645 161.033 105.273 160.859C104.901 160.683 104.608 160.433 104.395 160.109C104.182 159.786 104.076 159.401 104.076 158.955H105.115C105.115 159.202 105.177 159.418 105.299 159.602C105.424 159.784 105.594 159.926 105.81 160.028C106.026 160.131 106.272 160.182 106.547 160.182C106.851 160.182 107.11 160.118 107.323 159.99C107.536 159.862 107.698 159.675 107.809 159.428C107.922 159.178 107.979 158.872 107.979 158.511V152.273ZM115.022 158.324V154.455H116.028V161H115.022V159.892H114.954C114.801 160.224 114.562 160.507 114.238 160.74C113.915 160.97 113.505 161.085 113.011 161.085C112.602 161.085 112.238 160.996 111.92 160.817C111.602 160.635 111.352 160.362 111.17 159.999C110.988 159.632 110.897 159.17 110.897 158.614V154.455H111.903V158.545C111.903 159.023 112.037 159.403 112.304 159.688C112.574 159.972 112.917 160.114 113.335 160.114C113.585 160.114 113.839 160.05 114.098 159.922C114.359 159.794 114.578 159.598 114.754 159.334C114.933 159.07 115.022 158.733 115.022 158.324ZM118.756 152.273V161H117.75V152.273H118.756ZM123.716 161V160.233L126.596 157.08C126.935 156.71 127.213 156.389 127.432 156.116C127.65 155.841 127.812 155.582 127.917 155.341C128.025 155.097 128.079 154.841 128.079 154.574C128.079 154.267 128.006 154.001 127.858 153.777C127.713 153.553 127.514 153.379 127.261 153.257C127.008 153.135 126.724 153.074 126.409 153.074C126.074 153.074 125.781 153.143 125.531 153.283C125.284 153.419 125.092 153.611 124.956 153.858C124.822 154.105 124.756 154.395 124.756 154.727H123.75C123.75 154.216 123.868 153.767 124.104 153.381C124.339 152.994 124.66 152.693 125.067 152.477C125.476 152.261 125.935 152.153 126.443 152.153C126.954 152.153 127.408 152.261 127.802 152.477C128.197 152.693 128.507 152.984 128.731 153.351C128.956 153.717 129.068 154.125 129.068 154.574C129.068 154.895 129.01 155.209 128.893 155.516C128.78 155.82 128.581 156.159 128.297 156.534C128.015 156.906 127.625 157.361 127.125 157.898L125.165 159.994V160.062H129.221V161H123.716ZM133.708 161.119C133.066 161.119 132.519 160.945 132.067 160.595C131.616 160.243 131.27 159.733 131.032 159.065C130.793 158.395 130.674 157.585 130.674 156.636C130.674 155.693 130.793 154.888 131.032 154.22C131.273 153.55 131.62 153.038 132.072 152.686C132.526 152.331 133.072 152.153 133.708 152.153C134.344 152.153 134.888 152.331 135.34 152.686C135.795 153.038 136.141 153.55 136.38 154.22C136.621 154.888 136.742 155.693 136.742 156.636C136.742 157.585 136.623 158.395 136.384 159.065C136.145 159.733 135.8 160.243 135.349 160.595C134.897 160.945 134.35 161.119 133.708 161.119ZM133.708 160.182C134.344 160.182 134.839 159.875 135.191 159.261C135.543 158.648 135.719 157.773 135.719 156.636C135.719 155.881 135.638 155.237 135.476 154.706C135.317 154.175 135.087 153.77 134.786 153.491C134.488 153.213 134.128 153.074 133.708 153.074C133.077 153.074 132.584 153.385 132.229 154.007C131.874 154.626 131.697 155.503 131.697 156.636C131.697 157.392 131.776 158.034 131.935 158.562C132.094 159.091 132.323 159.493 132.621 159.768C132.922 160.044 133.285 160.182 133.708 160.182ZM138.241 161V160.233L141.122 157.08C141.46 156.71 141.739 156.389 141.957 156.116C142.176 155.841 142.338 155.582 142.443 155.341C142.551 155.097 142.605 154.841 142.605 154.574C142.605 154.267 142.531 154.001 142.383 153.777C142.239 153.553 142.04 153.379 141.787 153.257C141.534 153.135 141.25 153.074 140.935 153.074C140.599 153.074 140.307 153.143 140.057 153.283C139.81 153.419 139.618 153.611 139.481 153.858C139.348 154.105 139.281 154.395 139.281 154.727H138.275C138.275 154.216 138.393 153.767 138.629 153.381C138.865 152.994 139.186 152.693 139.592 152.477C140.001 152.261 140.46 152.153 140.969 152.153C141.48 152.153 141.933 152.261 142.328 152.477C142.723 152.693 143.033 152.984 143.257 153.351C143.481 153.717 143.594 154.125 143.594 154.574C143.594 154.895 143.535 155.209 143.419 155.516C143.305 155.82 143.106 156.159 142.822 156.534C142.541 156.906 142.15 157.361 141.65 157.898L139.69 159.994V160.062H143.747V161H138.241ZM148.336 161.119C147.773 161.119 147.272 161.023 146.832 160.83C146.394 160.636 146.046 160.368 145.788 160.024C145.532 159.678 145.393 159.276 145.37 158.818H146.444C146.467 159.099 146.563 159.342 146.734 159.547C146.904 159.749 147.127 159.905 147.403 160.016C147.678 160.126 147.984 160.182 148.319 160.182C148.694 160.182 149.026 160.116 149.316 159.986C149.606 159.855 149.833 159.673 149.998 159.44C150.163 159.207 150.245 158.938 150.245 158.631C150.245 158.31 150.165 158.027 150.006 157.783C149.847 157.536 149.614 157.342 149.307 157.203C149.001 157.064 148.626 156.994 148.182 156.994H147.484V156.057H148.182C148.529 156.057 148.833 155.994 149.094 155.869C149.359 155.744 149.565 155.568 149.712 155.341C149.863 155.114 149.938 154.847 149.938 154.54C149.938 154.244 149.873 153.987 149.742 153.768C149.611 153.55 149.427 153.379 149.188 153.257C148.952 153.135 148.674 153.074 148.353 153.074C148.052 153.074 147.768 153.129 147.501 153.24C147.236 153.348 147.021 153.506 146.853 153.713C146.685 153.918 146.594 154.165 146.58 154.455H145.557C145.575 153.997 145.712 153.597 145.971 153.253C146.229 152.906 146.567 152.636 146.985 152.443C147.405 152.25 147.867 152.153 148.37 152.153C148.91 152.153 149.373 152.263 149.759 152.482C150.146 152.697 150.442 152.983 150.65 153.338C150.857 153.693 150.961 154.077 150.961 154.489C150.961 154.98 150.832 155.399 150.573 155.746C150.317 156.092 149.969 156.332 149.529 156.466V156.534C150.08 156.625 150.511 156.859 150.82 157.237C151.13 157.612 151.285 158.077 151.285 158.631C151.285 159.105 151.155 159.531 150.897 159.909C150.641 160.284 150.292 160.58 149.849 160.795C149.405 161.011 148.901 161.119 148.336 161.119Z" fill="white"/>
<g filter="url(#filter8_f_9685_40873)">
<rect x="298.492" y="62.7969" width="47" height="100" transform="rotate(54.4193 298.492 62.7969)" fill="#D9D9D9" fill-opacity="0.5"/>
</g>
<rect x="87.5" y="173" width="3" height="16" rx="1.5" fill="url(#paint5_linear_9685_40873)"/>
<path d="M98.5568 185V176.273H103.824V177.21H99.6136V180.159H103.551V181.097H99.6136V184.062H103.892V185H98.5568ZM105.131 177.21V176.273H111.677V177.21H108.933V185H107.876V177.21H105.131ZM113.188 185V176.273H114.245V180.159H118.898V176.273H119.955V185H118.898V181.097H114.245V185H113.188Z" fill="#ACB5BB"/>
<path d="M176.651 176.773V185.5H175.33V178.094H175.278L173.19 179.457V178.196L175.368 176.773H176.651ZM179.124 185.581C178.891 185.581 178.691 185.499 178.523 185.334C178.356 185.166 178.272 184.964 178.272 184.729C178.272 184.496 178.356 184.297 178.523 184.132C178.691 183.964 178.891 183.881 179.124 183.881C179.357 183.881 179.557 183.964 179.725 184.132C179.892 184.297 179.976 184.496 179.976 184.729C179.976 184.885 179.936 185.028 179.857 185.159C179.78 185.287 179.678 185.389 179.55 185.466C179.422 185.543 179.28 185.581 179.124 185.581ZM181.426 185.5V184.545L184.379 181.486C184.694 181.153 184.954 180.862 185.159 180.612C185.366 180.359 185.521 180.119 185.623 179.892C185.726 179.665 185.777 179.423 185.777 179.168C185.777 178.878 185.709 178.628 185.572 178.418C185.436 178.205 185.25 178.041 185.014 177.928C184.778 177.811 184.513 177.753 184.217 177.753C183.905 177.753 183.632 177.817 183.399 177.945C183.166 178.072 182.987 178.253 182.862 178.486C182.737 178.719 182.674 178.991 182.674 179.304H181.417C181.417 178.773 181.54 178.308 181.784 177.911C182.028 177.513 182.363 177.205 182.79 176.986C183.216 176.764 183.7 176.653 184.243 176.653C184.791 176.653 185.274 176.763 185.692 176.982C186.112 177.197 186.44 177.493 186.676 177.868C186.912 178.24 187.03 178.661 187.03 179.129C187.03 179.453 186.969 179.77 186.846 180.08C186.727 180.389 186.518 180.734 186.22 181.115C185.922 181.493 185.507 181.952 184.976 182.491L183.241 184.307V184.371H187.17V185.5H181.426ZM191.584 185.619C190.998 185.619 190.476 185.518 190.015 185.317C189.558 185.115 189.196 184.835 188.929 184.477C188.665 184.116 188.523 183.699 188.503 183.224H189.841C189.858 183.483 189.944 183.707 190.101 183.898C190.26 184.085 190.467 184.23 190.723 184.332C190.979 184.435 191.263 184.486 191.575 184.486C191.919 184.486 192.223 184.426 192.487 184.307C192.754 184.187 192.963 184.021 193.113 183.808C193.264 183.592 193.339 183.344 193.339 183.062C193.339 182.77 193.264 182.513 193.113 182.291C192.966 182.067 192.748 181.891 192.461 181.763C192.177 181.635 191.834 181.571 191.43 181.571H190.693V180.497H191.43C191.754 180.497 192.038 180.439 192.282 180.322C192.53 180.206 192.723 180.044 192.862 179.837C193.001 179.626 193.071 179.381 193.071 179.099C193.071 178.83 193.01 178.595 192.888 178.396C192.768 178.195 192.598 178.037 192.376 177.923C192.157 177.81 191.899 177.753 191.601 177.753C191.317 177.753 191.051 177.805 190.804 177.911C190.559 178.013 190.361 178.161 190.207 178.354C190.054 178.544 189.971 178.773 189.96 179.04H188.686C188.7 178.568 188.839 178.153 189.104 177.795C189.371 177.437 189.723 177.158 190.16 176.956C190.598 176.754 191.084 176.653 191.618 176.653C192.177 176.653 192.66 176.763 193.067 176.982C193.476 177.197 193.791 177.486 194.013 177.847C194.237 178.207 194.348 178.602 194.345 179.031C194.348 179.52 194.211 179.935 193.936 180.276C193.663 180.616 193.3 180.845 192.845 180.962V181.03C193.425 181.118 193.873 181.348 194.192 181.72C194.513 182.092 194.672 182.554 194.669 183.105C194.672 183.585 194.538 184.016 194.268 184.396C194.001 184.777 193.636 185.077 193.173 185.295C192.71 185.511 192.18 185.619 191.584 185.619ZM196.04 185.5V184.545L198.993 181.486C199.308 181.153 199.568 180.862 199.773 180.612C199.98 180.359 200.135 180.119 200.237 179.892C200.339 179.665 200.39 179.423 200.39 179.168C200.39 178.878 200.322 178.628 200.186 178.418C200.05 178.205 199.864 178.041 199.628 177.928C199.392 177.811 199.126 177.753 198.831 177.753C198.518 177.753 198.246 177.817 198.013 177.945C197.78 178.072 197.601 178.253 197.476 178.486C197.351 178.719 197.288 178.991 197.288 179.304H196.031C196.031 178.773 196.153 178.308 196.398 177.911C196.642 177.513 196.977 177.205 197.403 176.986C197.829 176.764 198.314 176.653 198.856 176.653C199.405 176.653 199.888 176.763 200.305 176.982C200.726 177.197 201.054 177.493 201.29 177.868C201.525 178.24 201.643 178.661 201.643 179.129C201.643 179.453 201.582 179.77 201.46 180.08C201.341 180.389 201.132 180.734 200.834 181.115C200.535 181.493 200.121 181.952 199.589 182.491L197.855 184.307V184.371H201.784V185.5H196.04Z" fill="white"/>
<rect x="87.5" y="197" width="3" height="16" rx="1.5" fill="#ECAC31"/>
<path d="M98.5568 209V200.273H101.608C102.216 200.273 102.717 200.378 103.112 200.588C103.507 200.795 103.801 201.075 103.994 201.428C104.188 201.777 104.284 202.165 104.284 202.591C104.284 202.966 104.217 203.276 104.084 203.52C103.953 203.764 103.78 203.957 103.564 204.099C103.351 204.241 103.119 204.347 102.869 204.415V204.5C103.136 204.517 103.405 204.611 103.675 204.781C103.945 204.952 104.17 205.196 104.352 205.514C104.534 205.832 104.625 206.222 104.625 206.682C104.625 207.119 104.526 207.513 104.327 207.862C104.128 208.212 103.814 208.489 103.385 208.693C102.956 208.898 102.398 209 101.71 209H98.5568ZM99.6136 208.062H101.71C102.401 208.062 102.891 207.929 103.18 207.662C103.473 207.392 103.619 207.065 103.619 206.682C103.619 206.386 103.544 206.114 103.393 205.864C103.243 205.611 103.028 205.409 102.75 205.259C102.472 205.105 102.142 205.028 101.761 205.028H99.6136V208.062ZM99.6136 204.108H101.574C101.892 204.108 102.179 204.045 102.435 203.92C102.693 203.795 102.898 203.619 103.048 203.392C103.202 203.165 103.278 202.898 103.278 202.591C103.278 202.207 103.145 201.882 102.878 201.615C102.611 201.345 102.188 201.21 101.608 201.21H99.6136V204.108ZM105.764 201.21V200.273H112.31V201.21H109.565V209H108.509V201.21H105.764ZM120.48 203H119.423C119.361 202.696 119.251 202.429 119.095 202.199C118.942 201.969 118.754 201.776 118.533 201.619C118.314 201.46 118.071 201.341 117.804 201.261C117.537 201.182 117.259 201.142 116.969 201.142C116.44 201.142 115.962 201.276 115.533 201.543C115.107 201.81 114.767 202.203 114.514 202.723C114.264 203.243 114.139 203.881 114.139 204.636C114.139 205.392 114.264 206.03 114.514 206.55C114.767 207.07 115.107 207.463 115.533 207.73C115.962 207.997 116.44 208.131 116.969 208.131C117.259 208.131 117.537 208.091 117.804 208.011C118.071 207.932 118.314 207.814 118.533 207.658C118.754 207.499 118.942 207.304 119.095 207.074C119.251 206.841 119.361 206.574 119.423 206.273H120.48C120.401 206.719 120.256 207.118 120.046 207.47C119.835 207.822 119.574 208.122 119.261 208.369C118.949 208.614 118.598 208.8 118.209 208.928C117.823 209.055 117.409 209.119 116.969 209.119C116.224 209.119 115.563 208.938 114.983 208.574C114.403 208.21 113.948 207.693 113.615 207.023C113.283 206.352 113.117 205.557 113.117 204.636C113.117 203.716 113.283 202.92 113.615 202.25C113.948 201.58 114.403 201.062 114.983 200.699C115.563 200.335 116.224 200.153 116.969 200.153C117.409 200.153 117.823 200.217 118.209 200.345C118.598 200.473 118.949 200.661 119.261 200.908C119.574 201.152 119.835 201.45 120.046 201.803C120.256 202.152 120.401 202.551 120.48 203Z" fill="#ACB5BB"/>
<path d="M163.378 209.645C162.705 209.642 162.129 209.464 161.652 209.112C161.175 208.76 160.81 208.247 160.557 207.574C160.304 206.901 160.178 206.089 160.178 205.141C160.178 204.195 160.304 203.386 160.557 202.716C160.813 202.045 161.179 201.534 161.656 201.182C162.136 200.83 162.71 200.653 163.378 200.653C164.045 200.653 164.618 200.831 165.095 201.186C165.572 201.538 165.938 202.05 166.19 202.72C166.446 203.388 166.574 204.195 166.574 205.141C166.574 206.092 166.447 206.905 166.195 207.578C165.942 208.249 165.577 208.761 165.099 209.116C164.622 209.469 164.048 209.645 163.378 209.645ZM163.378 208.507C163.969 208.507 164.43 208.219 164.763 207.642C165.098 207.065 165.266 206.232 165.266 205.141C165.266 204.416 165.189 203.804 165.036 203.304C164.885 202.801 164.668 202.42 164.384 202.162C164.102 201.901 163.767 201.77 163.378 201.77C162.79 201.77 162.328 202.06 161.993 202.639C161.658 203.219 161.489 204.053 161.486 205.141C161.486 205.868 161.561 206.483 161.712 206.986C161.865 207.486 162.082 207.865 162.364 208.124C162.645 208.379 162.983 208.507 163.378 208.507ZM168.386 209.581C168.153 209.581 167.952 209.499 167.785 209.334C167.617 209.166 167.533 208.964 167.533 208.729C167.533 208.496 167.617 208.297 167.785 208.132C167.952 207.964 168.153 207.881 168.386 207.881C168.619 207.881 168.819 207.964 168.987 208.132C169.154 208.297 169.238 208.496 169.238 208.729C169.238 208.885 169.198 209.028 169.119 209.159C169.042 209.287 168.94 209.389 168.812 209.466C168.684 209.543 168.542 209.581 168.386 209.581ZM173.41 209.645C172.736 209.642 172.161 209.464 171.684 209.112C171.206 208.76 170.841 208.247 170.589 207.574C170.336 206.901 170.209 206.089 170.209 205.141C170.209 204.195 170.336 203.386 170.589 202.716C170.844 202.045 171.211 201.534 171.688 201.182C172.168 200.83 172.742 200.653 173.41 200.653C174.077 200.653 174.65 200.831 175.127 201.186C175.604 201.538 175.969 202.05 176.222 202.72C176.478 203.388 176.606 204.195 176.606 205.141C176.606 206.092 176.479 206.905 176.226 207.578C175.973 208.249 175.608 208.761 175.131 209.116C174.654 209.469 174.08 209.645 173.41 209.645ZM173.41 208.507C174 208.507 174.462 208.219 174.795 207.642C175.13 207.065 175.297 206.232 175.297 205.141C175.297 204.416 175.221 203.804 175.067 203.304C174.917 202.801 174.699 202.42 174.415 202.162C174.134 201.901 173.799 201.77 173.41 201.77C172.821 201.77 172.36 202.06 172.025 202.639C171.689 203.219 171.52 204.053 171.518 205.141C171.518 205.868 171.593 206.483 171.743 206.986C171.897 207.486 172.114 207.865 172.395 208.124C172.677 208.379 173.015 208.507 173.41 208.507ZM180.916 209.619C180.33 209.619 179.808 209.518 179.347 209.317C178.89 209.115 178.528 208.835 178.261 208.477C177.997 208.116 177.855 207.699 177.835 207.224H179.173C179.19 207.483 179.276 207.707 179.433 207.898C179.592 208.085 179.799 208.23 180.055 208.332C180.311 208.435 180.595 208.486 180.907 208.486C181.251 208.486 181.555 208.426 181.819 208.307C182.086 208.187 182.295 208.021 182.445 207.808C182.596 207.592 182.671 207.344 182.671 207.062C182.671 206.77 182.596 206.513 182.445 206.291C182.298 206.067 182.08 205.891 181.793 205.763C181.509 205.635 181.166 205.571 180.762 205.571H180.025V204.497H180.762C181.086 204.497 181.37 204.439 181.615 204.322C181.862 204.206 182.055 204.044 182.194 203.837C182.333 203.626 182.403 203.381 182.403 203.099C182.403 202.83 182.342 202.595 182.22 202.396C182.1 202.195 181.93 202.037 181.708 201.923C181.49 201.81 181.231 201.753 180.933 201.753C180.649 201.753 180.383 201.805 180.136 201.911C179.892 202.013 179.693 202.161 179.539 202.354C179.386 202.544 179.303 202.773 179.292 203.04H178.018C178.032 202.568 178.171 202.153 178.436 201.795C178.703 201.437 179.055 201.158 179.492 200.956C179.93 200.754 180.416 200.653 180.95 200.653C181.509 200.653 181.992 200.763 182.399 200.982C182.808 201.197 183.123 201.486 183.345 201.847C183.569 202.207 183.68 202.602 183.677 203.031C183.68 203.52 183.543 203.935 183.268 204.276C182.995 204.616 182.632 204.845 182.177 204.962V205.03C182.757 205.118 183.205 205.348 183.524 205.72C183.845 206.092 184.004 206.554 184.001 207.105C184.004 207.585 183.87 208.016 183.6 208.396C183.333 208.777 182.968 209.077 182.505 209.295C182.042 209.511 181.512 209.619 180.916 209.619ZM188.683 200.773V209.5H187.362V202.094H187.311L185.223 203.457V202.196L187.4 200.773H188.683ZM193.842 209.619C193.257 209.619 192.734 209.518 192.274 209.317C191.816 209.115 191.454 208.835 191.187 208.477C190.923 208.116 190.781 207.699 190.761 207.224H192.099C192.116 207.483 192.203 207.707 192.359 207.898C192.518 208.085 192.725 208.23 192.981 208.332C193.237 208.435 193.521 208.486 193.833 208.486C194.177 208.486 194.481 208.426 194.745 208.307C195.012 208.187 195.221 208.021 195.372 207.808C195.522 207.592 195.598 207.344 195.598 207.062C195.598 206.77 195.522 206.513 195.372 206.291C195.224 206.067 195.007 205.891 194.72 205.763C194.436 205.635 194.092 205.571 193.688 205.571H192.951V204.497H193.688C194.012 204.497 194.296 204.439 194.541 204.322C194.788 204.206 194.981 204.044 195.12 203.837C195.26 203.626 195.329 203.381 195.329 203.099C195.329 202.83 195.268 202.595 195.146 202.396C195.027 202.195 194.856 202.037 194.635 201.923C194.416 201.81 194.157 201.753 193.859 201.753C193.575 201.753 193.309 201.805 193.062 201.911C192.818 202.013 192.619 202.161 192.465 202.354C192.312 202.544 192.23 202.773 192.218 203.04H190.944C190.958 202.568 191.098 202.153 191.362 201.795C191.629 201.437 191.981 201.158 192.419 200.956C192.856 200.754 193.342 200.653 193.876 200.653C194.436 200.653 194.919 200.763 195.325 200.982C195.734 201.197 196.049 201.486 196.271 201.847C196.495 202.207 196.606 202.602 196.603 203.031C196.606 203.52 196.47 203.935 196.194 204.276C195.921 204.616 195.558 204.845 195.103 204.962V205.03C195.683 205.118 196.132 205.348 196.45 205.72C196.771 206.092 196.93 206.554 196.927 207.105C196.93 207.585 196.796 208.016 196.527 208.396C196.26 208.777 195.894 209.077 195.431 209.295C194.968 209.511 194.438 209.619 193.842 209.619ZM201.609 200.773V209.5H200.288V202.094H200.237L198.149 203.457V202.196L200.326 200.773H201.609Z" fill="white"/>
</g>
<path d="M78 150C78 147.157 78.0011 145.076 78.2152 143.483C78.4274 141.905 78.8406 140.881 79.6109 140.111C80.3812 139.341 81.4046 138.927 82.983 138.715C84.5758 138.501 86.6574 138.5 89.5 138.5H213V212C213 214.843 212.999 216.924 212.785 218.517C212.573 220.095 212.159 221.119 211.389 221.889C210.619 222.659 209.595 223.073 208.017 223.285C206.424 223.499 204.343 223.5 201.5 223.5H89.5C86.6574 223.5 84.5758 223.499 82.983 223.285C81.4046 223.073 80.3812 222.659 79.6109 221.889C78.8406 221.119 78.4274 220.095 78.2152 218.517C78.0011 216.924 78 214.843 78 212V150Z" stroke="#44444A"/>
</g>
</g>
<path d="M20 422H307" stroke="#44444A"/>
<rect x="43" y="422" width="1" height="6" fill="#44444A"/>
<path d="M24.0489 437.21V436.273H30.5944V437.21H27.8501V445H26.7932V437.21H24.0489ZM35.2034 442.324V438.455H36.2091V445H35.2034V443.892H35.1352C34.9818 444.224 34.7432 444.507 34.4193 444.74C34.0955 444.97 33.6864 445.085 33.1921 445.085C32.783 445.085 32.4193 444.996 32.1012 444.817C31.783 444.635 31.533 444.362 31.3512 443.999C31.1693 443.632 31.0784 443.17 31.0784 442.614V438.455H32.0841V442.545C32.0841 443.023 32.2176 443.403 32.4847 443.688C32.7546 443.972 33.0983 444.114 33.5159 444.114C33.7659 444.114 34.0202 444.05 34.2787 443.922C34.5401 443.794 34.7588 443.598 34.935 443.334C35.1139 443.07 35.2034 442.733 35.2034 442.324ZM40.6754 445.136C40.0447 445.136 39.5007 444.997 39.0433 444.719C38.5888 444.438 38.2379 444.045 37.9907 443.543C37.7464 443.037 37.6243 442.449 37.6243 441.778C37.6243 441.108 37.7464 440.517 37.9907 440.006C38.2379 439.491 38.5817 439.091 39.022 438.804C39.4652 438.514 39.9822 438.369 40.5731 438.369C40.914 438.369 41.2507 438.426 41.5831 438.54C41.9155 438.653 42.218 438.838 42.4907 439.094C42.7635 439.347 42.9808 439.682 43.1427 440.099C43.3047 440.517 43.3856 441.031 43.3856 441.642V442.068H38.3402V441.199H42.3629C42.3629 440.83 42.289 440.5 42.1413 440.21C41.9964 439.92 41.789 439.692 41.5192 439.524C41.2521 439.357 40.9368 439.273 40.5731 439.273C40.1726 439.273 39.826 439.372 39.5334 439.571C39.2436 439.767 39.0206 440.023 38.8643 440.338C38.7081 440.653 38.6299 440.991 38.6299 441.352V441.932C38.6299 442.426 38.7152 442.845 38.8856 443.189C39.0589 443.53 39.299 443.79 39.6058 443.969C39.9126 444.145 40.2692 444.233 40.6754 444.233C40.9396 444.233 41.1782 444.196 41.3913 444.122C41.6072 444.045 41.7933 443.932 41.9495 443.781C42.1058 443.628 42.2265 443.437 42.3118 443.21L43.2834 443.483C43.1811 443.812 43.0092 444.102 42.7677 444.352C42.5263 444.599 42.228 444.793 41.8728 444.932C41.5177 445.068 41.1186 445.136 40.6754 445.136ZM46.2955 443.807L46.2273 444.267C46.179 444.591 46.1051 444.938 46.0057 445.307C45.9091 445.676 45.8082 446.024 45.7031 446.351C45.598 446.678 45.5114 446.938 45.4432 447.131H44.6761C44.7131 446.949 44.7614 446.709 44.821 446.411C44.8807 446.112 44.9403 445.778 45 445.409C45.0625 445.043 45.1136 444.668 45.1534 444.284L45.2045 443.807H46.2955ZM54.3449 436.273V445H53.2881V437.381H53.2369L51.1062 438.795V437.722L53.2881 436.273H54.3449ZM56.5303 443.21V442.341L60.3655 436.273H60.9962V437.619H60.57L57.6723 442.205V442.273H62.8371V443.21H56.5303ZM60.6382 445V442.946V442.541V436.273H61.6439V445H60.6382Z" fill="#ACB5BB"/>
<rect x="123" y="422" width="1" height="6" fill="#44444A"/>
<path d="M104.084 445L101.698 436.273H102.772L104.595 443.381H104.681L106.539 436.273H107.732L109.59 443.381H109.675L111.499 436.273H112.573L110.186 445H109.095L107.169 438.045H107.101L105.175 445H104.084ZM115.768 445.136C115.137 445.136 114.593 444.997 114.136 444.719C113.681 444.438 113.331 444.045 113.083 443.543C112.839 443.037 112.717 442.449 112.717 441.778C112.717 441.108 112.839 440.517 113.083 440.006C113.331 439.491 113.674 439.091 114.115 438.804C114.558 438.514 115.075 438.369 115.666 438.369C116.007 438.369 116.343 438.426 116.676 438.54C117.008 438.653 117.311 438.838 117.583 439.094C117.856 439.347 118.073 439.682 118.235 440.099C118.397 440.517 118.478 441.031 118.478 441.642V442.068H113.433V441.199H117.456C117.456 440.83 117.382 440.5 117.234 440.21C117.089 439.92 116.882 439.692 116.612 439.524C116.345 439.357 116.029 439.273 115.666 439.273C115.265 439.273 114.919 439.372 114.626 439.571C114.336 439.767 114.113 440.023 113.957 440.338C113.801 440.653 113.723 440.991 113.723 441.352V441.932C113.723 442.426 113.808 442.845 113.978 443.189C114.152 443.53 114.392 443.79 114.698 443.969C115.005 444.145 115.362 444.233 115.768 444.233C116.032 444.233 116.271 444.196 116.484 444.122C116.7 444.045 116.886 443.932 117.042 443.781C117.198 443.628 117.319 443.437 117.404 443.21L118.376 443.483C118.274 443.812 118.102 444.102 117.86 444.352C117.619 444.599 117.321 444.793 116.965 444.932C116.61 445.068 116.211 445.136 115.768 445.136ZM122.36 445.136C121.814 445.136 121.333 444.999 120.915 444.723C120.497 444.445 120.171 444.053 119.935 443.547C119.699 443.038 119.581 442.438 119.581 441.744C119.581 441.057 119.699 440.46 119.935 439.955C120.171 439.449 120.499 439.058 120.919 438.783C121.34 438.507 121.826 438.369 122.377 438.369C122.803 438.369 123.14 438.44 123.387 438.582C123.637 438.722 123.827 438.881 123.958 439.06C124.091 439.236 124.195 439.381 124.269 439.494H124.354V436.273H125.36V445H124.388V443.994H124.269C124.195 444.114 124.09 444.264 123.953 444.446C123.817 444.625 123.622 444.786 123.37 444.928C123.117 445.067 122.78 445.136 122.36 445.136ZM122.496 444.233C122.899 444.233 123.24 444.128 123.519 443.918C123.797 443.705 124.009 443.411 124.154 443.036C124.299 442.658 124.371 442.222 124.371 441.727C124.371 441.239 124.3 440.811 124.158 440.445C124.016 440.075 123.806 439.788 123.527 439.584C123.249 439.376 122.905 439.273 122.496 439.273C122.07 439.273 121.715 439.382 121.431 439.601C121.149 439.817 120.938 440.111 120.796 440.483C120.657 440.852 120.587 441.267 120.587 441.727C120.587 442.193 120.658 442.616 120.8 442.997C120.945 443.375 121.158 443.676 121.439 443.901C121.723 444.122 122.076 444.233 122.496 444.233ZM128.721 443.807L128.653 444.267C128.605 444.591 128.531 444.938 128.431 445.307C128.335 445.676 128.234 446.024 128.129 446.351C128.024 446.678 127.937 446.938 127.869 447.131H127.102C127.139 446.949 127.187 446.709 127.247 446.411C127.306 446.112 127.366 445.778 127.426 445.409C127.488 445.043 127.539 444.668 127.579 444.284L127.63 443.807H128.721ZM136.771 436.273V445H135.714V437.381H135.663L133.532 438.795V437.722L135.714 436.273H136.771ZM141.888 445.119C141.388 445.119 140.938 445.02 140.537 444.821C140.136 444.622 139.815 444.349 139.574 444.003C139.332 443.656 139.2 443.261 139.178 442.818H140.2C140.24 443.213 140.419 443.54 140.737 443.798C141.058 444.054 141.442 444.182 141.888 444.182C142.246 444.182 142.564 444.098 142.842 443.93C143.124 443.763 143.344 443.533 143.503 443.24C143.665 442.945 143.746 442.611 143.746 442.239C143.746 441.858 143.662 441.518 143.494 441.22C143.33 440.919 143.102 440.682 142.813 440.509C142.523 440.335 142.192 440.247 141.82 440.244C141.553 440.241 141.278 440.283 140.997 440.368C140.716 440.45 140.484 440.557 140.303 440.688L139.314 440.568L139.842 436.273H144.377V437.21H140.729L140.422 439.784H140.473C140.652 439.642 140.877 439.524 141.146 439.43C141.416 439.337 141.698 439.29 141.99 439.29C142.524 439.29 143 439.418 143.418 439.673C143.838 439.926 144.168 440.273 144.406 440.713C144.648 441.153 144.769 441.656 144.769 442.222C144.769 442.778 144.644 443.276 144.394 443.713C144.146 444.148 143.805 444.491 143.371 444.744C142.936 444.994 142.442 445.119 141.888 445.119Z" fill="#ACB5BB"/>
<rect x="203" y="422" width="1" height="6" fill="#44444A"/>
<path d="M183.656 437.21V436.273H190.202V437.21H187.457V445H186.401V437.21H183.656ZM192.582 441.062V445H191.576V436.273H192.582V439.477H192.667C192.821 439.139 193.051 438.871 193.358 438.672C193.667 438.47 194.079 438.369 194.594 438.369C195.04 438.369 195.43 438.459 195.765 438.638C196.101 438.814 196.361 439.085 196.545 439.452C196.733 439.815 196.826 440.278 196.826 440.841V445H195.821V440.909C195.821 440.389 195.686 439.987 195.416 439.703C195.149 439.416 194.778 439.273 194.304 439.273C193.974 439.273 193.679 439.342 193.417 439.482C193.159 439.621 192.954 439.824 192.804 440.091C192.656 440.358 192.582 440.682 192.582 441.062ZM202.671 442.324V438.455H203.677V445H202.671V443.892H202.603C202.45 444.224 202.211 444.507 201.887 444.74C201.563 444.97 201.154 445.085 200.66 445.085C200.251 445.085 199.887 444.996 199.569 444.817C199.251 444.635 199.001 444.362 198.819 443.999C198.637 443.632 198.546 443.17 198.546 442.614V438.455H199.552V442.545C199.552 443.023 199.686 443.403 199.953 443.688C200.222 443.972 200.566 444.114 200.984 444.114C201.234 444.114 201.488 444.05 201.747 443.922C202.008 443.794 202.227 443.598 202.403 443.334C202.582 443.07 202.671 442.733 202.671 442.324ZM206.899 443.807L206.831 444.267C206.782 444.591 206.709 444.938 206.609 445.307C206.513 445.676 206.412 446.024 206.307 446.351C206.202 446.678 206.115 446.938 206.047 447.131H205.28C205.317 446.949 205.365 446.709 205.425 446.411C205.484 446.112 205.544 445.778 205.604 445.409C205.666 445.043 205.717 444.668 205.757 444.284L205.808 443.807H206.899ZM214.948 436.273V445H213.892V437.381H213.84L211.71 438.795V437.722L213.892 436.273H214.948ZM220.236 445.119C219.878 445.114 219.52 445.045 219.162 444.915C218.804 444.784 218.478 444.564 218.182 444.254C217.887 443.942 217.649 443.52 217.47 442.989C217.291 442.455 217.202 441.784 217.202 440.977C217.202 440.205 217.274 439.52 217.419 438.923C217.564 438.324 217.774 437.82 218.05 437.411C218.326 436.999 218.658 436.686 219.047 436.473C219.439 436.26 219.881 436.153 220.372 436.153C220.861 436.153 221.296 436.251 221.676 436.447C222.06 436.641 222.372 436.911 222.614 437.257C222.855 437.604 223.012 438.003 223.083 438.455H222.043C221.946 438.062 221.759 437.737 221.48 437.479C221.202 437.22 220.833 437.091 220.372 437.091C219.696 437.091 219.164 437.385 218.774 437.973C218.388 438.561 218.193 439.386 218.191 440.449H218.259C218.418 440.207 218.607 440.001 218.826 439.831C219.047 439.658 219.291 439.524 219.559 439.43C219.826 439.337 220.108 439.29 220.407 439.29C220.907 439.29 221.364 439.415 221.779 439.665C222.193 439.912 222.526 440.254 222.776 440.692C223.026 441.126 223.151 441.625 223.151 442.188C223.151 442.727 223.03 443.222 222.789 443.67C222.547 444.116 222.208 444.472 221.77 444.736C221.335 444.997 220.824 445.125 220.236 445.119ZM220.236 444.182C220.594 444.182 220.915 444.092 221.199 443.913C221.486 443.734 221.712 443.494 221.877 443.193C222.044 442.892 222.128 442.557 222.128 442.188C222.128 441.827 222.047 441.499 221.885 441.203C221.726 440.905 221.506 440.668 221.225 440.491C220.946 440.315 220.628 440.227 220.27 440.227C220 440.227 219.749 440.281 219.516 440.389C219.283 440.494 219.078 440.639 218.902 440.824C218.729 441.009 218.593 441.22 218.493 441.459C218.394 441.695 218.344 441.943 218.344 442.205C218.344 442.551 218.425 442.875 218.587 443.176C218.752 443.477 218.976 443.72 219.26 443.905C219.547 444.089 219.872 444.182 220.236 444.182Z" fill="#ACB5BB"/>
<rect x="283" y="422" width="1" height="6" fill="#44444A"/>
<path d="M268.188 445V436.273H273.421V437.21H269.245V440.159H273.029V441.097H269.245V445H268.188ZM274.905 445V438.455H275.876V439.443H275.944C276.064 439.119 276.28 438.857 276.592 438.655C276.905 438.453 277.257 438.352 277.649 438.352C277.723 438.352 277.815 438.354 277.926 438.357C278.037 438.359 278.121 438.364 278.177 438.369V439.392C278.143 439.384 278.065 439.371 277.943 439.354C277.824 439.334 277.697 439.324 277.564 439.324C277.246 439.324 276.961 439.391 276.711 439.524C276.464 439.655 276.268 439.837 276.123 440.07C275.981 440.3 275.91 440.562 275.91 440.858V445H274.905ZM279.249 445V438.455H280.255V445H279.249ZM279.761 437.364C279.565 437.364 279.396 437.297 279.254 437.163C279.114 437.03 279.045 436.869 279.045 436.682C279.045 436.494 279.114 436.334 279.254 436.2C279.396 436.067 279.565 436 279.761 436C279.957 436 280.124 436.067 280.264 436.2C280.406 436.334 280.477 436.494 280.477 436.682C280.477 436.869 280.406 437.03 280.264 437.163C280.124 437.297 279.957 437.364 279.761 437.364ZM283.477 443.807L283.409 444.267C283.361 444.591 283.287 444.938 283.187 445.307C283.091 445.676 282.99 446.024 282.885 446.351C282.78 446.678 282.693 446.938 282.625 447.131H281.858C281.895 446.949 281.943 446.709 282.003 446.411C282.062 446.112 282.122 445.778 282.182 445.409C282.244 445.043 282.295 444.668 282.335 444.284L282.386 443.807H283.477ZM291.527 436.273V445H290.47V437.381H290.419L288.288 438.795V437.722L290.47 436.273H291.527ZM294.189 445L298.093 437.278V437.21H293.593V436.273H299.184V437.261L295.297 445H294.189Z" fill="#ACB5BB"/>
</g>
<rect x="0.5" y="0.5" width="326" height="469" rx="9.5" stroke="#2C2C30"/>
<defs>
<filter id="filter0_d_9685_40873" x="13" y="55" width="233" height="44" filterUnits="userSpaceOnUse" color-interpolation-filters="sRGB">
<feFlood flood-opacity="0" result="BackgroundImageFix"/>
<feColorMatrix in="SourceAlpha" type="matrix" values="0 0 0 0 0 0 0 0 0 0 0 0 0 0 0 0 0 0 127 0" result="hardAlpha"/>
<feMorphology radius="3" operator="erode" in="SourceAlpha" result="effect1_dropShadow_9685_40873"/>
<feOffset dy="6"/>
<feGaussianBlur stdDeviation="5"/>
<feComposite in2="hardAlpha" operator="out"/>
<feColorMatrix type="matrix" values="0 0 0 0 0 0 0 0 0 0 0 0 0 0 0 0 0 0 0.25 0"/>
<feBlend mode="normal" in2="BackgroundImageFix" result="effect1_dropShadow_9685_40873"/>
<feBlend mode="normal" in="SourceGraphic" in2="effect1_dropShadow_9685_40873" result="shape"/>
</filter>
<filter id="filter1_di_9685_40873" x="70.75" y="55" width="63.75" height="40" filterUnits="userSpaceOnUse" color-interpolation-filters="sRGB">
<feFlood flood-opacity="0" result="BackgroundImageFix"/>
<feColorMatrix in="SourceAlpha" type="matrix" values="0 0 0 0 0 0 0 0 0 0 0 0 0 0 0 0 0 0 127 0" result="hardAlpha"/>
<feMorphology radius="3" operator="erode" in="SourceAlpha" result="effect1_dropShadow_9685_40873"/>
<feOffset dy="6"/>
<feGaussianBlur stdDeviation="5"/>
<feComposite in2="hardAlpha" operator="out"/>
<feColorMatrix type="matrix" values="0 0 0 0 0 0 0 0 0 0 0 0 0 0 0 0 0 0 0.25 0"/>
<feBlend mode="normal" in2="BackgroundImageFix" result="effect1_dropShadow_9685_40873"/>
<feBlend mode="normal" in="SourceGraphic" in2="effect1_dropShadow_9685_40873" result="shape"/>
<feColorMatrix in="SourceAlpha" type="matrix" values="0 0 0 0 0 0 0 0 0 0 0 0 0 0 0 0 0 0 127 0" result="hardAlpha"/>
<feOffset dy="-5"/>
<feGaussianBlur stdDeviation="5"/>
<feComposite in2="hardAlpha" operator="arithmetic" k2="-1" k3="1"/>
<feColorMatrix type="matrix" values="0 0 0 0 1 0 0 0 0 1 0 0 0 0 1 0 0 0 0.1 0"/>
<feBlend mode="normal" in2="shape" result="effect2_innerShadow_9685_40873"/>
</filter>
<filter id="filter2_d_9685_40873" x="244" y="55" width="70" height="44" filterUnits="userSpaceOnUse" color-interpolation-filters="sRGB">
<feFlood flood-opacity="0" result="BackgroundImageFix"/>
<feColorMatrix in="SourceAlpha" type="matrix" values="0 0 0 0 0 0 0 0 0 0 0 0 0 0 0 0 0 0 127 0" result="hardAlpha"/>
<feMorphology radius="3" operator="erode" in="SourceAlpha" result="effect1_dropShadow_9685_40873"/>
<feOffset dy="6"/>
<feGaussianBlur stdDeviation="5"/>
<feComposite in2="hardAlpha" operator="out"/>
<feColorMatrix type="matrix" values="0 0 0 0 0 0 0 0 0 0 0 0 0 0 0 0 0 0 0.25 0"/>
<feBlend mode="normal" in2="BackgroundImageFix" result="effect1_dropShadow_9685_40873"/>
<feBlend mode="normal" in="SourceGraphic" in2="effect1_dropShadow_9685_40873" result="shape"/>
</filter>
<filter id="filter3_di_9685_40873" x="248" y="55" width="36" height="40" filterUnits="userSpaceOnUse" color-interpolation-filters="sRGB">
<feFlood flood-opacity="0" result="BackgroundImageFix"/>
<feColorMatrix in="SourceAlpha" type="matrix" values="0 0 0 0 0 0 0 0 0 0 0 0 0 0 0 0 0 0 127 0" result="hardAlpha"/>
<feMorphology radius="3" operator="erode" in="SourceAlpha" result="effect1_dropShadow_9685_40873"/>
<feOffset dy="6"/>
<feGaussianBlur stdDeviation="5"/>
<feComposite in2="hardAlpha" operator="out"/>
<feColorMatrix type="matrix" values="0 0 0 0 0 0 0 0 0 0 0 0 0 0 0 0 0 0 0.25 0"/>
<feBlend mode="normal" in2="BackgroundImageFix" result="effect1_dropShadow_9685_40873"/>
<feBlend mode="normal" in="SourceGraphic" in2="effect1_dropShadow_9685_40873" result="shape"/>
<feColorMatrix in="SourceAlpha" type="matrix" values="0 0 0 0 0 0 0 0 0 0 0 0 0 0 0 0 0 0 127 0" result="hardAlpha"/>
<feOffset dy="-5"/>
<feGaussianBlur stdDeviation="5"/>
<feComposite in2="hardAlpha" operator="arithmetic" k2="-1" k3="1"/>
<feColorMatrix type="matrix" values="0 0 0 0 1 0 0 0 0 1 0 0 0 0 1 0 0 0 0.1 0"/>
<feBlend mode="normal" in2="shape" result="effect2_innerShadow_9685_40873"/>
</filter>
<filter id="filter4_i_9685_40873" x="214" y="120" width="16" height="20" filterUnits="userSpaceOnUse" color-interpolation-filters="sRGB">
<feFlood flood-opacity="0" result="BackgroundImageFix"/>
<feBlend mode="normal" in="SourceGraphic" in2="BackgroundImageFix" result="shape"/>
<feColorMatrix in="SourceAlpha" type="matrix" values="0 0 0 0 0 0 0 0 0 0 0 0 0 0 0 0 0 0 127 0" result="hardAlpha"/>
<feOffset dy="5"/>
<feGaussianBlur stdDeviation="2"/>
<feComposite in2="hardAlpha" operator="arithmetic" k2="-1" k3="1"/>
<feColorMatrix type="matrix" values="0 0 0 0 1 0 0 0 0 1 0 0 0 0 1 0 0 0 0.45 0"/>
<feBlend mode="normal" in2="shape" result="effect1_innerShadow_9685_40873"/>
</filter>
<filter id="filter5_i_9685_40873" x="214" y="275" width="16" height="20" filterUnits="userSpaceOnUse" color-interpolation-filters="sRGB">
<feFlood flood-opacity="0" result="BackgroundImageFix"/>
<feBlend mode="normal" in="SourceGraphic" in2="BackgroundImageFix" result="shape"/>
<feColorMatrix in="SourceAlpha" type="matrix" values="0 0 0 0 0 0 0 0 0 0 0 0 0 0 0 0 0 0 127 0" result="hardAlpha"/>
<feOffset dy="5"/>
<feGaussianBlur stdDeviation="2"/>
<feComposite in2="hardAlpha" operator="arithmetic" k2="-1" k3="1"/>
<feColorMatrix type="matrix" values="0 0 0 0 1 0 0 0 0 1 0 0 0 0 1 0 0 0 0.45 0"/>
<feBlend mode="normal" in2="shape" result="effect1_innerShadow_9685_40873"/>
</filter>
<filter id="filter6_di_9685_40873" x="70.5" y="134" width="150" height="111" filterUnits="userSpaceOnUse" color-interpolation-filters="sRGB">
<feFlood flood-opacity="0" result="BackgroundImageFix"/>
<feColorMatrix in="SourceAlpha" type="matrix" values="0 0 0 0 0 0 0 0 0 0 0 0 0 0 0 0 0 0 127 0" result="hardAlpha"/>
<feMorphology radius="4" operator="erode" in="SourceAlpha" result="effect1_dropShadow_9685_40873"/>
<feOffset dy="14"/>
<feGaussianBlur stdDeviation="5.5"/>
<feComposite in2="hardAlpha" operator="out"/>
<feColorMatrix type="matrix" values="0 0 0 0 0 0 0 0 0 0 0 0 0 0 0 0 0 0 0.3 0"/>
<feBlend mode="normal" in2="BackgroundImageFix" result="effect1_dropShadow_9685_40873"/>
<feBlend mode="normal" in="SourceGraphic" in2="effect1_dropShadow_9685_40873" result="shape"/>
<feColorMatrix in="SourceAlpha" type="matrix" values="0 0 0 0 0 0 0 0 0 0 0 0 0 0 0 0 0 0 127 0" result="hardAlpha"/>
<feOffset dy="-4"/>
<feGaussianBlur stdDeviation="2"/>
<feComposite in2="hardAlpha" operator="arithmetic" k2="-1" k3="1"/>
<feColorMatrix type="matrix" values="0 0 0 0 0 0 0 0 0 0 0 0 0 0 0 0 0 0 0.04 0"/>
<feBlend mode="normal" in2="shape" result="effect2_innerShadow_9685_40873"/>
</filter>
<filter id="filter7_f_9685_40873" x="13.1641" y="-21.2031" width="236.676" height="224.41" filterUnits="userSpaceOnUse" color-interpolation-filters="sRGB">
<feFlood flood-opacity="0" result="BackgroundImageFix"/>
<feBlend mode="normal" in="SourceGraphic" in2="BackgroundImageFix" result="shape"/>
<feGaussianBlur stdDeviation="32" result="effect1_foregroundBlur_9685_40873"/>
</filter>
<filter id="filter8_f_9685_40873" x="153.164" y="-1.20312" width="236.676" height="224.41" filterUnits="userSpaceOnUse" color-interpolation-filters="sRGB">
<feFlood flood-opacity="0" result="BackgroundImageFix"/>
<feBlend mode="normal" in="SourceGraphic" in2="BackgroundImageFix" result="shape"/>
<feGaussianBlur stdDeviation="32" result="effect1_foregroundBlur_9685_40873"/>
</filter>
<linearGradient id="paint0_linear_9685_40873" x1="129.5" y1="86" x2="129.5" y2="56" gradientUnits="userSpaceOnUse">
<stop stop-color="#26262C"/>
<stop offset="1" stop-color="#44444A"/>
</linearGradient>
<linearGradient id="paint1_linear_9685_40873" x1="279" y1="86" x2="279" y2="56" gradientUnits="userSpaceOnUse">
<stop stop-color="#26262C"/>
<stop offset="1" stop-color="#44444A"/>
</linearGradient>
<linearGradient id="paint2_linear_9685_40873" x1="74.25" y1="122" x2="74.25" y2="336.5" gradientUnits="userSpaceOnUse">
<stop stop-color="#BBB9FD"/>
<stop offset="1" stop-color="#BBB9FD" stop-opacity="0"/>
</linearGradient>
<linearGradient id="paint3_linear_9685_40873" x1="-343.695" y1="103.345" x2="-304.139" y2="386.771" gradientUnits="userSpaceOnUse">
<stop stop-color="#FCA509"/>
<stop offset="1" stop-color="#880306"/>
</linearGradient>
<linearGradient id="paint4_linear_9685_40873" x1="218.132" y1="121.548" x2="229.233" y2="131.007" gradientUnits="userSpaceOnUse">
<stop stop-color="#FCA509"/>
<stop offset="1" stop-color="#880306"/>
</linearGradient>
<linearGradient id="paint5_linear_9685_40873" x1="87.8396" y1="170.677" x2="93.4447" y2="171.573" gradientUnits="userSpaceOnUse">
<stop stop-color="#FCA509"/>
<stop offset="1" stop-color="#880306"/>
</linearGradient>
<clipPath id="clip0_9685_40873">
<rect width="327" height="470" rx="10" fill="white"/>
</clipPath>
<clipPath id="clip1_9685_40873">
<rect x="20" y="56" width="219" height="30" rx="6" fill="white"/>
</clipPath>
<clipPath id="clip2_9685_40873">
<rect x="251" y="56" width="56" height="30" rx="6" fill="white"/>
</clipPath>
<clipPath id="clip3_9685_40873">
<rect width="287" height="296" fill="white" transform="translate(20 106)"/>
</clipPath>
<clipPath id="clip4_9685_40873">
<path d="M77.5 150C77.5 144.343 77.5 141.515 79.2574 139.757C81.0147 138 83.8431 138 89.5 138H213.5V212C213.5 217.657 213.5 220.485 211.743 222.243C209.985 224 207.157 224 201.5 224H89.5C83.8431 224 81.0147 224 79.2574 222.243C77.5 220.485 77.5 217.657 77.5 212V150Z" fill="white"/>
</clipPath>
</defs>
</svg>
