<svg width="320" height="39" viewBox="0 0 320 39" fill="none" xmlns="http://www.w3.org/2000/svg">
<path d="M1.35159 28.6653C1.35159 27.2202 1.61054 26.0883 2.12845 25.2697C2.65471 24.4511 3.52346 24.0418 4.73469 24.0418C5.94592 24.0418 6.81049 24.4511 7.3284 25.2697C7.85466 26.0883 8.11779 27.2202 8.11779 28.6653C8.11779 30.1188 7.85466 31.2591 7.3284 32.086C6.81049 32.913 5.94592 33.3265 4.73469 33.3265C3.52346 33.3265 2.65471 32.913 2.12845 32.086C1.61054 31.2591 1.35159 30.1188 1.35159 28.6653ZM6.38865 28.6653C6.38865 28.0472 6.34688 27.5293 6.26335 27.1116C6.18817 26.6856 6.02946 26.3389 5.78721 26.0716C5.55332 25.8043 5.20248 25.6707 4.73469 25.6707C4.2669 25.6707 3.91189 25.8043 3.66964 26.0716C3.43575 26.3389 3.27703 26.6856 3.1935 27.1116C3.11832 27.5293 3.08073 28.0472 3.08073 28.6653C3.08073 29.3002 3.11832 29.8348 3.1935 30.2692C3.26868 30.6952 3.42739 31.0419 3.66964 31.3092C3.91189 31.5681 4.2669 31.6976 4.73469 31.6976C5.20248 31.6976 5.55749 31.5681 5.79974 31.3092C6.04199 31.0419 6.2007 30.6952 6.27588 30.2692C6.35106 29.8348 6.38865 29.3002 6.38865 28.6653ZM9.25156 26.4601C9.25156 25.8252 9.43533 25.3282 9.80288 24.969C10.1788 24.6098 10.6591 24.4302 11.2438 24.4302C11.8286 24.4302 12.3047 24.6098 12.6722 24.969C13.0481 25.3282 13.2361 25.8252 13.2361 26.4601C13.2361 27.1033 13.0481 27.6045 12.6722 27.9637C12.3047 28.3229 11.8286 28.5025 11.2438 28.5025C10.6591 28.5025 10.1788 28.3229 9.80288 27.9637C9.43533 27.6045 9.25156 27.1033 9.25156 26.4601ZM17.2958 24.5806L12.3715 33.3516H10.6674L15.5792 24.5806H17.2958ZM11.2313 25.4827C10.7719 25.4827 10.5421 25.8085 10.5421 26.4601C10.5421 27.12 10.7719 27.4499 11.2313 27.4499C11.4568 27.4499 11.6323 27.3706 11.7576 27.2119C11.8829 27.0448 11.9455 26.7942 11.9455 26.4601C11.9455 25.8085 11.7074 25.4827 11.2313 25.4827ZM14.7522 31.4595C14.7522 30.8163 14.936 30.3193 15.3035 29.9685C15.6794 29.6093 16.1598 29.4297 16.7445 29.4297C17.3292 29.4297 17.8012 29.6093 18.1604 29.9685C18.5279 30.3193 18.7117 30.8163 18.7117 31.4595C18.7117 32.1027 18.5279 32.6039 18.1604 32.9631C17.8012 33.3223 17.3292 33.5019 16.7445 33.5019C16.1514 33.5019 15.6711 33.3223 15.3035 32.9631C14.936 32.6039 14.7522 32.1027 14.7522 31.4595ZM16.732 30.4822C16.2558 30.4822 16.0178 30.808 16.0178 31.4595C16.0178 32.1194 16.2558 32.4494 16.732 32.4494C17.1998 32.4494 17.4336 32.1194 17.4336 31.4595C17.4336 30.808 17.1998 30.4822 16.732 30.4822Z" fill="white"/>
<g clip-path="url(#clip0_9685_30231)">
<rect x="28.6367" y="22.5859" width="250.6" height="12.53" rx="6.265" fill="white"/>
<rect x="28.6367" y="23.0312" width="51.015" height="12.53" rx="6.265" fill="url(#paint0_linear_9685_30231)"/>
</g>
<path d="M288.639 25.8336V24.2172H291.658V33.3516H289.854V25.8336H288.639ZM293.391 28.6653C293.391 27.2202 293.65 26.0883 294.168 25.2697C294.694 24.4511 295.563 24.0418 296.774 24.0418C297.986 24.0418 298.85 24.4511 299.368 25.2697C299.894 26.0883 300.157 27.2202 300.157 28.6653C300.157 30.1188 299.894 31.2591 299.368 32.086C298.85 32.913 297.986 33.3265 296.774 33.3265C295.563 33.3265 294.694 32.913 294.168 32.086C293.65 31.2591 293.391 30.1188 293.391 28.6653ZM298.428 28.6653C298.428 28.0472 298.387 27.5293 298.303 27.1116C298.228 26.6856 298.069 26.3389 297.827 26.0716C297.593 25.8043 297.242 25.6707 296.774 25.6707C296.307 25.6707 295.952 25.8043 295.709 26.0716C295.475 26.3389 295.317 26.6856 295.233 27.1116C295.158 27.5293 295.12 28.0472 295.12 28.6653C295.12 29.3002 295.158 29.8348 295.233 30.2692C295.308 30.6952 295.467 31.0419 295.709 31.3092C295.952 31.5681 296.307 31.6976 296.774 31.6976C297.242 31.6976 297.597 31.5681 297.839 31.3092C298.082 31.0419 298.24 30.6952 298.316 30.2692C298.391 29.8348 298.428 29.3002 298.428 28.6653ZM301.492 28.6653C301.492 27.2202 301.751 26.0883 302.269 25.2697C302.795 24.4511 303.664 24.0418 304.875 24.0418C306.086 24.0418 306.951 24.4511 307.469 25.2697C307.995 26.0883 308.258 27.2202 308.258 28.6653C308.258 30.1188 307.995 31.2591 307.469 32.086C306.951 32.913 306.086 33.3265 304.875 33.3265C303.664 33.3265 302.795 32.913 302.269 32.086C301.751 31.2591 301.492 30.1188 301.492 28.6653ZM306.529 28.6653C306.529 28.0472 306.487 27.5293 306.403 27.1116C306.328 26.6856 306.17 26.3389 305.927 26.0716C305.693 25.8043 305.343 25.6707 304.875 25.6707C304.407 25.6707 304.052 25.8043 303.81 26.0716C303.576 26.3389 303.417 26.6856 303.334 27.1116C303.258 27.5293 303.221 28.0472 303.221 28.6653C303.221 29.3002 303.258 29.8348 303.334 30.2692C303.409 30.6952 303.568 31.0419 303.81 31.3092C304.052 31.5681 304.407 31.6976 304.875 31.6976C305.343 31.6976 305.698 31.5681 305.94 31.3092C306.182 31.0419 306.341 30.6952 306.416 30.2692C306.491 29.8348 306.529 29.3002 306.529 28.6653ZM309.392 26.4601C309.392 25.8252 309.575 25.3282 309.943 24.969C310.319 24.6098 310.799 24.4302 311.384 24.4302C311.969 24.4302 312.445 24.6098 312.812 24.969C313.188 25.3282 313.376 25.8252 313.376 26.4601C313.376 27.1033 313.188 27.6045 312.812 27.9637C312.445 28.3229 311.969 28.5025 311.384 28.5025C310.799 28.5025 310.319 28.3229 309.943 27.9637C309.575 27.6045 309.392 27.1033 309.392 26.4601ZM317.436 24.5806L312.512 33.3516H310.808L315.719 24.5806H317.436ZM311.371 25.4827C310.912 25.4827 310.682 25.8085 310.682 26.4601C310.682 27.12 310.912 27.4499 311.371 27.4499C311.597 27.4499 311.772 27.3706 311.898 27.2119C312.023 27.0448 312.086 26.7942 312.086 26.4601C312.086 25.8085 311.848 25.4827 311.371 25.4827ZM314.892 31.4595C314.892 30.8163 315.076 30.3193 315.444 29.9685C315.82 29.6093 316.3 29.4297 316.885 29.4297C317.469 29.4297 317.941 29.6093 318.301 29.9685C318.668 30.3193 318.852 30.8163 318.852 31.4595C318.852 32.1027 318.668 32.6039 318.301 32.9631C317.941 33.3223 317.469 33.5019 316.885 33.5019C316.292 33.5019 315.811 33.3223 315.444 32.9631C315.076 32.6039 314.892 32.1027 314.892 31.4595ZM316.872 30.4822C316.396 30.4822 316.158 30.808 316.158 31.4595C316.158 32.1194 316.396 32.4494 316.872 32.4494C317.34 32.4494 317.574 32.1194 317.574 31.4595C317.574 30.808 317.34 30.4822 316.872 30.4822Z" fill="white"/>
<path d="M66.1911 7.03669V5.42032H69.2108V14.5547H67.4065V7.03669H66.1911ZM75.6801 7.70078C75.5966 7.34994 75.4504 7.08681 75.2416 6.91139C75.0411 6.73597 74.7487 6.64826 74.3645 6.64826C73.7881 6.64826 73.3621 6.88215 73.0864 7.34994C72.8191 7.80937 72.6813 8.56117 72.6729 9.60534C72.8734 9.2712 73.1658 9.01225 73.55 8.82848C73.9343 8.63635 74.3519 8.54029 74.803 8.54029C75.346 8.54029 75.8263 8.65723 76.244 8.89113C76.6616 9.12502 76.9874 9.46751 77.2213 9.91859C77.4552 10.3613 77.5721 10.8959 77.5721 11.5224C77.5721 12.1155 77.451 12.646 77.2088 13.1137C76.9749 13.5732 76.6282 13.9324 76.1688 14.1913C75.7093 14.4503 75.1622 14.5797 74.5274 14.5797C73.6586 14.5797 72.9736 14.3876 72.4724 14.0034C71.9796 13.6191 71.6329 13.0845 71.4324 12.3995C71.2403 11.7062 71.1443 10.8542 71.1443 9.84341C71.1443 8.31475 71.4074 7.16199 71.9336 6.38513C72.4599 5.59991 73.2911 5.20731 74.4271 5.20731C75.3042 5.20731 75.985 5.44538 76.4695 5.92152C76.954 6.39766 77.2338 6.99074 77.309 7.70078H75.6801ZM74.4021 9.98124C73.9593 9.98124 73.5876 10.1107 73.2869 10.3697C72.9862 10.6286 72.8358 11.0045 72.8358 11.4974C72.8358 11.9902 72.9736 12.3786 73.2493 12.6627C73.5333 12.9467 73.9301 13.0887 74.4396 13.0887C74.8907 13.0887 75.2457 12.9508 75.5047 12.6752C75.772 12.3995 75.9057 12.0278 75.9057 11.56C75.9057 11.0755 75.7762 10.6913 75.5172 10.4073C75.2666 10.1232 74.8949 9.98124 74.4021 9.98124ZM78.7581 7.66319C78.7581 7.02833 78.9419 6.53131 79.3094 6.17212C79.6853 5.81292 80.1656 5.63333 80.7504 5.63333C81.3351 5.63333 81.8112 5.81292 82.1788 6.17212C82.5547 6.53131 82.7426 7.02833 82.7426 7.66319C82.7426 8.30639 82.5547 8.80759 82.1788 9.16679C81.8112 9.52598 81.3351 9.70558 80.7504 9.70558C80.1656 9.70558 79.6853 9.52598 79.3094 9.16679C78.9419 8.80759 78.7581 8.30639 78.7581 7.66319ZM86.8023 5.78369L81.8781 14.5547H80.174L85.0857 5.78369H86.8023ZM80.7378 6.68585C80.2784 6.68585 80.0487 7.01163 80.0487 7.66319C80.0487 8.3231 80.2784 8.65306 80.7378 8.65306C80.9634 8.65306 81.1388 8.5737 81.2641 8.41499C81.3894 8.24792 81.452 7.99732 81.452 7.66319C81.452 7.01163 81.214 6.68585 80.7378 6.68585ZM84.2588 12.6627C84.2588 12.0195 84.4425 11.5224 84.8101 11.1716C85.186 10.8124 85.6663 10.6328 86.251 10.6328C86.8358 10.6328 87.3077 10.8124 87.6669 11.1716C88.0345 11.5224 88.2182 12.0195 88.2182 12.6627C88.2182 13.3059 88.0345 13.8071 87.6669 14.1663C87.3077 14.5255 86.8358 14.705 86.251 14.705C85.6579 14.705 85.1776 14.5255 84.8101 14.1663C84.4425 13.8071 84.2588 13.3059 84.2588 12.6627ZM86.2385 11.6853C85.7624 11.6853 85.5243 12.0111 85.5243 12.6627C85.5243 13.3226 85.7624 13.6525 86.2385 13.6525C86.7063 13.6525 86.9402 13.3226 86.9402 12.6627C86.9402 12.0111 86.7063 11.6853 86.2385 11.6853Z" fill="white"/>
<defs>
<linearGradient id="paint0_linear_9685_30231" x1="34.4112" y1="21.2122" x2="41.9095" y2="47.226" gradientUnits="userSpaceOnUse">
<stop stop-color="#FCA509"/>
<stop offset="1" stop-color="#880306"/>
</linearGradient>
<clipPath id="clip0_9685_30231">
<rect x="28.6367" y="22.5859" width="250.6" height="12.53" rx="6.265" fill="white"/>
</clipPath>
</defs>
</svg>
