<svg width="351" height="215" viewBox="0 0 351 215" fill="none" xmlns="http://www.w3.org/2000/svg">
<path d="M0 69.0254C0 69.0254 7.1081 69.0254 8.88513 69.0254C10.6622 69.0254 14.8085 58.44 18.9549 57.4777C23.1013 56.5154 22.2718 57.05 24.286 57.4777C28.5618 58.3856 27.8401 64.2138 31.9865 64.2138C36.1329 64.2138 36.7252 50.7416 41.4639 46.4112C46.2027 42.0808 50.9414 44.0054 55.0878 40.6373C59.2342 37.2693 59.2342 26.2027 62.1959 25.7216C65.1576 25.2405 65.6073 25.0672 67.527 25.7216C69.959 26.5507 71.6734 30.052 71.6734 30.052C71.6734 30.052 72.2657 67.1007 74.6351 69.9877C77.0045 72.8746 77.0692 73.0367 79.3738 72.8746C81.0357 72.7577 82.9279 70.95 82.9279 70.95C82.9279 70.95 87.0743 48.2297 87.6666 46.4112C88.259 44.5926 89.4436 44.0054 92.4053 44.0054C95.3671 44.0054 97.7364 50.7416 101.883 50.7416C106.029 50.7416 110.768 44.0054 113.137 40.6373C115.507 37.2693 115.507 23.797 115.507 23.797C115.507 23.797 117.562 16.7304 121.43 13.6928C132.317 5.14401 139.2 35.3447 143.347 39.675C147.493 44.0053 143.347 67.101 145.124 68.0631C146.901 69.0251 172.964 68.0631 179.48 68.0631C185.995 68.0631 186.588 51.4448 190.142 50.7416C193.696 50.0383 194.717 49.8195 197.25 50.7416C199.792 51.6669 199.306 54.4623 201.989 55.0719C203.325 55.3757 203.173 55.0719 205.543 55.0719C207.912 55.0719 212.651 39.675 212.651 39.675C212.651 39.675 213.243 38.7127 220.351 39.675C227.459 40.6373 225.09 84.9034 228.644 85.8657C232.198 86.828 233.911 85.8176 236.937 86.828C246.206 89.9233 235.341 105.231 245.23 106.555C247.056 106.8 243.453 106.555 249.968 106.555C256.484 106.555 257.076 60.8455 258.853 58.9212C260.63 56.9968 260.715 55.6768 263 55.5531C265.453 55.4202 265.503 58.0898 267.739 58.9212C275.441 61.7851 271.861 45.7933 280.178 44.4866C282.449 44.1297 283.867 43.9997 286.101 44.4866C291.927 45.7563 288.45 54.2377 294.394 55.0719C295.762 55.2639 296.592 55.3135 297.948 55.0719C301.971 54.3552 300.442 49.0587 304.464 48.3358C306.509 47.9681 307.776 48.3628 309.795 48.8169C319.573 51.0166 310.881 65.3385 320.457 68.0631C324.823 69.3054 327.813 68.9654 332.304 68.0631C347.524 65.005 347.112 37.7504 347.112 37.7504L350.074 35.8258" stroke="url(#paint0_linear_9685_35699)" stroke-width="0.954416"/>
<path d="M0 69.7393H8.88513C10.6622 69.7393 14.8085 59.1984 18.9549 58.2402C23.1013 57.282 22.2718 57.8143 24.286 58.2402C28.5618 59.1443 27.8401 64.948 31.9865 64.948C36.1329 64.948 36.7252 51.5324 41.4639 47.2203C46.2027 42.9081 50.9414 44.8246 55.0878 41.4707C59.2342 38.1168 59.2342 27.0969 62.1959 26.6177C65.1576 26.1386 65.6073 25.966 67.527 26.6177C69.959 27.4433 71.6734 30.9299 71.6734 30.9299C71.6734 30.9299 72.2657 67.8228 74.6351 70.6975C77.0045 73.5723 77.0692 73.7338 79.3738 73.5723C81.0357 73.4559 82.9279 71.6558 82.9279 71.6558C82.9279 71.6558 87.0743 49.0312 87.6666 47.2203C88.2589 45.4093 89.4436 44.8246 92.4053 44.8246C95.3671 44.8246 97.7364 51.5324 101.883 51.5324C106.029 51.5324 110.768 44.8246 113.137 41.4707C115.507 38.1168 115.507 24.7012 115.507 24.7012C115.507 24.7012 117.562 17.6643 121.43 14.6395C132.317 6.12673 139.2 36.2004 143.347 40.5124C147.493 44.8245 143.347 67.823 145.124 68.781C146.901 69.7391 172.964 68.781 179.48 68.781C185.995 68.781 186.588 52.2327 190.142 51.5324L190.265 51.5081C193.72 50.8272 194.746 50.6249 197.25 51.5324C199.792 52.4538 199.306 55.2375 201.989 55.8446C203.325 56.1471 203.173 55.8446 205.543 55.8446C207.912 55.8446 212.651 40.5124 212.651 40.5124C212.651 40.5124 213.243 39.5542 220.351 40.5124C227.459 41.4707 225.09 85.5505 228.644 86.5087C232.198 87.467 233.911 86.4609 236.937 87.467C246.206 90.5493 235.341 105.792 245.23 107.111C245.641 107.166 245.777 107.196 245.815 107.21C245.871 107.184 246.416 107.111 249.968 107.111C256.484 107.111 257.076 61.5939 258.853 59.6776C260.63 57.7613 260.715 56.4469 263 56.3237C265.453 56.1914 265.503 58.8497 267.739 59.6776C275.441 62.5295 271.861 46.605 280.178 45.3037C282.449 44.9484 283.867 44.8189 286.101 45.3037C291.927 46.5681 288.45 55.0139 294.394 55.8446C295.762 56.0357 296.592 56.0851 297.948 55.8446C301.971 55.1309 300.442 49.8566 304.464 49.1368C306.509 48.7707 307.776 49.1637 309.795 49.6159C319.573 51.8063 310.881 66.0679 320.457 68.781C324.823 70.0181 327.813 69.6796 332.304 68.781C347.524 65.7359 347.112 38.5959 347.112 38.5959L350.074 36.6794V114.298H0V69.7393Z" fill="url(#paint1_linear_9685_35699)"/>
<rect x="18.5273" y="152.475" width="3.81766" height="24.8148" fill="white" fill-opacity="0.1"/>
<rect x="29.0273" y="142.931" width="3.81766" height="34.359" fill="white" fill-opacity="0.1"/>
<rect x="39.5234" y="161.064" width="3.81766" height="16.2251" fill="white" fill-opacity="0.1"/>
<rect x="50.0234" y="152.475" width="3.81766" height="24.8148" fill="white" fill-opacity="0.1"/>
<rect x="60.5234" y="169.654" width="3.81766" height="7.63533" fill="white" fill-opacity="0.1"/>
<rect x="71.0195" y="162.019" width="3.81766" height="15.2707" fill="white" fill-opacity="0.1"/>
<rect x="81.5195" y="160.11" width="3.81766" height="17.1795" fill="white" fill-opacity="0.1"/>
<rect x="92.0156" y="143.885" width="3.81766" height="33.4046" fill="white" fill-opacity="0.1"/>
<rect x="102.516" y="168.7" width="3.81766" height="8.58975" fill="white" fill-opacity="0.1"/>
<rect x="113.016" y="171.563" width="3.81766" height="5.7265" fill="white" fill-opacity="0.1"/>
<line x1="123.035" y1="177.286" x2="123.995" y2="27.4432" stroke="white" stroke-opacity="0.1" stroke-width="0.954416" stroke-dasharray="3.82 3.82"/>
<rect x="131.156" y="174.426" width="3.81766" height="2.86325" fill="white" fill-opacity="0.1"/>
<rect x="141.652" y="167.746" width="3.81766" height="9.54416" fill="white" fill-opacity="0.1"/>
<rect x="152.152" y="161.064" width="3.81766" height="16.2251" fill="white" fill-opacity="0.1"/>
<rect x="162.648" y="162.973" width="3.81766" height="14.3162" fill="white" fill-opacity="0.1"/>
<rect x="173.148" y="159.156" width="3.81766" height="18.1339" fill="white" fill-opacity="0.1"/>
<rect x="183.648" y="142.931" width="3.81766" height="34.359" fill="white" fill-opacity="0.1"/>
<rect x="194.145" y="161.064" width="3.81766" height="16.2251" fill="white" fill-opacity="0.1"/>
<rect x="204.645" y="162.973" width="3.81766" height="14.3162" fill="white" fill-opacity="0.1"/>
<rect x="215.145" y="141.976" width="3.81766" height="35.3134" fill="white" fill-opacity="0.1"/>
<rect x="225.641" y="162.019" width="3.81766" height="15.2707" fill="white" fill-opacity="0.1"/>
<rect x="236.141" y="159.156" width="3.81766" height="18.1339" fill="white" fill-opacity="0.1"/>
<rect x="246.641" y="142.931" width="3.81766" height="34.359" fill="white" fill-opacity="0.1"/>
<rect x="257.137" y="161.064" width="3.81766" height="16.2251" fill="white" fill-opacity="0.1"/>
<rect x="267.637" y="162.973" width="3.81766" height="14.3162" fill="white" fill-opacity="0.1"/>
<rect x="278.133" y="141.976" width="3.81766" height="35.3134" fill="white" fill-opacity="0.1"/>
<rect x="288.633" y="161.064" width="3.81766" height="16.2251" fill="white" fill-opacity="0.1"/>
<rect x="299.133" y="162.973" width="3.81766" height="14.3162" fill="white" fill-opacity="0.1"/>
<rect x="309.629" y="141.976" width="3.81766" height="35.3134" fill="white" fill-opacity="0.1"/>
<rect x="320.129" y="141.976" width="3.81766" height="35.3134" fill="white" fill-opacity="0.1"/>
<path d="M134.132 17.9006C134.132 21.8059 130.883 25.0587 126.767 25.0587C122.651 25.0587 119.402 21.8059 119.402 17.9006C119.402 13.9953 122.651 10.7425 126.767 10.7425C130.883 10.7425 134.132 13.9953 134.132 17.9006Z" fill="white" stroke="url(#paint2_linear_9685_35699)" stroke-width="4.77208"/>
<rect x="139.445" y="0.723633" width="72.1601" height="26.453" rx="13.2265" fill="url(#paint3_linear_9685_35699)"/>
<path d="M153.394 17.6105C152.791 17.6105 152.257 17.5036 151.791 17.2899C151.325 17.0761 150.959 16.763 150.691 16.3507C150.432 15.9308 150.302 15.423 150.302 14.8275V14.5411H151.528V14.8275C151.528 15.3925 151.696 15.8162 152.031 16.0987C152.375 16.3812 152.829 16.5225 153.394 16.5225C153.967 16.5225 154.398 16.4042 154.689 16.1675C154.979 15.9231 155.124 15.6101 155.124 15.2283C155.124 14.9763 155.055 14.7702 154.918 14.6099C154.788 14.4495 154.597 14.3235 154.345 14.2319C154.093 14.1326 153.791 14.041 153.44 13.957L153.016 13.854C152.505 13.7318 152.062 13.5829 151.688 13.4073C151.314 13.224 151.024 12.9835 150.817 12.6857C150.611 12.388 150.508 12.0062 150.508 11.5405C150.508 11.0671 150.623 10.6624 150.852 10.3264C151.081 9.99048 151.402 9.73088 151.814 9.54763C152.226 9.36438 152.711 9.27276 153.268 9.27276C153.826 9.27276 154.322 9.3682 154.757 9.55908C155.2 9.74997 155.548 10.0325 155.8 10.4066C156.059 10.7807 156.189 11.2503 156.189 11.8153V12.2276H154.963V11.8153C154.963 11.4717 154.891 11.193 154.746 10.9793C154.608 10.7655 154.41 10.6089 154.15 10.5097C153.898 10.4104 153.604 10.3608 153.268 10.3608C152.78 10.3608 152.402 10.4639 152.135 10.67C151.867 10.8685 151.734 11.1472 151.734 11.5061C151.734 11.7504 151.791 11.9528 151.905 12.1131C152.028 12.2658 152.203 12.3918 152.432 12.491C152.661 12.5903 152.944 12.6781 153.28 12.7545L153.704 12.8575C154.223 12.9721 154.681 13.121 155.078 13.3042C155.475 13.4798 155.784 13.7203 156.006 14.0258C156.235 14.3312 156.349 14.7244 156.349 15.2054C156.349 15.6864 156.227 16.1064 155.983 16.4652C155.746 16.8241 155.406 17.1066 154.963 17.3128C154.521 17.5113 153.998 17.6105 153.394 17.6105ZM152.822 18.7787V8.10455H153.956V18.7787H152.822ZM159.755 17.4502V10.2806H159.572L158.255 12.9835H156.983L158.759 9.4331H160.958V17.4502H159.755ZM165.477 17.6105C164.545 17.6105 163.801 17.3471 163.243 16.8203C162.694 16.2858 162.419 15.4841 162.419 14.4152V12.4681C162.419 11.4221 162.694 10.628 163.243 10.0859C163.801 9.54381 164.545 9.27276 165.477 9.27276C166.416 9.27276 167.16 9.54381 167.71 10.0859C168.267 10.628 168.546 11.4221 168.546 12.4681V14.4152C168.546 15.4841 168.267 16.2858 167.71 16.8203C167.16 17.3471 166.416 17.6105 165.477 17.6105ZM165.477 16.534C166.11 16.534 166.58 16.3545 166.885 15.9957C167.191 15.6292 167.343 15.1176 167.343 14.461V12.3994C167.343 11.7428 167.179 11.2389 166.851 10.8876C166.523 10.5288 166.065 10.3493 165.477 10.3493C164.881 10.3493 164.423 10.5326 164.102 10.8991C163.782 11.2579 163.621 11.7581 163.621 12.3994V14.461C163.621 15.1329 163.774 15.6483 164.079 16.0071C164.392 16.3583 164.858 16.534 165.477 16.534ZM172.607 17.6105C172.011 17.6105 171.499 17.5113 171.072 17.3128C170.644 17.1066 170.316 16.8203 170.087 16.4538C169.858 16.0797 169.743 15.6444 169.743 15.1481H170.969C170.969 15.5452 171.099 15.8773 171.358 16.1446C171.625 16.4042 172.041 16.534 172.607 16.534C173.179 16.534 173.618 16.3812 173.924 16.0758C174.229 15.7704 174.382 15.3543 174.382 14.8275V13.8654H174.198C174.069 14.0487 173.859 14.2243 173.569 14.3922C173.278 14.5602 172.858 14.6442 172.309 14.6442C171.843 14.6442 171.412 14.5411 171.015 14.335C170.618 14.1288 170.297 13.8349 170.052 13.4531C169.816 13.0637 169.697 12.6018 169.697 12.0673V11.9299C169.697 11.3954 169.82 10.9296 170.064 10.5326C170.316 10.1355 170.663 9.82632 171.106 9.60489C171.557 9.38347 172.072 9.27276 172.652 9.27276C173.24 9.27276 173.752 9.38729 174.187 9.61635C174.63 9.83777 174.973 10.1508 175.218 10.5555C175.462 10.9525 175.584 11.4221 175.584 11.9642V14.7358C175.584 15.3619 175.458 15.8888 175.206 16.3163C174.962 16.7439 174.615 17.0684 174.164 17.2899C173.721 17.5036 173.202 17.6105 172.607 17.6105ZM172.641 13.6707C172.992 13.6707 173.298 13.602 173.557 13.4646C173.817 13.3271 174.019 13.1401 174.164 12.9034C174.309 12.659 174.382 12.3727 174.382 12.0444V11.9528C174.382 11.4565 174.221 11.0671 173.901 10.7846C173.588 10.4944 173.168 10.3493 172.641 10.3493C172.114 10.3493 171.69 10.4944 171.37 10.7846C171.057 11.0671 170.9 11.4565 170.9 11.9528V12.0444C170.9 12.3727 170.969 12.659 171.106 12.9034C171.251 13.1401 171.454 13.3271 171.713 13.4646C171.98 13.602 172.29 13.6707 172.641 13.6707ZM179.905 17.6105C178.973 17.6105 178.229 17.3471 177.671 16.8203C177.122 16.2858 176.847 15.4841 176.847 14.4152V12.4681C176.847 11.4221 177.122 10.628 177.671 10.0859C178.229 9.54381 178.973 9.27276 179.905 9.27276C180.844 9.27276 181.588 9.54381 182.138 10.0859C182.695 10.628 182.974 11.4221 182.974 12.4681V14.4152C182.974 15.4841 182.695 16.2858 182.138 16.8203C181.588 17.3471 180.844 17.6105 179.905 17.6105ZM179.905 16.534C180.538 16.534 181.008 16.3545 181.313 15.9957C181.619 15.6292 181.772 15.1176 181.772 14.461V12.3994C181.772 11.7428 181.607 11.2389 181.279 10.8876C180.951 10.5288 180.493 10.3493 179.905 10.3493C179.309 10.3493 178.851 10.5326 178.53 10.8991C178.21 11.2579 178.049 11.7581 178.049 12.3994V14.461C178.049 15.1329 178.202 15.6483 178.507 16.0071C178.821 16.3583 179.286 16.534 179.905 16.534ZM185.023 17.6105C184.755 17.6105 184.53 17.5227 184.347 17.3471C184.171 17.1715 184.083 16.9463 184.083 16.6714C184.083 16.3965 184.171 16.1751 184.347 16.0071C184.53 15.8315 184.755 15.7437 185.023 15.7437C185.29 15.7437 185.511 15.8315 185.687 16.0071C185.87 16.1827 185.962 16.4042 185.962 16.6714C185.962 16.9463 185.87 17.1715 185.687 17.3471C185.511 17.5227 185.29 17.6105 185.023 17.6105ZM190.139 17.6105C189.207 17.6105 188.463 17.3471 187.905 16.8203C187.356 16.2858 187.081 15.4841 187.081 14.4152V12.4681C187.081 11.4221 187.356 10.628 187.905 10.0859C188.463 9.54381 189.207 9.27276 190.139 9.27276C191.078 9.27276 191.822 9.54381 192.372 10.0859C192.929 10.628 193.208 11.4221 193.208 12.4681V14.4152C193.208 15.4841 192.929 16.2858 192.372 16.8203C191.822 17.3471 191.078 17.6105 190.139 17.6105ZM190.139 16.534C190.772 16.534 191.242 16.3545 191.547 15.9957C191.853 15.6292 192.005 15.1176 192.005 14.461V12.3994C192.005 11.7428 191.841 11.2389 191.513 10.8876C191.185 10.5288 190.727 10.3493 190.139 10.3493C189.543 10.3493 189.085 10.5326 188.764 10.8991C188.444 11.2579 188.283 11.7581 188.283 12.3994V14.461C188.283 15.1329 188.436 15.6483 188.741 16.0071C189.054 16.3583 189.52 16.534 190.139 16.534ZM197.52 17.6105C196.589 17.6105 195.844 17.3471 195.287 16.8203C194.737 16.2858 194.462 15.4841 194.462 14.4152V12.4681C194.462 11.4221 194.737 10.628 195.287 10.0859C195.844 9.54381 196.589 9.27276 197.52 9.27276C198.46 9.27276 199.204 9.54381 199.754 10.0859C200.311 10.628 200.59 11.4221 200.59 12.4681V14.4152C200.59 15.4841 200.311 16.2858 199.754 16.8203C199.204 17.3471 198.46 17.6105 197.52 17.6105ZM197.52 16.534C198.154 16.534 198.624 16.3545 198.929 15.9957C199.235 15.6292 199.387 15.1176 199.387 14.461V12.3994C199.387 11.7428 199.223 11.2389 198.895 10.8876C198.566 10.5288 198.108 10.3493 197.52 10.3493C196.925 10.3493 196.467 10.5326 196.146 10.8991C195.825 11.2579 195.665 11.7581 195.665 12.3994V14.461C195.665 15.1329 195.818 15.6483 196.123 16.0071C196.436 16.3583 196.902 16.534 197.52 16.534Z" fill="white"/>
<path d="M3.68786 206.584C2.75635 206.584 2.01191 206.321 1.45453 205.794C0.904787 205.259 0.629915 204.458 0.629915 203.389V201.442C0.629915 200.396 0.904787 199.602 1.45453 199.06C2.01191 198.517 2.75635 198.246 3.68786 198.246C4.62701 198.246 5.37145 198.517 5.9212 199.06C6.47858 199.602 6.75727 200.396 6.75727 201.442V203.389C6.75727 204.458 6.47858 205.259 5.9212 205.794C5.37145 206.321 4.62701 206.584 3.68786 206.584ZM3.68786 205.508C4.3216 205.508 4.79117 205.328 5.09658 204.969C5.402 204.603 5.5547 204.091 5.5547 203.435V201.373C5.5547 200.716 5.39054 200.212 5.06222 199.861C4.7339 199.502 4.27578 199.323 3.68786 199.323C3.09231 199.323 2.63419 199.506 2.3135 199.873C1.99282 200.232 1.83248 200.732 1.83248 201.373V203.435C1.83248 204.107 1.98519 204.622 2.2906 204.981C2.60365 205.332 3.0694 205.508 3.68786 205.508ZM10.3252 206.424V199.254H10.142L8.82489 201.957H7.55361L9.32882 198.407H11.5278V206.424H10.3252ZM13.9395 206.584C13.6722 206.584 13.447 206.496 13.2637 206.321C13.0881 206.145 13.0003 205.92 13.0003 205.645C13.0003 205.37 13.0881 205.149 13.2637 204.981C13.447 204.805 13.6722 204.717 13.9395 204.717C14.2067 204.717 14.4281 204.805 14.6037 204.981C14.787 205.156 14.8786 205.378 14.8786 205.645C14.8786 205.92 14.787 206.145 14.6037 206.321C14.4281 206.496 14.2067 206.584 13.9395 206.584ZM19.0555 206.584C18.1239 206.584 17.3795 206.321 16.8221 205.794C16.2724 205.259 15.9975 204.458 15.9975 203.389V201.442C15.9975 200.396 16.2724 199.602 16.8221 199.06C17.3795 198.517 18.1239 198.246 19.0555 198.246C19.9946 198.246 20.739 198.517 21.2888 199.06C21.8462 199.602 22.1249 200.396 22.1249 201.442V203.389C22.1249 204.458 21.8462 205.259 21.2888 205.794C20.739 206.321 19.9946 206.584 19.0555 206.584ZM19.0555 205.508C19.6892 205.508 20.1588 205.328 20.4642 204.969C20.7696 204.603 20.9223 204.091 20.9223 203.435V201.373C20.9223 200.716 20.7581 200.212 20.4298 199.861C20.1015 199.502 19.6434 199.323 19.0555 199.323C18.4599 199.323 18.0018 199.506 17.6811 199.873C17.3604 200.232 17.2001 200.732 17.2001 201.373V203.435C17.2001 204.107 17.3528 204.622 17.6582 204.981C17.9712 205.332 18.437 205.508 19.0555 205.508ZM26.4373 206.584C25.5058 206.584 24.7613 206.321 24.2039 205.794C23.6542 205.259 23.3793 204.458 23.3793 203.389V201.442C23.3793 200.396 23.6542 199.602 24.2039 199.06C24.7613 198.517 25.5058 198.246 26.4373 198.246C27.3764 198.246 28.1209 198.517 28.6706 199.06C29.228 199.602 29.5067 200.396 29.5067 201.442V203.389C29.5067 204.458 29.228 205.259 28.6706 205.794C28.1209 206.321 27.3764 206.584 26.4373 206.584ZM26.4373 205.508C27.071 205.508 27.5406 205.328 27.846 204.969C28.1514 204.603 28.3041 204.091 28.3041 203.435V201.373C28.3041 200.716 28.1399 200.212 27.8116 199.861C27.4833 199.502 27.0252 199.323 26.4373 199.323C25.8417 199.323 25.3836 199.506 25.0629 199.873C24.7422 200.232 24.5819 200.732 24.5819 201.373V203.435C24.5819 204.107 24.7346 204.622 25.04 204.981C25.3531 205.332 25.8188 205.508 26.4373 205.508Z" fill="white" fill-opacity="0.5"/>
<path d="M52.8207 206.584C51.8892 206.584 51.1447 206.321 50.5873 205.794C50.0376 205.259 49.7627 204.458 49.7627 203.389V201.442C49.7627 200.396 50.0376 199.602 50.5873 199.06C51.1447 198.517 51.8892 198.246 52.8207 198.246C53.7598 198.246 54.5043 198.517 55.054 199.06C55.6114 199.602 55.8901 200.396 55.8901 201.442V203.389C55.8901 204.458 55.6114 205.259 55.054 205.794C54.5043 206.321 53.7598 206.584 52.8207 206.584ZM52.8207 205.508C53.4544 205.508 53.924 205.328 54.2294 204.969C54.5348 204.603 54.6875 204.091 54.6875 203.435V201.373C54.6875 200.716 54.5234 200.212 54.195 199.861C53.8667 199.502 53.4086 199.323 52.8207 199.323C52.2251 199.323 51.767 199.506 51.4463 199.873C51.1256 200.232 50.9653 200.732 50.9653 201.373V203.435C50.9653 204.107 51.118 204.622 51.4234 204.981C51.7365 205.332 52.2022 205.508 52.8207 205.508ZM57.0644 206.424V205.519C57.0644 204.962 57.1598 204.504 57.3507 204.145C57.5416 203.786 57.8126 203.496 58.1639 203.274C58.5227 203.045 58.9541 202.854 59.458 202.702L60.1567 202.484C60.4697 202.385 60.737 202.263 60.9584 202.118C61.1874 201.972 61.3631 201.793 61.4852 201.579C61.6074 201.358 61.6685 201.102 61.6685 200.812V200.766C61.6685 200.316 61.5158 199.964 61.2104 199.712C60.9049 199.453 60.5041 199.323 60.0078 199.323C59.4962 199.323 59.0801 199.46 58.7594 199.735C58.4464 200.01 58.2898 200.415 58.2898 200.949V201.133H57.0987V200.961C57.0987 200.38 57.2247 199.892 57.4767 199.495C57.7286 199.09 58.076 198.781 58.5189 198.567C58.9617 198.353 59.458 198.246 60.0078 198.246C60.5575 198.246 61.0462 198.349 61.4738 198.556C61.909 198.762 62.2488 199.052 62.4931 199.426C62.7451 199.8 62.871 200.239 62.871 200.743V200.846C62.871 201.365 62.768 201.797 62.5618 202.14C62.3557 202.484 62.0693 202.767 61.7028 202.988C61.344 203.209 60.9278 203.396 60.4545 203.549L59.7787 203.755C59.4199 203.862 59.1297 203.981 58.9083 204.11C58.6945 204.232 58.5342 204.381 58.4273 204.557C58.328 204.733 58.2784 204.958 58.2784 205.233V205.347H62.8023V206.424H57.0644ZM64.9401 206.584C64.6729 206.584 64.4476 206.496 64.2644 206.321C64.0888 206.145 64.0009 205.92 64.0009 205.645C64.0009 205.37 64.0888 205.149 64.2644 204.981C64.4476 204.805 64.6729 204.717 64.9401 204.717C65.2073 204.717 65.4288 204.805 65.6044 204.981C65.7876 205.156 65.8792 205.378 65.8792 205.645C65.8792 205.92 65.7876 206.145 65.6044 206.321C65.4288 206.496 65.2073 206.584 64.9401 206.584ZM70.0561 206.584C69.1246 206.584 68.3801 206.321 67.8228 205.794C67.273 205.259 66.9981 204.458 66.9981 203.389V201.442C66.9981 200.396 67.273 199.602 67.8228 199.06C68.3801 198.517 69.1246 198.246 70.0561 198.246C70.9952 198.246 71.7397 198.517 72.2894 199.06C72.8468 199.602 73.1255 200.396 73.1255 201.442V203.389C73.1255 204.458 72.8468 205.259 72.2894 205.794C71.7397 206.321 70.9952 206.584 70.0561 206.584ZM70.0561 205.508C70.6898 205.508 71.1594 205.328 71.4648 204.969C71.7702 204.603 71.9229 204.091 71.9229 203.435V201.373C71.9229 200.716 71.7588 200.212 71.4304 199.861C71.1021 199.502 70.644 199.323 70.0561 199.323C69.4605 199.323 69.0024 199.506 68.6817 199.873C68.361 200.232 68.2007 200.732 68.2007 201.373V203.435C68.2007 204.107 68.3534 204.622 68.6588 204.981C68.9719 205.332 69.4376 205.508 70.0561 205.508ZM77.4379 206.584C76.5064 206.584 75.7619 206.321 75.2046 205.794C74.6548 205.259 74.38 204.458 74.38 203.389V201.442C74.38 200.396 74.6548 199.602 75.2046 199.06C75.7619 198.517 76.5064 198.246 77.4379 198.246C78.377 198.246 79.1215 198.517 79.6712 199.06C80.2286 199.602 80.5073 200.396 80.5073 201.442V203.389C80.5073 204.458 80.2286 205.259 79.6712 205.794C79.1215 206.321 78.377 206.584 77.4379 206.584ZM77.4379 205.508C78.0716 205.508 78.5412 205.328 78.8466 204.969C79.152 204.603 79.3047 204.091 79.3047 203.435V201.373C79.3047 200.716 79.1406 200.212 78.8123 199.861C78.4839 199.502 78.0258 199.323 77.4379 199.323C76.8423 199.323 76.3842 199.506 76.0635 199.873C75.7429 200.232 75.5825 200.732 75.5825 201.373V203.435C75.5825 204.107 75.7352 204.622 76.0406 204.981C76.3537 205.332 76.8194 205.508 77.4379 205.508Z" fill="white" fill-opacity="0.5"/>
<rect x="99.2695" y="191.606" width="48.2707" height="22.6353" rx="4.77208" fill="url(#paint4_linear_9685_35699)"/>
<path d="M110.594 206.584C109.663 206.584 108.918 206.321 108.361 205.794C107.811 205.259 107.536 204.458 107.536 203.389V201.442C107.536 200.396 107.811 199.602 108.361 199.06C108.918 198.517 109.663 198.246 110.594 198.246C111.533 198.246 112.278 198.517 112.827 199.06C113.385 199.602 113.664 200.396 113.664 201.442V203.389C113.664 204.458 113.385 205.259 112.827 205.794C112.278 206.321 111.533 206.584 110.594 206.584ZM110.594 205.508C111.228 205.508 111.697 205.328 112.003 204.969C112.308 204.603 112.461 204.091 112.461 203.435V201.373C112.461 200.716 112.297 200.212 111.968 199.861C111.64 199.502 111.182 199.323 110.594 199.323C109.999 199.323 109.54 199.506 109.22 199.873C108.899 200.232 108.739 200.732 108.739 201.373V203.435C108.739 204.107 108.891 204.622 109.197 204.981C109.51 205.332 109.976 205.508 110.594 205.508ZM117.77 206.584C117.182 206.584 116.659 206.477 116.201 206.263C115.743 206.05 115.384 205.74 115.124 205.336C114.872 204.931 114.746 204.45 114.746 203.893V203.687H115.949V203.87C115.949 204.374 116.113 204.775 116.441 205.072C116.777 205.363 117.22 205.508 117.77 205.508C118.32 205.508 118.747 205.37 119.053 205.095C119.358 204.82 119.511 204.473 119.511 204.053V203.95C119.511 203.652 119.438 203.412 119.293 203.228C119.148 203.045 118.953 202.912 118.709 202.828C118.465 202.736 118.19 202.69 117.884 202.69H116.43V201.304L119.247 199.644V199.483H114.941V198.407H120.553V200.033L117.861 201.636V201.797H118.354C118.759 201.797 119.14 201.873 119.499 202.026C119.858 202.179 120.148 202.411 120.37 202.725C120.599 203.038 120.713 203.435 120.713 203.916V204.053C120.713 204.565 120.591 205.011 120.347 205.393C120.102 205.767 119.759 206.061 119.316 206.275C118.873 206.481 118.358 206.584 117.77 206.584ZM122.814 206.584C122.547 206.584 122.322 206.496 122.138 206.321C121.963 206.145 121.875 205.92 121.875 205.645C121.875 205.37 121.963 205.149 122.138 204.981C122.322 204.805 122.547 204.717 122.814 204.717C123.081 204.717 123.303 204.805 123.478 204.981C123.662 205.156 123.753 205.378 123.753 205.645C123.753 205.92 123.662 206.145 123.478 206.321C123.303 206.496 123.081 206.584 122.814 206.584ZM127.93 206.584C126.999 206.584 126.254 206.321 125.697 205.794C125.147 205.259 124.872 204.458 124.872 203.389V201.442C124.872 200.396 125.147 199.602 125.697 199.06C126.254 198.517 126.999 198.246 127.93 198.246C128.869 198.246 129.614 198.517 130.164 199.06C130.721 199.602 131 200.396 131 201.442V203.389C131 204.458 130.721 205.259 130.164 205.794C129.614 206.321 128.869 206.584 127.93 206.584ZM127.93 205.508C128.564 205.508 129.033 205.328 129.339 204.969C129.644 204.603 129.797 204.091 129.797 203.435V201.373C129.797 200.716 129.633 200.212 129.305 199.861C128.976 199.502 128.518 199.323 127.93 199.323C127.335 199.323 126.877 199.506 126.556 199.873C126.235 200.232 126.075 200.732 126.075 201.373V203.435C126.075 204.107 126.228 204.622 126.533 204.981C126.846 205.332 127.312 205.508 127.93 205.508ZM135.312 206.584C134.38 206.584 133.636 206.321 133.079 205.794C132.529 205.259 132.254 204.458 132.254 203.389V201.442C132.254 200.396 132.529 199.602 133.079 199.06C133.636 198.517 134.38 198.246 135.312 198.246C136.251 198.246 136.996 198.517 137.545 199.06C138.103 199.602 138.381 200.396 138.381 201.442V203.389C138.381 204.458 138.103 205.259 137.545 205.794C136.996 206.321 136.251 206.584 135.312 206.584ZM135.312 205.508C135.946 205.508 136.415 205.328 136.721 204.969C137.026 204.603 137.179 204.091 137.179 203.435V201.373C137.179 200.716 137.015 200.212 136.686 199.861C136.358 199.502 135.9 199.323 135.312 199.323C134.716 199.323 134.258 199.506 133.938 199.873C133.617 200.232 133.457 200.732 133.457 201.373V203.435C133.457 204.107 133.609 204.622 133.915 204.981C134.228 205.332 134.694 205.508 135.312 205.508Z" fill="#F9FAFB"/>
<path d="M169.36 206.584C168.428 206.584 167.684 206.321 167.126 205.794C166.577 205.259 166.302 204.458 166.302 203.389V201.442C166.302 200.396 166.577 199.602 167.126 199.06C167.684 198.517 168.428 198.246 169.36 198.246C170.299 198.246 171.043 198.517 171.593 199.06C172.15 199.602 172.429 200.396 172.429 201.442V203.389C172.429 204.458 172.15 205.259 171.593 205.794C171.043 206.321 170.299 206.584 169.36 206.584ZM169.36 205.508C169.993 205.508 170.463 205.328 170.768 204.969C171.074 204.603 171.227 204.091 171.227 203.435V201.373C171.227 200.716 171.062 200.212 170.734 199.861C170.406 199.502 169.948 199.323 169.36 199.323C168.764 199.323 168.306 199.506 167.985 199.873C167.665 200.232 167.504 200.732 167.504 201.373V203.435C167.504 204.107 167.657 204.622 167.962 204.981C168.276 205.332 168.741 205.508 169.36 205.508ZM177.44 206.424V204.786H173.386V203.389L176.455 198.407H178.643V203.721H179.994V204.786H178.643V206.424H177.44ZM174.554 203.721H177.44V199.163H177.257L174.554 203.561V203.721ZM181.848 206.584C181.581 206.584 181.356 206.496 181.173 206.321C180.997 206.145 180.909 205.92 180.909 205.645C180.909 205.37 180.997 205.149 181.173 204.981C181.356 204.805 181.581 204.717 181.848 204.717C182.115 204.717 182.337 204.805 182.513 204.981C182.696 205.156 182.787 205.378 182.787 205.645C182.787 205.92 182.696 206.145 182.513 206.321C182.337 206.496 182.115 206.584 181.848 206.584ZM186.964 206.584C186.033 206.584 185.288 206.321 184.731 205.794C184.181 205.259 183.906 204.458 183.906 203.389V201.442C183.906 200.396 184.181 199.602 184.731 199.06C185.288 198.517 186.033 198.246 186.964 198.246C187.903 198.246 188.648 198.517 189.198 199.06C189.755 199.602 190.034 200.396 190.034 201.442V203.389C190.034 204.458 189.755 205.259 189.198 205.794C188.648 206.321 187.903 206.584 186.964 206.584ZM186.964 205.508C187.598 205.508 188.068 205.328 188.373 204.969C188.678 204.603 188.831 204.091 188.831 203.435V201.373C188.831 200.716 188.667 200.212 188.339 199.861C188.01 199.502 187.552 199.323 186.964 199.323C186.369 199.323 185.911 199.506 185.59 199.873C185.269 200.232 185.109 200.732 185.109 201.373V203.435C185.109 204.107 185.262 204.622 185.567 204.981C185.88 205.332 186.346 205.508 186.964 205.508ZM194.346 206.584C193.415 206.584 192.67 206.321 192.113 205.794C191.563 205.259 191.288 204.458 191.288 203.389V201.442C191.288 200.396 191.563 199.602 192.113 199.06C192.67 198.517 193.415 198.246 194.346 198.246C195.285 198.246 196.03 198.517 196.579 199.06C197.137 199.602 197.415 200.396 197.415 201.442V203.389C197.415 204.458 197.137 205.259 196.579 205.794C196.03 206.321 195.285 206.584 194.346 206.584ZM194.346 205.508C194.98 205.508 195.449 205.328 195.755 204.969C196.06 204.603 196.213 204.091 196.213 203.435V201.373C196.213 200.716 196.049 200.212 195.72 199.861C195.392 199.502 194.934 199.323 194.346 199.323C193.75 199.323 193.292 199.506 192.972 199.873C192.651 200.232 192.491 200.732 192.491 201.373V203.435C192.491 204.107 192.643 204.622 192.949 204.981C193.262 205.332 193.728 205.508 194.346 205.508Z" fill="white" fill-opacity="0.5"/>
<path d="M220.493 206.584C219.561 206.584 218.817 206.321 218.259 205.794C217.709 205.259 217.435 204.458 217.435 203.389V201.442C217.435 200.396 217.709 199.602 218.259 199.06C218.817 198.517 219.561 198.246 220.493 198.246C221.432 198.246 222.176 198.517 222.726 199.06C223.283 199.602 223.562 200.396 223.562 201.442V203.389C223.562 204.458 223.283 205.259 222.726 205.794C222.176 206.321 221.432 206.584 220.493 206.584ZM220.493 205.508C221.126 205.508 221.596 205.328 221.901 204.969C222.207 204.603 222.359 204.091 222.359 203.435V201.373C222.359 200.716 222.195 200.212 221.867 199.861C221.539 199.502 221.08 199.323 220.493 199.323C219.897 199.323 219.439 199.506 219.118 199.873C218.798 200.232 218.637 200.732 218.637 201.373V203.435C218.637 204.107 218.79 204.622 219.095 204.981C219.408 205.332 219.874 205.508 220.493 205.508ZM227.645 206.584C227.042 206.584 226.519 206.473 226.076 206.252C225.633 206.031 225.29 205.718 225.045 205.313C224.809 204.908 224.69 204.439 224.69 203.904V203.778H225.916V203.893C225.916 204.381 226.065 204.775 226.363 205.072C226.668 205.363 227.092 205.508 227.634 205.508C228.191 205.508 228.623 205.355 228.928 205.049C229.233 204.744 229.386 204.332 229.386 203.813V203.709C229.386 203.213 229.233 202.816 228.928 202.518C228.63 202.221 228.248 202.072 227.783 202.072C227.523 202.072 227.306 202.114 227.13 202.198C226.962 202.274 226.825 202.369 226.718 202.484C226.618 202.599 226.534 202.709 226.466 202.816H224.942V198.407H230.314V199.495H226.145V201.854H226.328C226.405 201.724 226.511 201.602 226.649 201.488C226.794 201.365 226.981 201.266 227.21 201.19C227.439 201.113 227.714 201.075 228.035 201.075C228.508 201.075 228.936 201.178 229.317 201.385C229.707 201.583 230.016 201.881 230.245 202.278C230.474 202.667 230.589 203.141 230.589 203.698V203.824C230.589 204.381 230.47 204.866 230.234 205.279C229.997 205.691 229.657 206.012 229.214 206.241C228.779 206.47 228.256 206.584 227.645 206.584ZM232.623 206.584C232.356 206.584 232.131 206.496 231.947 206.321C231.772 206.145 231.684 205.92 231.684 205.645C231.684 205.37 231.772 205.149 231.947 204.981C232.131 204.805 232.356 204.717 232.623 204.717C232.89 204.717 233.112 204.805 233.287 204.981C233.471 205.156 233.562 205.378 233.562 205.645C233.562 205.92 233.471 206.145 233.287 206.321C233.112 206.496 232.89 206.584 232.623 206.584ZM237.739 206.584C236.808 206.584 236.063 206.321 235.506 205.794C234.956 205.259 234.681 204.458 234.681 203.389V201.442C234.681 200.396 234.956 199.602 235.506 199.06C236.063 198.517 236.808 198.246 237.739 198.246C238.678 198.246 239.423 198.517 239.972 199.06C240.53 199.602 240.809 200.396 240.809 201.442V203.389C240.809 204.458 240.53 205.259 239.972 205.794C239.423 206.321 238.678 206.584 237.739 206.584ZM237.739 205.508C238.373 205.508 238.842 205.328 239.148 204.969C239.453 204.603 239.606 204.091 239.606 203.435V201.373C239.606 200.716 239.442 200.212 239.114 199.861C238.785 199.502 238.327 199.323 237.739 199.323C237.144 199.323 236.685 199.506 236.365 199.873C236.044 200.232 235.884 200.732 235.884 201.373V203.435C235.884 204.107 236.036 204.622 236.342 204.981C236.655 205.332 237.121 205.508 237.739 205.508ZM245.121 206.584C244.189 206.584 243.445 206.321 242.888 205.794C242.338 205.259 242.063 204.458 242.063 203.389V201.442C242.063 200.396 242.338 199.602 242.888 199.06C243.445 198.517 244.189 198.246 245.121 198.246C246.06 198.246 246.805 198.517 247.354 199.06C247.912 199.602 248.19 200.396 248.19 201.442V203.389C248.19 204.458 247.912 205.259 247.354 205.794C246.805 206.321 246.06 206.584 245.121 206.584ZM245.121 205.508C245.755 205.508 246.224 205.328 246.53 204.969C246.835 204.603 246.988 204.091 246.988 203.435V201.373C246.988 200.716 246.824 200.212 246.495 199.861C246.167 199.502 245.709 199.323 245.121 199.323C244.525 199.323 244.067 199.506 243.747 199.873C243.426 200.232 243.266 200.732 243.266 201.373V203.435C243.266 204.107 243.418 204.622 243.724 204.981C244.037 205.332 244.503 205.508 245.121 205.508Z" fill="white" fill-opacity="0.5"/>
<path d="M271.629 206.584C270.698 206.584 269.953 206.321 269.396 205.794C268.846 205.259 268.571 204.458 268.571 203.389V201.442C268.571 200.396 268.846 199.602 269.396 199.06C269.953 198.517 270.698 198.246 271.629 198.246C272.568 198.246 273.313 198.517 273.863 199.06C274.42 199.602 274.699 200.396 274.699 201.442V203.389C274.699 204.458 274.42 205.259 273.863 205.794C273.313 206.321 272.568 206.584 271.629 206.584ZM271.629 205.508C272.263 205.508 272.733 205.328 273.038 204.969C273.343 204.603 273.496 204.091 273.496 203.435V201.373C273.496 200.716 273.332 200.212 273.004 199.861C272.675 199.502 272.217 199.323 271.629 199.323C271.034 199.323 270.576 199.506 270.255 199.873C269.934 200.232 269.774 200.732 269.774 201.373V203.435C269.774 204.107 269.927 204.622 270.232 204.981C270.545 205.332 271.011 205.508 271.629 205.508ZM278.885 206.584C278.305 206.584 277.793 206.473 277.35 206.252C276.908 206.023 276.564 205.706 276.32 205.301C276.075 204.897 275.953 204.427 275.953 203.893V201.121C275.953 200.495 276.075 199.968 276.32 199.541C276.572 199.113 276.923 198.792 277.373 198.579C277.824 198.357 278.347 198.246 278.942 198.246C279.53 198.246 280.038 198.349 280.466 198.556C280.893 198.754 281.222 199.04 281.451 199.415C281.68 199.781 281.794 200.212 281.794 200.709H280.58C280.58 200.312 280.447 199.983 280.179 199.724C279.92 199.457 279.507 199.323 278.942 199.323C278.37 199.323 277.927 199.476 277.614 199.781C277.308 200.079 277.156 200.495 277.156 201.029V201.992H277.339C277.469 201.808 277.679 201.633 277.969 201.465C278.267 201.297 278.687 201.213 279.229 201.213C279.702 201.213 280.137 201.316 280.534 201.522C280.931 201.728 281.248 202.022 281.485 202.404C281.729 202.786 281.851 203.248 281.851 203.79V203.927C281.851 204.454 281.725 204.92 281.473 205.324C281.222 205.721 280.87 206.031 280.42 206.252C279.977 206.473 279.465 206.584 278.885 206.584ZM278.897 205.508C279.431 205.508 279.855 205.363 280.168 205.072C280.489 204.782 280.649 204.393 280.649 203.904V203.813C280.649 203.484 280.576 203.202 280.431 202.965C280.286 202.721 280.08 202.53 279.813 202.392C279.553 202.255 279.248 202.186 278.897 202.186C278.553 202.186 278.248 202.255 277.98 202.392C277.721 202.53 277.518 202.721 277.373 202.965C277.228 203.202 277.156 203.484 277.156 203.813V203.904C277.156 204.393 277.312 204.782 277.625 205.072C277.946 205.363 278.37 205.508 278.897 205.508ZM283.939 206.584C283.672 206.584 283.446 206.496 283.263 206.321C283.087 206.145 283 205.92 283 205.645C283 205.37 283.087 205.149 283.263 204.981C283.446 204.805 283.672 204.717 283.939 204.717C284.206 204.717 284.427 204.805 284.603 204.981C284.786 205.156 284.878 205.378 284.878 205.645C284.878 205.92 284.786 206.145 284.603 206.321C284.427 206.496 284.206 206.584 283.939 206.584ZM289.055 206.584C288.123 206.584 287.379 206.321 286.821 205.794C286.272 205.259 285.997 204.458 285.997 203.389V201.442C285.997 200.396 286.272 199.602 286.821 199.06C287.379 198.517 288.123 198.246 289.055 198.246C289.994 198.246 290.738 198.517 291.288 199.06C291.846 199.602 292.124 200.396 292.124 201.442V203.389C292.124 204.458 291.846 205.259 291.288 205.794C290.738 206.321 289.994 206.584 289.055 206.584ZM289.055 205.508C289.689 205.508 290.158 205.328 290.464 204.969C290.769 204.603 290.922 204.091 290.922 203.435V201.373C290.922 200.716 290.757 200.212 290.429 199.861C290.101 199.502 289.643 199.323 289.055 199.323C288.459 199.323 288.001 199.506 287.68 199.873C287.36 200.232 287.199 200.732 287.199 201.373V203.435C287.199 204.107 287.352 204.622 287.658 204.981C287.971 205.332 288.436 205.508 289.055 205.508ZM296.437 206.584C295.505 206.584 294.761 206.321 294.203 205.794C293.654 205.259 293.379 204.458 293.379 203.389V201.442C293.379 200.396 293.654 199.602 294.203 199.06C294.761 198.517 295.505 198.246 296.437 198.246C297.376 198.246 298.12 198.517 298.67 199.06C299.227 199.602 299.506 200.396 299.506 201.442V203.389C299.506 204.458 299.227 205.259 298.67 205.794C298.12 206.321 297.376 206.584 296.437 206.584ZM296.437 205.508C297.07 205.508 297.54 205.328 297.845 204.969C298.151 204.603 298.303 204.091 298.303 203.435V201.373C298.303 200.716 298.139 200.212 297.811 199.861C297.483 199.502 297.025 199.323 296.437 199.323C295.841 199.323 295.383 199.506 295.062 199.873C294.742 200.232 294.581 200.732 294.581 201.373V203.435C294.581 204.107 294.734 204.622 295.039 204.981C295.352 205.332 295.818 205.508 296.437 205.508Z" fill="white" fill-opacity="0.5"/>
<path d="M322.762 206.584C321.831 206.584 321.086 206.321 320.529 205.794C319.979 205.259 319.704 204.458 319.704 203.389V201.442C319.704 200.396 319.979 199.602 320.529 199.06C321.086 198.517 321.831 198.246 322.762 198.246C323.701 198.246 324.446 198.517 324.995 199.06C325.553 199.602 325.831 200.396 325.831 201.442V203.389C325.831 204.458 325.553 205.259 324.995 205.794C324.446 206.321 323.701 206.584 322.762 206.584ZM322.762 205.508C323.396 205.508 323.865 205.328 324.171 204.969C324.476 204.603 324.629 204.091 324.629 203.435V201.373C324.629 200.716 324.465 200.212 324.136 199.861C323.808 199.502 323.35 199.323 322.762 199.323C322.167 199.323 321.708 199.506 321.388 199.873C321.067 200.232 320.907 200.732 320.907 201.373V203.435C320.907 204.107 321.059 204.622 321.365 204.981C321.678 205.332 322.144 205.508 322.762 205.508ZM327.858 206.424V206.138C327.858 205.847 327.881 205.607 327.927 205.416C327.973 205.217 328.068 204.988 328.213 204.729L331.077 199.632V199.483H326.576V198.407H332.325V199.827L329.313 205.233C329.221 205.401 329.156 205.553 329.118 205.691C329.08 205.821 329.061 205.985 329.061 206.183V206.424H327.858ZM333.45 206.584C333.183 206.584 332.957 206.496 332.774 206.321C332.599 206.145 332.511 205.92 332.511 205.645C332.511 205.37 332.599 205.149 332.774 204.981C332.957 204.805 333.183 204.717 333.45 204.717C333.717 204.717 333.939 204.805 334.114 204.981C334.297 205.156 334.389 205.378 334.389 205.645C334.389 205.92 334.297 206.145 334.114 206.321C333.939 206.496 333.717 206.584 333.45 206.584ZM338.566 206.584C337.634 206.584 336.89 206.321 336.333 205.794C335.783 205.259 335.508 204.458 335.508 203.389V201.442C335.508 200.396 335.783 199.602 336.333 199.06C336.89 198.517 337.634 198.246 338.566 198.246C339.505 198.246 340.249 198.517 340.799 199.06C341.357 199.602 341.635 200.396 341.635 201.442V203.389C341.635 204.458 341.357 205.259 340.799 205.794C340.249 206.321 339.505 206.584 338.566 206.584ZM338.566 205.508C339.2 205.508 339.669 205.328 339.975 204.969C340.28 204.603 340.433 204.091 340.433 203.435V201.373C340.433 200.716 340.269 200.212 339.94 199.861C339.612 199.502 339.154 199.323 338.566 199.323C337.97 199.323 337.512 199.506 337.192 199.873C336.871 200.232 336.71 200.732 336.71 201.373V203.435C336.71 204.107 336.863 204.622 337.169 204.981C337.482 205.332 337.947 205.508 338.566 205.508ZM345.948 206.584C345.016 206.584 344.272 206.321 343.714 205.794C343.165 205.259 342.89 204.458 342.89 203.389V201.442C342.89 200.396 343.165 199.602 343.714 199.06C344.272 198.517 345.016 198.246 345.948 198.246C346.887 198.246 347.631 198.517 348.181 199.06C348.738 199.602 349.017 200.396 349.017 201.442V203.389C349.017 204.458 348.738 205.259 348.181 205.794C347.631 206.321 346.887 206.584 345.948 206.584ZM345.948 205.508C346.581 205.508 347.051 205.328 347.356 204.969C347.662 204.603 347.815 204.091 347.815 203.435V201.373C347.815 200.716 347.65 200.212 347.322 199.861C346.994 199.502 346.536 199.323 345.948 199.323C345.352 199.323 344.894 199.506 344.573 199.873C344.253 200.232 344.092 200.732 344.092 201.373V203.435C344.092 204.107 344.245 204.622 344.55 204.981C344.863 205.332 345.329 205.508 345.948 205.508Z" fill="white" fill-opacity="0.5"/>
<defs>
<linearGradient id="paint0_linear_9685_35699" x1="39.6258" y1="-1.54075" x2="100.787" y2="191.552" gradientUnits="userSpaceOnUse">
<stop stop-color="#FCA509"/>
<stop offset="1" stop-color="#880306"/>
</linearGradient>
<linearGradient id="paint1_linear_9685_35699" x1="175.037" y1="-359.092" x2="175.111" y2="114.298" gradientUnits="userSpaceOnUse">
<stop offset="0.32" stop-color="#00CD88"/>
<stop offset="0.955" stop-color="#00CD88" stop-opacity="0"/>
</linearGradient>
<linearGradient id="paint2_linear_9685_35699" x1="119.223" y1="5.58523" x2="140.48" y2="24.0917" gradientUnits="userSpaceOnUse">
<stop stop-color="#FCA509"/>
<stop offset="1" stop-color="#880306"/>
</linearGradient>
<linearGradient id="paint3_linear_9685_35699" x1="147.613" y1="-3.11677" x2="169.207" y2="47.0761" gradientUnits="userSpaceOnUse">
<stop stop-color="#FCA509"/>
<stop offset="1" stop-color="#880306"/>
</linearGradient>
<linearGradient id="paint4_linear_9685_35699" x1="104.733" y1="188.32" x2="126.232" y2="227.387" gradientUnits="userSpaceOnUse">
<stop stop-color="#FCA509"/>
<stop offset="1" stop-color="#880306"/>
</linearGradient>
</defs>
</svg>
