<svg width="40" height="40" viewBox="0 0 40 40" fill="none" xmlns="http://www.w3.org/2000/svg">
<rect width="40" height="40" rx="20" fill="#F59E0B"/>
<g clip-path="url(#clip0_9685_35929)">
<path d="M14.437 26.2771L13.9517 28.0883C13.8981 28.2882 14.0169 28.494 14.2169 28.5475L15.6658 28.9358C15.7618 28.9615 15.8642 28.948 15.9503 28.8983C16.0365 28.8486 16.0993 28.7667 16.1251 28.6706L16.6103 26.8595L17.3348 27.0536L16.8495 28.8647C16.7959 29.0647 16.9147 29.2704 17.1147 29.324L18.5635 29.7122C18.6596 29.738 18.762 29.7245 18.8481 29.6748C18.9342 29.625 18.9971 29.5431 19.0228 29.4471L19.5081 27.6359L19.6298 27.6686C22.516 28.4419 24.9803 27.498 25.674 24.9089C26.2571 22.7326 25.1169 21.1522 23.454 20.5249L23.4882 20.3974C24.9876 20.4234 26.3048 19.6396 26.7769 17.8777C27.3717 15.658 26.0665 13.8641 23.5237 13.1828L23.3904 13.1471L23.8757 11.3359C23.9014 11.2399 23.888 11.1375 23.8382 11.0514C23.7885 10.9653 23.7066 10.9024 23.6105 10.8767L22.1616 10.4884C22.0656 10.4627 21.9632 10.4762 21.8771 10.5259C21.7909 10.5756 21.7281 10.6575 21.7024 10.7536L21.2171 12.5647L20.3869 12.3423L20.8721 10.5311C20.8979 10.4351 20.8844 10.3327 20.8347 10.2466C20.7849 10.1605 20.703 10.0976 20.607 10.0719L19.2639 9.71198C19.1678 9.68624 19.0654 9.69972 18.9793 9.74945C18.8932 9.79917 18.8303 9.88108 18.8046 9.97715L18.3193 11.7883L15.4201 11.0285C15.3241 11.0028 15.2217 11.0162 15.1356 11.066C15.0495 11.1157 14.9866 11.1976 14.9609 11.2937L14.5769 12.7266C14.5237 12.9251 14.6392 13.1316 14.8392 13.1851L15.935 13.471C16.2215 13.5498 16.4651 13.7387 16.6128 13.9965C16.7604 14.2542 16.8002 14.5599 16.7233 14.8469L14.5861 22.823C14.5089 23.1112 14.3203 23.357 14.0619 23.5061C13.8035 23.6553 13.4964 23.6958 13.2082 23.6185L12.1202 23.3441C12.0241 23.3183 11.9218 23.3318 11.8356 23.3815C11.7495 23.4313 11.6867 23.5132 11.6609 23.6092L11.2727 25.0581C11.2191 25.2581 11.3379 25.4638 11.5379 25.5174L14.437 26.2771ZM19.8096 14.4968L22.3002 15.1641C23.6129 15.5159 24.1904 16.4439 23.8743 17.6233C23.5362 18.8853 22.5125 19.3735 20.626 18.868L18.7714 18.3711L19.8096 14.4968ZM18.2368 20.3662L20.9028 21.0805C22.5502 21.522 23.2219 22.6026 22.8554 23.9704C22.4854 25.3512 21.3855 25.8282 19.1658 25.2335L17.0823 24.6752L18.2365 20.3677L18.2368 20.3662Z" fill="#FEFEFE"/>
</g>
<defs>
<clipPath id="clip0_9685_35929">
<rect width="24" height="24" fill="white" transform="translate(11.5156 5.30469) rotate(15)"/>
</clipPath>
</defs>
</svg>
