<svg width="48" height="48" viewBox="0 0 48 48" fill="none" xmlns="http://www.w3.org/2000/svg">
<rect x="0.5" y="0.5" width="47" height="47" rx="23.5" fill="#49351F"/>
<rect x="0.5" y="0.5" width="47" height="47" rx="23.5" stroke="#161618"/>
<path d="M31.1239 22.1406C31.4186 20.1446 29.9079 19.0793 27.8253 18.3566L28.4999 15.6673L26.8559 15.2579L26.1999 17.8819L24.8879 17.5673L25.5533 14.9246L23.9079 14.5166L23.2333 17.2166L22.1879 16.9686V16.9593L19.9159 16.3886L19.4786 18.1486C19.4786 18.1486 20.6946 18.4339 20.6759 18.4419C21.3426 18.6153 21.4559 19.0513 21.4359 19.3939L20.6759 22.4739L20.8479 22.5313L20.6666 22.4913L19.5919 26.7993C19.5159 26.9993 19.3066 27.3033 18.8413 27.1793C18.8599 27.2073 17.6533 26.8939 17.6533 26.8939L16.8359 28.7673L18.9746 29.2993L20.1439 29.6046L19.4586 32.3326L21.1039 32.7406L21.7706 30.0406L23.0906 30.3833L22.4159 33.0739L24.0599 33.4833L24.7346 30.7539C27.5399 31.2873 29.6506 31.0779 30.5346 28.5393C31.2479 26.4953 30.4973 25.3259 29.0239 24.5459C30.0973 24.3086 30.9053 23.5953 31.1146 22.1406H31.1239ZM27.3693 27.4073C26.8653 29.4513 23.4226 28.3393 22.3119 28.0739L23.2146 24.4513C24.3266 24.7366 27.9013 25.2779 27.3693 27.3979V27.4073ZM27.8733 22.1126C27.4159 23.9659 24.5453 23.0246 23.6239 22.7966L24.4399 19.5166C25.3733 19.7459 28.3573 20.1833 27.8733 22.1126Z" fill="#ECAC31"/>
</svg>
