<svg width="16" height="17" viewBox="0 0 16 17" fill="none" xmlns="http://www.w3.org/2000/svg">
<path d="M8 16.5C12.4183 16.5 16 12.9183 16 8.5C16 4.08172 12.4183 0.5 8 0.5C3.58172 0.5 0 4.08172 0 8.5C0 12.9183 3.58172 16.5 8 16.5Z" fill="#F7931A"/>
<path d="M11.5941 7.51C11.7511 6.462 10.9526 5.8985 9.86163 5.5225L10.2156 4.1025L9.35163 3.8875L9.00663 5.27C8.77962 5.213 8.54663 5.16 8.31413 5.107L8.66162 3.7155L7.79763 3.5L7.44362 4.9195C7.25529 4.87717 7.07129 4.83383 6.89163 4.7895L6.89263 4.785L5.70063 4.4875L5.47063 5.4105C5.47063 5.4105 6.11213 5.5575 6.09863 5.5665C6.44863 5.654 6.51163 5.8855 6.50113 6.0695L6.09812 7.687C6.12246 7.69267 6.15246 7.70217 6.18813 7.7155L6.09663 7.693L5.53163 9.959C5.48863 10.065 5.38013 10.2245 5.13513 10.164C5.14413 10.1765 4.50713 10.0075 4.50713 10.0075L4.07812 10.9965L5.20312 11.277C5.41212 11.3295 5.61713 11.3845 5.81862 11.436L5.46113 12.872L6.32463 13.087L6.67863 11.667C6.91429 11.7303 7.14396 11.7898 7.36763 11.8455L7.01463 13.2595L7.87863 13.4745L8.23612 12.0415C9.71012 12.3205 10.8181 12.208 11.2846 10.875C11.6606 9.802 11.2661 9.1825 10.4906 8.779C11.0556 8.649 11.4806 8.2775 11.5941 7.51ZM9.61913 10.279C9.35263 11.3525 7.54513 10.772 6.95913 10.6265L7.43413 8.724C8.02013 8.8705 9.89863 9.16 9.61913 10.279ZM9.88663 7.4945C9.64313 8.471 8.13913 7.9745 7.65163 7.853L8.08162 6.128C8.56913 6.2495 10.1406 6.476 9.88663 7.4945Z" fill="white"/>
</svg>
