<svg width="97" height="29" viewBox="0 0 97 29" fill="none" xmlns="http://www.w3.org/2000/svg">
<rect x="0.418406" y="0.375437" width="107.65" height="28.1643" rx="14.0822" fill="url(#paint0_linear_9685_33601)" fill-opacity="0.1"/>
<rect x="0.418406" y="0.375437" width="107.65" height="28.1643" rx="14.0822" stroke="url(#paint1_linear_9685_33601)" stroke-width="0.625874"/>
<g clip-path="url(#clip0_9685_33601)">
<mask id="mask0_9685_33601" style="mask-type:luminance" maskUnits="userSpaceOnUse" x="6" y="6" width="17" height="17">
<path d="M6.36328 6.32031H22.636V22.593H6.36328V6.32031Z" fill="white"/>
<path fill-rule="evenodd" clip-rule="evenodd" d="M17.6282 13.5189H15.2417L16.6643 10.1999C16.6847 10.1523 16.693 10.1003 16.6884 10.0487C16.6838 9.99713 16.6664 9.94748 16.6379 9.90424C16.6094 9.86099 16.5705 9.82551 16.5249 9.80098C16.4793 9.77644 16.4282 9.76363 16.3764 9.76367H13.2471C13.1858 9.76362 13.1258 9.78156 13.0746 9.81527C13.0235 9.84898 12.9833 9.89698 12.9592 9.95331L11.0815 14.3344C11.0611 14.3821 11.0529 14.434 11.0575 14.4856C11.0621 14.5372 11.0794 14.5869 11.108 14.6301C11.1365 14.6733 11.1753 14.7088 11.221 14.7334C11.2666 14.7579 11.3176 14.7707 11.3694 14.7707H12.9179L11.079 19.3483C10.9539 19.6594 11.34 19.9229 11.5841 19.6925L14.7285 16.724L17.8316 14.0697C17.8802 14.0281 17.9149 13.9726 17.931 13.9107C17.9472 13.8488 17.9439 13.7834 17.9218 13.7234C17.8996 13.6634 17.8596 13.6116 17.8071 13.5751C17.7546 13.5385 17.6922 13.5189 17.6282 13.5189ZM14.7673 14.1448H16.7807L14.3098 16.259L12.1912 18.2587L13.6714 14.5741C13.6904 14.5267 13.6975 14.4752 13.6921 14.4244C13.6866 14.3735 13.6688 14.3248 13.6401 14.2824C13.6115 14.24 13.5729 14.2053 13.5277 14.1813C13.4825 14.1574 13.4322 14.1448 13.381 14.1448H11.8439L13.4536 10.3895H15.902L14.4794 13.7086C14.459 13.7562 14.4507 13.8081 14.4553 13.8597C14.46 13.9113 14.4773 13.961 14.5058 14.0042C14.5344 14.0475 14.5732 14.083 14.6189 14.1075C14.6645 14.132 14.7155 14.1448 14.7673 14.1448Z" fill="black"/>
</mask>
<g mask="url(#mask0_9685_33601)">
<path d="M14.4996 22.595C18.9932 22.595 22.636 18.9522 22.636 14.4586C22.636 9.96504 18.9932 6.32227 14.4996 6.32227C10.0061 6.32227 6.36328 9.96504 6.36328 14.4586C6.36328 18.9522 10.0061 22.595 14.4996 22.595Z" fill="url(#paint2_linear_9685_33601)"/>
</g>
<path d="M33.9916 14.3511C33.9916 14.5042 33.9828 14.6661 33.9651 14.8369H30.0959C30.1254 15.314 30.2873 15.6879 30.5818 15.9588C30.8821 16.2238 31.2443 16.3563 31.6683 16.3563C32.0158 16.3563 32.3044 16.2768 32.534 16.1178C32.7696 15.9529 32.9345 15.735 33.0287 15.4641H33.8944C33.7649 15.9294 33.5058 16.3092 33.1171 16.6037C32.7284 16.8923 32.2455 17.0365 31.6683 17.0365C31.209 17.0365 30.7967 16.9335 30.4316 16.7274C30.0724 16.5212 29.7897 16.2297 29.5836 15.8528C29.3774 15.47 29.2744 15.0283 29.2744 14.5277C29.2744 14.0272 29.3745 13.5884 29.5747 13.2115C29.775 12.8346 30.0547 12.546 30.4139 12.3458C30.7791 12.1397 31.1972 12.0366 31.6683 12.0366C32.1277 12.0366 32.534 12.1367 32.8874 12.337C33.2407 12.5372 33.5116 12.814 33.7001 13.1673C33.8944 13.5148 33.9916 13.9094 33.9916 14.3511ZM33.1612 14.1832C33.1612 13.877 33.0935 13.6149 32.9581 13.397C32.8226 13.1732 32.6371 13.0054 32.4015 12.8935C32.1719 12.7757 31.9157 12.7168 31.633 12.7168C31.2266 12.7168 30.8792 12.8464 30.5906 13.1055C30.3079 13.3646 30.146 13.7239 30.1048 14.1832H33.1612ZM37.005 17.0189C36.5986 17.0189 36.2335 16.9482 35.9096 16.8069C35.5916 16.6596 35.3413 16.4594 35.1587 16.2062C34.9761 15.947 34.8819 15.6496 34.876 15.314H35.7329C35.7623 15.6025 35.8801 15.8469 36.0863 16.0472C36.2983 16.2415 36.6045 16.3387 37.005 16.3387C37.3878 16.3387 37.6881 16.2444 37.906 16.056C38.1298 15.8616 38.2417 15.6143 38.2417 15.314C38.2417 15.0784 38.1769 14.887 38.0473 14.7398C37.9178 14.5925 37.7558 14.4806 37.5615 14.4041C37.3671 14.3275 37.1051 14.2451 36.7753 14.1567C36.3689 14.0507 36.0421 13.9447 35.7947 13.8387C35.5533 13.7327 35.3442 13.5678 35.1675 13.344C34.9968 13.1143 34.9114 12.8081 34.9114 12.4253C34.9114 12.0896 34.9968 11.7922 35.1675 11.5331C35.3383 11.274 35.5768 11.0737 35.8831 10.9324C36.1952 10.7911 36.5515 10.7204 36.952 10.7204C37.5291 10.7204 38.0002 10.8647 38.3654 11.1532C38.7364 11.4418 38.9454 11.8246 38.9926 12.3016H38.1092C38.0797 12.0661 37.9561 11.8599 37.7382 11.6833C37.5203 11.5007 37.2317 11.4094 36.8725 11.4094C36.5368 11.4094 36.2629 11.4978 36.0509 11.6744C35.8389 11.8452 35.7329 12.0867 35.7329 12.3988C35.7329 12.6226 35.7947 12.8052 35.9184 12.9465C36.048 13.0878 36.204 13.1968 36.3866 13.2734C36.5751 13.344 36.8371 13.4265 37.1728 13.5207C37.5792 13.6326 37.906 13.7445 38.1534 13.8564C38.4007 13.9624 38.6127 14.1302 38.7894 14.3599C38.9661 14.5837 39.0544 14.8899 39.0544 15.2786C39.0544 15.579 38.9749 15.8616 38.8159 16.1267C38.6569 16.3917 38.4213 16.6066 38.1092 16.7715C37.7971 16.9364 37.429 17.0189 37.005 17.0189ZM40.6526 11.3299C40.4994 11.3299 40.3699 11.2769 40.2639 11.1709C40.1579 11.0649 40.1049 10.9353 40.1049 10.7822C40.1049 10.6291 40.1579 10.4995 40.2639 10.3935C40.3699 10.2875 40.4994 10.2345 40.6526 10.2345C40.7998 10.2345 40.9235 10.2875 41.0236 10.3935C41.1296 10.4995 41.1826 10.6291 41.1826 10.7822C41.1826 10.9353 41.1296 11.0649 41.0236 11.1709C40.9235 11.2769 40.7998 11.3299 40.6526 11.3299ZM41.0412 12.1161V16.957H40.2374V12.1161H41.0412ZM48.2327 12.0278C48.6097 12.0278 48.9453 12.1073 49.2398 12.2663C49.5343 12.4194 49.7669 12.652 49.9377 12.9642C50.1085 13.2763 50.1938 13.6561 50.1938 14.1037V16.957H49.3988V14.2186C49.3988 13.7357 49.2781 13.3676 49.0366 13.1143C48.8011 12.8552 48.4801 12.7257 48.0737 12.7257C47.6556 12.7257 47.3229 12.8611 47.0755 13.132C46.8282 13.397 46.7045 13.7828 46.7045 14.2892V16.957H45.9095V14.2186C45.9095 13.7357 45.7887 13.3676 45.5473 13.1143C45.3117 12.8552 44.9908 12.7257 44.5844 12.7257C44.1663 12.7257 43.8335 12.8611 43.5862 13.132C43.3388 13.397 43.2152 13.7828 43.2152 14.2892V16.957H42.4113V12.1161H43.2152V12.814C43.3742 12.5608 43.5862 12.3664 43.8512 12.231C44.1221 12.0955 44.4195 12.0278 44.7434 12.0278C45.1498 12.0278 45.509 12.1191 45.8211 12.3016C46.1333 12.4842 46.3659 12.7522 46.519 13.1055C46.6544 12.7639 46.8782 12.4989 47.1904 12.3105C47.5025 12.122 47.85 12.0278 48.2327 12.0278ZM53.5672 13.874C53.5672 13.2734 53.7027 12.7345 53.9736 12.2575C54.2445 11.7746 54.6126 11.3976 55.0778 11.1267C55.5489 10.8558 56.0701 10.7204 56.6414 10.7204C57.3128 10.7204 57.8987 10.8823 58.3993 11.2062C58.8999 11.5302 59.265 11.9895 59.4947 12.5843H58.5318C58.361 12.2133 58.1137 11.9277 57.7898 11.7274C57.4718 11.5272 57.089 11.4271 56.6414 11.4271C56.2115 11.4271 55.8257 11.5272 55.4842 11.7274C55.1426 11.9277 54.8746 12.2133 54.6803 12.5843C54.486 12.9494 54.3888 13.3794 54.3888 13.874C54.3888 14.3628 54.486 14.7928 54.6803 15.1638C54.8746 15.5289 55.1426 15.8116 55.4842 16.0118C55.8257 16.2121 56.2115 16.3122 56.6414 16.3122C57.089 16.3122 57.4718 16.215 57.7898 16.0207C58.1137 15.8204 58.361 15.5348 58.5318 15.1638H59.4947C59.265 15.7527 58.8999 16.2091 58.3993 16.533C57.8987 16.851 57.3128 17.01 56.6414 17.01C56.0701 17.01 55.5489 16.8775 55.0778 16.6125C54.6126 16.3416 54.2445 15.9676 53.9736 15.4906C53.7027 15.0136 53.5672 14.4747 53.5672 13.874ZM60.391 14.5189C60.391 14.0242 60.4911 13.5914 60.6913 13.2203C60.8916 12.8434 61.1654 12.5519 61.5129 12.3458C61.8662 12.1397 62.2578 12.0366 62.6878 12.0366C63.1118 12.0366 63.4799 12.1279 63.792 12.3105C64.1041 12.493 64.3367 12.7227 64.4898 12.9995V12.1161H65.3026V16.957H64.4898V16.056C64.3308 16.3387 64.0923 16.5742 63.7743 16.7627C63.4622 16.9453 63.0971 17.0365 62.6789 17.0365C62.249 17.0365 61.8603 16.9305 61.5129 16.7185C61.1654 16.5065 60.8916 16.2091 60.6913 15.8263C60.4911 15.4435 60.391 15.0077 60.391 14.5189ZM64.4898 14.5277C64.4898 14.1626 64.4162 13.8446 64.269 13.5737C64.1218 13.3028 63.9215 13.0967 63.6683 12.9553C63.421 12.8081 63.1471 12.7345 62.8468 12.7345C62.5464 12.7345 62.2726 12.8052 62.0252 12.9465C61.7779 13.0878 61.5806 13.294 61.4334 13.5649C61.2861 13.8358 61.2125 14.1538 61.2125 14.5189C61.2125 14.8899 61.2861 15.2138 61.4334 15.4906C61.5806 15.7615 61.7779 15.9706 62.0252 16.1178C62.2726 16.2592 62.5464 16.3298 62.8468 16.3298C63.1471 16.3298 63.421 16.2592 63.6683 16.1178C63.9215 15.9706 64.1218 15.7615 64.269 15.4906C64.4162 15.2138 64.4898 14.8929 64.4898 14.5277ZM67.4649 12.9023C67.6062 12.6255 67.8065 12.4106 68.0656 12.2575C68.3306 12.1043 68.6516 12.0278 69.0285 12.0278V12.8582H68.8165C67.9154 12.8582 67.4649 13.347 67.4649 14.3246V16.957H66.661V12.1161H67.4649V12.9023ZM69.6561 14.5189C69.6561 14.0242 69.7562 13.5914 69.9564 13.2203C70.1567 12.8434 70.4305 12.5519 70.778 12.3458C71.1313 12.1397 71.5259 12.0366 71.9617 12.0366C72.3386 12.0366 72.689 12.125 73.0129 12.3016C73.3368 12.4724 73.5842 12.6992 73.7549 12.9818V10.42H74.5677V16.957H73.7549V16.0472C73.5959 16.3357 73.3604 16.5742 73.0482 16.7627C72.7361 16.9453 72.371 17.0365 71.9529 17.0365C71.523 17.0365 71.1313 16.9305 70.778 16.7185C70.4305 16.5065 70.1567 16.2091 69.9564 15.8263C69.7562 15.4435 69.6561 15.0077 69.6561 14.5189ZM73.7549 14.5277C73.7549 14.1626 73.6813 13.8446 73.5341 13.5737C73.3869 13.3028 73.1866 13.0967 72.9334 12.9553C72.6861 12.8081 72.4122 12.7345 72.1119 12.7345C71.8115 12.7345 71.5377 12.8052 71.2903 12.9465C71.043 13.0878 70.8457 13.294 70.6985 13.5649C70.5512 13.8358 70.4776 14.1538 70.4776 14.5189C70.4776 14.8899 70.5512 15.2138 70.6985 15.4906C70.8457 15.7615 71.043 15.9706 71.2903 16.1178C71.5377 16.2592 71.8115 16.3298 72.1119 16.3298C72.4122 16.3298 72.6861 16.2592 72.9334 16.1178C73.1866 15.9706 73.3869 15.7615 73.5341 15.4906C73.6813 15.2138 73.7549 14.8929 73.7549 14.5277Z" fill="#FAFAFA"/>
</g>
<defs>
<linearGradient id="paint0_linear_9685_33601" x1="12.3615" y1="-4.11722" x2="30.7701" y2="54.8766" gradientUnits="userSpaceOnUse">
<stop stop-color="#FCA509"/>
<stop offset="1" stop-color="#880306"/>
</linearGradient>
<linearGradient id="paint1_linear_9685_33601" x1="12.3615" y1="-4.11722" x2="30.7701" y2="54.8766" gradientUnits="userSpaceOnUse">
<stop stop-color="#FCA509"/>
<stop offset="1" stop-color="#880306"/>
</linearGradient>
<linearGradient id="paint2_linear_9685_33601" x1="14.4996" y1="6.32227" x2="14.4996" y2="22.595" gradientUnits="userSpaceOnUse">
<stop stop-color="#CCCCCC"/>
<stop offset="1" stop-color="#666666"/>
</linearGradient>
<clipPath id="clip0_9685_33601">
<rect width="81.3636" height="16.2727" fill="white" transform="translate(6.36328 6.32031)"/>
</clipPath>
</defs>
</svg>
