<svg width="379" height="341" viewBox="0 0 379 341" fill="none" xmlns="http://www.w3.org/2000/svg">
<g opacity="0.15">
<rect x="8" y="297" width="6.10601" height="12" rx="1" fill="#12DD00"/>
<rect x="17.1602" y="288" width="6.10601" height="21" rx="1" fill="#12DD00"/>
<rect x="141.316" y="302" width="6.10601" height="7" rx="1" fill="#12DD00"/>
<rect x="151.492" y="294" width="6.10601" height="15.1136" rx="1" fill="#12DD00"/>
<rect x="161.668" y="279" width="6.10601" height="30" rx="1" fill="#12DD00"/>
<rect x="194.234" y="288" width="6.10601" height="21" rx="1" fill="#12DD00"/>
<rect x="203.391" y="253" width="6.10601" height="56" rx="1" fill="#12DD00"/>
<rect x="228.832" y="278" width="6.10601" height="30.6923" rx="1" fill="#12DD00"/>
<rect x="249.188" y="269" width="6.10601" height="39.8461" rx="1" fill="#12DD00"/>
<rect x="262.418" y="269" width="6.10601" height="39.8461" rx="1" fill="#12DD00"/>
<rect x="35.4766" y="301" width="6.10601" height="8" rx="1" fill="#12DD00"/>
<rect x="53.7969" y="301" width="6.10601" height="8" rx="1" fill="#12DD00"/>
<rect x="72.1133" y="288" width="6.10601" height="21" rx="1" fill="#12DD00"/>
<rect x="92.4648" y="280" width="6.10601" height="28.5385" rx="1" fill="#12DD00"/>
<rect x="103.66" y="288" width="6.10601" height="21" rx="1" fill="#12DD00"/>
<rect width="6.10601" height="5" rx="0.927536" transform="matrix(-1 0 0 1 32.4258 304)" fill="#FF3F3F"/>
<rect width="6.10601" height="21" rx="0.927536" transform="matrix(-1 0 0 1 50.7422 288)" fill="#FF3F3F"/>
<rect width="6.10601" height="42" rx="0.927536" transform="matrix(-1 0 0 1 118.926 267)" fill="#FF3F3F"/>
<rect width="6.10601" height="7.94117" rx="0.927536" transform="matrix(-1 0 0 1 127.066 300.647)" fill="#FF3F3F"/>
<rect width="6.10601" height="5.55882" rx="0.927536" transform="matrix(-1 0 0 1 137.242 303.353)" fill="#FF3F3F"/>
<rect width="6.10601" height="27" rx="0.927536" transform="matrix(-1 0 0 1 177.949 282)" fill="#FF3F3F"/>
<rect width="6.10601" height="16.4571" rx="0.927536" transform="matrix(-1 0 0 1 188.129 292)" fill="#FF3F3F"/>
<rect width="6.10601" height="16" rx="0.927536" transform="matrix(-1 0 0 1 221.711 293)" fill="#FF3F3F"/>
<rect width="6.10601" height="10" rx="0.927536" transform="matrix(-1 0 0 1 277.684 299)" fill="#FF3F3F"/>
<rect width="6.10601" height="15" rx="0.927536" transform="matrix(-1 0 0 1 286.84 294)" fill="#FF3F3F"/>
<rect width="6.10601" height="20" rx="0.927536" transform="matrix(-1 0 0 1 244.098 289)" fill="#FF3F3F"/>
<rect width="6.10601" height="28.7692" rx="0.927536" transform="matrix(-1 0 0 1 69.0586 280)" fill="#FF3F3F"/>
<rect width="6.10601" height="12" rx="0.927536" transform="matrix(-1 0 0 1 89.4141 297)" fill="#FF3F3F"/>
<rect width="6.10601" height="7" rx="0.927536" transform="matrix(-1 0 0 1 296 302)" fill="#FF3F3F"/>
<rect width="6.08481" height="7" rx="0.927536" transform="matrix(-1 0 0 1 304.086 301.974)" fill="#FF3F3F"/>
<rect x="306" y="300.974" width="2" height="8" rx="1" fill="#12DD00"/>
</g>
<path d="M37.012 18.752C37.492 18.752 37.732 18.956 37.732 19.364C37.732 19.788 37.492 20 37.012 20H32.956C32.468 20 32.224 19.788 32.224 19.364C32.224 18.956 32.468 18.752 32.956 18.752H34.204V13.28L33.052 13.988C32.94 14.052 32.84 14.084 32.752 14.084C32.584 14.084 32.44 14.012 32.32 13.868C32.208 13.724 32.152 13.564 32.152 13.388C32.152 13.156 32.256 12.976 32.464 12.848L34.324 11.696C34.564 11.552 34.792 11.48 35.008 11.48C35.232 11.48 35.412 11.548 35.548 11.684C35.684 11.82 35.752 12.008 35.752 12.248V18.752H37.012ZM42.2393 14.588C42.7673 14.588 43.2313 14.704 43.6313 14.936C44.0393 15.16 44.3553 15.476 44.5793 15.884C44.8033 16.292 44.9153 16.76 44.9153 17.288C44.9153 17.84 44.7873 18.328 44.5313 18.752C44.2833 19.176 43.9273 19.508 43.4633 19.748C43.0073 19.98 42.4793 20.096 41.8793 20.096C41.3833 20.096 40.8953 20.016 40.4153 19.856C39.9433 19.688 39.5393 19.464 39.2033 19.184C39.0193 19.024 38.9273 18.836 38.9273 18.62C38.9273 18.444 38.9753 18.296 39.0713 18.176C39.1753 18.048 39.2953 17.984 39.4313 17.984C39.5113 17.984 39.5873 18 39.6593 18.032C39.7313 18.056 39.8153 18.1 39.9113 18.164C40.2313 18.388 40.5433 18.56 40.8473 18.68C41.1513 18.8 41.4753 18.86 41.8193 18.86C42.3473 18.86 42.7513 18.728 43.0313 18.464C43.3113 18.2 43.4513 17.824 43.4513 17.336C43.4513 16.864 43.3073 16.492 43.0193 16.22C42.7393 15.94 42.3513 15.8 41.8553 15.8C41.5433 15.8 41.2633 15.844 41.0153 15.932C40.7753 16.02 40.5273 16.168 40.2713 16.376C40.1193 16.48 39.9633 16.532 39.8033 16.532C39.6433 16.532 39.5073 16.484 39.3953 16.388C39.2833 16.292 39.2273 16.164 39.2273 16.004V12.26C39.2273 12.036 39.2913 11.86 39.4193 11.732C39.5473 11.604 39.7273 11.54 39.9593 11.54H43.9553C44.4353 11.54 44.6753 11.74 44.6753 12.14C44.6753 12.54 44.4353 12.74 43.9553 12.74H40.7393V15.02C41.1473 14.732 41.6473 14.588 42.2393 14.588ZM53.1426 13.988C53.7826 13.988 54.2706 14.18 54.6066 14.564C54.9506 14.94 55.1226 15.552 55.1226 16.4V19.352C55.1226 19.584 55.0506 19.764 54.9066 19.892C54.7706 20.012 54.5906 20.072 54.3666 20.072C54.1506 20.072 53.9706 20.012 53.8266 19.892C53.6906 19.764 53.6226 19.584 53.6226 19.352V16.4C53.6226 15.96 53.5426 15.648 53.3826 15.464C53.2306 15.272 52.9946 15.176 52.6746 15.176C52.2826 15.176 51.9706 15.312 51.7386 15.584C51.5066 15.848 51.3906 16.212 51.3906 16.676V19.352C51.3906 19.584 51.3186 19.764 51.1746 19.892C51.0386 20.012 50.8626 20.072 50.6466 20.072C50.4306 20.072 50.2506 20.012 50.1066 19.892C49.9626 19.764 49.8906 19.584 49.8906 19.352V16.4C49.8906 15.96 49.8106 15.648 49.6506 15.464C49.4986 15.272 49.2626 15.176 48.9426 15.176C48.5506 15.176 48.2386 15.312 48.0066 15.584C47.7826 15.848 47.6706 16.212 47.6706 16.676V19.352C47.6706 19.584 47.5986 19.764 47.4546 19.892C47.3106 20.012 47.1306 20.072 46.9146 20.072C46.6986 20.072 46.5186 20.012 46.3746 19.892C46.2386 19.764 46.1706 19.584 46.1706 19.352V14.708C46.1706 14.484 46.2426 14.312 46.3866 14.192C46.5306 14.072 46.7106 14.012 46.9266 14.012C47.1346 14.012 47.3026 14.072 47.4306 14.192C47.5666 14.304 47.6346 14.468 47.6346 14.684V14.972C47.8186 14.652 48.0626 14.408 48.3666 14.24C48.6786 14.072 49.0346 13.988 49.4346 13.988C50.3146 13.988 50.9026 14.356 51.1986 15.092C51.3746 14.756 51.6346 14.488 51.9786 14.288C52.3226 14.088 52.7106 13.988 53.1426 13.988ZM57.3912 20.072C57.1752 20.072 56.9952 20.012 56.8512 19.892C56.7152 19.764 56.6472 19.584 56.6472 19.352V14.72C56.6472 14.488 56.7152 14.312 56.8512 14.192C56.9952 14.072 57.1752 14.012 57.3912 14.012C57.6072 14.012 57.7872 14.072 57.9312 14.192C58.0752 14.312 58.1472 14.488 58.1472 14.72V19.352C58.1472 19.584 58.0752 19.764 57.9312 19.892C57.7872 20.012 57.6072 20.072 57.3912 20.072ZM57.3912 12.944C57.1192 12.944 56.9032 12.872 56.7432 12.728C56.5832 12.576 56.5032 12.38 56.5032 12.14C56.5032 11.9 56.5832 11.708 56.7432 11.564C56.9032 11.42 57.1192 11.348 57.3912 11.348C57.6552 11.348 57.8672 11.42 58.0272 11.564C58.1952 11.708 58.2792 11.9 58.2792 12.14C58.2792 12.38 58.1992 12.576 58.0392 12.728C57.8792 12.872 57.6632 12.944 57.3912 12.944ZM63.1021 13.988C63.8061 13.988 64.3301 14.188 64.6741 14.588C65.0181 14.988 65.1901 15.592 65.1901 16.4V19.352C65.1901 19.576 65.1221 19.752 64.9861 19.88C64.8581 20.008 64.6781 20.072 64.4461 20.072C64.2141 20.072 64.0301 20.008 63.8941 19.88C63.7581 19.752 63.6901 19.576 63.6901 19.352V16.484C63.6901 16.028 63.6021 15.696 63.4261 15.488C63.2581 15.28 62.9901 15.176 62.6221 15.176C62.1901 15.176 61.8421 15.312 61.5781 15.584C61.3221 15.856 61.1941 16.22 61.1941 16.676V19.352C61.1941 19.576 61.1261 19.752 60.9901 19.88C60.8541 20.008 60.6701 20.072 60.4381 20.072C60.2061 20.072 60.0221 20.008 59.8861 19.88C59.7581 19.752 59.6941 19.576 59.6941 19.352V14.708C59.6941 14.5 59.7621 14.332 59.8981 14.204C60.0341 14.076 60.2181 14.012 60.4501 14.012C60.6581 14.012 60.8261 14.076 60.9541 14.204C61.0901 14.324 61.1581 14.484 61.1581 14.684V15.008C61.3581 14.68 61.6261 14.428 61.9621 14.252C62.2981 14.076 62.6781 13.988 63.1021 13.988Z" fill="#99A6AF" fill-opacity="0.8"/>
<path d="M108.012 18.752C108.492 18.752 108.732 18.956 108.732 19.364C108.732 19.788 108.492 20 108.012 20H103.956C103.468 20 103.224 19.788 103.224 19.364C103.224 18.956 103.468 18.752 103.956 18.752H105.204V13.28L104.052 13.988C103.94 14.052 103.84 14.084 103.752 14.084C103.584 14.084 103.44 14.012 103.32 13.868C103.208 13.724 103.152 13.564 103.152 13.388C103.152 13.156 103.256 12.976 103.464 12.848L105.324 11.696C105.564 11.552 105.792 11.48 106.008 11.48C106.232 11.48 106.412 11.548 106.548 11.684C106.684 11.82 106.752 12.008 106.752 12.248V18.752H108.012ZM113.407 13.988C114.783 13.988 115.471 14.792 115.471 16.4V19.352C115.471 19.576 115.403 19.752 115.267 19.88C115.139 20.008 114.959 20.072 114.727 20.072C114.495 20.072 114.311 20.008 114.175 19.88C114.039 19.752 113.971 19.576 113.971 19.352V16.4C113.971 15.976 113.883 15.668 113.707 15.476C113.539 15.276 113.271 15.176 112.903 15.176C112.471 15.176 112.123 15.312 111.859 15.584C111.603 15.856 111.475 16.22 111.475 16.676V19.352C111.475 19.576 111.407 19.752 111.271 19.88C111.135 20.008 110.951 20.072 110.719 20.072C110.487 20.072 110.303 20.008 110.167 19.88C110.039 19.752 109.975 19.576 109.975 19.352V12.176C109.975 11.968 110.043 11.8 110.179 11.672C110.323 11.544 110.507 11.48 110.731 11.48C110.955 11.48 111.135 11.54 111.271 11.66C111.407 11.78 111.475 11.944 111.475 12.152V14.948C111.675 14.636 111.939 14.4 112.267 14.24C112.603 14.072 112.983 13.988 113.407 13.988Z" fill="#F7F7F7"/>
<path d="M160.012 18.752C160.492 18.752 160.732 18.956 160.732 19.364C160.732 19.788 160.492 20 160.012 20H155.956C155.468 20 155.224 19.788 155.224 19.364C155.224 18.956 155.468 18.752 155.956 18.752H157.204V13.28L156.052 13.988C155.94 14.052 155.84 14.084 155.752 14.084C155.584 14.084 155.44 14.012 155.32 13.868C155.208 13.724 155.152 13.564 155.152 13.388C155.152 13.156 155.256 12.976 155.464 12.848L157.324 11.696C157.564 11.552 157.792 11.48 158.008 11.48C158.232 11.48 158.412 11.548 158.548 11.684C158.684 11.82 158.752 12.008 158.752 12.248V18.752H160.012ZM166.871 11.48C167.095 11.48 167.279 11.544 167.423 11.672C167.567 11.8 167.639 11.968 167.639 12.176V19.352C167.639 19.568 167.571 19.74 167.435 19.868C167.299 19.996 167.119 20.06 166.895 20.06C166.671 20.06 166.491 19.996 166.355 19.868C166.219 19.74 166.151 19.568 166.151 19.352V19.052C165.975 19.38 165.719 19.636 165.383 19.82C165.055 20.004 164.679 20.096 164.255 20.096C163.751 20.096 163.299 19.968 162.899 19.712C162.507 19.456 162.199 19.096 161.975 18.632C161.759 18.16 161.651 17.62 161.651 17.012C161.651 16.404 161.759 15.872 161.975 15.416C162.199 14.96 162.507 14.608 162.899 14.36C163.291 14.112 163.743 13.988 164.255 13.988C164.679 13.988 165.055 14.076 165.383 14.252C165.711 14.428 165.963 14.676 166.139 14.996V12.152C166.139 11.952 166.203 11.792 166.331 11.672C166.467 11.544 166.647 11.48 166.871 11.48ZM164.651 18.932C165.131 18.932 165.499 18.768 165.755 18.44C166.019 18.112 166.151 17.644 166.151 17.036C166.151 16.428 166.019 15.964 165.755 15.644C165.499 15.316 165.135 15.152 164.663 15.152C164.183 15.152 163.811 15.312 163.547 15.632C163.283 15.952 163.151 16.412 163.151 17.012C163.151 17.62 163.283 18.092 163.547 18.428C163.811 18.764 164.179 18.932 164.651 18.932Z" fill="#99A6AF" fill-opacity="0.8"/>
<path d="M212.012 18.752C212.492 18.752 212.732 18.956 212.732 19.364C212.732 19.788 212.492 20 212.012 20H207.956C207.468 20 207.224 19.788 207.224 19.364C207.224 18.956 207.468 18.752 207.956 18.752H209.204V13.28L208.052 13.988C207.94 14.052 207.84 14.084 207.752 14.084C207.584 14.084 207.44 14.012 207.32 13.868C207.208 13.724 207.152 13.564 207.152 13.388C207.152 13.156 207.256 12.976 207.464 12.848L209.324 11.696C209.564 11.552 209.792 11.48 210.008 11.48C210.232 11.48 210.412 11.548 210.548 11.684C210.684 11.82 210.752 12.008 210.752 12.248V18.752H212.012ZM221.907 14.456C221.963 14.312 222.043 14.204 222.147 14.132C222.259 14.06 222.379 14.024 222.507 14.024C222.691 14.024 222.855 14.088 222.999 14.216C223.151 14.336 223.227 14.488 223.227 14.672C223.227 14.776 223.207 14.868 223.167 14.948L221.187 19.592C221.123 19.744 221.023 19.86 220.887 19.94C220.759 20.02 220.615 20.06 220.455 20.06C220.303 20.06 220.159 20.02 220.023 19.94C219.895 19.86 219.799 19.744 219.735 19.592L218.307 16.16L216.927 19.592C216.863 19.744 216.763 19.86 216.627 19.94C216.499 20.02 216.355 20.06 216.195 20.06C216.043 20.06 215.899 20.02 215.763 19.94C215.627 19.86 215.527 19.744 215.463 19.592L213.495 14.948C213.455 14.844 213.435 14.756 213.435 14.684C213.435 14.5 213.515 14.344 213.675 14.216C213.835 14.08 214.011 14.012 214.203 14.012C214.339 14.012 214.463 14.048 214.575 14.12C214.687 14.192 214.771 14.3 214.827 14.444L216.243 18.104L217.695 14.48C217.759 14.328 217.851 14.216 217.971 14.144C218.091 14.064 218.223 14.024 218.367 14.024C218.511 14.024 218.643 14.064 218.763 14.144C218.883 14.216 218.975 14.328 219.039 14.48L220.503 18.116L221.907 14.456Z" fill="#99A6AF" fill-opacity="0.8"/>
<path d="M271.012 18.752C271.492 18.752 271.732 18.956 271.732 19.364C271.732 19.788 271.492 20 271.012 20H266.956C266.468 20 266.224 19.788 266.224 19.364C266.224 18.956 266.468 18.752 266.956 18.752H268.204V13.28L267.052 13.988C266.94 14.052 266.84 14.084 266.752 14.084C266.584 14.084 266.44 14.012 266.32 13.868C266.208 13.724 266.152 13.564 266.152 13.388C266.152 13.156 266.256 12.976 266.464 12.848L268.324 11.696C268.564 11.552 268.792 11.48 269.008 11.48C269.232 11.48 269.412 11.548 269.548 11.684C269.684 11.82 269.752 12.008 269.752 12.248V18.752H271.012ZM279.947 13.988C280.587 13.988 281.075 14.18 281.411 14.564C281.755 14.94 281.927 15.552 281.927 16.4V19.352C281.927 19.584 281.855 19.764 281.711 19.892C281.575 20.012 281.395 20.072 281.171 20.072C280.955 20.072 280.775 20.012 280.631 19.892C280.495 19.764 280.427 19.584 280.427 19.352V16.4C280.427 15.96 280.347 15.648 280.187 15.464C280.035 15.272 279.799 15.176 279.479 15.176C279.087 15.176 278.775 15.312 278.543 15.584C278.311 15.848 278.195 16.212 278.195 16.676V19.352C278.195 19.584 278.123 19.764 277.979 19.892C277.843 20.012 277.667 20.072 277.451 20.072C277.235 20.072 277.055 20.012 276.911 19.892C276.767 19.764 276.695 19.584 276.695 19.352V16.4C276.695 15.96 276.615 15.648 276.455 15.464C276.303 15.272 276.067 15.176 275.747 15.176C275.355 15.176 275.043 15.312 274.811 15.584C274.587 15.848 274.475 16.212 274.475 16.676V19.352C274.475 19.584 274.403 19.764 274.259 19.892C274.115 20.012 273.935 20.072 273.719 20.072C273.503 20.072 273.323 20.012 273.179 19.892C273.043 19.764 272.975 19.584 272.975 19.352V14.708C272.975 14.484 273.047 14.312 273.191 14.192C273.335 14.072 273.515 14.012 273.731 14.012C273.939 14.012 274.107 14.072 274.235 14.192C274.371 14.304 274.439 14.468 274.439 14.684V14.972C274.623 14.652 274.867 14.408 275.171 14.24C275.483 14.072 275.839 13.988 276.239 13.988C277.119 13.988 277.707 14.356 278.003 15.092C278.179 14.756 278.439 14.488 278.783 14.288C279.127 14.088 279.515 13.988 279.947 13.988Z" fill="#99A6AF" fill-opacity="0.8"/>
<path d="M314.68 20.072C314.448 20.072 314.26 20 314.116 19.856C313.98 19.712 313.912 19.524 313.912 19.292V12.248C313.912 12.016 313.98 11.832 314.116 11.696C314.26 11.552 314.448 11.48 314.68 11.48C314.92 11.48 315.108 11.552 315.244 11.696C315.388 11.832 315.46 12.016 315.46 12.248V19.292C315.46 19.524 315.388 19.712 315.244 19.856C315.108 20 314.92 20.072 314.68 20.072ZM320.563 13.988C321.267 13.988 321.791 14.188 322.135 14.588C322.479 14.988 322.651 15.592 322.651 16.4V19.352C322.651 19.576 322.583 19.752 322.447 19.88C322.319 20.008 322.139 20.072 321.907 20.072C321.675 20.072 321.491 20.008 321.355 19.88C321.219 19.752 321.151 19.576 321.151 19.352V16.484C321.151 16.028 321.063 15.696 320.887 15.488C320.719 15.28 320.451 15.176 320.083 15.176C319.651 15.176 319.303 15.312 319.039 15.584C318.783 15.856 318.655 16.22 318.655 16.676V19.352C318.655 19.576 318.587 19.752 318.451 19.88C318.315 20.008 318.131 20.072 317.899 20.072C317.667 20.072 317.483 20.008 317.347 19.88C317.219 19.752 317.155 19.576 317.155 19.352V14.708C317.155 14.5 317.223 14.332 317.359 14.204C317.495 14.076 317.679 14.012 317.911 14.012C318.119 14.012 318.287 14.076 318.415 14.204C318.551 14.324 318.619 14.484 318.619 14.684V15.008C318.819 14.68 319.087 14.428 319.423 14.252C319.759 14.076 320.139 13.988 320.563 13.988ZM329.071 11.48C329.295 11.48 329.479 11.544 329.623 11.672C329.767 11.8 329.839 11.968 329.839 12.176V19.352C329.839 19.568 329.771 19.74 329.635 19.868C329.499 19.996 329.319 20.06 329.095 20.06C328.871 20.06 328.691 19.996 328.555 19.868C328.419 19.74 328.351 19.568 328.351 19.352V19.052C328.175 19.38 327.919 19.636 327.583 19.82C327.255 20.004 326.879 20.096 326.455 20.096C325.951 20.096 325.499 19.968 325.099 19.712C324.707 19.456 324.399 19.096 324.175 18.632C323.959 18.16 323.851 17.62 323.851 17.012C323.851 16.404 323.959 15.872 324.175 15.416C324.399 14.96 324.707 14.608 325.099 14.36C325.491 14.112 325.943 13.988 326.455 13.988C326.879 13.988 327.255 14.076 327.583 14.252C327.911 14.428 328.163 14.676 328.339 14.996V12.152C328.339 11.952 328.403 11.792 328.531 11.672C328.667 11.544 328.847 11.48 329.071 11.48ZM326.851 18.932C327.331 18.932 327.699 18.768 327.955 18.44C328.219 18.112 328.351 17.644 328.351 17.036C328.351 16.428 328.219 15.964 327.955 15.644C327.699 15.316 327.335 15.152 326.863 15.152C326.383 15.152 326.011 15.312 325.747 15.632C325.483 15.952 325.351 16.412 325.351 17.012C325.351 17.62 325.483 18.092 325.747 18.428C326.011 18.764 326.379 18.932 326.851 18.932ZM332.126 20.072C331.91 20.072 331.73 20.012 331.586 19.892C331.45 19.764 331.382 19.584 331.382 19.352V14.72C331.382 14.488 331.45 14.312 331.586 14.192C331.73 14.072 331.91 14.012 332.126 14.012C332.342 14.012 332.522 14.072 332.666 14.192C332.81 14.312 332.882 14.488 332.882 14.72V19.352C332.882 19.584 332.81 19.764 332.666 19.892C332.522 20.012 332.342 20.072 332.126 20.072ZM332.126 12.944C331.854 12.944 331.638 12.872 331.478 12.728C331.318 12.576 331.238 12.38 331.238 12.14C331.238 11.9 331.318 11.708 331.478 11.564C331.638 11.42 331.854 11.348 332.126 11.348C332.39 11.348 332.602 11.42 332.762 11.564C332.93 11.708 333.014 11.9 333.014 12.14C333.014 12.38 332.934 12.576 332.774 12.728C332.614 12.872 332.398 12.944 332.126 12.944ZM337.032 20.096C336.448 20.096 335.932 19.972 335.484 19.724C335.044 19.476 334.704 19.124 334.464 18.668C334.224 18.212 334.104 17.68 334.104 17.072C334.104 16.464 334.228 15.928 334.476 15.464C334.732 14.992 335.088 14.628 335.544 14.372C336 14.116 336.524 13.988 337.116 13.988C337.428 13.988 337.74 14.032 338.052 14.12C338.372 14.208 338.652 14.328 338.892 14.48C339.148 14.648 339.276 14.86 339.276 15.116C339.276 15.292 339.232 15.436 339.144 15.548C339.064 15.652 338.956 15.704 338.82 15.704C338.732 15.704 338.64 15.684 338.544 15.644C338.448 15.604 338.352 15.556 338.256 15.5C338.08 15.396 337.912 15.316 337.752 15.26C337.592 15.196 337.408 15.164 337.2 15.164C336.704 15.164 336.32 15.328 336.048 15.656C335.784 15.976 335.652 16.44 335.652 17.048C335.652 17.648 335.784 18.112 336.048 18.44C336.32 18.76 336.704 18.92 337.2 18.92C337.4 18.92 337.576 18.892 337.728 18.836C337.888 18.772 338.064 18.688 338.256 18.584C338.376 18.512 338.48 18.46 338.568 18.428C338.656 18.388 338.744 18.368 338.832 18.368C338.96 18.368 339.068 18.424 339.156 18.536C339.244 18.648 339.288 18.788 339.288 18.956C339.288 19.092 339.256 19.212 339.192 19.316C339.136 19.412 339.04 19.5 338.904 19.58C338.656 19.74 338.368 19.868 338.04 19.964C337.712 20.052 337.376 20.096 337.032 20.096ZM342.832 13.988C343.648 13.988 344.252 14.192 344.644 14.6C345.044 15 345.244 15.612 345.244 16.436V19.364C345.244 19.58 345.18 19.752 345.052 19.88C344.924 20 344.748 20.06 344.524 20.06C344.316 20.06 344.144 19.996 344.008 19.868C343.88 19.74 343.816 19.572 343.816 19.364V19.1C343.68 19.412 343.464 19.656 343.168 19.832C342.88 20.008 342.544 20.096 342.16 20.096C341.768 20.096 341.412 20.016 341.092 19.856C340.772 19.696 340.52 19.476 340.336 19.196C340.152 18.916 340.06 18.604 340.06 18.26C340.06 17.828 340.168 17.488 340.384 17.24C340.608 16.992 340.968 16.812 341.464 16.7C341.96 16.588 342.644 16.532 343.516 16.532H343.816V16.256C343.816 15.864 343.732 15.58 343.564 15.404C343.396 15.22 343.124 15.128 342.748 15.128C342.516 15.128 342.28 15.164 342.04 15.236C341.8 15.3 341.516 15.396 341.188 15.524C340.98 15.628 340.828 15.68 340.732 15.68C340.588 15.68 340.468 15.628 340.372 15.524C340.284 15.42 340.24 15.284 340.24 15.116C340.24 14.98 340.272 14.864 340.336 14.768C340.408 14.664 340.524 14.568 340.684 14.48C340.964 14.328 341.296 14.208 341.68 14.12C342.072 14.032 342.456 13.988 342.832 13.988ZM342.46 19.016C342.86 19.016 343.184 18.884 343.432 18.62C343.688 18.348 343.816 18 343.816 17.576V17.324H343.6C343.064 17.324 342.648 17.348 342.352 17.396C342.056 17.444 341.844 17.528 341.716 17.648C341.588 17.768 341.524 17.932 341.524 18.14C341.524 18.396 341.612 18.608 341.788 18.776C341.972 18.936 342.196 19.016 342.46 19.016ZM349.816 18.956C350.216 18.98 350.416 19.16 350.416 19.496C350.416 19.688 350.336 19.836 350.176 19.94C350.024 20.036 349.804 20.076 349.516 20.06L349.192 20.036C347.848 19.94 347.176 19.22 347.176 17.876V15.26H346.576C346.36 15.26 346.192 15.212 346.072 15.116C345.96 15.02 345.904 14.88 345.904 14.696C345.904 14.512 345.96 14.372 346.072 14.276C346.192 14.18 346.36 14.132 346.576 14.132H347.176V13.028C347.176 12.812 347.244 12.64 347.38 12.512C347.516 12.384 347.7 12.32 347.932 12.32C348.156 12.32 348.336 12.384 348.472 12.512C348.608 12.64 348.676 12.812 348.676 13.028V14.132H349.696C349.912 14.132 350.076 14.18 350.188 14.276C350.308 14.372 350.368 14.512 350.368 14.696C350.368 14.88 350.308 15.02 350.188 15.116C350.076 15.212 349.912 15.26 349.696 15.26H348.676V17.984C348.676 18.576 348.948 18.892 349.492 18.932L349.816 18.956ZM353.874 20.096C353.274 20.096 352.746 19.972 352.29 19.724C351.842 19.476 351.494 19.12 351.246 18.656C350.998 18.192 350.874 17.652 350.874 17.036C350.874 16.42 350.998 15.884 351.246 15.428C351.494 14.964 351.842 14.608 352.29 14.36C352.746 14.112 353.274 13.988 353.874 13.988C354.474 13.988 354.998 14.112 355.446 14.36C355.902 14.608 356.25 14.964 356.49 15.428C356.738 15.884 356.862 16.42 356.862 17.036C356.862 17.652 356.738 18.192 356.49 18.656C356.25 19.12 355.902 19.476 355.446 19.724C354.998 19.972 354.474 20.096 353.874 20.096ZM353.862 18.932C354.35 18.932 354.722 18.772 354.978 18.452C355.234 18.132 355.362 17.66 355.362 17.036C355.362 16.42 355.234 15.952 354.978 15.632C354.722 15.304 354.354 15.14 353.874 15.14C353.394 15.14 353.022 15.304 352.758 15.632C352.502 15.952 352.374 16.42 352.374 17.036C352.374 17.66 352.502 18.132 352.758 18.452C353.014 18.772 353.382 18.932 353.862 18.932ZM361.376 14.012C361.584 13.996 361.748 14.04 361.868 14.144C361.988 14.248 362.048 14.404 362.048 14.612C362.048 14.828 361.996 14.988 361.892 15.092C361.788 15.196 361.6 15.264 361.328 15.296L360.968 15.332C360.496 15.38 360.148 15.54 359.924 15.812C359.708 16.084 359.6 16.424 359.6 16.832V19.352C359.6 19.584 359.528 19.764 359.384 19.892C359.24 20.012 359.06 20.072 358.844 20.072C358.628 20.072 358.448 20.012 358.304 19.892C358.168 19.764 358.1 19.584 358.1 19.352V14.708C358.1 14.484 358.168 14.312 358.304 14.192C358.448 14.072 358.624 14.012 358.832 14.012C359.04 14.012 359.208 14.072 359.336 14.192C359.464 14.304 359.528 14.468 359.528 14.684V15.164C359.68 14.812 359.904 14.54 360.2 14.348C360.504 14.156 360.84 14.048 361.208 14.024L361.376 14.012ZM364.759 20.096C363.887 20.096 363.183 19.924 362.647 19.58C362.391 19.428 362.263 19.212 362.263 18.932C362.263 18.772 362.307 18.644 362.395 18.548C362.483 18.444 362.591 18.392 362.719 18.392C362.855 18.392 363.043 18.456 363.283 18.584C363.539 18.704 363.771 18.796 363.979 18.86C364.195 18.924 364.467 18.956 364.795 18.956C365.131 18.956 365.391 18.9 365.575 18.788C365.767 18.676 365.863 18.52 365.863 18.32C365.863 18.184 365.823 18.076 365.743 17.996C365.671 17.916 365.535 17.844 365.335 17.78C365.143 17.708 364.847 17.628 364.447 17.54C363.735 17.396 363.223 17.192 362.911 16.928C362.607 16.664 362.455 16.3 362.455 15.836C362.455 15.484 362.559 15.168 362.767 14.888C362.975 14.6 363.259 14.38 363.619 14.228C363.987 14.068 364.403 13.988 364.867 13.988C365.203 13.988 365.527 14.032 365.839 14.12C366.151 14.2 366.431 14.32 366.679 14.48C366.935 14.64 367.063 14.852 367.063 15.116C367.063 15.276 367.019 15.412 366.931 15.524C366.843 15.628 366.735 15.68 366.607 15.68C366.519 15.68 366.431 15.664 366.343 15.632C366.263 15.592 366.159 15.536 366.031 15.464C365.799 15.344 365.599 15.256 365.431 15.2C365.263 15.136 365.055 15.104 364.807 15.104C364.511 15.104 364.275 15.164 364.099 15.284C363.931 15.404 363.847 15.568 363.847 15.776C363.847 15.976 363.935 16.128 364.111 16.232C364.287 16.336 364.627 16.44 365.131 16.544C365.667 16.656 366.087 16.784 366.391 16.928C366.695 17.072 366.911 17.252 367.039 17.468C367.175 17.684 367.243 17.96 367.243 18.296C367.243 18.84 367.015 19.276 366.559 19.604C366.111 19.932 365.511 20.096 364.759 20.096Z" fill="#99A6AF" fill-opacity="0.8"/>
<line x1="4" y1="33.5" x2="379" y2="33.5" stroke="#C4C4C4" stroke-opacity="0.23"/>
<line y1="113.5" x2="307" y2="113.5" stroke="#38B781" stroke-dasharray="2 2"/>
<line x1="4" y1="310.5" x2="379" y2="310.5" stroke="#C4C4C4" stroke-opacity="0.23"/>
<rect x="89" y="30" width="43" height="4" fill="#4598D3"/>
<path d="M321.3 250.088C320.398 250.088 319.709 249.751 319.232 249.076C318.763 248.401 318.528 247.419 318.528 246.128C318.528 244.83 318.763 243.844 319.232 243.169C319.709 242.494 320.398 242.157 321.3 242.157C322.202 242.157 322.888 242.494 323.357 243.169C323.834 243.836 324.072 244.819 324.072 246.117C324.072 247.415 323.834 248.401 323.357 249.076C322.888 249.751 322.202 250.088 321.3 250.088ZM321.3 249.175C321.865 249.175 322.279 248.929 322.543 248.438C322.807 247.947 322.939 247.173 322.939 246.117C322.939 245.061 322.807 244.291 322.543 243.807C322.279 243.316 321.865 243.07 321.3 243.07C320.735 243.07 320.321 243.316 320.057 243.807C319.793 244.291 319.661 245.061 319.661 246.117C319.661 247.166 319.793 247.939 320.057 248.438C320.321 248.929 320.735 249.175 321.3 249.175ZM325.905 250.055C325.707 250.055 325.538 249.989 325.399 249.857C325.267 249.725 325.201 249.556 325.201 249.351C325.201 249.146 325.267 248.977 325.399 248.845C325.538 248.706 325.707 248.636 325.905 248.636C326.103 248.636 326.268 248.706 326.4 248.845C326.532 248.977 326.598 249.146 326.598 249.351C326.598 249.556 326.532 249.725 326.4 249.857C326.268 249.989 326.103 250.055 325.905 250.055ZM330.517 250.088C329.615 250.088 328.925 249.751 328.449 249.076C327.979 248.401 327.745 247.419 327.745 246.128C327.745 244.83 327.979 243.844 328.449 243.169C328.925 242.494 329.615 242.157 330.517 242.157C331.419 242.157 332.104 242.494 332.574 243.169C333.05 243.836 333.289 244.819 333.289 246.117C333.289 247.415 333.05 248.401 332.574 249.076C332.104 249.751 331.419 250.088 330.517 250.088ZM330.517 249.175C331.081 249.175 331.496 248.929 331.76 248.438C332.024 247.947 332.156 247.173 332.156 246.117C332.156 245.061 332.024 244.291 331.76 243.807C331.496 243.316 331.081 243.07 330.517 243.07C329.952 243.07 329.538 243.316 329.274 243.807C329.01 244.291 328.878 245.061 328.878 246.117C328.878 247.166 329.01 247.939 329.274 248.438C329.538 248.929 329.952 249.175 330.517 249.175ZM337.465 245.094C337.949 245.094 338.374 245.197 338.741 245.402C339.115 245.607 339.404 245.897 339.61 246.271C339.815 246.645 339.918 247.074 339.918 247.558C339.918 248.049 339.804 248.486 339.577 248.867C339.349 249.248 339.03 249.545 338.62 249.758C338.216 249.971 337.751 250.077 337.223 250.077C336.768 250.077 336.321 250 335.881 249.846C335.448 249.692 335.085 249.479 334.792 249.208C334.645 249.083 334.572 248.937 334.572 248.768C334.572 248.636 334.608 248.526 334.682 248.438C334.755 248.343 334.843 248.295 334.946 248.295C335.012 248.295 335.07 248.306 335.122 248.328C335.18 248.35 335.246 248.387 335.32 248.438C335.62 248.673 335.921 248.852 336.222 248.977C336.53 249.094 336.852 249.153 337.19 249.153C337.703 249.153 338.103 249.017 338.389 248.746C338.675 248.467 338.818 248.079 338.818 247.58C338.818 247.103 338.671 246.722 338.378 246.436C338.092 246.15 337.707 246.007 337.223 246.007C336.907 246.007 336.625 246.062 336.376 246.172C336.126 246.275 335.892 246.44 335.672 246.667C335.562 246.77 335.43 246.821 335.276 246.821C335.151 246.821 335.045 246.784 334.957 246.711C334.876 246.63 334.836 246.528 334.836 246.403V242.784C334.836 242.615 334.88 242.483 334.968 242.388C335.063 242.293 335.199 242.245 335.375 242.245H339.159C339.327 242.245 339.459 242.285 339.555 242.366C339.65 242.447 339.698 242.557 339.698 242.696C339.698 242.843 339.65 242.956 339.555 243.037C339.459 243.118 339.327 243.158 339.159 243.158H335.958V245.6C336.361 245.263 336.863 245.094 337.465 245.094ZM345.864 249.065C346.04 249.065 346.172 249.105 346.26 249.186C346.348 249.267 346.392 249.38 346.392 249.527C346.392 249.842 346.216 250 345.864 250H342.19C341.831 250 341.651 249.842 341.651 249.527C341.651 249.38 341.695 249.267 341.783 249.186C341.879 249.105 342.014 249.065 342.19 249.065H343.455V243.576L342.322 244.291C342.249 244.335 342.176 244.357 342.102 244.357C341.978 244.357 341.868 244.302 341.772 244.192C341.684 244.082 341.64 243.957 341.64 243.818C341.64 243.649 341.714 243.517 341.86 243.422L343.554 242.344C343.723 242.241 343.884 242.19 344.038 242.19C344.2 242.19 344.332 242.241 344.434 242.344C344.537 242.447 344.588 242.586 344.588 242.762V249.065H345.864ZM350.304 250.088C349.402 250.088 348.713 249.751 348.236 249.076C347.767 248.401 347.532 247.419 347.532 246.128C347.532 244.83 347.767 243.844 348.236 243.169C348.713 242.494 349.402 242.157 350.304 242.157C351.206 242.157 351.892 242.494 352.361 243.169C352.838 243.836 353.076 244.819 353.076 246.117C353.076 247.415 352.838 248.401 352.361 249.076C351.892 249.751 351.206 250.088 350.304 250.088ZM350.304 249.175C350.869 249.175 351.283 248.929 351.547 248.438C351.811 247.947 351.943 247.173 351.943 246.117C351.943 245.061 351.811 244.291 351.547 243.807C351.283 243.316 350.869 243.07 350.304 243.07C349.739 243.07 349.325 243.316 349.061 243.807C348.797 244.291 348.665 245.061 348.665 246.117C348.665 247.166 348.797 247.939 349.061 248.438C349.325 248.929 349.739 249.175 350.304 249.175ZM356.9 250.088C355.998 250.088 355.308 249.751 354.832 249.076C354.362 248.401 354.128 247.419 354.128 246.128C354.128 244.83 354.362 243.844 354.832 243.169C355.308 242.494 355.998 242.157 356.9 242.157C357.802 242.157 358.487 242.494 358.957 243.169C359.433 243.836 359.672 244.819 359.672 246.117C359.672 247.415 359.433 248.401 358.957 249.076C358.487 249.751 357.802 250.088 356.9 250.088ZM356.9 249.175C357.464 249.175 357.879 248.929 358.143 248.438C358.407 247.947 358.539 247.173 358.539 246.117C358.539 245.061 358.407 244.291 358.143 243.807C357.879 243.316 357.464 243.07 356.9 243.07C356.335 243.07 355.921 243.316 355.657 243.807C355.393 244.291 355.261 245.061 355.261 246.117C355.261 247.166 355.393 247.939 355.657 248.438C355.921 248.929 356.335 249.175 356.9 249.175ZM363.495 250.088C362.593 250.088 361.904 249.751 361.427 249.076C360.958 248.401 360.723 247.419 360.723 246.128C360.723 244.83 360.958 243.844 361.427 243.169C361.904 242.494 362.593 242.157 363.495 242.157C364.397 242.157 365.083 242.494 365.552 243.169C366.029 243.836 366.267 244.819 366.267 246.117C366.267 247.415 366.029 248.401 365.552 249.076C365.083 249.751 364.397 250.088 363.495 250.088ZM363.495 249.175C364.06 249.175 364.474 248.929 364.738 248.438C365.002 247.947 365.134 247.173 365.134 246.117C365.134 245.061 365.002 244.291 364.738 243.807C364.474 243.316 364.06 243.07 363.495 243.07C362.931 243.07 362.516 243.316 362.252 243.807C361.988 244.291 361.856 245.061 361.856 246.117C361.856 247.166 361.988 247.939 362.252 248.438C362.516 248.929 362.931 249.175 363.495 249.175Z" fill="#99A6AF"/>
<path d="M321.3 194.088C320.398 194.088 319.709 193.751 319.232 193.076C318.763 192.401 318.528 191.419 318.528 190.128C318.528 188.83 318.763 187.844 319.232 187.169C319.709 186.494 320.398 186.157 321.3 186.157C322.202 186.157 322.888 186.494 323.357 187.169C323.834 187.836 324.072 188.819 324.072 190.117C324.072 191.415 323.834 192.401 323.357 193.076C322.888 193.751 322.202 194.088 321.3 194.088ZM321.3 193.175C321.865 193.175 322.279 192.929 322.543 192.438C322.807 191.947 322.939 191.173 322.939 190.117C322.939 189.061 322.807 188.291 322.543 187.807C322.279 187.316 321.865 187.07 321.3 187.07C320.735 187.07 320.321 187.316 320.057 187.807C319.793 188.291 319.661 189.061 319.661 190.117C319.661 191.166 319.793 191.939 320.057 192.438C320.321 192.929 320.735 193.175 321.3 193.175ZM325.905 194.055C325.707 194.055 325.538 193.989 325.399 193.857C325.267 193.725 325.201 193.556 325.201 193.351C325.201 193.146 325.267 192.977 325.399 192.845C325.538 192.706 325.707 192.636 325.905 192.636C326.103 192.636 326.268 192.706 326.4 192.845C326.532 192.977 326.598 193.146 326.598 193.351C326.598 193.556 326.532 193.725 326.4 193.857C326.268 193.989 326.103 194.055 325.905 194.055ZM330.517 194.088C329.615 194.088 328.925 193.751 328.449 193.076C327.979 192.401 327.745 191.419 327.745 190.128C327.745 188.83 327.979 187.844 328.449 187.169C328.925 186.494 329.615 186.157 330.517 186.157C331.419 186.157 332.104 186.494 332.574 187.169C333.05 187.836 333.289 188.819 333.289 190.117C333.289 191.415 333.05 192.401 332.574 193.076C332.104 193.751 331.419 194.088 330.517 194.088ZM330.517 193.175C331.081 193.175 331.496 192.929 331.76 192.438C332.024 191.947 332.156 191.173 332.156 190.117C332.156 189.061 332.024 188.291 331.76 187.807C331.496 187.316 331.081 187.07 330.517 187.07C329.952 187.07 329.538 187.316 329.274 187.807C329.01 188.291 328.878 189.061 328.878 190.117C328.878 191.166 329.01 191.939 329.274 192.438C329.538 192.929 329.952 193.175 330.517 193.175ZM337.465 189.094C337.949 189.094 338.374 189.197 338.741 189.402C339.115 189.607 339.404 189.897 339.61 190.271C339.815 190.645 339.918 191.074 339.918 191.558C339.918 192.049 339.804 192.486 339.577 192.867C339.349 193.248 339.03 193.545 338.62 193.758C338.216 193.971 337.751 194.077 337.223 194.077C336.768 194.077 336.321 194 335.881 193.846C335.448 193.692 335.085 193.479 334.792 193.208C334.645 193.083 334.572 192.937 334.572 192.768C334.572 192.636 334.608 192.526 334.682 192.438C334.755 192.343 334.843 192.295 334.946 192.295C335.012 192.295 335.07 192.306 335.122 192.328C335.18 192.35 335.246 192.387 335.32 192.438C335.62 192.673 335.921 192.852 336.222 192.977C336.53 193.094 336.852 193.153 337.19 193.153C337.703 193.153 338.103 193.017 338.389 192.746C338.675 192.467 338.818 192.079 338.818 191.58C338.818 191.103 338.671 190.722 338.378 190.436C338.092 190.15 337.707 190.007 337.223 190.007C336.907 190.007 336.625 190.062 336.376 190.172C336.126 190.275 335.892 190.44 335.672 190.667C335.562 190.77 335.43 190.821 335.276 190.821C335.151 190.821 335.045 190.784 334.957 190.711C334.876 190.63 334.836 190.528 334.836 190.403V186.784C334.836 186.615 334.88 186.483 334.968 186.388C335.063 186.293 335.199 186.245 335.375 186.245H339.159C339.327 186.245 339.459 186.285 339.555 186.366C339.65 186.447 339.698 186.557 339.698 186.696C339.698 186.843 339.65 186.956 339.555 187.037C339.459 187.118 339.327 187.158 339.159 187.158H335.958V189.6C336.361 189.263 336.863 189.094 337.465 189.094ZM344.819 190.018C345.289 190.15 345.644 190.377 345.886 190.7C346.128 191.015 346.249 191.415 346.249 191.899C346.249 192.574 346.011 193.105 345.534 193.494C345.065 193.883 344.427 194.077 343.62 194.077C343.144 194.077 342.685 194 342.245 193.846C341.813 193.692 341.446 193.479 341.145 193.208C340.999 193.091 340.925 192.944 340.925 192.768C340.925 192.636 340.962 192.526 341.035 192.438C341.109 192.343 341.197 192.295 341.299 192.295C341.409 192.295 341.534 192.343 341.673 192.438C341.989 192.673 342.297 192.852 342.597 192.977C342.905 193.094 343.235 193.153 343.587 193.153C344.629 193.153 345.149 192.709 345.149 191.822C345.149 191.389 345.01 191.067 344.731 190.854C344.46 190.634 344.046 190.524 343.488 190.524H342.883C342.744 190.524 342.634 190.48 342.553 190.392C342.473 190.297 342.432 190.187 342.432 190.062C342.432 189.945 342.473 189.842 342.553 189.754C342.634 189.659 342.744 189.611 342.883 189.611H343.312C343.848 189.611 344.255 189.501 344.533 189.281C344.819 189.054 344.962 188.724 344.962 188.291C344.962 187.91 344.845 187.613 344.61 187.4C344.383 187.187 344.06 187.081 343.642 187.081C343.026 187.081 342.41 187.319 341.794 187.796C341.655 187.891 341.53 187.939 341.42 187.939C341.318 187.939 341.23 187.895 341.156 187.807C341.083 187.712 341.046 187.598 341.046 187.466C341.046 187.29 341.12 187.143 341.266 187.026C341.567 186.755 341.93 186.542 342.355 186.388C342.788 186.234 343.232 186.157 343.686 186.157C344.412 186.157 344.992 186.34 345.424 186.707C345.857 187.074 346.07 187.565 346.062 188.181C346.062 188.606 345.952 188.984 345.732 189.314C345.512 189.637 345.208 189.871 344.819 190.018ZM350.304 194.088C349.402 194.088 348.713 193.751 348.236 193.076C347.767 192.401 347.532 191.419 347.532 190.128C347.532 188.83 347.767 187.844 348.236 187.169C348.713 186.494 349.402 186.157 350.304 186.157C351.206 186.157 351.892 186.494 352.361 187.169C352.838 187.836 353.076 188.819 353.076 190.117C353.076 191.415 352.838 192.401 352.361 193.076C351.892 193.751 351.206 194.088 350.304 194.088ZM350.304 193.175C350.869 193.175 351.283 192.929 351.547 192.438C351.811 191.947 351.943 191.173 351.943 190.117C351.943 189.061 351.811 188.291 351.547 187.807C351.283 187.316 350.869 187.07 350.304 187.07C349.739 187.07 349.325 187.316 349.061 187.807C348.797 188.291 348.665 189.061 348.665 190.117C348.665 191.166 348.797 191.939 349.061 192.438C349.325 192.929 349.739 193.175 350.304 193.175ZM356.9 194.088C355.998 194.088 355.308 193.751 354.832 193.076C354.362 192.401 354.128 191.419 354.128 190.128C354.128 188.83 354.362 187.844 354.832 187.169C355.308 186.494 355.998 186.157 356.9 186.157C357.802 186.157 358.487 186.494 358.957 187.169C359.433 187.836 359.672 188.819 359.672 190.117C359.672 191.415 359.433 192.401 358.957 193.076C358.487 193.751 357.802 194.088 356.9 194.088ZM356.9 193.175C357.464 193.175 357.879 192.929 358.143 192.438C358.407 191.947 358.539 191.173 358.539 190.117C358.539 189.061 358.407 188.291 358.143 187.807C357.879 187.316 357.464 187.07 356.9 187.07C356.335 187.07 355.921 187.316 355.657 187.807C355.393 188.291 355.261 189.061 355.261 190.117C355.261 191.166 355.393 191.939 355.657 192.438C355.921 192.929 356.335 193.175 356.9 193.175ZM363.495 194.088C362.593 194.088 361.904 193.751 361.427 193.076C360.958 192.401 360.723 191.419 360.723 190.128C360.723 188.83 360.958 187.844 361.427 187.169C361.904 186.494 362.593 186.157 363.495 186.157C364.397 186.157 365.083 186.494 365.552 187.169C366.029 187.836 366.267 188.819 366.267 190.117C366.267 191.415 366.029 192.401 365.552 193.076C365.083 193.751 364.397 194.088 363.495 194.088ZM363.495 193.175C364.06 193.175 364.474 192.929 364.738 192.438C365.002 191.947 365.134 191.173 365.134 190.117C365.134 189.061 365.002 188.291 364.738 187.807C364.474 187.316 364.06 187.07 363.495 187.07C362.931 187.07 362.516 187.316 362.252 187.807C361.988 188.291 361.856 189.061 361.856 190.117C361.856 191.166 361.988 191.939 362.252 192.438C362.516 192.929 362.931 193.175 363.495 193.175Z" fill="#99A6AF"/>
<path d="M321.3 138.088C320.398 138.088 319.709 137.751 319.232 137.076C318.763 136.401 318.528 135.419 318.528 134.128C318.528 132.83 318.763 131.844 319.232 131.169C319.709 130.494 320.398 130.157 321.3 130.157C322.202 130.157 322.888 130.494 323.357 131.169C323.834 131.836 324.072 132.819 324.072 134.117C324.072 135.415 323.834 136.401 323.357 137.076C322.888 137.751 322.202 138.088 321.3 138.088ZM321.3 137.175C321.865 137.175 322.279 136.929 322.543 136.438C322.807 135.947 322.939 135.173 322.939 134.117C322.939 133.061 322.807 132.291 322.543 131.807C322.279 131.316 321.865 131.07 321.3 131.07C320.735 131.07 320.321 131.316 320.057 131.807C319.793 132.291 319.661 133.061 319.661 134.117C319.661 135.166 319.793 135.939 320.057 136.438C320.321 136.929 320.735 137.175 321.3 137.175ZM325.905 138.055C325.707 138.055 325.538 137.989 325.399 137.857C325.267 137.725 325.201 137.556 325.201 137.351C325.201 137.146 325.267 136.977 325.399 136.845C325.538 136.706 325.707 136.636 325.905 136.636C326.103 136.636 326.268 136.706 326.4 136.845C326.532 136.977 326.598 137.146 326.598 137.351C326.598 137.556 326.532 137.725 326.4 137.857C326.268 137.989 326.103 138.055 325.905 138.055ZM330.517 138.088C329.615 138.088 328.925 137.751 328.449 137.076C327.979 136.401 327.745 135.419 327.745 134.128C327.745 132.83 327.979 131.844 328.449 131.169C328.925 130.494 329.615 130.157 330.517 130.157C331.419 130.157 332.104 130.494 332.574 131.169C333.05 131.836 333.289 132.819 333.289 134.117C333.289 135.415 333.05 136.401 332.574 137.076C332.104 137.751 331.419 138.088 330.517 138.088ZM330.517 137.175C331.081 137.175 331.496 136.929 331.76 136.438C332.024 135.947 332.156 135.173 332.156 134.117C332.156 133.061 332.024 132.291 331.76 131.807C331.496 131.316 331.081 131.07 330.517 131.07C329.952 131.07 329.538 131.316 329.274 131.807C329.01 132.291 328.878 133.061 328.878 134.117C328.878 135.166 329.01 135.939 329.274 136.438C329.538 136.929 329.952 137.175 330.517 137.175ZM337.465 133.094C337.949 133.094 338.374 133.197 338.741 133.402C339.115 133.607 339.404 133.897 339.61 134.271C339.815 134.645 339.918 135.074 339.918 135.558C339.918 136.049 339.804 136.486 339.577 136.867C339.349 137.248 339.03 137.545 338.62 137.758C338.216 137.971 337.751 138.077 337.223 138.077C336.768 138.077 336.321 138 335.881 137.846C335.448 137.692 335.085 137.479 334.792 137.208C334.645 137.083 334.572 136.937 334.572 136.768C334.572 136.636 334.608 136.526 334.682 136.438C334.755 136.343 334.843 136.295 334.946 136.295C335.012 136.295 335.07 136.306 335.122 136.328C335.18 136.35 335.246 136.387 335.32 136.438C335.62 136.673 335.921 136.852 336.222 136.977C336.53 137.094 336.852 137.153 337.19 137.153C337.703 137.153 338.103 137.017 338.389 136.746C338.675 136.467 338.818 136.079 338.818 135.58C338.818 135.103 338.671 134.722 338.378 134.436C338.092 134.15 337.707 134.007 337.223 134.007C336.907 134.007 336.625 134.062 336.376 134.172C336.126 134.275 335.892 134.44 335.672 134.667C335.562 134.77 335.43 134.821 335.276 134.821C335.151 134.821 335.045 134.784 334.957 134.711C334.876 134.63 334.836 134.528 334.836 134.403V130.784C334.836 130.615 334.88 130.483 334.968 130.388C335.063 130.293 335.199 130.245 335.375 130.245H339.159C339.327 130.245 339.459 130.285 339.555 130.366C339.65 130.447 339.698 130.557 339.698 130.696C339.698 130.843 339.65 130.956 339.555 131.037C339.459 131.118 339.327 131.158 339.159 131.158H335.958V133.6C336.361 133.263 336.863 133.094 337.465 133.094ZM344.06 133.094C344.544 133.094 344.97 133.197 345.336 133.402C345.71 133.607 346 133.897 346.205 134.271C346.411 134.645 346.513 135.074 346.513 135.558C346.513 136.049 346.4 136.486 346.172 136.867C345.945 137.248 345.626 137.545 345.215 137.758C344.812 137.971 344.346 138.077 343.818 138.077C343.364 138.077 342.916 138 342.476 137.846C342.044 137.692 341.681 137.479 341.387 137.208C341.241 137.083 341.167 136.937 341.167 136.768C341.167 136.636 341.204 136.526 341.277 136.438C341.351 136.343 341.439 136.295 341.541 136.295C341.607 136.295 341.666 136.306 341.717 136.328C341.776 136.35 341.842 136.387 341.915 136.438C342.216 136.673 342.517 136.852 342.817 136.977C343.125 137.094 343.448 137.153 343.785 137.153C344.299 137.153 344.698 137.017 344.984 136.746C345.27 136.467 345.413 136.079 345.413 135.58C345.413 135.103 345.267 134.722 344.973 134.436C344.687 134.15 344.302 134.007 343.818 134.007C343.503 134.007 343.221 134.062 342.971 134.172C342.722 134.275 342.487 134.44 342.267 134.667C342.157 134.77 342.025 134.821 341.871 134.821C341.747 134.821 341.64 134.784 341.552 134.711C341.472 134.63 341.431 134.528 341.431 134.403V130.784C341.431 130.615 341.475 130.483 341.563 130.388C341.659 130.293 341.794 130.245 341.97 130.245H345.754C345.923 130.245 346.055 130.285 346.15 130.366C346.246 130.447 346.293 130.557 346.293 130.696C346.293 130.843 346.246 130.956 346.15 131.037C346.055 131.118 345.923 131.158 345.754 131.158H342.553V133.6C342.957 133.263 343.459 133.094 344.06 133.094ZM350.304 138.088C349.402 138.088 348.713 137.751 348.236 137.076C347.767 136.401 347.532 135.419 347.532 134.128C347.532 132.83 347.767 131.844 348.236 131.169C348.713 130.494 349.402 130.157 350.304 130.157C351.206 130.157 351.892 130.494 352.361 131.169C352.838 131.836 353.076 132.819 353.076 134.117C353.076 135.415 352.838 136.401 352.361 137.076C351.892 137.751 351.206 138.088 350.304 138.088ZM350.304 137.175C350.869 137.175 351.283 136.929 351.547 136.438C351.811 135.947 351.943 135.173 351.943 134.117C351.943 133.061 351.811 132.291 351.547 131.807C351.283 131.316 350.869 131.07 350.304 131.07C349.739 131.07 349.325 131.316 349.061 131.807C348.797 132.291 348.665 133.061 348.665 134.117C348.665 135.166 348.797 135.939 349.061 136.438C349.325 136.929 349.739 137.175 350.304 137.175ZM356.9 138.088C355.998 138.088 355.308 137.751 354.832 137.076C354.362 136.401 354.128 135.419 354.128 134.128C354.128 132.83 354.362 131.844 354.832 131.169C355.308 130.494 355.998 130.157 356.9 130.157C357.802 130.157 358.487 130.494 358.957 131.169C359.433 131.836 359.672 132.819 359.672 134.117C359.672 135.415 359.433 136.401 358.957 137.076C358.487 137.751 357.802 138.088 356.9 138.088ZM356.9 137.175C357.464 137.175 357.879 136.929 358.143 136.438C358.407 135.947 358.539 135.173 358.539 134.117C358.539 133.061 358.407 132.291 358.143 131.807C357.879 131.316 357.464 131.07 356.9 131.07C356.335 131.07 355.921 131.316 355.657 131.807C355.393 132.291 355.261 133.061 355.261 134.117C355.261 135.166 355.393 135.939 355.657 136.438C355.921 136.929 356.335 137.175 356.9 137.175ZM363.495 138.088C362.593 138.088 361.904 137.751 361.427 137.076C360.958 136.401 360.723 135.419 360.723 134.128C360.723 132.83 360.958 131.844 361.427 131.169C361.904 130.494 362.593 130.157 363.495 130.157C364.397 130.157 365.083 130.494 365.552 131.169C366.029 131.836 366.267 132.819 366.267 134.117C366.267 135.415 366.029 136.401 365.552 137.076C365.083 137.751 364.397 138.088 363.495 138.088ZM363.495 137.175C364.06 137.175 364.474 136.929 364.738 136.438C365.002 135.947 365.134 135.173 365.134 134.117C365.134 133.061 365.002 132.291 364.738 131.807C364.474 131.316 364.06 131.07 363.495 131.07C362.931 131.07 362.516 131.316 362.252 131.807C361.988 132.291 361.856 133.061 361.856 134.117C361.856 135.166 361.988 135.939 362.252 136.438C362.516 136.929 362.931 137.175 363.495 137.175Z" fill="#99A6AF"/>
<path d="M321.3 82.088C320.398 82.088 319.709 81.7507 319.232 81.076C318.763 80.4013 318.528 79.4187 318.528 78.128C318.528 76.83 318.763 75.8437 319.232 75.169C319.709 74.4943 320.398 74.157 321.3 74.157C322.202 74.157 322.888 74.4943 323.357 75.169C323.834 75.8363 324.072 76.819 324.072 78.117C324.072 79.415 323.834 80.4013 323.357 81.076C322.888 81.7507 322.202 82.088 321.3 82.088ZM321.3 81.175C321.865 81.175 322.279 80.9293 322.543 80.438C322.807 79.9467 322.939 79.173 322.939 78.117C322.939 77.061 322.807 76.291 322.543 75.807C322.279 75.3157 321.865 75.07 321.3 75.07C320.735 75.07 320.321 75.3157 320.057 75.807C319.793 76.291 319.661 77.061 319.661 78.117C319.661 79.1657 319.793 79.9393 320.057 80.438C320.321 80.9293 320.735 81.175 321.3 81.175ZM325.905 82.055C325.707 82.055 325.538 81.989 325.399 81.857C325.267 81.725 325.201 81.5563 325.201 81.351C325.201 81.1457 325.267 80.977 325.399 80.845C325.538 80.7057 325.707 80.636 325.905 80.636C326.103 80.636 326.268 80.7057 326.4 80.845C326.532 80.977 326.598 81.1457 326.598 81.351C326.598 81.5563 326.532 81.725 326.4 81.857C326.268 81.989 326.103 82.055 325.905 82.055ZM330.517 82.088C329.615 82.088 328.925 81.7507 328.449 81.076C327.979 80.4013 327.745 79.4187 327.745 78.128C327.745 76.83 327.979 75.8437 328.449 75.169C328.925 74.4943 329.615 74.157 330.517 74.157C331.419 74.157 332.104 74.4943 332.574 75.169C333.05 75.8363 333.289 76.819 333.289 78.117C333.289 79.415 333.05 80.4013 332.574 81.076C332.104 81.7507 331.419 82.088 330.517 82.088ZM330.517 81.175C331.081 81.175 331.496 80.9293 331.76 80.438C332.024 79.9467 332.156 79.173 332.156 78.117C332.156 77.061 332.024 76.291 331.76 75.807C331.496 75.3157 331.081 75.07 330.517 75.07C329.952 75.07 329.538 75.3157 329.274 75.807C329.01 76.291 328.878 77.061 328.878 78.117C328.878 79.1657 329.01 79.9393 329.274 80.438C329.538 80.9293 329.952 81.175 330.517 81.175ZM337.465 77.094C337.949 77.094 338.374 77.1967 338.741 77.402C339.115 77.6073 339.404 77.897 339.61 78.271C339.815 78.645 339.918 79.074 339.918 79.558C339.918 80.0493 339.804 80.4857 339.577 80.867C339.349 81.2483 339.03 81.5453 338.62 81.758C338.216 81.9707 337.751 82.077 337.223 82.077C336.768 82.077 336.321 82 335.881 81.846C335.448 81.692 335.085 81.4793 334.792 81.208C334.645 81.0833 334.572 80.9367 334.572 80.768C334.572 80.636 334.608 80.526 334.682 80.438C334.755 80.3427 334.843 80.295 334.946 80.295C335.012 80.295 335.07 80.306 335.122 80.328C335.18 80.35 335.246 80.3867 335.32 80.438C335.62 80.6727 335.921 80.8523 336.222 80.977C336.53 81.0943 336.852 81.153 337.19 81.153C337.703 81.153 338.103 81.0173 338.389 80.746C338.675 80.4673 338.818 80.0787 338.818 79.58C338.818 79.1033 338.671 78.722 338.378 78.436C338.092 78.15 337.707 78.007 337.223 78.007C336.907 78.007 336.625 78.062 336.376 78.172C336.126 78.2747 335.892 78.4397 335.672 78.667C335.562 78.7697 335.43 78.821 335.276 78.821C335.151 78.821 335.045 78.7843 334.957 78.711C334.876 78.6303 334.836 78.5277 334.836 78.403V74.784C334.836 74.6153 334.88 74.4833 334.968 74.388C335.063 74.2927 335.199 74.245 335.375 74.245H339.159C339.327 74.245 339.459 74.2853 339.555 74.366C339.65 74.4467 339.698 74.5567 339.698 74.696C339.698 74.8427 339.65 74.9563 339.555 75.037C339.459 75.1177 339.327 75.158 339.159 75.158H335.958V77.6C336.361 77.2627 336.863 77.094 337.465 77.094ZM345.941 74.245C346.103 74.245 346.224 74.289 346.304 74.377C346.392 74.465 346.436 74.5787 346.436 74.718C346.436 74.85 346.396 74.9893 346.315 75.136L342.718 81.78C342.601 81.9853 342.44 82.088 342.234 82.088C342.095 82.088 341.967 82.0403 341.849 81.945C341.739 81.8423 341.684 81.7177 341.684 81.571C341.684 81.483 341.714 81.3803 341.772 81.263L345.083 75.18H341.508C341.332 75.18 341.2 75.1397 341.112 75.059C341.024 74.9783 340.98 74.8647 340.98 74.718C340.98 74.4027 341.156 74.245 341.508 74.245H345.941ZM350.304 82.088C349.402 82.088 348.713 81.7507 348.236 81.076C347.767 80.4013 347.532 79.4187 347.532 78.128C347.532 76.83 347.767 75.8437 348.236 75.169C348.713 74.4943 349.402 74.157 350.304 74.157C351.206 74.157 351.892 74.4943 352.361 75.169C352.838 75.8363 353.076 76.819 353.076 78.117C353.076 79.415 352.838 80.4013 352.361 81.076C351.892 81.7507 351.206 82.088 350.304 82.088ZM350.304 81.175C350.869 81.175 351.283 80.9293 351.547 80.438C351.811 79.9467 351.943 79.173 351.943 78.117C351.943 77.061 351.811 76.291 351.547 75.807C351.283 75.3157 350.869 75.07 350.304 75.07C349.739 75.07 349.325 75.3157 349.061 75.807C348.797 76.291 348.665 77.061 348.665 78.117C348.665 79.1657 348.797 79.9393 349.061 80.438C349.325 80.9293 349.739 81.175 350.304 81.175ZM356.9 82.088C355.998 82.088 355.308 81.7507 354.832 81.076C354.362 80.4013 354.128 79.4187 354.128 78.128C354.128 76.83 354.362 75.8437 354.832 75.169C355.308 74.4943 355.998 74.157 356.9 74.157C357.802 74.157 358.487 74.4943 358.957 75.169C359.433 75.8363 359.672 76.819 359.672 78.117C359.672 79.415 359.433 80.4013 358.957 81.076C358.487 81.7507 357.802 82.088 356.9 82.088ZM356.9 81.175C357.464 81.175 357.879 80.9293 358.143 80.438C358.407 79.9467 358.539 79.173 358.539 78.117C358.539 77.061 358.407 76.291 358.143 75.807C357.879 75.3157 357.464 75.07 356.9 75.07C356.335 75.07 355.921 75.3157 355.657 75.807C355.393 76.291 355.261 77.061 355.261 78.117C355.261 79.1657 355.393 79.9393 355.657 80.438C355.921 80.9293 356.335 81.175 356.9 81.175ZM363.495 82.088C362.593 82.088 361.904 81.7507 361.427 81.076C360.958 80.4013 360.723 79.4187 360.723 78.128C360.723 76.83 360.958 75.8437 361.427 75.169C361.904 74.4943 362.593 74.157 363.495 74.157C364.397 74.157 365.083 74.4943 365.552 75.169C366.029 75.8363 366.267 76.819 366.267 78.117C366.267 79.415 366.029 80.4013 365.552 81.076C365.083 81.7507 364.397 82.088 363.495 82.088ZM363.495 81.175C364.06 81.175 364.474 80.9293 364.738 80.438C365.002 79.9467 365.134 79.173 365.134 78.117C365.134 77.061 365.002 76.291 364.738 75.807C364.474 75.3157 364.06 75.07 363.495 75.07C362.931 75.07 362.516 75.3157 362.252 75.807C361.988 76.291 361.856 77.061 361.856 78.117C361.856 79.1657 361.988 79.9393 362.252 80.438C362.516 80.9293 362.931 81.175 363.495 81.175Z" fill="#99A6AF"/>
<path d="M321.3 299.088C320.398 299.088 319.709 298.751 319.232 298.076C318.763 297.401 318.528 296.419 318.528 295.128C318.528 293.83 318.763 292.844 319.232 292.169C319.709 291.494 320.398 291.157 321.3 291.157C322.202 291.157 322.888 291.494 323.357 292.169C323.834 292.836 324.072 293.819 324.072 295.117C324.072 296.415 323.834 297.401 323.357 298.076C322.888 298.751 322.202 299.088 321.3 299.088ZM321.3 298.175C321.865 298.175 322.279 297.929 322.543 297.438C322.807 296.947 322.939 296.173 322.939 295.117C322.939 294.061 322.807 293.291 322.543 292.807C322.279 292.316 321.865 292.07 321.3 292.07C320.735 292.07 320.321 292.316 320.057 292.807C319.793 293.291 319.661 294.061 319.661 295.117C319.661 296.166 319.793 296.939 320.057 297.438C320.321 297.929 320.735 298.175 321.3 298.175ZM325.905 299.055C325.707 299.055 325.538 298.989 325.399 298.857C325.267 298.725 325.201 298.556 325.201 298.351C325.201 298.146 325.267 297.977 325.399 297.845C325.538 297.706 325.707 297.636 325.905 297.636C326.103 297.636 326.268 297.706 326.4 297.845C326.532 297.977 326.598 298.146 326.598 298.351C326.598 298.556 326.532 298.725 326.4 298.857C326.268 298.989 326.103 299.055 325.905 299.055ZM330.517 299.088C329.615 299.088 328.925 298.751 328.449 298.076C327.979 297.401 327.745 296.419 327.745 295.128C327.745 293.83 327.979 292.844 328.449 292.169C328.925 291.494 329.615 291.157 330.517 291.157C331.419 291.157 332.104 291.494 332.574 292.169C333.05 292.836 333.289 293.819 333.289 295.117C333.289 296.415 333.05 297.401 332.574 298.076C332.104 298.751 331.419 299.088 330.517 299.088ZM330.517 298.175C331.081 298.175 331.496 297.929 331.76 297.438C332.024 296.947 332.156 296.173 332.156 295.117C332.156 294.061 332.024 293.291 331.76 292.807C331.496 292.316 331.081 292.07 330.517 292.07C329.952 292.07 329.538 292.316 329.274 292.807C329.01 293.291 328.878 294.061 328.878 295.117C328.878 296.166 329.01 296.939 329.274 297.438C329.538 297.929 329.952 298.175 330.517 298.175ZM339.632 296.492C339.991 296.492 340.171 296.642 340.171 296.943C340.171 297.244 339.991 297.394 339.632 297.394H338.928V298.483C338.928 298.666 338.876 298.809 338.774 298.912C338.671 299.007 338.535 299.055 338.367 299.055C338.205 299.055 338.073 299.007 337.971 298.912C337.868 298.809 337.817 298.666 337.817 298.483V297.394H334.726C334.564 297.394 334.44 297.35 334.352 297.262C334.264 297.174 334.22 297.06 334.22 296.921C334.22 296.774 334.267 296.631 334.363 296.492L337.872 291.443C337.989 291.274 338.154 291.19 338.367 291.19C338.521 291.19 338.653 291.241 338.763 291.344C338.873 291.439 338.928 291.579 338.928 291.762V296.492H339.632ZM335.441 296.492H337.817V293.06L335.441 296.492ZM343.466 291.157C344.427 291.157 345.164 291.487 345.677 292.147C346.198 292.8 346.458 293.735 346.458 294.952C346.458 295.81 346.337 296.551 346.095 297.174C345.853 297.79 345.505 298.263 345.05 298.593C344.596 298.923 344.057 299.088 343.433 299.088C343.015 299.088 342.597 299.011 342.179 298.857C341.761 298.703 341.406 298.49 341.112 298.219C340.966 298.094 340.892 297.948 340.892 297.779C340.892 297.647 340.929 297.537 341.002 297.449C341.076 297.354 341.164 297.306 341.266 297.306C341.332 297.306 341.391 297.317 341.442 297.339C341.501 297.361 341.567 297.398 341.64 297.449C342.256 297.926 342.843 298.164 343.4 298.164C344.009 298.164 344.482 297.885 344.819 297.328C345.157 296.763 345.325 295.979 345.325 294.974V294.952C345.164 295.326 344.9 295.623 344.533 295.843C344.174 296.056 343.767 296.162 343.312 296.162C342.85 296.162 342.436 296.059 342.069 295.854C341.703 295.641 341.417 295.348 341.211 294.974C341.013 294.6 340.914 294.171 340.914 293.687C340.914 293.203 341.024 292.77 341.244 292.389C341.464 292 341.765 291.7 342.146 291.487C342.535 291.267 342.975 291.157 343.466 291.157ZM343.521 295.238C343.983 295.238 344.357 295.095 344.643 294.809C344.937 294.516 345.083 294.134 345.083 293.665C345.083 293.188 344.94 292.807 344.654 292.521C344.368 292.228 343.991 292.081 343.521 292.081C343.067 292.081 342.7 292.228 342.421 292.521C342.15 292.807 342.014 293.188 342.014 293.665C342.014 294.134 342.15 294.516 342.421 294.809C342.7 295.095 343.067 295.238 343.521 295.238ZM350.304 299.088C349.402 299.088 348.713 298.751 348.236 298.076C347.767 297.401 347.532 296.419 347.532 295.128C347.532 293.83 347.767 292.844 348.236 292.169C348.713 291.494 349.402 291.157 350.304 291.157C351.206 291.157 351.892 291.494 352.361 292.169C352.838 292.836 353.076 293.819 353.076 295.117C353.076 296.415 352.838 297.401 352.361 298.076C351.892 298.751 351.206 299.088 350.304 299.088ZM350.304 298.175C350.869 298.175 351.283 297.929 351.547 297.438C351.811 296.947 351.943 296.173 351.943 295.117C351.943 294.061 351.811 293.291 351.547 292.807C351.283 292.316 350.869 292.07 350.304 292.07C349.739 292.07 349.325 292.316 349.061 292.807C348.797 293.291 348.665 294.061 348.665 295.117C348.665 296.166 348.797 296.939 349.061 297.438C349.325 297.929 349.739 298.175 350.304 298.175ZM356.9 299.088C355.998 299.088 355.308 298.751 354.832 298.076C354.362 297.401 354.128 296.419 354.128 295.128C354.128 293.83 354.362 292.844 354.832 292.169C355.308 291.494 355.998 291.157 356.9 291.157C357.802 291.157 358.487 291.494 358.957 292.169C359.433 292.836 359.672 293.819 359.672 295.117C359.672 296.415 359.433 297.401 358.957 298.076C358.487 298.751 357.802 299.088 356.9 299.088ZM356.9 298.175C357.464 298.175 357.879 297.929 358.143 297.438C358.407 296.947 358.539 296.173 358.539 295.117C358.539 294.061 358.407 293.291 358.143 292.807C357.879 292.316 357.464 292.07 356.9 292.07C356.335 292.07 355.921 292.316 355.657 292.807C355.393 293.291 355.261 294.061 355.261 295.117C355.261 296.166 355.393 296.939 355.657 297.438C355.921 297.929 356.335 298.175 356.9 298.175ZM363.495 299.088C362.593 299.088 361.904 298.751 361.427 298.076C360.958 297.401 360.723 296.419 360.723 295.128C360.723 293.83 360.958 292.844 361.427 292.169C361.904 291.494 362.593 291.157 363.495 291.157C364.397 291.157 365.083 291.494 365.552 292.169C366.029 292.836 366.267 293.819 366.267 295.117C366.267 296.415 366.029 297.401 365.552 298.076C365.083 298.751 364.397 299.088 363.495 299.088ZM363.495 298.175C364.06 298.175 364.474 297.929 364.738 297.438C365.002 296.947 365.134 296.173 365.134 295.117C365.134 294.061 365.002 293.291 364.738 292.807C364.474 292.316 364.06 292.07 363.495 292.07C362.931 292.07 362.516 292.316 362.252 292.807C361.988 293.291 361.856 294.061 361.856 295.117C361.856 296.166 361.988 296.939 362.252 297.438C362.516 297.929 362.931 298.175 363.495 298.175Z" fill="#99A6AF"/>
<path d="M84.488 325.018C84.95 325.135 85.302 325.359 85.544 325.689C85.7933 326.012 85.918 326.415 85.918 326.899C85.918 327.566 85.6723 328.098 85.181 328.494C84.6897 328.89 84.026 329.088 83.19 329.088C82.7133 329.088 82.255 329.015 81.815 328.868C81.375 328.721 81.001 328.516 80.693 328.252C80.5243 328.105 80.44 327.933 80.44 327.735C80.44 327.574 80.484 327.438 80.572 327.328C80.6673 327.211 80.7773 327.152 80.902 327.152C80.9753 327.152 81.0413 327.167 81.1 327.196C81.1587 327.218 81.2393 327.258 81.342 327.317C81.65 327.522 81.9433 327.68 82.222 327.79C82.5007 327.9 82.805 327.955 83.135 327.955C83.619 327.955 83.9783 327.86 84.213 327.669C84.4477 327.471 84.565 327.174 84.565 326.778C84.565 326.389 84.4403 326.103 84.191 325.92C83.949 325.729 83.5713 325.634 83.058 325.634H82.431C82.2623 325.634 82.1303 325.579 82.035 325.469C81.947 325.352 81.903 325.22 81.903 325.073C81.903 324.919 81.947 324.787 82.035 324.677C82.1303 324.567 82.2623 324.512 82.431 324.512H82.871C83.8757 324.512 84.378 324.134 84.378 323.379C84.378 323.027 84.2717 322.756 84.059 322.565C83.8463 322.374 83.553 322.279 83.179 322.279C82.6437 322.279 82.0717 322.492 81.463 322.917C81.3603 322.976 81.2797 323.02 81.221 323.049C81.1623 323.071 81.0963 323.082 81.023 323.082C80.8983 323.082 80.7883 323.027 80.693 322.917C80.605 322.8 80.561 322.66 80.561 322.499C80.561 322.389 80.5793 322.297 80.616 322.224C80.66 322.143 80.726 322.063 80.814 321.982C81.122 321.725 81.4887 321.524 81.914 321.377C82.3467 321.223 82.7867 321.146 83.234 321.146C83.9967 321.146 84.6017 321.333 85.049 321.707C85.5037 322.081 85.731 322.58 85.731 323.203C85.7237 323.628 85.61 324.002 85.39 324.325C85.1773 324.64 84.8767 324.871 84.488 325.018Z" fill="#99A6AF"/>
<path d="M249.707 324.039C250.191 324.039 250.616 324.145 250.983 324.358C251.357 324.563 251.647 324.853 251.852 325.227C252.057 325.601 252.16 326.03 252.16 326.514C252.16 327.02 252.043 327.467 251.808 327.856C251.581 328.245 251.254 328.549 250.829 328.769C250.411 328.982 249.927 329.088 249.377 329.088C248.922 329.088 248.475 329.015 248.035 328.868C247.602 328.714 247.232 328.509 246.924 328.252C246.755 328.105 246.671 327.933 246.671 327.735C246.671 327.574 246.715 327.438 246.803 327.328C246.898 327.211 247.008 327.152 247.133 327.152C247.206 327.152 247.276 327.167 247.342 327.196C247.408 327.218 247.485 327.258 247.573 327.317C247.866 327.522 248.152 327.68 248.431 327.79C248.71 327.9 249.007 327.955 249.322 327.955C249.806 327.955 250.176 327.834 250.433 327.592C250.69 327.35 250.818 327.005 250.818 326.558C250.818 326.125 250.686 325.784 250.422 325.535C250.165 325.278 249.81 325.15 249.355 325.15C249.069 325.15 248.812 325.19 248.585 325.271C248.365 325.352 248.138 325.487 247.903 325.678C247.764 325.773 247.621 325.821 247.474 325.821C247.327 325.821 247.203 325.777 247.1 325.689C246.997 325.601 246.946 325.484 246.946 325.337V321.905C246.946 321.7 247.005 321.538 247.122 321.421C247.239 321.304 247.404 321.245 247.617 321.245H251.28C251.72 321.245 251.94 321.428 251.94 321.795C251.94 322.162 251.72 322.345 251.28 322.345H248.332V324.435C248.706 324.171 249.164 324.039 249.707 324.039Z" fill="#99A6AF"/>
<path d="M169.819 326.492C170.178 326.492 170.358 326.642 170.358 326.943C170.358 327.244 170.178 327.394 169.819 327.394H169.115V328.483C169.115 328.666 169.064 328.809 168.961 328.912C168.858 329.007 168.723 329.055 168.554 329.055C168.393 329.055 168.261 329.007 168.158 328.912C168.055 328.809 168.004 328.666 168.004 328.483V327.394H164.913C164.752 327.394 164.627 327.35 164.539 327.262C164.451 327.174 164.407 327.06 164.407 326.921C164.407 326.774 164.455 326.631 164.55 326.492L168.059 321.443C168.176 321.274 168.341 321.19 168.554 321.19C168.708 321.19 168.84 321.241 168.95 321.344C169.06 321.439 169.115 321.579 169.115 321.762V326.492H169.819ZM165.628 326.492H168.004V323.06L165.628 326.492Z" fill="#99A6AF" fill-opacity="0.8"/>
<path d="M18.8789 136V162" stroke="#38B781" stroke-width="0.5"/>
<rect x="16" y="149" width="5.7592" height="12" rx="1" fill="#38B781"/>
<path d="M27.5195 132V171" stroke="#38B781" stroke-width="0.5"/>
<rect x="24.6406" y="149" width="5.7592" height="21" rx="1" fill="#38B781"/>
<path d="M144.621 225V248" stroke="#38B781" stroke-width="0.5"/>
<rect x="141.742" y="233" width="5.7592" height="7" rx="1" fill="#38B781"/>
<path d="M154.219 225V260" stroke="#38B781" stroke-width="0.5"/>
<rect x="151.34" y="227.386" width="5.7592" height="15.1136" rx="1" fill="#38B781"/>
<path d="M163.82 210V256" stroke="#38B781" stroke-width="0.5"/>
<rect x="160.941" y="219" width="5.7592" height="30" rx="1" fill="#38B781"/>
<path d="M194.535 165V204" stroke="#38B781" stroke-width="0.5"/>
<rect x="191.656" y="178" width="5.7592" height="21" rx="1" fill="#38B781"/>
<path d="M203.172 123V197" stroke="#38B781" stroke-width="0.5"/>
<rect x="200.293" y="134" width="5.7592" height="56" rx="1" fill="#38B781"/>
<path d="M227.168 146V203" stroke="#38B781" stroke-width="0.5"/>
<rect x="224.289" y="150" width="5.7592" height="30.6923" rx="1" fill="#38B781"/>
<path d="M246.367 118V192" stroke="#38B781" stroke-width="0.5"/>
<rect x="243.488" y="142.667" width="5.7592" height="39.8461" rx="1" fill="#38B781"/>
<path d="M258.844 91V165" stroke="#38B781" stroke-width="0.5"/>
<rect x="255.965" y="115.667" width="5.7592" height="39.8461" rx="1" fill="#38B781"/>
<path d="M44.7969 114V153" stroke="#38B781" stroke-width="0.5"/>
<rect x="41.918" y="140" width="5.7592" height="8" rx="1" fill="#38B781"/>
<path d="M62.0742 141V197" stroke="#38B781" stroke-width="0.5"/>
<rect x="59.1953" y="146" width="5.7592" height="8" rx="1" fill="#38B781"/>
<path d="M79.3516 178V217" stroke="#38B781" stroke-width="0.5"/>
<rect x="76.4727" y="182" width="5.7592" height="21" rx="1" fill="#38B781"/>
<path d="M98.5469 159.769V225" stroke="#38B781" stroke-width="0.5"/>
<rect x="95.668" y="178" width="5.7592" height="28.5385" rx="1" fill="#38B781"/>
<path d="M109.105 209V238" stroke="#38B781" stroke-width="0.5"/>
<rect x="106.227" y="214" width="5.7592" height="21" rx="1" fill="#38B781"/>
<path d="M35.9492 98V146" stroke="#FF545E" stroke-width="0.463768"/>
<rect width="5.7592" height="5" rx="0.927536" transform="matrix(-1 0 0 1 39.0391 102)" fill="#FF545E"/>
<path d="M53.4336 148L53.2249 181" stroke="#FF545E" stroke-width="0.463768"/>
<rect width="5.7592" height="21" rx="0.927536" transform="matrix(-1 0 0 1 56.3125 156)" fill="#FF545E"/>
<path d="M117.746 214.943L117.537 279.057" stroke="#FF545E" stroke-width="0.463768"/>
<rect width="5.7592" height="42" rx="0.927536" transform="matrix(-1 0 0 1 120.625 229)" fill="#FF545E"/>
<path d="M125.426 230.857L125.217 259.143" stroke="#FF545E" stroke-width="0.463768"/>
<rect width="5.7592" height="7.94117" rx="0.927536" transform="matrix(-1 0 0 1 128.305 247.647)" fill="#FF545E"/>
<path d="M135.023 240.6L134.815 260.4" stroke="#FF545E" stroke-width="0.463768"/>
<rect width="5.7592" height="5.55882" rx="0.927536" transform="matrix(-1 0 0 1 137.902 252.353)" fill="#FF545E"/>
<path d="M173.418 188L173.209 236" stroke="#FF545E" stroke-width="0.463768"/>
<rect width="5.7592" height="27" rx="0.927536" transform="matrix(-1 0 0 1 176.297 196)" fill="#FF545E"/>
<path d="M183.016 176.857L182.807 216.629" stroke="#FF545E" stroke-width="0.463768"/>
<rect width="5.7592" height="16.4571" rx="0.927536" transform="matrix(-1 0 0 1 185.895 187.829)" fill="#FF545E"/>
<path d="M214.691 171.857L214.483 211.629" stroke="#FF545E" stroke-width="0.463768"/>
<rect width="5.7592" height="16" rx="0.927536" transform="matrix(-1 0 0 1 217.57 183)" fill="#FF545E"/>
<path d="M267.484 78V115" stroke="#38B781" stroke-width="0.463768"/>
<rect width="5.7592" height="10" rx="0.927536" transform="matrix(-1 0 0 1 270.363 95)" fill="#38B781"/>
<path d="M276.125 94V131" stroke="#FF545E" stroke-width="0.463768"/>
<rect width="5.7592" height="15" rx="0.927536" transform="matrix(-1 0 0 1 279.004 111)" fill="#FF545E"/>
<path d="M235.809 112.543L235.6 163.457" stroke="#FF545E" stroke-width="0.463768"/>
<rect width="5.7592" height="20" rx="0.927536" transform="matrix(-1 0 0 1 238.688 134)" fill="#FF545E"/>
<path d="M70.7148 164.692L70.5062 205.308" stroke="#FF545E" stroke-width="0.463768"/>
<rect width="5.7592" height="28.7692" rx="0.927536" transform="matrix(-1 0 0 1 73.5938 176)" fill="#FF545E"/>
<path d="M89.9102 180.308L89.7015 235.692" stroke="#FF545E" stroke-width="0.463768"/>
<rect width="5.7592" height="12" rx="0.927536" transform="matrix(-1 0 0 1 92.7891 220)" fill="#FF545E"/>
<path d="M284.762 94V131" stroke="#FF545E" stroke-width="0.463768"/>
<rect width="5.7592" height="7" rx="0.927536" transform="matrix(-1 0 0 1 287.641 119)" fill="#FF545E"/>
<path d="M292.641 106.974L292.683 130.974" stroke="#38B781" stroke-width="0.463768"/>
<rect width="6.08481" height="7" rx="0.927536" transform="matrix(-1 0 0 1 295.727 111.974)" fill="#38B781"/>
<line x1="307.5" y1="34" x2="307.5" y2="334" stroke="#C4C4C4" stroke-opacity="0.23"/>
<rect x="307" y="106" width="60" height="17" rx="1" fill="#38B781"/>
<path d="M316.3 119.088C315.398 119.088 314.709 118.751 314.232 118.076C313.763 117.401 313.528 116.419 313.528 115.128C313.528 113.83 313.763 112.844 314.232 112.169C314.709 111.494 315.398 111.157 316.3 111.157C317.202 111.157 317.888 111.494 318.357 112.169C318.834 112.836 319.072 113.819 319.072 115.117C319.072 116.415 318.834 117.401 318.357 118.076C317.888 118.751 317.202 119.088 316.3 119.088ZM316.3 118.175C316.865 118.175 317.279 117.929 317.543 117.438C317.807 116.947 317.939 116.173 317.939 115.117C317.939 114.061 317.807 113.291 317.543 112.807C317.279 112.316 316.865 112.07 316.3 112.07C315.735 112.07 315.321 112.316 315.057 112.807C314.793 113.291 314.661 114.061 314.661 115.117C314.661 116.166 314.793 116.939 315.057 117.438C315.321 117.929 315.735 118.175 316.3 118.175ZM320.905 119.055C320.707 119.055 320.538 118.989 320.399 118.857C320.267 118.725 320.201 118.556 320.201 118.351C320.201 118.146 320.267 117.977 320.399 117.845C320.538 117.706 320.707 117.636 320.905 117.636C321.103 117.636 321.268 117.706 321.4 117.845C321.532 117.977 321.598 118.146 321.598 118.351C321.598 118.556 321.532 118.725 321.4 118.857C321.268 118.989 321.103 119.055 320.905 119.055ZM325.517 119.088C324.615 119.088 323.925 118.751 323.449 118.076C322.979 117.401 322.745 116.419 322.745 115.128C322.745 113.83 322.979 112.844 323.449 112.169C323.925 111.494 324.615 111.157 325.517 111.157C326.419 111.157 327.104 111.494 327.574 112.169C328.05 112.836 328.289 113.819 328.289 115.117C328.289 116.415 328.05 117.401 327.574 118.076C327.104 118.751 326.419 119.088 325.517 119.088ZM325.517 118.175C326.081 118.175 326.496 117.929 326.76 117.438C327.024 116.947 327.156 116.173 327.156 115.117C327.156 114.061 327.024 113.291 326.76 112.807C326.496 112.316 326.081 112.07 325.517 112.07C324.952 112.07 324.538 112.316 324.274 112.807C324.01 113.291 323.878 114.061 323.878 115.117C323.878 116.166 324.01 116.939 324.274 117.438C324.538 117.929 324.952 118.175 325.517 118.175ZM332.465 114.094C332.949 114.094 333.374 114.197 333.741 114.402C334.115 114.607 334.404 114.897 334.61 115.271C334.815 115.645 334.918 116.074 334.918 116.558C334.918 117.049 334.804 117.486 334.577 117.867C334.349 118.248 334.03 118.545 333.62 118.758C333.216 118.971 332.751 119.077 332.223 119.077C331.768 119.077 331.321 119 330.881 118.846C330.448 118.692 330.085 118.479 329.792 118.208C329.645 118.083 329.572 117.937 329.572 117.768C329.572 117.636 329.608 117.526 329.682 117.438C329.755 117.343 329.843 117.295 329.946 117.295C330.012 117.295 330.07 117.306 330.122 117.328C330.18 117.35 330.246 117.387 330.32 117.438C330.62 117.673 330.921 117.852 331.222 117.977C331.53 118.094 331.852 118.153 332.19 118.153C332.703 118.153 333.103 118.017 333.389 117.746C333.675 117.467 333.818 117.079 333.818 116.58C333.818 116.103 333.671 115.722 333.378 115.436C333.092 115.15 332.707 115.007 332.223 115.007C331.907 115.007 331.625 115.062 331.376 115.172C331.126 115.275 330.892 115.44 330.672 115.667C330.562 115.77 330.43 115.821 330.276 115.821C330.151 115.821 330.045 115.784 329.957 115.711C329.876 115.63 329.836 115.528 329.836 115.403V111.784C329.836 111.615 329.88 111.483 329.968 111.388C330.063 111.293 330.199 111.245 330.375 111.245H334.159C334.327 111.245 334.459 111.285 334.555 111.366C334.65 111.447 334.698 111.557 334.698 111.696C334.698 111.843 334.65 111.956 334.555 112.037C334.459 112.118 334.327 112.158 334.159 112.158H330.958V114.6C331.361 114.263 331.863 114.094 332.465 114.094ZM339.06 114.094C339.544 114.094 339.97 114.197 340.336 114.402C340.71 114.607 341 114.897 341.205 115.271C341.411 115.645 341.513 116.074 341.513 116.558C341.513 117.049 341.4 117.486 341.172 117.867C340.945 118.248 340.626 118.545 340.215 118.758C339.812 118.971 339.346 119.077 338.818 119.077C338.364 119.077 337.916 119 337.476 118.846C337.044 118.692 336.681 118.479 336.387 118.208C336.241 118.083 336.167 117.937 336.167 117.768C336.167 117.636 336.204 117.526 336.277 117.438C336.351 117.343 336.439 117.295 336.541 117.295C336.607 117.295 336.666 117.306 336.717 117.328C336.776 117.35 336.842 117.387 336.915 117.438C337.216 117.673 337.517 117.852 337.817 117.977C338.125 118.094 338.448 118.153 338.785 118.153C339.299 118.153 339.698 118.017 339.984 117.746C340.27 117.467 340.413 117.079 340.413 116.58C340.413 116.103 340.267 115.722 339.973 115.436C339.687 115.15 339.302 115.007 338.818 115.007C338.503 115.007 338.221 115.062 337.971 115.172C337.722 115.275 337.487 115.44 337.267 115.667C337.157 115.77 337.025 115.821 336.871 115.821C336.747 115.821 336.64 115.784 336.552 115.711C336.472 115.63 336.431 115.528 336.431 115.403V111.784C336.431 111.615 336.475 111.483 336.563 111.388C336.659 111.293 336.794 111.245 336.97 111.245H340.754C340.923 111.245 341.055 111.285 341.15 111.366C341.246 111.447 341.293 111.557 341.293 111.696C341.293 111.843 341.246 111.956 341.15 112.037C341.055 112.118 340.923 112.158 340.754 112.158H337.553V114.6C337.957 114.263 338.459 114.094 339.06 114.094ZM345.304 119.088C344.402 119.088 343.713 118.751 343.236 118.076C342.767 117.401 342.532 116.419 342.532 115.128C342.532 113.83 342.767 112.844 343.236 112.169C343.713 111.494 344.402 111.157 345.304 111.157C346.206 111.157 346.892 111.494 347.361 112.169C347.838 112.836 348.076 113.819 348.076 115.117C348.076 116.415 347.838 117.401 347.361 118.076C346.892 118.751 346.206 119.088 345.304 119.088ZM345.304 118.175C345.869 118.175 346.283 117.929 346.547 117.438C346.811 116.947 346.943 116.173 346.943 115.117C346.943 114.061 346.811 113.291 346.547 112.807C346.283 112.316 345.869 112.07 345.304 112.07C344.739 112.07 344.325 112.316 344.061 112.807C343.797 113.291 343.665 114.061 343.665 115.117C343.665 116.166 343.797 116.939 344.061 117.438C344.325 117.929 344.739 118.175 345.304 118.175ZM351.9 119.088C350.998 119.088 350.308 118.751 349.832 118.076C349.362 117.401 349.128 116.419 349.128 115.128C349.128 113.83 349.362 112.844 349.832 112.169C350.308 111.494 350.998 111.157 351.9 111.157C352.802 111.157 353.487 111.494 353.957 112.169C354.433 112.836 354.672 113.819 354.672 115.117C354.672 116.415 354.433 117.401 353.957 118.076C353.487 118.751 352.802 119.088 351.9 119.088ZM351.9 118.175C352.464 118.175 352.879 117.929 353.143 117.438C353.407 116.947 353.539 116.173 353.539 115.117C353.539 114.061 353.407 113.291 353.143 112.807C352.879 112.316 352.464 112.07 351.9 112.07C351.335 112.07 350.921 112.316 350.657 112.807C350.393 113.291 350.261 114.061 350.261 115.117C350.261 116.166 350.393 116.939 350.657 117.438C350.921 117.929 351.335 118.175 351.9 118.175ZM358.495 119.088C357.593 119.088 356.904 118.751 356.427 118.076C355.958 117.401 355.723 116.419 355.723 115.128C355.723 113.83 355.958 112.844 356.427 112.169C356.904 111.494 357.593 111.157 358.495 111.157C359.397 111.157 360.083 111.494 360.552 112.169C361.029 112.836 361.267 113.819 361.267 115.117C361.267 116.415 361.029 117.401 360.552 118.076C360.083 118.751 359.397 119.088 358.495 119.088ZM358.495 118.175C359.06 118.175 359.474 117.929 359.738 117.438C360.002 116.947 360.134 116.173 360.134 115.117C360.134 114.061 360.002 113.291 359.738 112.807C359.474 112.316 359.06 112.07 358.495 112.07C357.931 112.07 357.516 112.316 357.252 112.807C356.988 113.291 356.856 114.061 356.856 115.117C356.856 116.166 356.988 116.939 357.252 117.438C357.516 117.929 357.931 118.175 358.495 118.175Z" fill="#F7F7F7"/>
<line x1="308" y1="190.5" x2="317" y2="190.5" stroke="#C4C4C4" stroke-opacity="0.23"/>
<line x1="307" y1="246.5" x2="316" y2="246.5" stroke="#C4C4C4" stroke-opacity="0.23"/>
<line x1="307" y1="296.5" x2="316" y2="296.5" stroke="#C4C4C4" stroke-opacity="0.23"/>
<line x1="307" y1="78.5" x2="316" y2="78.5" stroke="#C4C4C4" stroke-opacity="0.23"/>
<line x1="307" y1="134.5" x2="316" y2="134.5" stroke="#C4C4C4" stroke-opacity="0.23"/>
<line x1="4" y1="245.5" x2="308" y2="245.5" stroke="#C4C4C4" stroke-opacity="0.06"/>
<line x1="4" y1="190.5" x2="308" y2="190.5" stroke="#C4C4C4" stroke-opacity="0.06"/>
<line x1="4" y1="133.5" x2="308" y2="133.5" stroke="#C4C4C4" stroke-opacity="0.06"/>
<line x1="4" y1="78.5" x2="308" y2="78.5" stroke="#C4C4C4" stroke-opacity="0.06"/>
<line x1="201.5" y1="32" x2="201.5" y2="311" stroke="#C4C4C4" stroke-opacity="0.06"/>
<line x1="89.5" y1="32" x2="89.5" y2="311" stroke="#C4C4C4" stroke-opacity="0.06"/>
</svg>
