<svg width="14" height="12" viewBox="0 0 14 12" fill="none" xmlns="http://www.w3.org/2000/svg">
<path fill-rule="evenodd" clip-rule="evenodd" d="M8.33819 10.6685L8.34219 9.33317C8.34219 9.15592 8.4126 8.98592 8.53794 8.86059C8.66327 8.73525 8.83327 8.66484 9.01052 8.66484C9.18777 8.66484 9.35776 8.73525 9.4831 8.86059C9.60844 8.98592 9.67885 9.15592 9.67885 9.33317V10.6512C9.67885 10.9718 9.67885 11.1325 9.78152 11.2312C9.88485 11.3292 10.0415 11.3225 10.3569 11.3092C11.5989 11.2565 12.3622 11.0892 12.8995 10.5518C13.4395 10.0145 13.6069 9.25117 13.6595 8.00717C13.6695 7.7605 13.6749 7.6365 13.6289 7.5545C13.5822 7.4725 13.3989 7.36984 13.0309 7.16384C12.8236 7.04827 12.6509 6.87945 12.5307 6.67482C12.4105 6.47018 12.3471 6.23716 12.3471 5.99984C12.3471 5.76251 12.4105 5.52949 12.5307 5.32486C12.6509 5.12022 12.8236 4.9514 13.0309 4.83584C13.3989 4.6305 13.5829 4.52717 13.6289 4.44517C13.6749 4.36317 13.6695 4.23984 13.6589 3.9925C13.6069 2.7485 13.4389 1.98584 12.8995 1.44784C12.3149 0.863837 11.4629 0.716504 10.0182 0.679171C9.97395 0.678013 9.92993 0.685728 9.88873 0.70186C9.84752 0.717992 9.80996 0.742215 9.77827 0.773098C9.74658 0.803981 9.7214 0.840899 9.70421 0.881674C9.68702 0.922449 9.67817 0.966253 9.67818 1.0105V2.6665C9.67818 2.84376 9.60777 3.01375 9.48244 3.13909C9.3571 3.26442 9.18711 3.33484 9.00985 3.33484C8.8326 3.33484 8.66261 3.26442 8.53727 3.13909C8.41193 3.01375 8.34152 2.84376 8.34152 2.6665L8.33685 0.999171C8.33667 0.910881 8.30148 0.826267 8.23899 0.763899C8.17649 0.701531 8.09181 0.666504 8.00352 0.666504H5.66219C3.14219 0.666504 1.88218 0.666504 1.09885 1.44784C0.558852 1.98517 0.391518 2.7485 0.338852 3.9925C0.328852 4.23917 0.323518 4.36317 0.369518 4.44517C0.416185 4.52717 0.599518 4.6305 0.967518 4.83584C1.17481 4.9514 1.34748 5.12022 1.46768 5.32486C1.58788 5.52949 1.65126 5.76251 1.65126 5.99984C1.65126 6.23716 1.58788 6.47018 1.46768 6.67482C1.34748 6.87945 1.17481 7.04827 0.967518 7.16384C0.599518 7.36984 0.415518 7.4725 0.369518 7.5545C0.323518 7.6365 0.328852 7.75984 0.339518 8.0065C0.391518 9.25117 0.559518 10.0145 1.09885 10.5518C1.88218 11.3332 3.14219 11.3332 5.66285 11.3332H7.66952C7.98419 11.3332 8.14085 11.3332 8.23885 11.2358C8.33685 11.1385 8.33752 10.9825 8.33819 10.6685ZM9.67818 6.6665V5.33317C9.67818 5.15592 9.60777 4.98592 9.48244 4.86059C9.3571 4.73525 9.18711 4.66484 9.00985 4.66484C8.8326 4.66484 8.66261 4.73525 8.53727 4.86059C8.41193 4.98592 8.34152 5.15592 8.34152 5.33317V6.6665C8.34152 6.84385 8.41197 7.01392 8.53737 7.13932C8.66277 7.26472 8.83284 7.33517 9.01019 7.33517C9.18753 7.33517 9.3576 7.26472 9.483 7.13932C9.6084 7.01392 9.67818 6.84385 9.67818 6.6665Z" fill="#FCA509"/>
</svg>
