<svg width="29" height="28" viewBox="0 0 29 28" fill="none" xmlns="http://www.w3.org/2000/svg">
<path d="M10.5161 0.0077515C10.2538 0.00768025 10.0021 0.111771 9.81649 0.297146C9.63086 0.482522 9.52644 0.734014 9.52615 0.996353V7.92407H27.8295L19.4942 0.00989714L10.5161 0.0077515ZM28.5 10.0198C28.5001 9.89 28.4746 9.76143 28.4249 9.64149C28.3752 9.52156 28.3023 9.41261 28.2104 9.32091C28.1185 9.22921 28.0094 9.15656 27.8894 9.10712C27.7693 9.05769 27.6407 9.03244 27.5109 9.03283H20.5837V27.3356L28.4968 18.9982L28.5 10.0198ZM18.4847 28C18.7466 27.9993 18.9975 27.8947 19.1824 27.7093C19.3673 27.5239 19.4712 27.2727 19.4712 27.0108V20.0839H1.16864L9.50255 27.9981L18.4847 28ZM0.5 17.989C0.499965 18.1188 0.525508 18.2474 0.575171 18.3674C0.624833 18.4874 0.697644 18.5964 0.789444 18.6883C0.881244 18.7801 0.990234 18.853 1.1102 18.9027C1.23016 18.9525 1.35874 18.9781 1.4886 18.9781H8.41633V0.673971L0.501072 9.00922L0.5 17.989Z" fill="white"/>
</svg>
