<svg width="28" height="28" viewBox="0 0 28 28" fill="none" xmlns="http://www.w3.org/2000/svg">
<path d="M4.66797 14.0013C4.66797 11.5259 5.6513 9.15198 7.40164 7.40164C9.15198 5.6513 11.5259 4.66797 14.0013 4.66797C16.4767 4.66797 18.8506 5.6513 20.601 7.40164C22.3513 9.15198 23.3346 11.5259 23.3346 14.0013V19.9396C23.3346 20.929 23.3346 21.4213 23.1876 21.8168C23.0707 22.1302 22.8878 22.4148 22.6513 22.6513C22.4148 22.8878 22.1302 23.0707 21.8168 23.1876C21.4213 23.3346 20.9278 23.3346 19.9396 23.3346H14.0013C11.5259 23.3346 9.15198 22.3513 7.40164 20.601C5.6513 18.8506 4.66797 16.4767 4.66797 14.0013Z" stroke="white" stroke-width="2"/>
<path d="M10.5 12.8359H17.5M14 17.5026H17.5" stroke="white" stroke-width="2" stroke-linecap="round" stroke-linejoin="round"/>
</svg>
