<svg width="19" height="19" viewBox="0 0 19 19" fill="none" xmlns="http://www.w3.org/2000/svg">
<path d="M12.5 10.175V13.325C12.5 15.95 11.45 17 8.825 17H5.675C3.05 17 2 15.95 2 13.325V10.175C2 7.55 3.05 6.5 5.675 6.5H8.825C11.45 6.5 12.5 7.55 12.5 10.175Z" stroke="#6C7278" stroke-width="1.5" stroke-linecap="round" stroke-linejoin="round"/>
<path d="M17 5.675V8.825C17 11.45 15.95 12.5 13.325 12.5H12.5V10.175C12.5 7.55 11.45 6.5 8.825 6.5H6.5V5.675C6.5 3.05 7.55 2 10.175 2H13.325C15.95 2 17 3.05 17 5.675Z" stroke="#6C7278" stroke-width="1.5" stroke-linecap="round" stroke-linejoin="round"/>
</svg>
