<svg width="225" height="224" viewBox="0 0 225 224" fill="none" xmlns="http://www.w3.org/2000/svg">
<path d="M8.22414 0H0.5V7.72414H8.22414V0Z" fill="white"/>
<path d="M15.9483 0H8.22414V7.72414H15.9483V0Z" fill="white"/>
<path d="M23.6724 0H15.9483V7.72414H23.6724V0Z" fill="white"/>
<path d="M31.3966 0H23.6724V7.72414H31.3966V0Z" fill="white"/>
<path d="M39.1207 0H31.3966V7.72414H39.1207V0Z" fill="white"/>
<path d="M46.8448 0H39.1207V7.72414H46.8448V0Z" fill="white"/>
<path d="M54.569 0H46.8448V7.72414H54.569V0Z" fill="white"/>
<path d="M70.0172 0H62.2931V7.72414H70.0172V0Z" fill="white"/>
<path d="M85.4655 0H77.7414V7.72414H85.4655V0Z" fill="white"/>
<path d="M124.086 0H116.362V7.72414H124.086V0Z" fill="white"/>
<path d="M131.81 0H124.086V7.72414H131.81V0Z" fill="white"/>
<path d="M147.259 0H139.534V7.72414H147.259V0Z" fill="white"/>
<path d="M162.707 0H154.983V7.72414H162.707V0Z" fill="white"/>
<path d="M178.155 0H170.431V7.72414H178.155V0Z" fill="white"/>
<path d="M185.879 0H178.155V7.72414H185.879V0Z" fill="white"/>
<path d="M193.603 0H185.879V7.72414H193.603V0Z" fill="white"/>
<path d="M201.328 0H193.603V7.72414H201.328V0Z" fill="white"/>
<path d="M209.052 0H201.328V7.72414H209.052V0Z" fill="white"/>
<path d="M216.776 0H209.052V7.72414H216.776V0Z" fill="white"/>
<path d="M224.5 0H216.776V7.72414H224.5V0Z" fill="white"/>
<path d="M8.22414 7.72414H0.5V15.4483H8.22414V7.72414Z" fill="white"/>
<path d="M54.569 7.72414H46.8448V15.4483H54.569V7.72414Z" fill="white"/>
<path d="M77.7414 7.72414H70.0172V15.4483H77.7414V7.72414Z" fill="white"/>
<path d="M85.4655 7.72414H77.7414V15.4483H85.4655V7.72414Z" fill="white"/>
<path d="M93.1897 7.72414H85.4655V15.4483H93.1897V7.72414Z" fill="white"/>
<path d="M100.914 7.72414H93.1897V15.4483H100.914V7.72414Z" fill="white"/>
<path d="M116.362 7.72414H108.638V15.4483H116.362V7.72414Z" fill="white"/>
<path d="M124.086 7.72414H116.362V15.4483H124.086V7.72414Z" fill="white"/>
<path d="M178.155 7.72414H170.431V15.4483H178.155V7.72414Z" fill="white"/>
<path d="M224.5 7.72414H216.776V15.4483H224.5V7.72414Z" fill="white"/>
<path d="M8.22414 15.4483H0.5V23.1724H8.22414V15.4483Z" fill="white"/>
<path d="M23.6724 15.4483H15.9483V23.1724H23.6724V15.4483Z" fill="white"/>
<path d="M31.3966 15.4483H23.6724V23.1724H31.3966V15.4483Z" fill="white"/>
<path d="M39.1207 15.4483H31.3966V23.1724H39.1207V15.4483Z" fill="white"/>
<path d="M54.569 15.4483H46.8448V23.1724H54.569V15.4483Z" fill="white"/>
<path d="M85.4655 15.4483H77.7414V23.1724H85.4655V15.4483Z" fill="white"/>
<path d="M93.1897 15.4483H85.4655V23.1724H93.1897V15.4483Z" fill="white"/>
<path d="M100.914 15.4483H93.1897V23.1724H100.914V15.4483Z" fill="white"/>
<path d="M108.638 15.4483H100.914V23.1724H108.638V15.4483Z" fill="white"/>
<path d="M124.086 15.4483H116.362V23.1724H124.086V15.4483Z" fill="white"/>
<path d="M131.81 15.4483H124.086V23.1724H131.81V15.4483Z" fill="white"/>
<path d="M154.983 15.4483H147.259V23.1724H154.983V15.4483Z" fill="white"/>
<path d="M162.707 15.4483H154.983V23.1724H162.707V15.4483Z" fill="white"/>
<path d="M178.155 15.4483H170.431V23.1724H178.155V15.4483Z" fill="white"/>
<path d="M193.603 15.4483H185.879V23.1724H193.603V15.4483Z" fill="white"/>
<path d="M201.328 15.4483H193.603V23.1724H201.328V15.4483Z" fill="white"/>
<path d="M209.052 15.4483H201.328V23.1724H209.052V15.4483Z" fill="white"/>
<path d="M224.5 15.4483H216.776V23.1724H224.5V15.4483Z" fill="white"/>
<path d="M8.22414 23.1724H0.5V30.8966H8.22414V23.1724Z" fill="white"/>
<path d="M23.6724 23.1724H15.9483V30.8966H23.6724V23.1724Z" fill="white"/>
<path d="M31.3966 23.1724H23.6724V30.8966H31.3966V23.1724Z" fill="white"/>
<path d="M39.1207 23.1724H31.3966V30.8966H39.1207V23.1724Z" fill="white"/>
<path d="M54.569 23.1724H46.8448V30.8966H54.569V23.1724Z" fill="white"/>
<path d="M70.0172 23.1724H62.2931V30.8966H70.0172V23.1724Z" fill="white"/>
<path d="M77.7414 23.1724H70.0172V30.8966H77.7414V23.1724Z" fill="white"/>
<path d="M85.4655 23.1724H77.7414V30.8966H85.4655V23.1724Z" fill="white"/>
<path d="M93.1897 23.1724H85.4655V30.8966H93.1897V23.1724Z" fill="white"/>
<path d="M108.638 23.1724H100.914V30.8966H108.638V23.1724Z" fill="white"/>
<path d="M131.81 23.1724H124.086V30.8966H131.81V23.1724Z" fill="white"/>
<path d="M154.983 23.1724H147.259V30.8966H154.983V23.1724Z" fill="white"/>
<path d="M178.155 23.1724H170.431V30.8966H178.155V23.1724Z" fill="white"/>
<path d="M193.603 23.1724H185.879V30.8966H193.603V23.1724Z" fill="white"/>
<path d="M201.328 23.1724H193.603V30.8966H201.328V23.1724Z" fill="white"/>
<path d="M209.052 23.1724H201.328V30.8966H209.052V23.1724Z" fill="white"/>
<path d="M224.5 23.1724H216.776V30.8966H224.5V23.1724Z" fill="white"/>
<path d="M8.22414 30.8966H0.5V38.6207H8.22414V30.8966Z" fill="white"/>
<path d="M23.6724 30.8966H15.9483V38.6207H23.6724V30.8966Z" fill="white"/>
<path d="M31.3966 30.8966H23.6724V38.6207H31.3966V30.8966Z" fill="white"/>
<path d="M39.1207 30.8966H31.3966V38.6207H39.1207V30.8966Z" fill="white"/>
<path d="M54.569 30.8966H46.8448V38.6207H54.569V30.8966Z" fill="white"/>
<path d="M108.638 30.8966H100.914V38.6207H108.638V30.8966Z" fill="white"/>
<path d="M116.362 30.8966H108.638V38.6207H116.362V30.8966Z" fill="white"/>
<path d="M124.086 30.8966H116.362V38.6207H124.086V30.8966Z" fill="white"/>
<path d="M139.534 30.8966H131.81V38.6207H139.534V30.8966Z" fill="white"/>
<path d="M178.155 30.8966H170.431V38.6207H178.155V30.8966Z" fill="white"/>
<path d="M193.603 30.8966H185.879V38.6207H193.603V30.8966Z" fill="white"/>
<path d="M201.328 30.8966H193.603V38.6207H201.328V30.8966Z" fill="white"/>
<path d="M209.052 30.8966H201.328V38.6207H209.052V30.8966Z" fill="white"/>
<path d="M224.5 30.8966H216.776V38.6207H224.5V30.8966Z" fill="white"/>
<path d="M8.22414 38.6207H0.5V46.3448H8.22414V38.6207Z" fill="white"/>
<path d="M54.569 38.6207H46.8448V46.3448H54.569V38.6207Z" fill="white"/>
<path d="M70.0172 38.6207H62.2931V46.3448H70.0172V38.6207Z" fill="white"/>
<path d="M77.7414 38.6207H70.0172V46.3448H77.7414V38.6207Z" fill="white"/>
<path d="M85.4655 38.6207H77.7414V46.3448H85.4655V38.6207Z" fill="white"/>
<path d="M93.1897 38.6207H85.4655V46.3448H93.1897V38.6207Z" fill="white"/>
<path d="M100.914 38.6207H93.1897V46.3448H100.914V38.6207Z" fill="white"/>
<path d="M108.638 38.6207H100.914V46.3448H108.638V38.6207Z" fill="white"/>
<path d="M124.086 38.6207H116.362V46.3448H124.086V38.6207Z" fill="white"/>
<path d="M131.81 38.6207H124.086V46.3448H131.81V38.6207Z" fill="white"/>
<path d="M178.155 38.6207H170.431V46.3448H178.155V38.6207Z" fill="white"/>
<path d="M224.5 38.6207H216.776V46.3448H224.5V38.6207Z" fill="white"/>
<path d="M8.22414 46.3448H0.5V54.069H8.22414V46.3448Z" fill="white"/>
<path d="M15.9483 46.3448H8.22414V54.069H15.9483V46.3448Z" fill="white"/>
<path d="M23.6724 46.3448H15.9483V54.069H23.6724V46.3448Z" fill="white"/>
<path d="M31.3966 46.3448H23.6724V54.069H31.3966V46.3448Z" fill="white"/>
<path d="M39.1207 46.3448H31.3966V54.069H39.1207V46.3448Z" fill="white"/>
<path d="M46.8448 46.3448H39.1207V54.069H46.8448V46.3448Z" fill="white"/>
<path d="M54.569 46.3448H46.8448V54.069H54.569V46.3448Z" fill="white"/>
<path d="M70.0172 46.3448H62.2931V54.069H70.0172V46.3448Z" fill="white"/>
<path d="M85.4655 46.3448H77.7414V54.069H85.4655V46.3448Z" fill="white"/>
<path d="M100.914 46.3448H93.1897V54.069H100.914V46.3448Z" fill="white"/>
<path d="M116.362 46.3448H108.638V54.069H116.362V46.3448Z" fill="white"/>
<path d="M131.81 46.3448H124.086V54.069H131.81V46.3448Z" fill="white"/>
<path d="M147.259 46.3448H139.534V54.069H147.259V46.3448Z" fill="white"/>
<path d="M162.707 46.3448H154.983V54.069H162.707V46.3448Z" fill="white"/>
<path d="M178.155 46.3448H170.431V54.069H178.155V46.3448Z" fill="white"/>
<path d="M185.879 46.3448H178.155V54.069H185.879V46.3448Z" fill="white"/>
<path d="M193.603 46.3448H185.879V54.069H193.603V46.3448Z" fill="white"/>
<path d="M201.328 46.3448H193.603V54.069H201.328V46.3448Z" fill="white"/>
<path d="M209.052 46.3448H201.328V54.069H209.052V46.3448Z" fill="white"/>
<path d="M216.776 46.3448H209.052V54.069H216.776V46.3448Z" fill="white"/>
<path d="M224.5 46.3448H216.776V54.069H224.5V46.3448Z" fill="white"/>
<path d="M77.7414 54.069H70.0172V61.7931H77.7414V54.069Z" fill="white"/>
<path d="M116.362 54.069H108.638V61.7931H116.362V54.069Z" fill="white"/>
<path d="M139.534 54.069H131.81V61.7931H139.534V54.069Z" fill="white"/>
<path d="M147.259 54.069H139.534V61.7931H147.259V54.069Z" fill="white"/>
<path d="M154.983 54.069H147.259V61.7931H154.983V54.069Z" fill="white"/>
<path d="M162.707 54.069H154.983V61.7931H162.707V54.069Z" fill="white"/>
<path d="M46.8448 61.7931H39.1207V69.5172H46.8448V61.7931Z" fill="white"/>
<path d="M54.569 61.7931H46.8448V69.5172H54.569V61.7931Z" fill="white"/>
<path d="M70.0172 61.7931H62.2931V69.5172H70.0172V61.7931Z" fill="white"/>
<path d="M77.7414 61.7931H70.0172V69.5172H77.7414V61.7931Z" fill="white"/>
<path d="M93.1897 61.7931H85.4655V69.5172H93.1897V61.7931Z" fill="white"/>
<path d="M100.914 61.7931H93.1897V69.5172H100.914V61.7931Z" fill="white"/>
<path d="M116.362 61.7931H108.638V69.5172H116.362V61.7931Z" fill="white"/>
<path d="M124.086 61.7931H116.362V69.5172H124.086V61.7931Z" fill="white"/>
<path d="M131.81 61.7931H124.086V69.5172H131.81V61.7931Z" fill="white"/>
<path d="M139.534 61.7931H131.81V69.5172H139.534V61.7931Z" fill="white"/>
<path d="M170.431 61.7931H162.707V69.5172H170.431V61.7931Z" fill="white"/>
<path d="M185.879 61.7931H178.155V69.5172H185.879V61.7931Z" fill="white"/>
<path d="M201.328 61.7931H193.603V69.5172H201.328V61.7931Z" fill="white"/>
<path d="M224.5 61.7931H216.776V69.5172H224.5V61.7931Z" fill="white"/>
<path d="M8.22414 69.5172H0.5V77.2414H8.22414V69.5172Z" fill="white"/>
<path d="M31.3966 69.5172H23.6724V77.2414H31.3966V69.5172Z" fill="white"/>
<path d="M62.2931 69.5172H54.569V77.2414H62.2931V69.5172Z" fill="white"/>
<path d="M70.0172 69.5172H62.2931V77.2414H70.0172V69.5172Z" fill="white"/>
<path d="M77.7414 69.5172H70.0172V77.2414H77.7414V69.5172Z" fill="white"/>
<path d="M124.086 69.5172H116.362V77.2414H124.086V69.5172Z" fill="white"/>
<path d="M139.534 69.5172H131.81V77.2414H139.534V69.5172Z" fill="white"/>
<path d="M154.983 69.5172H147.259V77.2414H154.983V69.5172Z" fill="white"/>
<path d="M170.431 69.5172H162.707V77.2414H170.431V69.5172Z" fill="white"/>
<path d="M8.22414 77.2414H0.5V84.9655H8.22414V77.2414Z" fill="white"/>
<path d="M31.3966 77.2414H23.6724V84.9655H31.3966V77.2414Z" fill="white"/>
<path d="M39.1207 77.2414H31.3966V84.9655H39.1207V77.2414Z" fill="white"/>
<path d="M54.569 77.2414H46.8448V84.9655H54.569V77.2414Z" fill="white"/>
<path d="M62.2931 77.2414H54.569V84.9655H62.2931V77.2414Z" fill="white"/>
<path d="M70.0172 77.2414H62.2931V84.9655H70.0172V77.2414Z" fill="white"/>
<path d="M85.4655 77.2414H77.7414V84.9655H85.4655V77.2414Z" fill="white"/>
<path d="M100.914 77.2414H93.1897V84.9655H100.914V77.2414Z" fill="white"/>
<path d="M124.086 77.2414H116.362V84.9655H124.086V77.2414Z" fill="white"/>
<path d="M147.259 77.2414H139.534V84.9655H147.259V77.2414Z" fill="white"/>
<path d="M162.707 77.2414H154.983V84.9655H162.707V77.2414Z" fill="white"/>
<path d="M178.155 77.2414H170.431V84.9655H178.155V77.2414Z" fill="white"/>
<path d="M193.603 77.2414H185.879V84.9655H193.603V77.2414Z" fill="white"/>
<path d="M209.052 77.2414H201.328V84.9655H209.052V77.2414Z" fill="white"/>
<path d="M224.5 77.2414H216.776V84.9655H224.5V77.2414Z" fill="white"/>
<path d="M46.8448 84.9655H39.1207V92.6897H46.8448V84.9655Z" fill="white"/>
<path d="M85.4655 84.9655H77.7414V92.6897H85.4655V84.9655Z" fill="white"/>
<path d="M108.638 84.9655H100.914V92.6897H108.638V84.9655Z" fill="white"/>
<path d="M116.362 84.9655H108.638V92.6897H116.362V84.9655Z" fill="white"/>
<path d="M131.81 84.9655H124.086V92.6897H131.81V84.9655Z" fill="white"/>
<path d="M147.259 84.9655H139.534V92.6897H147.259V84.9655Z" fill="white"/>
<path d="M154.983 84.9655H147.259V92.6897H154.983V84.9655Z" fill="white"/>
<path d="M162.707 84.9655H154.983V92.6897H162.707V84.9655Z" fill="white"/>
<path d="M170.431 84.9655H162.707V92.6897H170.431V84.9655Z" fill="white"/>
<path d="M185.879 84.9655H178.155V92.6897H185.879V84.9655Z" fill="white"/>
<path d="M193.603 84.9655H185.879V92.6897H193.603V84.9655Z" fill="white"/>
<path d="M23.6724 92.6897H15.9483V100.414H23.6724V92.6897Z" fill="white"/>
<path d="M54.569 92.6897H46.8448V100.414H54.569V92.6897Z" fill="white"/>
<path d="M70.0172 92.6897H62.2931V100.414H70.0172V92.6897Z" fill="white"/>
<path d="M77.7414 92.6897H70.0172V100.414H77.7414V92.6897Z" fill="white"/>
<path d="M85.4655 92.6897H77.7414V100.414H85.4655V92.6897Z" fill="white"/>
<path d="M93.1897 92.6897H85.4655V100.414H93.1897V92.6897Z" fill="white"/>
<path d="M100.914 92.6897H93.1897V100.414H100.914V92.6897Z" fill="white"/>
<path d="M116.362 92.6897H108.638V100.414H116.362V92.6897Z" fill="white"/>
<path d="M124.086 92.6897H116.362V100.414H124.086V92.6897Z" fill="white"/>
<path d="M147.259 92.6897H139.534V100.414H147.259V92.6897Z" fill="white"/>
<path d="M154.983 92.6897H147.259V100.414H154.983V92.6897Z" fill="white"/>
<path d="M178.155 92.6897H170.431V100.414H178.155V92.6897Z" fill="white"/>
<path d="M193.603 92.6897H185.879V100.414H193.603V92.6897Z" fill="white"/>
<path d="M209.052 92.6897H201.328V100.414H209.052V92.6897Z" fill="white"/>
<path d="M224.5 92.6897H216.776V100.414H224.5V92.6897Z" fill="white"/>
<path d="M8.22414 100.414H0.5V108.138H8.22414V100.414Z" fill="white"/>
<path d="M15.9483 100.414H8.22414V108.138H15.9483V100.414Z" fill="white"/>
<path d="M23.6724 100.414H15.9483V108.138H23.6724V100.414Z" fill="white"/>
<path d="M31.3966 100.414H23.6724V108.138H31.3966V100.414Z" fill="white"/>
<path d="M39.1207 100.414H31.3966V108.138H39.1207V100.414Z" fill="white"/>
<path d="M46.8448 100.414H39.1207V108.138H46.8448V100.414Z" fill="white"/>
<path d="M124.086 100.414H116.362V108.138H124.086V100.414Z" fill="white"/>
<path d="M131.81 100.414H124.086V108.138H131.81V100.414Z" fill="white"/>
<path d="M147.259 100.414H139.534V108.138H147.259V100.414Z" fill="white"/>
<path d="M154.983 100.414H147.259V108.138H154.983V100.414Z" fill="white"/>
<path d="M170.431 100.414H162.707V108.138H170.431V100.414Z" fill="white"/>
<path d="M178.155 100.414H170.431V108.138H178.155V100.414Z" fill="white"/>
<path d="M185.879 100.414H178.155V108.138H185.879V100.414Z" fill="white"/>
<path d="M216.776 100.414H209.052V108.138H216.776V100.414Z" fill="white"/>
<path d="M224.5 100.414H216.776V108.138H224.5V100.414Z" fill="white"/>
<path d="M15.9483 108.138H8.22414V115.862H15.9483V108.138Z" fill="white"/>
<path d="M31.3966 108.138H23.6724V115.862H31.3966V108.138Z" fill="white"/>
<path d="M39.1207 108.138H31.3966V115.862H39.1207V108.138Z" fill="white"/>
<path d="M46.8448 108.138H39.1207V115.862H46.8448V108.138Z" fill="white"/>
<path d="M54.569 108.138H46.8448V115.862H54.569V108.138Z" fill="white"/>
<path d="M62.2931 108.138H54.569V115.862H62.2931V108.138Z" fill="white"/>
<path d="M77.7414 108.138H70.0172V115.862H77.7414V108.138Z" fill="white"/>
<path d="M93.1897 108.138H85.4655V115.862H93.1897V108.138Z" fill="white"/>
<path d="M124.086 108.138H116.362V115.862H124.086V108.138Z" fill="white"/>
<path d="M131.81 108.138H124.086V115.862H131.81V108.138Z" fill="white"/>
<path d="M162.707 108.138H154.983V115.862H162.707V108.138Z" fill="white"/>
<path d="M178.155 108.138H170.431V115.862H178.155V108.138Z" fill="white"/>
<path d="M193.603 108.138H185.879V115.862H193.603V108.138Z" fill="white"/>
<path d="M201.328 108.138H193.603V115.862H201.328V108.138Z" fill="white"/>
<path d="M224.5 108.138H216.776V115.862H224.5V108.138Z" fill="white"/>
<path d="M15.9483 115.862H8.22414V123.586H15.9483V115.862Z" fill="white"/>
<path d="M31.3966 115.862H23.6724V123.586H31.3966V115.862Z" fill="white"/>
<path d="M70.0172 115.862H62.2931V123.586H70.0172V115.862Z" fill="white"/>
<path d="M77.7414 115.862H70.0172V123.586H77.7414V115.862Z" fill="white"/>
<path d="M93.1897 115.862H85.4655V123.586H93.1897V115.862Z" fill="white"/>
<path d="M108.638 115.862H100.914V123.586H108.638V115.862Z" fill="white"/>
<path d="M116.362 115.862H108.638V123.586H116.362V115.862Z" fill="white"/>
<path d="M131.81 115.862H124.086V123.586H131.81V115.862Z" fill="white"/>
<path d="M139.534 115.862H131.81V123.586H139.534V115.862Z" fill="white"/>
<path d="M154.983 115.862H147.259V123.586H154.983V115.862Z" fill="white"/>
<path d="M170.431 115.862H162.707V123.586H170.431V115.862Z" fill="white"/>
<path d="M178.155 115.862H170.431V123.586H178.155V115.862Z" fill="white"/>
<path d="M193.603 115.862H185.879V123.586H193.603V115.862Z" fill="white"/>
<path d="M201.328 115.862H193.603V123.586H201.328V115.862Z" fill="white"/>
<path d="M216.776 115.862H209.052V123.586H216.776V115.862Z" fill="white"/>
<path d="M8.22414 123.586H0.5V131.31H8.22414V123.586Z" fill="white"/>
<path d="M23.6724 123.586H15.9483V131.31H23.6724V123.586Z" fill="white"/>
<path d="M39.1207 123.586H31.3966V131.31H39.1207V123.586Z" fill="white"/>
<path d="M54.569 123.586H46.8448V131.31H54.569V123.586Z" fill="white"/>
<path d="M85.4655 123.586H77.7414V131.31H85.4655V123.586Z" fill="white"/>
<path d="M100.914 123.586H93.1897V131.31H100.914V123.586Z" fill="white"/>
<path d="M116.362 123.586H108.638V131.31H116.362V123.586Z" fill="white"/>
<path d="M124.086 123.586H116.362V131.31H124.086V123.586Z" fill="white"/>
<path d="M131.81 123.586H124.086V131.31H131.81V123.586Z" fill="white"/>
<path d="M154.983 123.586H147.259V131.31H154.983V123.586Z" fill="white"/>
<path d="M162.707 123.586H154.983V131.31H162.707V123.586Z" fill="white"/>
<path d="M170.431 123.586H162.707V131.31H170.431V123.586Z" fill="white"/>
<path d="M185.879 123.586H178.155V131.31H185.879V123.586Z" fill="white"/>
<path d="M201.328 123.586H193.603V131.31H201.328V123.586Z" fill="white"/>
<path d="M15.9483 131.31H8.22414V139.034H15.9483V131.31Z" fill="white"/>
<path d="M23.6724 131.31H15.9483V139.034H23.6724V131.31Z" fill="white"/>
<path d="M62.2931 131.31H54.569V139.034H62.2931V131.31Z" fill="white"/>
<path d="M85.4655 131.31H77.7414V139.034H85.4655V131.31Z" fill="white"/>
<path d="M100.914 131.31H93.1897V139.034H100.914V131.31Z" fill="white"/>
<path d="M108.638 131.31H100.914V139.034H108.638V131.31Z" fill="white"/>
<path d="M124.086 131.31H116.362V139.034H124.086V131.31Z" fill="white"/>
<path d="M131.81 131.31H124.086V139.034H131.81V131.31Z" fill="white"/>
<path d="M147.259 131.31H139.534V139.034H147.259V131.31Z" fill="white"/>
<path d="M154.983 131.31H147.259V139.034H154.983V131.31Z" fill="white"/>
<path d="M178.155 131.31H170.431V139.034H178.155V131.31Z" fill="white"/>
<path d="M8.22414 139.034H0.5V146.759H8.22414V139.034Z" fill="white"/>
<path d="M15.9483 139.034H8.22414V146.759H15.9483V139.034Z" fill="white"/>
<path d="M23.6724 139.034H15.9483V146.759H23.6724V139.034Z" fill="white"/>
<path d="M31.3966 139.034H23.6724V146.759H31.3966V139.034Z" fill="white"/>
<path d="M39.1207 139.034H31.3966V146.759H39.1207V139.034Z" fill="white"/>
<path d="M54.569 139.034H46.8448V146.759H54.569V139.034Z" fill="white"/>
<path d="M62.2931 139.034H54.569V146.759H62.2931V139.034Z" fill="white"/>
<path d="M70.0172 139.034H62.2931V146.759H70.0172V139.034Z" fill="white"/>
<path d="M108.638 139.034H100.914V146.759H108.638V139.034Z" fill="white"/>
<path d="M124.086 139.034H116.362V146.759H124.086V139.034Z" fill="white"/>
<path d="M139.534 139.034H131.81V146.759H139.534V139.034Z" fill="white"/>
<path d="M147.259 139.034H139.534V146.759H147.259V139.034Z" fill="white"/>
<path d="M154.983 139.034H147.259V146.759H154.983V139.034Z" fill="white"/>
<path d="M162.707 139.034H154.983V146.759H162.707V139.034Z" fill="white"/>
<path d="M185.879 139.034H178.155V146.759H185.879V139.034Z" fill="white"/>
<path d="M193.603 139.034H185.879V146.759H193.603V139.034Z" fill="white"/>
<path d="M8.22414 146.759H0.5V154.483H8.22414V146.759Z" fill="white"/>
<path d="M46.8448 146.759H39.1207V154.483H46.8448V146.759Z" fill="white"/>
<path d="M70.0172 146.759H62.2931V154.483H70.0172V146.759Z" fill="white"/>
<path d="M85.4655 146.759H77.7414V154.483H85.4655V146.759Z" fill="white"/>
<path d="M93.1897 146.759H85.4655V154.483H93.1897V146.759Z" fill="white"/>
<path d="M108.638 146.759H100.914V154.483H108.638V146.759Z" fill="white"/>
<path d="M154.983 146.759H147.259V154.483H154.983V146.759Z" fill="white"/>
<path d="M201.328 146.759H193.603V154.483H201.328V146.759Z" fill="white"/>
<path d="M209.052 146.759H201.328V154.483H209.052V146.759Z" fill="white"/>
<path d="M216.776 146.759H209.052V154.483H216.776V146.759Z" fill="white"/>
<path d="M23.6724 154.483H15.9483V162.207H23.6724V154.483Z" fill="white"/>
<path d="M54.569 154.483H46.8448V162.207H54.569V154.483Z" fill="white"/>
<path d="M77.7414 154.483H70.0172V162.207H77.7414V154.483Z" fill="white"/>
<path d="M85.4655 154.483H77.7414V162.207H85.4655V154.483Z" fill="white"/>
<path d="M108.638 154.483H100.914V162.207H108.638V154.483Z" fill="white"/>
<path d="M124.086 154.483H116.362V162.207H124.086V154.483Z" fill="white"/>
<path d="M131.81 154.483H124.086V162.207H131.81V154.483Z" fill="white"/>
<path d="M139.534 154.483H131.81V162.207H139.534V154.483Z" fill="white"/>
<path d="M162.707 154.483H154.983V162.207H162.707V154.483Z" fill="white"/>
<path d="M170.431 154.483H162.707V162.207H170.431V154.483Z" fill="white"/>
<path d="M178.155 154.483H170.431V162.207H178.155V154.483Z" fill="white"/>
<path d="M185.879 154.483H178.155V162.207H185.879V154.483Z" fill="white"/>
<path d="M193.603 154.483H185.879V162.207H193.603V154.483Z" fill="white"/>
<path d="M216.776 154.483H209.052V162.207H216.776V154.483Z" fill="white"/>
<path d="M224.5 154.483H216.776V162.207H224.5V154.483Z" fill="white"/>
<path d="M70.0172 162.207H62.2931V169.931H70.0172V162.207Z" fill="white"/>
<path d="M100.914 162.207H93.1897V169.931H100.914V162.207Z" fill="white"/>
<path d="M116.362 162.207H108.638V169.931H116.362V162.207Z" fill="white"/>
<path d="M124.086 162.207H116.362V169.931H124.086V162.207Z" fill="white"/>
<path d="M131.81 162.207H124.086V169.931H131.81V162.207Z" fill="white"/>
<path d="M139.534 162.207H131.81V169.931H139.534V162.207Z" fill="white"/>
<path d="M147.259 162.207H139.534V169.931H147.259V162.207Z" fill="white"/>
<path d="M162.707 162.207H154.983V169.931H162.707V162.207Z" fill="white"/>
<path d="M193.603 162.207H185.879V169.931H193.603V162.207Z" fill="white"/>
<path d="M209.052 162.207H201.328V169.931H209.052V162.207Z" fill="white"/>
<path d="M216.776 162.207H209.052V169.931H216.776V162.207Z" fill="white"/>
<path d="M8.22414 169.931H0.5V177.655H8.22414V169.931Z" fill="white"/>
<path d="M15.9483 169.931H8.22414V177.655H15.9483V169.931Z" fill="white"/>
<path d="M23.6724 169.931H15.9483V177.655H23.6724V169.931Z" fill="white"/>
<path d="M31.3966 169.931H23.6724V177.655H31.3966V169.931Z" fill="white"/>
<path d="M39.1207 169.931H31.3966V177.655H39.1207V169.931Z" fill="white"/>
<path d="M46.8448 169.931H39.1207V177.655H46.8448V169.931Z" fill="white"/>
<path d="M54.569 169.931H46.8448V177.655H54.569V169.931Z" fill="white"/>
<path d="M77.7414 169.931H70.0172V177.655H77.7414V169.931Z" fill="white"/>
<path d="M93.1897 169.931H85.4655V177.655H93.1897V169.931Z" fill="white"/>
<path d="M100.914 169.931H93.1897V177.655H100.914V169.931Z" fill="white"/>
<path d="M116.362 169.931H108.638V177.655H116.362V169.931Z" fill="white"/>
<path d="M139.534 169.931H131.81V177.655H139.534V169.931Z" fill="white"/>
<path d="M162.707 169.931H154.983V177.655H162.707V169.931Z" fill="white"/>
<path d="M178.155 169.931H170.431V177.655H178.155V169.931Z" fill="white"/>
<path d="M193.603 169.931H185.879V177.655H193.603V169.931Z" fill="white"/>
<path d="M201.328 169.931H193.603V177.655H201.328V169.931Z" fill="white"/>
<path d="M224.5 169.931H216.776V177.655H224.5V169.931Z" fill="white"/>
<path d="M8.22414 177.655H0.5V185.379H8.22414V177.655Z" fill="white"/>
<path d="M54.569 177.655H46.8448V185.379H54.569V177.655Z" fill="white"/>
<path d="M70.0172 177.655H62.2931V185.379H70.0172V177.655Z" fill="white"/>
<path d="M85.4655 177.655H77.7414V185.379H85.4655V177.655Z" fill="white"/>
<path d="M93.1897 177.655H85.4655V185.379H93.1897V177.655Z" fill="white"/>
<path d="M108.638 177.655H100.914V185.379H108.638V177.655Z" fill="white"/>
<path d="M139.534 177.655H131.81V185.379H139.534V177.655Z" fill="white"/>
<path d="M147.259 177.655H139.534V185.379H147.259V177.655Z" fill="white"/>
<path d="M154.983 177.655H147.259V185.379H154.983V177.655Z" fill="white"/>
<path d="M162.707 177.655H154.983V185.379H162.707V177.655Z" fill="white"/>
<path d="M193.603 177.655H185.879V185.379H193.603V177.655Z" fill="white"/>
<path d="M201.328 177.655H193.603V185.379H201.328V177.655Z" fill="white"/>
<path d="M216.776 177.655H209.052V185.379H216.776V177.655Z" fill="white"/>
<path d="M8.22414 185.379H0.5V193.103H8.22414V185.379Z" fill="white"/>
<path d="M23.6724 185.379H15.9483V193.103H23.6724V185.379Z" fill="white"/>
<path d="M31.3966 185.379H23.6724V193.103H31.3966V185.379Z" fill="white"/>
<path d="M39.1207 185.379H31.3966V193.103H39.1207V185.379Z" fill="white"/>
<path d="M54.569 185.379H46.8448V193.103H54.569V185.379Z" fill="white"/>
<path d="M85.4655 185.379H77.7414V193.103H85.4655V185.379Z" fill="white"/>
<path d="M93.1897 185.379H85.4655V193.103H93.1897V185.379Z" fill="white"/>
<path d="M116.362 185.379H108.638V193.103H116.362V185.379Z" fill="white"/>
<path d="M124.086 185.379H116.362V193.103H124.086V185.379Z" fill="white"/>
<path d="M147.259 185.379H139.534V193.103H147.259V185.379Z" fill="white"/>
<path d="M154.983 185.379H147.259V193.103H154.983V185.379Z" fill="white"/>
<path d="M162.707 185.379H154.983V193.103H162.707V185.379Z" fill="white"/>
<path d="M170.431 185.379H162.707V193.103H170.431V185.379Z" fill="white"/>
<path d="M178.155 185.379H170.431V193.103H178.155V185.379Z" fill="white"/>
<path d="M185.879 185.379H178.155V193.103H185.879V185.379Z" fill="white"/>
<path d="M193.603 185.379H185.879V193.103H193.603V185.379Z" fill="white"/>
<path d="M201.328 185.379H193.603V193.103H201.328V185.379Z" fill="white"/>
<path d="M209.052 185.379H201.328V193.103H209.052V185.379Z" fill="white"/>
<path d="M216.776 185.379H209.052V193.103H216.776V185.379Z" fill="white"/>
<path d="M224.5 185.379H216.776V193.103H224.5V185.379Z" fill="white"/>
<path d="M8.22414 193.103H0.5V200.828H8.22414V193.103Z" fill="white"/>
<path d="M23.6724 193.103H15.9483V200.828H23.6724V193.103Z" fill="white"/>
<path d="M31.3966 193.103H23.6724V200.828H31.3966V193.103Z" fill="white"/>
<path d="M39.1207 193.103H31.3966V200.828H39.1207V193.103Z" fill="white"/>
<path d="M54.569 193.103H46.8448V200.828H54.569V193.103Z" fill="white"/>
<path d="M77.7414 193.103H70.0172V200.828H77.7414V193.103Z" fill="white"/>
<path d="M85.4655 193.103H77.7414V200.828H85.4655V193.103Z" fill="white"/>
<path d="M93.1897 193.103H85.4655V200.828H93.1897V193.103Z" fill="white"/>
<path d="M100.914 193.103H93.1897V200.828H100.914V193.103Z" fill="white"/>
<path d="M124.086 193.103H116.362V200.828H124.086V193.103Z" fill="white"/>
<path d="M131.81 193.103H124.086V200.828H131.81V193.103Z" fill="white"/>
<path d="M147.259 193.103H139.534V200.828H147.259V193.103Z" fill="white"/>
<path d="M193.603 193.103H185.879V200.828H193.603V193.103Z" fill="white"/>
<path d="M201.328 193.103H193.603V200.828H201.328V193.103Z" fill="white"/>
<path d="M8.22414 200.828H0.5V208.552H8.22414V200.828Z" fill="white"/>
<path d="M23.6724 200.828H15.9483V208.552H23.6724V200.828Z" fill="white"/>
<path d="M31.3966 200.828H23.6724V208.552H31.3966V200.828Z" fill="white"/>
<path d="M39.1207 200.828H31.3966V208.552H39.1207V200.828Z" fill="white"/>
<path d="M54.569 200.828H46.8448V208.552H54.569V200.828Z" fill="white"/>
<path d="M85.4655 200.828H77.7414V208.552H85.4655V200.828Z" fill="white"/>
<path d="M93.1897 200.828H85.4655V208.552H93.1897V200.828Z" fill="white"/>
<path d="M108.638 200.828H100.914V208.552H108.638V200.828Z" fill="white"/>
<path d="M116.362 200.828H108.638V208.552H116.362V200.828Z" fill="white"/>
<path d="M162.707 200.828H154.983V208.552H162.707V200.828Z" fill="white"/>
<path d="M170.431 200.828H162.707V208.552H170.431V200.828Z" fill="white"/>
<path d="M185.879 200.828H178.155V208.552H185.879V200.828Z" fill="white"/>
<path d="M8.22414 208.552H0.5V216.276H8.22414V208.552Z" fill="white"/>
<path d="M54.569 208.552H46.8448V216.276H54.569V208.552Z" fill="white"/>
<path d="M85.4655 208.552H77.7414V216.276H85.4655V208.552Z" fill="white"/>
<path d="M93.1897 208.552H85.4655V216.276H93.1897V208.552Z" fill="white"/>
<path d="M100.914 208.552H93.1897V216.276H100.914V208.552Z" fill="white"/>
<path d="M116.362 208.552H108.638V216.276H116.362V208.552Z" fill="white"/>
<path d="M124.086 208.552H116.362V216.276H124.086V208.552Z" fill="white"/>
<path d="M131.81 208.552H124.086V216.276H131.81V208.552Z" fill="white"/>
<path d="M147.259 208.552H139.534V216.276H147.259V208.552Z" fill="white"/>
<path d="M154.983 208.552H147.259V216.276H154.983V208.552Z" fill="white"/>
<path d="M170.431 208.552H162.707V216.276H170.431V208.552Z" fill="white"/>
<path d="M178.155 208.552H170.431V216.276H178.155V208.552Z" fill="white"/>
<path d="M185.879 208.552H178.155V216.276H185.879V208.552Z" fill="white"/>
<path d="M193.603 208.552H185.879V216.276H193.603V208.552Z" fill="white"/>
<path d="M216.776 208.552H209.052V216.276H216.776V208.552Z" fill="white"/>
<path d="M224.5 208.552H216.776V216.276H224.5V208.552Z" fill="white"/>
<path d="M8.22414 216.276H0.5V224H8.22414V216.276Z" fill="white"/>
<path d="M15.9483 216.276H8.22414V224H15.9483V216.276Z" fill="white"/>
<path d="M23.6724 216.276H15.9483V224H23.6724V216.276Z" fill="white"/>
<path d="M31.3966 216.276H23.6724V224H31.3966V216.276Z" fill="white"/>
<path d="M39.1207 216.276H31.3966V224H39.1207V216.276Z" fill="white"/>
<path d="M46.8448 216.276H39.1207V224H46.8448V216.276Z" fill="white"/>
<path d="M54.569 216.276H46.8448V224H54.569V216.276Z" fill="white"/>
<path d="M77.7414 216.276H70.0172V224H77.7414V216.276Z" fill="white"/>
<path d="M100.914 216.276H93.1897V224H100.914V216.276Z" fill="white"/>
<path d="M116.362 216.276H108.638V224H116.362V216.276Z" fill="white"/>
<path d="M139.534 216.276H131.81V224H139.534V216.276Z" fill="white"/>
<path d="M147.259 216.276H139.534V224H147.259V216.276Z" fill="white"/>
<path d="M154.983 216.276H147.259V224H154.983V216.276Z" fill="white"/>
<path d="M170.431 216.276H162.707V224H170.431V216.276Z" fill="white"/>
<path d="M201.328 216.276H193.603V224H201.328V216.276Z" fill="white"/>
<path d="M209.052 216.276H201.328V224H209.052V216.276Z" fill="white"/>
</svg>
