<svg width="10" height="10" viewBox="0 0 10 10" fill="none" xmlns="http://www.w3.org/2000/svg">
<path d="M0.5 3.5L0.5 1.25C0.499942 1.17579 0.521903 1.10323 0.563105 1.04151C0.604306 0.979784 0.662895 0.931674 0.731454 0.903267C0.800013 0.87486 0.875459 0.867433 0.94824 0.881927C1.02102 0.89642 1.08787 0.932183 1.14031 0.984688L1.89313 1.73797C2.83766 0.926562 3.905 0.5 5 0.5C7.00719 0.5 8.21469 1.68453 8.26531 1.73469C8.33574 1.80493 8.37538 1.90027 8.37551 1.99974C8.37564 2.09921 8.33626 2.19465 8.26602 2.26508C8.19577 2.33551 8.10043 2.37515 8.00097 2.37528C7.9015 2.37541 7.80605 2.33602 7.73562 2.26578C7.71875 2.24937 6.68 1.25 5 1.25C3.91391 1.25 3.035 1.75859 2.42562 2.27L3.39031 3.23469C3.44282 3.28713 3.47858 3.35398 3.49307 3.42676C3.50757 3.49954 3.50014 3.57499 3.47173 3.64355C3.44333 3.7121 3.39522 3.77069 3.33349 3.8119C3.27177 3.8531 3.19921 3.87506 3.125 3.875H0.875C0.775544 3.875 0.680161 3.83549 0.609835 3.76517C0.539509 3.69484 0.5 3.59946 0.5 3.5ZM6.52859 6.35656C6.50017 6.42508 6.4927 6.50048 6.50714 6.57324C6.52157 6.646 6.55726 6.71284 6.60969 6.76531L7.57437 7.73C6.965 8.24141 6.08609 8.75 5 8.75C3.31484 8.75 2.27516 7.745 2.26437 7.73375C2.19389 7.66351 2.09838 7.62415 1.99887 7.62432C1.89936 7.6245 1.80399 7.6642 1.73375 7.73469C1.66351 7.80518 1.62415 7.90068 1.62432 8.00019C1.6245 8.09971 1.6642 8.19507 1.73469 8.26531C1.78531 8.31547 2.99281 9.5 5 9.5C6.095 9.5 7.16234 9.07344 8.10687 8.26203L8.85969 9.01531C8.91213 9.06782 8.97898 9.10358 9.05176 9.11807C9.12454 9.13257 9.19999 9.12514 9.26855 9.09673C9.3371 9.06833 9.39569 9.02022 9.4369 8.95849C9.4781 8.89677 9.50006 8.82421 9.5 8.75V6.5C9.5 6.40054 9.46049 6.30516 9.39016 6.23484C9.31984 6.16451 9.22446 6.125 9.125 6.125H6.875C6.80083 6.12502 6.72833 6.14702 6.66668 6.18824C6.60502 6.22946 6.55696 6.28804 6.52859 6.35656Z" fill="#7E8088"/>
</svg>
