<svg width="42" height="61" viewBox="0 0 42 61" fill="none" xmlns="http://www.w3.org/2000/svg">
<mask id="path-1-inside-1_11855_4224" fill="white">
<path d="M0 0H42V61H0V0Z"/>
</mask>
<path d="M0 2H42V-2H0V2Z" fill="url(#paint0_linear_11855_4224)" mask="url(#path-1-inside-1_11855_4224)"/>
<path d="M20.9998 25.32C22.1898 25.32 23.1598 24.35 23.1598 23.16C23.1598 21.97 22.1898 21 20.9998 21C19.8098 21 18.8398 21.97 18.8398 23.16C18.8398 24.35 19.8098 25.32 20.9998 25.32Z" stroke="url(#paint1_linear_11855_4224)" stroke-width="1.5" stroke-linecap="round" stroke-linejoin="round"/>
<path d="M15.7889 35.0002C16.9789 35.0002 17.9489 34.0302 17.9489 32.8402C17.9489 31.6502 16.9789 30.6802 15.7889 30.6802C14.5989 30.6802 13.6289 31.6502 13.6289 32.8402C13.6289 34.0302 14.5889 35.0002 15.7889 35.0002Z" stroke="url(#paint2_linear_11855_4224)" stroke-width="1.5" stroke-linecap="round" stroke-linejoin="round"/>
<path d="M26.2108 35.0002C27.4008 35.0002 28.3708 34.0302 28.3708 32.8402C28.3708 31.6502 27.4008 30.6802 26.2108 30.6802C25.0208 30.6802 24.0508 31.6502 24.0508 32.8402C24.0508 34.0302 25.0208 35.0002 26.2108 35.0002Z" stroke="url(#paint3_linear_11855_4224)" stroke-width="1.5" stroke-linecap="round" stroke-linejoin="round"/>
<path d="M8.73295 52H7.85227C7.80019 51.7467 7.70904 51.5241 7.57884 51.3324C7.45099 51.1406 7.29474 50.9796 7.11009 50.8494C6.92779 50.7169 6.72538 50.6174 6.50284 50.5511C6.2803 50.4848 6.0483 50.4517 5.80682 50.4517C5.36648 50.4517 4.96757 50.563 4.61009 50.7855C4.25497 51.008 3.97206 51.3359 3.76136 51.7692C3.55303 52.2024 3.44886 52.7339 3.44886 53.3636C3.44886 53.9934 3.55303 54.5249 3.76136 54.9581C3.97206 55.3913 4.25497 55.7192 4.61009 55.9418C4.96757 56.1643 5.36648 56.2756 5.80682 56.2756C6.0483 56.2756 6.2803 56.2424 6.50284 56.1761C6.72538 56.1098 6.92779 56.0116 7.11009 55.8814C7.29474 55.7488 7.45099 55.5866 7.57884 55.3949C7.70904 55.2008 7.80019 54.9782 7.85227 54.7273H8.73295C8.66667 55.099 8.54593 55.4316 8.37074 55.7251C8.19555 56.0187 7.97775 56.2685 7.71733 56.4744C7.45691 56.678 7.16454 56.8331 6.8402 56.9396C6.51823 57.0462 6.17377 57.0994 5.80682 57.0994C5.18655 57.0994 4.63494 56.9479 4.15199 56.6449C3.66903 56.3419 3.28906 55.911 3.01207 55.3523C2.73509 54.7936 2.59659 54.1307 2.59659 53.3636C2.59659 52.5966 2.73509 51.9337 3.01207 51.375C3.28906 50.8163 3.66903 50.3854 4.15199 50.0824C4.63494 49.7794 5.18655 49.6278 5.80682 49.6278C6.17377 49.6278 6.51823 49.6811 6.8402 49.7876C7.16454 49.8942 7.45691 50.0504 7.71733 50.2564C7.97775 50.46 8.19555 50.7086 8.37074 51.0021C8.54593 51.2933 8.66667 51.6259 8.73295 52ZM12.2583 57.1136C11.7659 57.1136 11.3339 56.9964 10.9622 56.7621C10.5929 56.5277 10.304 56.1998 10.0957 55.7784C9.88974 55.357 9.78675 54.8646 9.78675 54.3011C9.78675 53.733 9.88974 53.237 10.0957 52.8132C10.304 52.3894 10.5929 52.0604 10.9622 51.826C11.3339 51.5916 11.7659 51.4744 12.2583 51.4744C12.7508 51.4744 13.1816 51.5916 13.551 51.826C13.9226 52.0604 14.2115 52.3894 14.4174 52.8132C14.6258 53.237 14.7299 53.733 14.7299 54.3011C14.7299 54.8646 14.6258 55.357 14.4174 55.7784C14.2115 56.1998 13.9226 56.5277 13.551 56.7621C13.1816 56.9964 12.7508 57.1136 12.2583 57.1136ZM12.2583 56.3608C12.6324 56.3608 12.9402 56.2649 13.1816 56.0732C13.4231 55.8814 13.6019 55.6293 13.7179 55.3168C13.8339 55.0043 13.8919 54.6657 13.8919 54.3011C13.8919 53.9366 13.8339 53.5968 13.7179 53.282C13.6019 52.9671 13.4231 52.7126 13.1816 52.5185C12.9402 52.3243 12.6324 52.2273 12.2583 52.2273C11.8843 52.2273 11.5765 52.3243 11.335 52.5185C11.0936 52.7126 10.9148 52.9671 10.7988 53.282C10.6828 53.5968 10.6248 53.9366 10.6248 54.3011C10.6248 54.6657 10.6828 55.0043 10.7988 55.3168C10.9148 55.6293 11.0936 55.8814 11.335 56.0732C11.5765 56.2649 11.8843 56.3608 12.2583 56.3608ZM16.8473 53.7188V57H16.0092V51.5455H16.8189V52.3977H16.8899C17.0178 52.1207 17.2119 51.8982 17.4723 51.7301C17.7327 51.5597 18.0689 51.4744 18.4808 51.4744C18.8501 51.4744 19.1733 51.5502 19.4503 51.7017C19.7273 51.8509 19.9427 52.0781 20.0966 52.3835C20.2505 52.6866 20.3274 53.0701 20.3274 53.5341V57H19.4893V53.5909C19.4893 53.1624 19.3781 52.8286 19.1555 52.5895C18.933 52.348 18.6276 52.2273 18.2393 52.2273C17.9718 52.2273 17.7327 52.2853 17.522 52.4013C17.3137 52.5173 17.1491 52.6866 17.0284 52.9091C16.9077 53.1316 16.8473 53.4015 16.8473 53.7188ZM26.1238 51.5455L24.1067 57H23.2544L21.2374 51.5455H22.1465L23.6522 55.892H23.709L25.2147 51.5455H26.1238ZM29.3216 57.1136C28.796 57.1136 28.3426 56.9976 27.9615 56.7656C27.5827 56.5312 27.2903 56.2045 27.0843 55.7855C26.8807 55.3641 26.7789 54.8741 26.7789 54.3153C26.7789 53.7566 26.8807 53.2642 27.0843 52.8381C27.2903 52.4096 27.5768 52.0758 27.9437 51.8366C28.313 51.5952 28.7439 51.4744 29.2363 51.4744C29.5204 51.4744 29.801 51.5218 30.0779 51.6165C30.3549 51.7112 30.6071 51.8651 30.8343 52.0781C31.0616 52.2888 31.2427 52.5682 31.3777 52.9162C31.5126 53.2642 31.5801 53.6927 31.5801 54.2017V54.5568H27.3755V53.8324H30.7278C30.7278 53.5246 30.6663 53.25 30.5431 53.0085C30.4224 52.767 30.2496 52.5765 30.0247 52.4368C29.8021 52.2971 29.5394 52.2273 29.2363 52.2273C28.9025 52.2273 28.6137 52.3101 28.3699 52.4759C28.1284 52.6392 27.9425 52.8523 27.8123 53.1151C27.6821 53.3778 27.617 53.6596 27.617 53.9602V54.4432C27.617 54.8551 27.688 55.2043 27.8301 55.4908C27.9745 55.7749 28.1745 55.9915 28.4302 56.1406C28.6859 56.2874 28.983 56.3608 29.3216 56.3608C29.5417 56.3608 29.7406 56.33 29.9181 56.2685C30.0981 56.2045 30.2531 56.1098 30.3833 55.9844C30.5136 55.8565 30.6142 55.6979 30.6852 55.5085L31.4949 55.7358C31.4096 56.0104 31.2664 56.2519 31.0652 56.4602C30.8639 56.6662 30.6154 56.8272 30.3194 56.9432C30.0235 57.0568 29.6909 57.1136 29.3216 57.1136ZM32.8549 57V51.5455H33.6646V52.3693H33.7214C33.8208 52.0994 34.0008 51.8804 34.2612 51.7124C34.5216 51.5443 34.8152 51.4602 35.1419 51.4602C35.2034 51.4602 35.2804 51.4614 35.3727 51.4638C35.465 51.4661 35.5349 51.4697 35.5822 51.4744V52.3267C35.5538 52.3196 35.4887 52.3089 35.3869 52.2947C35.2875 52.2782 35.1821 52.2699 35.0708 52.2699C34.8057 52.2699 34.569 52.3255 34.3606 52.4368C34.1547 52.5457 33.9913 52.6972 33.8706 52.8913C33.7522 53.0831 33.693 53.3021 33.693 53.5483V57H32.8549ZM39.2896 51.5455V52.2557H36.4629V51.5455H39.2896ZM37.2868 50.2386H38.1248V55.4375C38.1248 55.6742 38.1592 55.8518 38.2278 55.9702C38.2988 56.0862 38.3888 56.1643 38.4977 56.2045C38.609 56.2424 38.7261 56.2614 38.8493 56.2614C38.9416 56.2614 39.0173 56.2566 39.0765 56.2472C39.1357 56.2353 39.1831 56.2259 39.2186 56.2188L39.389 56.9716C39.3322 56.9929 39.2529 57.0142 39.1511 57.0355C39.0493 57.0592 38.9203 57.071 38.764 57.071C38.5273 57.071 38.2953 57.0201 38.068 56.9183C37.8431 56.8165 37.6561 56.6615 37.5069 56.4531C37.3601 56.2448 37.2868 55.982 37.2868 55.6648V50.2386Z" fill="url(#paint4_linear_11855_4224)"/>
<defs>
<linearGradient id="paint0_linear_11855_4224" x1="4.75409" y1="-8.85589" x2="64.6218" y2="26.2687" gradientUnits="userSpaceOnUse">
<stop stop-color="#FCA509"/>
<stop offset="1" stop-color="#880306"/>
</linearGradient>
<linearGradient id="paint1_linear_11855_4224" x1="19.3288" y1="20.3728" x2="24.1243" y2="24.4591" gradientUnits="userSpaceOnUse">
<stop stop-color="#FCA509"/>
<stop offset="1" stop-color="#880306"/>
</linearGradient>
<linearGradient id="paint2_linear_11855_4224" x1="14.1179" y1="30.053" x2="18.9134" y2="34.1393" gradientUnits="userSpaceOnUse">
<stop stop-color="#FCA509"/>
<stop offset="1" stop-color="#880306"/>
</linearGradient>
<linearGradient id="paint3_linear_11855_4224" x1="24.5398" y1="30.053" x2="29.3352" y2="34.1393" gradientUnits="userSpaceOnUse">
<stop stop-color="#FCA509"/>
<stop offset="1" stop-color="#880306"/>
</linearGradient>
<linearGradient id="paint4_linear_11855_4224" x1="6.30132" y1="43.8223" x2="19.1655" y2="71.5923" gradientUnits="userSpaceOnUse">
<stop stop-color="#FCA509"/>
<stop offset="1" stop-color="#880306"/>
</linearGradient>
</defs>
</svg>
