<svg width="40" height="40" viewBox="0 0 40 40" fill="none" xmlns="http://www.w3.org/2000/svg">
<rect x="2" y="2" width="36" height="36" rx="18" fill="#222223"/>
<rect x="2" y="2" width="36" height="36" rx="18" stroke="#11150F" stroke-width="4"/>
<path d="M23 11H27.5C27.6484 10.9999 27.7935 11.0438 27.917 11.1262C28.0404 11.2086 28.1367 11.3258 28.1935 11.4629C28.2503 11.6 28.2651 11.7509 28.2361 11.8965C28.2072 12.042 28.1356 12.1757 28.0306 12.2806L26.5241 13.7863C28.1469 15.6753 29 17.81 29 20C29 24.0144 26.6309 26.4294 26.5306 26.5306C26.3901 26.6715 26.1995 26.7508 26.0005 26.751C25.8016 26.7513 25.6107 26.6725 25.4698 26.532C25.329 26.3915 25.2497 26.2009 25.2494 26.0019C25.2492 25.803 25.328 25.6121 25.4684 25.4712C25.5013 25.4375 27.5 23.36 27.5 20C27.5 17.8278 26.4828 16.07 25.46 14.8512L23.5306 16.7806C23.4257 16.8856 23.292 16.9572 23.1465 16.9861C23.0009 17.0151 22.85 17.0003 22.7129 16.9435C22.5758 16.8867 22.4586 16.7904 22.3762 16.667C22.2938 16.5435 22.2499 16.3984 22.25 16.25V11.75C22.25 11.5511 22.329 11.3603 22.4697 11.2197C22.6103 11.079 22.8011 11 23 11ZM17.2869 23.0572C17.1498 23.0003 16.999 22.9854 16.8535 23.0143C16.708 23.0431 16.5743 23.1145 16.4694 23.2194L14.54 25.1487C13.5172 23.93 12.5 22.1722 12.5 20C12.5 16.6297 14.51 14.5503 14.5325 14.5287C14.673 14.3878 14.7517 14.1968 14.7514 13.9977C14.751 13.7987 14.6716 13.608 14.5306 13.4675C14.3896 13.327 14.1986 13.2483 13.9996 13.2486C13.8006 13.249 13.6099 13.3284 13.4694 13.4694C13.3691 13.5706 11 15.9856 11 20C11 22.19 11.8531 24.3247 13.4759 26.2137L11.9694 27.7194C11.8644 27.8243 11.7928 27.958 11.7639 28.1035C11.7349 28.2491 11.7497 28.4 11.8065 28.5371C11.8633 28.6742 11.9596 28.7914 12.083 28.8738C12.2065 28.9562 12.3516 29.0001 12.5 29H17C17.1989 29 17.3897 28.921 17.5303 28.7803C17.671 28.6397 17.75 28.4489 17.75 28.25V23.75C17.75 23.6017 17.706 23.4567 17.6235 23.3334C17.5411 23.21 17.4239 23.1139 17.2869 23.0572Z" fill="#7E8088"/>
</svg>
