<svg width="16" height="16" viewBox="0 0 16 16" fill="none" xmlns="http://www.w3.org/2000/svg">
<path d="M2 6V3C1.99992 2.90105 2.0292 2.80431 2.08414 2.72201C2.13908 2.63971 2.21719 2.57557 2.30861 2.53769C2.40002 2.49981 2.50061 2.48991 2.59765 2.50924C2.6947 2.52856 2.78382 2.57624 2.85375 2.64625L3.8575 3.65063C5.11687 2.56875 6.54 2 8 2C10.6762 2 12.2862 3.57937 12.3537 3.64625C12.4477 3.7399 12.5005 3.86703 12.5007 3.99965C12.5009 4.13227 12.4483 4.25953 12.3547 4.35344C12.261 4.44734 12.1339 4.50019 12.0013 4.50037C11.8687 4.50055 11.7414 4.44803 11.6475 4.35437C11.625 4.3325 10.24 3 8 3C6.55188 3 5.38 3.67812 4.5675 4.36L5.85375 5.64625C5.92376 5.71618 5.97144 5.8053 5.99076 5.90235C6.01009 5.99939 6.00019 6.09998 5.96231 6.19139C5.92443 6.28281 5.86029 6.36092 5.77799 6.41586C5.69569 6.4708 5.59895 6.50008 5.5 6.5L2.5 6.5C2.36739 6.5 2.24021 6.44732 2.14645 6.35355C2.05268 6.25979 2 6.13261 2 6ZM10.0381 9.80875C10.0002 9.9001 9.99027 10.0006 10.0095 10.0977C10.0288 10.1947 10.0763 10.2838 10.1462 10.3538L11.4325 11.64C10.62 12.3219 9.44812 13 8 13C5.75313 13 4.36687 11.66 4.3525 11.645C4.25851 11.5513 4.13117 11.4989 3.99849 11.4991C3.86581 11.4993 3.73866 11.5523 3.645 11.6463C3.55135 11.7402 3.49886 11.8676 3.4991 12.0003C3.49933 12.1329 3.55226 12.2601 3.64625 12.3537C3.71375 12.4206 5.32375 14 8 14C9.46 14 10.8831 13.4312 12.1425 12.3494L13.1462 13.3537C13.2162 13.4238 13.3053 13.4714 13.4023 13.4908C13.4994 13.5101 13.6 13.5002 13.6914 13.4623C13.7828 13.4244 13.8609 13.3603 13.9159 13.278C13.9708 13.1957 14.0001 13.0989 14 13V10C14 9.86739 13.9473 9.74021 13.8536 9.64645C13.7598 9.55268 13.6326 9.5 13.5 9.5H10.5C10.4011 9.50002 10.3044 9.52936 10.2222 9.58432C10.14 9.63928 10.076 9.71738 10.0381 9.80875Z" fill="white"/>
</svg>
