<svg width="43" height="57" viewBox="0 0 43 57" fill="none" xmlns="http://www.w3.org/2000/svg">
<path d="M14 23.5911V28.3995C14 30.1661 14 30.1661 15.6667 31.2911L20.25 33.9411C20.9417 34.3411 22.0667 34.3411 22.75 33.9411L27.3333 31.2911C29 30.1661 29 30.1661 29 28.4078V23.5911C29 21.8328 29 21.8328 27.3333 20.7078L22.75 18.0578C22.0667 17.6578 20.9417 17.6578 20.25 18.0578L15.6667 20.7078C14 21.8328 14 21.8328 14 23.5911Z" stroke="url(#paint0_linear_11855_2804)" stroke-width="1.5" stroke-linecap="round" stroke-linejoin="round"/>
<path d="M21.5 28.5C22.8807 28.5 24 27.3807 24 26C24 24.6193 22.8807 23.5 21.5 23.5C20.1193 23.5 19 24.6193 19 26C19 27.3807 20.1193 28.5 21.5 28.5Z" stroke="url(#paint1_linear_11855_2804)" stroke-width="1.5" stroke-linecap="round" stroke-linejoin="round"/>
<path d="M3.625 53H1.38068V45.7273H3.72443C4.42992 45.7273 5.03362 45.8729 5.53551 46.1641C6.03741 46.4529 6.42211 46.8684 6.68963 47.4105C6.95715 47.9503 7.09091 48.5966 7.09091 49.3494C7.09091 50.107 6.95597 50.7592 6.68608 51.3061C6.41619 51.8506 6.0232 52.2696 5.5071 52.5632C4.991 52.8544 4.36364 53 3.625 53ZM2.26136 52.2188H3.56818C4.16951 52.2188 4.66785 52.1027 5.06321 51.8707C5.45857 51.6387 5.75331 51.3085 5.94744 50.88C6.14157 50.4515 6.23864 49.9413 6.23864 49.3494C6.23864 48.7623 6.14276 48.2569 5.95099 47.8331C5.75923 47.407 5.47277 47.0803 5.09162 46.853C4.71046 46.6233 4.2358 46.5085 3.66761 46.5085H2.26136V52.2188ZM8.45455 53V47.5455H9.29261V53H8.45455ZM8.88068 46.6364C8.71733 46.6364 8.57647 46.5807 8.4581 46.4695C8.34209 46.3582 8.28409 46.2244 8.28409 46.0682C8.28409 45.9119 8.34209 45.7782 8.4581 45.6669C8.57647 45.5556 8.71733 45.5 8.88068 45.5C9.04403 45.5 9.18371 45.5556 9.29972 45.6669C9.41809 45.7782 9.47727 45.9119 9.47727 46.0682C9.47727 46.2244 9.41809 46.3582 9.29972 46.4695C9.18371 46.5807 9.04403 46.6364 8.88068 46.6364ZM14.6912 48.767L13.9384 48.9801C13.891 48.8546 13.8212 48.7327 13.7289 48.6143C13.6389 48.4936 13.5158 48.3942 13.3596 48.3161C13.2033 48.2379 13.0033 48.1989 12.7594 48.1989C12.4256 48.1989 12.1474 48.2758 11.9249 48.4297C11.7047 48.5812 11.5946 48.7741 11.5946 49.0085C11.5946 49.2169 11.6704 49.3814 11.8219 49.5021C11.9734 49.6229 12.2102 49.7235 12.5321 49.804L13.3418 50.0028C13.8295 50.1212 14.1929 50.3023 14.432 50.5462C14.6711 50.7876 14.7907 51.099 14.7907 51.4801C14.7907 51.7926 14.7007 52.072 14.5208 52.3182C14.3432 52.5644 14.0946 52.7585 13.775 52.9006C13.4554 53.0426 13.0837 53.1136 12.66 53.1136C12.1036 53.1136 11.6432 52.9929 11.2786 52.7514C10.914 52.5099 10.6832 52.1572 10.5861 51.6932L11.3816 51.4943C11.4573 51.7879 11.6006 52.008 11.8113 52.1548C12.0243 52.3016 12.3025 52.375 12.6458 52.375C13.0364 52.375 13.3465 52.2921 13.5762 52.1264C13.8082 51.9583 13.9242 51.7571 13.9242 51.5227C13.9242 51.3333 13.8579 51.1747 13.7253 51.0469C13.5927 50.9167 13.3891 50.8196 13.1145 50.7557L12.2054 50.5426C11.7059 50.4242 11.339 50.2408 11.1046 49.9922C10.8726 49.7412 10.7566 49.4276 10.7566 49.0511C10.7566 48.7434 10.843 48.4711 11.0158 48.2344C11.191 47.9976 11.4289 47.8118 11.7296 47.6768C12.0326 47.5419 12.3759 47.4744 12.7594 47.4744C13.2992 47.4744 13.723 47.5928 14.0307 47.8295C14.3408 48.0663 14.561 48.3788 14.6912 48.767ZM18.2681 53.1136C17.7567 53.1136 17.3164 52.9929 16.9471 52.7514C16.5778 52.5099 16.2937 52.1773 16.0948 51.7536C15.896 51.3298 15.7965 50.8456 15.7965 50.3011C15.7965 49.7472 15.8983 49.2583 16.1019 48.8345C16.3079 48.4084 16.5943 48.0758 16.9613 47.8366C17.3306 47.5952 17.7615 47.4744 18.2539 47.4744C18.6374 47.4744 18.9831 47.5455 19.2908 47.6875C19.5986 47.8295 19.8507 48.0284 20.0472 48.2841C20.2437 48.5398 20.3656 48.8381 20.413 49.179H19.5749C19.511 48.9304 19.369 48.7102 19.1488 48.5185C18.931 48.3243 18.6374 48.2273 18.2681 48.2273C17.9414 48.2273 17.6549 48.3125 17.4087 48.483C17.1649 48.651 16.9743 48.889 16.837 49.1967C16.7021 49.5021 16.6346 49.8608 16.6346 50.2727C16.6346 50.6941 16.7009 51.0611 16.8335 51.3736C16.9684 51.6861 17.1578 51.9287 17.4016 52.1016C17.6478 52.2744 17.9367 52.3608 18.2681 52.3608C18.4859 52.3608 18.6836 52.3229 18.8612 52.2472C19.0387 52.1714 19.189 52.0625 19.3121 51.9205C19.4353 51.7784 19.5228 51.608 19.5749 51.4091H20.413C20.3656 51.7311 20.2485 52.0211 20.0614 52.2791C19.8768 52.5348 19.6317 52.7384 19.3263 52.8899C19.0233 53.0391 18.6706 53.1136 18.2681 53.1136ZM23.854 53.1136C23.3616 53.1136 22.9296 52.9964 22.5579 52.7621C22.1886 52.5277 21.8997 52.1998 21.6914 51.7784C21.4854 51.357 21.3825 50.8646 21.3825 50.3011C21.3825 49.733 21.4854 49.237 21.6914 48.8132C21.8997 48.3894 22.1886 48.0604 22.5579 47.826C22.9296 47.5916 23.3616 47.4744 23.854 47.4744C24.3465 47.4744 24.7773 47.5916 25.1467 47.826C25.5183 48.0604 25.8072 48.3894 26.0131 48.8132C26.2215 49.237 26.3256 49.733 26.3256 50.3011C26.3256 50.8646 26.2215 51.357 26.0131 51.7784C25.8072 52.1998 25.5183 52.5277 25.1467 52.7621C24.7773 52.9964 24.3465 53.1136 23.854 53.1136ZM23.854 52.3608C24.2281 52.3608 24.5359 52.2649 24.7773 52.0732C25.0188 51.8814 25.1976 51.6293 25.3136 51.3168C25.4296 51.0043 25.4876 50.6657 25.4876 50.3011C25.4876 49.9366 25.4296 49.5968 25.3136 49.282C25.1976 48.9671 25.0188 48.7126 24.7773 48.5185C24.5359 48.3243 24.2281 48.2273 23.854 48.2273C23.48 48.2273 23.1722 48.3243 22.9308 48.5185C22.6893 48.7126 22.5105 48.9671 22.3945 49.282C22.2785 49.5968 22.2205 49.9366 22.2205 50.3011C22.2205 50.6657 22.2785 51.0043 22.3945 51.3168C22.5105 51.6293 22.6893 51.8814 22.9308 52.0732C23.1722 52.2649 23.48 52.3608 23.854 52.3608ZM31.8699 47.5455L29.8528 53H29.0005L26.9835 47.5455H27.8926L29.3983 51.892H29.4551L30.9608 47.5455H31.8699ZM35.0676 53.1136C34.5421 53.1136 34.0887 52.9976 33.7076 52.7656C33.3288 52.5312 33.0364 52.2045 32.8304 51.7855C32.6268 51.3641 32.525 50.8741 32.525 50.3153C32.525 49.7566 32.6268 49.2642 32.8304 48.8381C33.0364 48.4096 33.3229 48.0758 33.6898 47.8366C34.0591 47.5952 34.49 47.4744 34.9824 47.4744C35.2665 47.4744 35.5471 47.5218 35.824 47.6165C36.101 47.7112 36.3532 47.8651 36.5804 48.0781C36.8077 48.2888 36.9888 48.5682 37.1238 48.9162C37.2587 49.2642 37.3262 49.6927 37.3262 50.2017V50.5568H33.1216V49.8324H36.4739C36.4739 49.5246 36.4123 49.25 36.2892 49.0085C36.1685 48.767 35.9957 48.5765 35.7708 48.4368C35.5482 48.2971 35.2855 48.2273 34.9824 48.2273C34.6486 48.2273 34.3598 48.3101 34.1159 48.4759C33.8745 48.6392 33.6886 48.8523 33.5584 49.1151C33.4282 49.3778 33.3631 49.6596 33.3631 49.9602V50.4432C33.3631 50.8551 33.4341 51.2043 33.5762 51.4908C33.7206 51.7749 33.9206 51.9915 34.1763 52.1406C34.432 52.2874 34.7291 52.3608 35.0676 52.3608C35.2878 52.3608 35.4867 52.33 35.6642 52.2685C35.8442 52.2045 35.9992 52.1098 36.1294 51.9844C36.2596 51.8565 36.3603 51.6979 36.4313 51.5085L37.2409 51.7358C37.1557 52.0104 37.0125 52.2519 36.8113 52.4602C36.61 52.6662 36.3614 52.8272 36.0655 52.9432C35.7696 53.0568 35.437 53.1136 35.0676 53.1136ZM38.601 53V47.5455H39.4107V48.3693H39.4675C39.5669 48.0994 39.7469 47.8804 40.0073 47.7124C40.2677 47.5443 40.5613 47.4602 40.888 47.4602C40.9495 47.4602 41.0265 47.4614 41.1188 47.4638C41.2111 47.4661 41.281 47.4697 41.3283 47.4744V48.3267C41.2999 48.3196 41.2348 48.3089 41.133 48.2947C41.0336 48.2782 40.9282 48.2699 40.8169 48.2699C40.5518 48.2699 40.315 48.3255 40.1067 48.4368C39.9007 48.5457 39.7374 48.6972 39.6167 48.8913C39.4983 49.0831 39.4391 49.3021 39.4391 49.5483V53H38.601Z" fill="url(#paint2_linear_11855_2804)"/>
<defs>
<linearGradient id="paint0_linear_11855_2804" x1="21.5" y1="17.7578" x2="21.5" y2="34.2411" gradientUnits="userSpaceOnUse">
<stop stop-color="#CCCCCC"/>
<stop offset="1" stop-color="#666666"/>
</linearGradient>
<linearGradient id="paint1_linear_11855_2804" x1="21.5" y1="23.5" x2="21.5" y2="28.5" gradientUnits="userSpaceOnUse">
<stop stop-color="#CCCCCC"/>
<stop offset="1" stop-color="#666666"/>
</linearGradient>
<linearGradient id="paint2_linear_11855_2804" x1="21.5" y1="42" x2="21.5" y2="57" gradientUnits="userSpaceOnUse">
<stop stop-color="#CCCCCC"/>
<stop offset="1" stop-color="#666666"/>
</linearGradient>
</defs>
</svg>
