<svg width="16" height="12" viewBox="0 0 16 12" fill="none" xmlns="http://www.w3.org/2000/svg">
<g clip-path="url(#clip0_9734_19132)">
<path d="M11.0723 1.15234C10.9919 1.08464 10.8903 1.05078 10.7676 1.05078C10.6195 1.05078 10.4925 1.11003 10.3867 1.22852L4.19775 8.86474L1.79199 6.59228C1.74967 6.54573 1.69889 6.50976 1.63964 6.48437C1.5804 6.45898 1.51904 6.44629 1.45556 6.44629C1.32438 6.44629 1.21012 6.49495 1.11279 6.59228L0.801757 6.90332C0.708658 6.99219 0.662109 7.10433 0.662109 7.23974C0.662109 7.37516 0.708658 7.48942 0.801757 7.58252L3.79785 10.5786C3.94596 10.714 4.11311 10.7817 4.29931 10.7817C4.40511 10.7817 4.50667 10.7585 4.604 10.7119C4.70133 10.6654 4.78173 10.5998 4.84521 10.5151L11.4912 2.09814C11.5632 2.00081 11.5991 1.90137 11.5991 1.7998C11.5991 1.64323 11.5357 1.51839 11.4087 1.42529L11.0723 1.15234ZM8.62207 8.82666C8.43164 8.70817 8.24967 8.58968 8.07617 8.47119C7.99576 8.39079 7.88997 8.35058 7.75878 8.35058C7.61067 8.35058 7.49007 8.40348 7.39697 8.50928L7.10498 8.83935C7.02034 8.93668 6.97802 9.04459 6.97802 9.16308C6.97802 9.29427 7.02457 9.40853 7.11767 9.50586L8.19677 10.5786C8.33219 10.714 8.49723 10.7817 8.69189 10.7817C8.79768 10.7817 8.89925 10.7585 8.99658 10.7119C9.09391 10.6654 9.17643 10.5998 9.24414 10.5151L15.8648 2.12353C15.9367 2.0389 15.9727 1.93945 15.9727 1.82519C15.9727 1.68131 15.9134 1.55648 15.7949 1.45068L15.4395 1.17773C15.3591 1.11003 15.2596 1.07617 15.1411 1.07617C14.9973 1.07617 14.8724 1.13542 14.7666 1.25391L8.62207 8.82666Z" fill="#53BDEB"/>
</g>
<defs>
<clipPath id="clip0_9734_19132">
<rect width="16" height="11" fill="white" transform="translate(0 0.5)"/>
</clipPath>
</defs>
</svg>
