<svg width="16" height="11" viewBox="0 0 16 11" fill="none" xmlns="http://www.w3.org/2000/svg">
<path d="M10 5.5C10 6.03043 9.78929 6.53914 9.41421 6.91421C9.03914 7.28929 8.53043 7.5 8 7.5C7.46957 7.5 6.96086 7.28929 6.58579 6.91421C6.21071 6.53914 6 6.03043 6 5.5C6 4.96957 6.21071 4.46086 6.58579 4.08579C6.96086 3.71071 7.46957 3.5 8 3.5C8.53043 3.5 9.03914 3.71071 9.41421 4.08579C9.78929 4.46086 10 4.96957 10 5.5Z" fill="#4598D3" stroke="#F7F7F7"/>
<path d="M15.0429 4.92652C15.2066 5.16142 15.3328 5.35854 15.4197 5.5C15.3328 5.64146 15.2066 5.83858 15.0429 6.07348C14.6958 6.57154 14.1831 7.2348 13.5214 7.89645C12.1895 9.22841 10.3097 10.5 8 10.5C5.69031 10.5 3.81052 9.22841 2.47855 7.89645C1.8169 7.2348 1.3042 6.57154 0.957074 6.07348C0.793357 5.83858 0.667184 5.64146 0.580255 5.5C0.667184 5.35854 0.793357 5.16142 0.957074 4.92652C1.3042 4.42846 1.8169 3.7652 2.47855 3.10355C3.81052 1.77159 5.69031 0.5 8 0.5C10.3097 0.5 12.1895 1.77159 13.5214 3.10355C14.1831 3.7652 14.6958 4.42846 15.0429 4.92652ZM8 9.5C9.06087 9.5 10.0783 9.07857 10.8284 8.32843C11.5786 7.57828 12 6.56087 12 5.5C12 4.43913 11.5786 3.42172 10.8284 2.67157C10.0783 1.92143 9.06087 1.5 8 1.5C6.93913 1.5 5.92172 1.92143 5.17157 2.67157C4.42143 3.42172 4 4.43913 4 5.5C4 6.56087 4.42143 7.57828 5.17157 8.32843C5.92172 9.07857 6.93913 9.5 8 9.5Z" fill="#4598D3" stroke="#F7F7F7"/>
</svg>
