<svg width="15" height="17" viewBox="0 0 15 17" fill="none" xmlns="http://www.w3.org/2000/svg">
<path d="M12.8007 0.90918C12.3788 0.90898 11.9682 1.06021 11.6307 1.34014C11.2932 1.62007 11.0469 2.01357 10.929 2.4615C10.8111 2.90944 10.8278 3.3876 10.9767 3.82411C11.1256 4.26063 11.3985 4.63192 11.7546 4.88218L10.4826 9.8051C10.4431 9.80232 10.4036 9.80085 10.364 9.80072C9.94468 9.80021 9.53652 9.95004 9.20071 10.2277L6.85072 8.06225C6.96198 7.69725 6.98275 7.30595 6.91088 6.92906C6.83901 6.55216 6.67712 6.20345 6.44205 5.9192C6.20699 5.63495 5.90733 5.42553 5.57427 5.31275C5.2412 5.19997 4.88689 5.18793 4.54819 5.2779C4.20949 5.36787 3.89878 5.55655 3.64838 5.82431C3.39798 6.09207 3.21704 6.42914 3.12438 6.80044C3.03173 7.17175 3.03074 7.56372 3.12153 7.93559C3.21231 8.30746 3.39155 8.64563 3.6406 8.91493L2.26108 11.9659C2.20067 11.9596 2.14002 11.9564 2.07934 11.9562C1.61234 11.9556 1.16061 12.1401 0.806133 12.4763C0.451659 12.8125 0.21794 13.278 0.1474 13.7885C0.0768597 14.299 0.174174 14.8205 0.421678 15.2584C0.669183 15.6963 1.05047 16.0216 1.49634 16.1752C1.9422 16.3287 2.42309 16.3005 2.8517 16.0954C3.28032 15.8904 3.62826 15.5223 3.83237 15.0578C4.03648 14.5934 4.08322 14.0634 3.96412 13.5641C3.84501 13.0648 3.56796 12.6292 3.18324 12.3365L4.48685 9.45385C4.80352 9.55045 5.13716 9.55677 5.45663 9.47222C5.7761 9.38767 6.071 9.215 6.3138 8.97034L8.58904 11.067C8.43454 11.4435 8.38121 11.8612 8.43542 12.2702C8.48964 12.6793 8.6491 13.0625 8.8948 13.3742C9.1405 13.6858 9.46207 13.9128 9.82117 14.0279C10.1803 14.1431 10.5617 14.1416 10.9201 14.0237C11.2785 13.9058 11.5986 13.6764 11.8424 13.3629C12.0861 13.0494 12.2432 12.665 12.2948 12.2555C12.3465 11.846 12.2905 11.4287 12.1337 11.0534C11.9768 10.6781 11.7256 10.3606 11.4101 10.1388L12.6821 5.21585C12.7213 5.21848 12.7608 5.22023 12.8007 5.22023C13.3177 5.22023 13.8135 4.99313 14.1791 4.58889C14.5446 4.18465 14.75 3.63639 14.75 3.0647C14.75 2.49302 14.5446 1.94476 14.1791 1.54052C13.8135 1.13628 13.3177 0.90918 12.8007 0.90918ZM2.07934 15.1895C1.88656 15.1895 1.69812 15.1263 1.53784 15.0079C1.37756 14.8895 1.25263 14.7211 1.17886 14.5242C1.10509 14.3273 1.08579 14.1106 1.1234 13.9015C1.161 13.6924 1.25383 13.5004 1.39014 13.3497C1.52645 13.1989 1.70012 13.0963 1.88919 13.0547C2.07825 13.0131 2.27423 13.0345 2.45232 13.116C2.63042 13.1976 2.78264 13.3358 2.88974 13.513C2.99684 13.6902 3.054 13.8986 3.054 14.1118C3.05371 14.3975 2.95093 14.6715 2.76821 14.8735C2.58549 15.0756 2.33774 15.1892 2.07934 15.1895ZM5.00333 8.45352C4.81056 8.45352 4.62212 8.39031 4.46184 8.27188C4.30156 8.15345 4.17663 7.98513 4.10286 7.7882C4.02909 7.59126 4.00979 7.37456 4.0474 7.16549C4.085 6.95643 4.17783 6.76439 4.31414 6.61366C4.45045 6.46293 4.62412 6.36029 4.81319 6.3187C5.00225 6.27711 5.19823 6.29846 5.37632 6.38003C5.55442 6.4616 5.70664 6.59974 5.81374 6.77698C5.92084 6.95422 5.978 7.16259 5.978 7.37575C5.97771 7.6615 5.87493 7.93544 5.69221 8.13749C5.50949 8.33954 5.26174 8.4532 5.00333 8.45352ZM10.364 13.034C10.1712 13.034 9.98279 12.9708 9.8225 12.8524C9.66222 12.7339 9.5373 12.5656 9.46353 12.3687C9.38976 12.1718 9.37045 11.955 9.40806 11.746C9.44567 11.5369 9.5385 11.3449 9.67481 11.1942C9.81112 11.0434 9.98479 10.9408 10.1739 10.8992C10.3629 10.8576 10.5589 10.8789 10.737 10.9605C10.9151 11.0421 11.0673 11.1802 11.1744 11.3575C11.2815 11.5347 11.3387 11.7431 11.3387 11.9562C11.3384 12.242 11.2356 12.5159 11.0529 12.718C10.8702 12.92 10.6224 13.0337 10.364 13.034ZM12.8007 4.14247C12.6079 4.14247 12.4195 4.07926 12.2592 3.96083C12.0989 3.84241 11.974 3.67408 11.9002 3.47715C11.8264 3.28021 11.8071 3.06351 11.8447 2.85444C11.8823 2.64538 11.9752 2.45334 12.1115 2.30261C12.2478 2.15188 12.4215 2.04924 12.6105 2.00765C12.7996 1.96607 12.9956 1.98741 13.1737 2.06898C13.3518 2.15056 13.504 2.28869 13.6111 2.46593C13.7182 2.64317 13.7753 2.85154 13.7753 3.0647C13.775 3.35045 13.6723 3.62439 13.4895 3.82644C13.3068 4.02849 13.0591 4.14215 12.8007 4.14247Z" fill="#F7F7F7"/>
</svg>
