<svg width="15" height="16" viewBox="0 0 15 16" fill="none" xmlns="http://www.w3.org/2000/svg">
<path d="M3.38393 11.0391H1.29464V14.078H3.38393V11.0391ZM8.60714 6.9871H6.51786V14.078H8.60714V6.9871ZM13.8304 1.92217V14.078H11.7411V1.92217H13.8304ZM11.7411 0.90918C11.464 0.90918 11.1983 1.0159 11.0024 1.20588C10.8065 1.39585 10.6964 1.65351 10.6964 1.92217V14.078C10.6964 14.3467 10.8065 14.6043 11.0024 14.7943C11.1983 14.9843 11.464 15.091 11.7411 15.091H13.8304C14.1074 15.091 14.3731 14.9843 14.569 14.7943C14.7649 14.6043 14.875 14.3467 14.875 14.078V1.92217C14.875 1.65351 14.7649 1.39585 14.569 1.20588C14.3731 1.0159 14.1074 0.90918 13.8304 0.90918H11.7411ZM5.47321 6.9871C5.47321 6.71844 5.58327 6.46078 5.77918 6.27081C5.97509 6.08084 6.2408 5.97411 6.51786 5.97411H8.60714C8.8842 5.97411 9.14991 6.08084 9.34582 6.27081C9.54173 6.46078 9.65178 6.71844 9.65178 6.9871V14.078C9.65178 14.3467 9.54173 14.6043 9.34582 14.7943C9.14991 14.9843 8.8842 15.091 8.60714 15.091H6.51786C6.2408 15.091 5.97509 14.9843 5.77918 14.7943C5.58327 14.6043 5.47321 14.3467 5.47321 14.078V6.9871ZM0.25 11.0391C0.25 10.7704 0.36006 10.5127 0.555969 10.3228C0.751877 10.1328 1.01759 10.0261 1.29464 10.0261H3.38393C3.66098 10.0261 3.92669 10.1328 4.1226 10.3228C4.31851 10.5127 4.42857 10.7704 4.42857 11.0391V14.078C4.42857 14.3467 4.31851 14.6043 4.1226 14.7943C3.92669 14.9843 3.66098 15.091 3.38393 15.091H1.29464C1.01759 15.091 0.751877 14.9843 0.555969 14.7943C0.36006 14.6043 0.25 14.3467 0.25 14.078V11.0391Z" fill="#F7F7F7"/>
</svg>
