<svg width="110" height="33" viewBox="0 0 110 33" fill="none" xmlns="http://www.w3.org/2000/svg">
<rect x="0.373782" y="0.36597" width="121.862" height="31.8826" rx="15.9413" fill="url(#paint0_linear_9685_46893)" fill-opacity="0.1"/>
<rect x="0.373782" y="0.36597" width="121.862" height="31.8826" rx="15.9413" stroke="url(#paint1_linear_9685_46893)" stroke-width="0.708502"/>
<g clip-path="url(#clip0_9685_46893)">
<mask id="mask0_9685_46893" style="mask-type:luminance" maskUnits="userSpaceOnUse" x="7" y="7" width="19" height="19">
<path d="M7.10547 7.09766H25.5265V25.5187H7.10547V7.09766Z" fill="white"/>
<path fill-rule="evenodd" clip-rule="evenodd" d="M19.8593 15.2452H17.1578L18.7682 11.488C18.7913 11.4341 18.8007 11.3753 18.7954 11.3168C18.7902 11.2584 18.7706 11.2022 18.7383 11.1533C18.706 11.1043 18.662 11.0641 18.6103 11.0364C18.5587 11.0086 18.5009 10.9941 18.4423 10.9941H14.8998C14.8304 10.9941 14.7625 11.0144 14.7046 11.0526C14.6467 11.0907 14.6012 11.1451 14.5739 11.2088L12.4484 16.1683C12.4253 16.2222 12.4159 16.281 12.4211 16.3395C12.4263 16.3979 12.446 16.4541 12.4783 16.503C12.5106 16.552 12.5546 16.5922 12.6062 16.6199C12.6579 16.6477 12.7156 16.6622 12.7743 16.6622H14.5271L12.4455 21.8441C12.3038 22.1963 12.741 22.4945 13.0173 22.2338L16.5768 18.8734L20.0896 15.8686C20.1446 15.8216 20.1839 15.7588 20.2021 15.6887C20.2204 15.6186 20.2167 15.5446 20.1916 15.4767C20.1665 15.4087 20.1212 15.3501 20.0618 15.3087C20.0024 15.2673 19.9317 15.2451 19.8593 15.2452ZM16.6207 15.9537H18.9L16.1028 18.347L13.7045 20.6106L15.3801 16.4397C15.4017 16.3859 15.4097 16.3277 15.4036 16.2702C15.3974 16.2126 15.3772 16.1574 15.3448 16.1094C15.3123 16.0615 15.2686 16.0222 15.2175 15.995C15.1663 15.9679 15.1093 15.9537 15.0514 15.9537H13.3113L15.1336 11.7026H17.9052L16.2948 15.4598C16.2717 15.5137 16.2624 15.5725 16.2676 15.631C16.2728 15.6894 16.2924 15.7456 16.3248 15.7945C16.3571 15.8435 16.401 15.8837 16.4527 15.9114C16.5043 15.9392 16.5621 15.9537 16.6207 15.9537Z" fill="black"/>
</mask>
<g mask="url(#mask0_9685_46893)">
<path d="M16.316 25.5187C21.4028 25.5187 25.5265 21.395 25.5265 16.3082C25.5265 11.2213 21.4028 7.09766 16.316 7.09766C11.2292 7.09766 7.10547 11.2213 7.10547 16.3082C7.10547 21.395 11.2292 25.5187 16.316 25.5187Z" fill="url(#paint2_linear_9685_46893)"/>
</g>
<path d="M34.1606 13.5704V15.7165H36.5001V16.4073H34.1606V18.6178H36.7764V19.3086H33.3225V12.8796H36.7764V13.5704H34.1606ZM38.8828 12.4928V19.3086H38.0447V12.4928H38.8828ZM44.9166 16.5915C44.9166 16.7511 44.9074 16.92 44.889 17.0981H40.8548C40.8855 17.5954 41.0543 17.9853 41.3613 18.2678C41.6745 18.5441 42.0521 18.6823 42.4942 18.6823C42.8565 18.6823 43.1574 18.5994 43.3969 18.4336C43.6425 18.2617 43.8144 18.0345 43.9127 17.752H44.8153C44.6802 18.2371 44.41 18.6332 44.0048 18.9402C43.5995 19.241 43.096 19.3915 42.4942 19.3915C42.0153 19.3915 41.5855 19.284 41.2048 19.0691C40.8302 18.8542 40.5355 18.5503 40.3205 18.1573C40.1056 17.7582 39.9982 17.2976 39.9982 16.7757C39.9982 16.2538 40.1026 15.7963 40.3113 15.4033C40.5201 15.0103 40.8118 14.7095 41.1863 14.5007C41.567 14.2858 42.003 14.1783 42.4942 14.1783C42.9732 14.1783 43.3969 14.2827 43.7653 14.4915C44.1337 14.7003 44.4162 14.9889 44.6127 15.3573C44.8153 15.7196 44.9166 16.131 44.9166 16.5915ZM44.0508 16.4165C44.0508 16.0972 43.9802 15.8239 43.839 15.5968C43.6977 15.3634 43.5043 15.1884 43.2587 15.0718C43.0192 14.9489 42.7521 14.8875 42.4574 14.8875C42.0337 14.8875 41.6714 15.0226 41.3705 15.2928C41.0758 15.563 40.907 15.9375 40.864 16.4165H44.0508ZM45.7098 16.7757C45.7098 16.2538 45.8142 15.7994 46.0229 15.4125C46.2317 15.0196 46.5203 14.7156 46.8887 14.5007C47.2633 14.2858 47.69 14.1783 48.169 14.1783C48.7892 14.1783 49.2988 14.3288 49.6979 14.6296C50.1032 14.9305 50.3703 15.3481 50.4993 15.8823H49.5966C49.5107 15.5753 49.3418 15.3327 49.0901 15.1546C48.8444 14.9766 48.5374 14.8875 48.169 14.8875C47.69 14.8875 47.3032 15.0533 47.0085 15.3849C46.7137 15.7103 46.5664 16.1739 46.5664 16.7757C46.5664 17.3836 46.7137 17.8533 47.0085 18.1849C47.3032 18.5165 47.69 18.6823 48.169 18.6823C48.5374 18.6823 48.8444 18.5963 49.0901 18.4244C49.3357 18.2525 49.5045 18.0068 49.5966 17.6875H50.4993C50.3642 18.2033 50.094 18.6178 49.6887 18.931C49.2835 19.238 48.7769 19.3915 48.169 19.3915C47.69 19.3915 47.2633 19.284 46.8887 19.0691C46.5203 18.8542 46.2317 18.5503 46.0229 18.1573C45.8142 17.7643 45.7098 17.3038 45.7098 16.7757ZM52.64 14.952V17.927C52.64 18.1726 52.6922 18.3476 52.7966 18.452C52.901 18.5503 53.0821 18.5994 53.34 18.5994H53.9571V19.3086H53.2018C52.7352 19.3086 52.3852 19.2011 52.1518 18.9862C51.9185 18.7713 51.8018 18.4182 51.8018 17.927V14.952H51.1479V14.2612H51.8018V12.9902H52.64V14.2612H53.9571V14.952H52.64ZM55.8108 15.081C55.9582 14.7924 56.1669 14.5682 56.4371 14.4086C56.7134 14.2489 57.0481 14.1691 57.441 14.1691V15.0349H57.22C56.2805 15.0349 55.8108 15.5446 55.8108 16.5639V19.3086H54.9726V14.2612H55.8108V15.081ZM58.8415 13.4415C58.6818 13.4415 58.5467 13.3862 58.4362 13.2757C58.3257 13.1652 58.2704 13.0301 58.2704 12.8704C58.2704 12.7108 58.3257 12.5757 58.4362 12.4652C58.5467 12.3546 58.6818 12.2994 58.8415 12.2994C58.995 12.2994 59.1239 12.3546 59.2283 12.4652C59.3388 12.5757 59.3941 12.7108 59.3941 12.8704C59.3941 13.0301 59.3388 13.1652 59.2283 13.2757C59.1239 13.3862 58.995 13.4415 58.8415 13.4415ZM59.2467 14.2612V19.3086H58.4086V14.2612H59.2467ZM60.3621 16.7757C60.3621 16.2538 60.4665 15.7994 60.6752 15.4125C60.884 15.0196 61.1726 14.7156 61.541 14.5007C61.9156 14.2858 62.3423 14.1783 62.8213 14.1783C63.4415 14.1783 63.9511 14.3288 64.3502 14.6296C64.7555 14.9305 65.0226 15.3481 65.1516 15.8823H64.2489C64.163 15.5753 63.9941 15.3327 63.7423 15.1546C63.4967 14.9766 63.1897 14.8875 62.8213 14.8875C62.3423 14.8875 61.9555 15.0533 61.6608 15.3849C61.366 15.7103 61.2187 16.1739 61.2187 16.7757C61.2187 17.3836 61.366 17.8533 61.6608 18.1849C61.9555 18.5165 62.3423 18.6823 62.8213 18.6823C63.1897 18.6823 63.4967 18.5963 63.7423 18.4244C63.988 18.2525 64.1568 18.0068 64.2489 17.6875H65.1516C65.0165 18.2033 64.7463 18.6178 64.341 18.931C63.9358 19.238 63.4292 19.3915 62.8213 19.3915C62.3423 19.3915 61.9156 19.284 61.541 19.0691C61.1726 18.8542 60.884 18.5503 60.6752 18.1573C60.4665 17.7643 60.3621 17.3038 60.3621 16.7757ZM66.7028 13.4415C66.5432 13.4415 66.4081 13.3862 66.2975 13.2757C66.187 13.1652 66.1318 13.0301 66.1318 12.8704C66.1318 12.7108 66.187 12.5757 66.2975 12.4652C66.4081 12.3546 66.5432 12.2994 66.7028 12.2994C66.8563 12.2994 66.9853 12.3546 67.0896 12.4652C67.2002 12.5757 67.2554 12.7108 67.2554 12.8704C67.2554 13.0301 67.2002 13.1652 67.0896 13.2757C66.9853 13.3862 66.8563 13.4415 66.7028 13.4415ZM67.1081 14.2612V19.3086H66.2699V14.2612H67.1081ZM69.5589 14.952V17.927C69.5589 18.1726 69.6111 18.3476 69.7155 18.452C69.8199 18.5503 70.001 18.5994 70.2589 18.5994H70.876V19.3086H70.1208C69.6541 19.3086 69.3041 19.2011 69.0708 18.9862C68.8374 18.7713 68.7208 18.4182 68.7208 17.927V14.952H68.0668V14.2612H68.7208V12.9902H69.5589V14.2612H70.876V14.952H69.5589ZM76.2389 14.2612L73.1995 21.6849H72.3337L73.3284 19.2533L71.2929 14.2612H72.2232L73.8074 18.3507L75.3732 14.2612H76.2389ZM82.7515 16.002C82.9848 16.0389 83.1967 16.134 83.387 16.2875C83.5835 16.441 83.737 16.6314 83.8476 16.8586C83.9642 17.0858 84.0226 17.3283 84.0226 17.5862C84.0226 17.9117 83.9397 18.2064 83.7739 18.4704C83.6081 18.7283 83.3655 18.934 83.0462 19.0875C82.7331 19.2349 82.3616 19.3086 81.9318 19.3086H79.537V12.8889H81.8397C82.2756 12.8889 82.6471 12.9625 82.9541 13.1099C83.2611 13.2511 83.4914 13.4446 83.6449 13.6902C83.7984 13.9358 83.8752 14.2121 83.8752 14.5191C83.8752 14.8998 83.7708 15.216 83.562 15.4678C83.3594 15.7134 83.0892 15.8915 82.7515 16.002ZM80.3752 15.6612H81.7844C82.1774 15.6612 82.4813 15.5691 82.6962 15.3849C82.9111 15.2007 83.0186 14.9459 83.0186 14.6204C83.0186 14.295 82.9111 14.0402 82.6962 13.856C82.4813 13.6718 82.1712 13.5796 81.766 13.5796H80.3752V15.6612ZM81.8581 18.6178C82.2756 18.6178 82.6011 18.5196 82.8344 18.3231C83.0677 18.1266 83.1844 17.8533 83.1844 17.5033C83.1844 17.1472 83.0616 16.8678 82.816 16.6652C82.5704 16.4564 82.2419 16.352 81.8304 16.352H80.3752V18.6178H81.8581ZM85.6186 13.4415C85.4589 13.4415 85.3238 13.3862 85.2133 13.2757C85.1028 13.1652 85.0475 13.0301 85.0475 12.8704C85.0475 12.7108 85.1028 12.5757 85.2133 12.4652C85.3238 12.3546 85.4589 12.2994 85.6186 12.2994C85.7721 12.2994 85.901 12.3546 86.0054 12.4652C86.1159 12.5757 86.1712 12.7108 86.1712 12.8704C86.1712 13.0301 86.1159 13.1652 86.0054 13.2757C85.901 13.3862 85.7721 13.4415 85.6186 13.4415ZM86.0238 14.2612V19.3086H85.1857V14.2612H86.0238ZM88.2905 12.4928V19.3086H87.4523V12.4928H88.2905ZM90.5571 12.4928V19.3086H89.719V12.4928H90.5571Z" fill="#FAFAFA"/>
</g>
<defs>
<linearGradient id="paint0_linear_9685_46893" x1="13.8936" y1="-4.71981" x2="34.7325" y2="62.0624" gradientUnits="userSpaceOnUse">
<stop stop-color="#FCA509"/>
<stop offset="1" stop-color="#880306"/>
</linearGradient>
<linearGradient id="paint1_linear_9685_46893" x1="13.8936" y1="-4.71981" x2="34.7325" y2="62.0624" gradientUnits="userSpaceOnUse">
<stop stop-color="#FCA509"/>
<stop offset="1" stop-color="#880306"/>
</linearGradient>
<linearGradient id="paint2_linear_9685_46893" x1="16.316" y1="7.09766" x2="16.316" y2="25.5187" gradientUnits="userSpaceOnUse">
<stop stop-color="#CCCCCC"/>
<stop offset="1" stop-color="#666666"/>
</linearGradient>
<clipPath id="clip0_9685_46893">
<rect width="92.1053" height="18.4211" fill="white" transform="translate(7.10547 7.09766)"/>
</clipPath>
</defs>
</svg>
