<svg width="20" height="19" viewBox="0 0 20 19" fill="none" xmlns="http://www.w3.org/2000/svg">
<path fill-rule="evenodd" clip-rule="evenodd" d="M5 18.5C3.67392 18.5 2.40215 17.9732 1.46447 17.0355C0.526784 16.0979 0 14.8261 0 13.5V10.5C0 10.2348 0.105357 9.98043 0.292893 9.79289C0.48043 9.60536 0.734784 9.5 1 9.5C1.26522 9.5 1.51957 9.60536 1.70711 9.79289C1.89464 9.98043 2 10.2348 2 10.5V13.5C2 14.2956 2.31607 15.0587 2.87868 15.6213C3.44129 16.1839 4.20435 16.5 5 16.5H15C15.7956 16.5 16.5587 16.1839 17.1213 15.6213C17.6839 15.0587 18 14.2956 18 13.5V10.5C18 10.2348 18.1054 9.98043 18.2929 9.79289C18.4804 9.60536 18.7348 9.5 19 9.5C19.2652 9.5 19.5196 9.60536 19.7071 9.79289C19.8946 9.98043 20 10.2348 20 10.5V13.5C20 14.8261 19.4732 16.0979 18.5355 17.0355C17.5979 17.9732 16.3261 18.5 15 18.5H5Z" fill="#DADADA"/>
<path fill-rule="evenodd" clip-rule="evenodd" d="M15.7166 7.4C15.8086 7.49392 15.8811 7.60504 15.93 7.72701C15.979 7.84898 16.0034 7.9794 16.0019 8.11082C16.0004 8.24223 15.9731 8.37207 15.9214 8.4929C15.8697 8.61373 15.7947 8.72318 15.7006 8.815L11.2006 13.215C11.0138 13.3976 10.7629 13.4999 10.5016 13.4999C10.2404 13.4999 9.98946 13.3976 9.80262 13.215L5.30262 8.815C5.20671 8.72368 5.12989 8.61422 5.07663 8.49297C5.02337 8.37172 4.99472 8.2411 4.99235 8.10869C4.98998 7.97628 5.01393 7.84471 5.06281 7.72164C5.1117 7.59856 5.18455 7.48641 5.27713 7.39172C5.3697 7.29702 5.48017 7.22166 5.60211 7.17C5.72405 7.11834 5.85504 7.09141 5.98747 7.09079C6.1199 7.09016 6.25113 7.11585 6.37356 7.16636C6.49598 7.21686 6.60715 7.29118 6.70062 7.385L9.50162 10.124V1.5C9.50162 1.23478 9.60698 0.98043 9.79451 0.792893C9.98205 0.605357 10.2364 0.5 10.5016 0.5C10.7668 0.5 11.0212 0.605357 11.2087 0.792893C11.3963 0.98043 11.5016 1.23478 11.5016 1.5V10.124L14.3016 7.385C14.3955 7.29307 14.5067 7.22055 14.6286 7.17159C14.7506 7.12263 14.881 7.0982 15.0124 7.09969C15.1439 7.10117 15.2737 7.12855 15.3945 7.18025C15.5154 7.23195 15.6248 7.30697 15.7166 7.401V7.4Z" fill="#DADADA"/>
</svg>
