<svg width="17" height="17" viewBox="0 0 17 17" fill="none" xmlns="http://www.w3.org/2000/svg">
<mask id="mask0_9685_33603" style="mask-type:luminance" maskUnits="userSpaceOnUse" x="0" y="0" width="17" height="17">
<path d="M0.363281 0.320312H16.636V16.593H0.363281V0.320312Z" fill="white"/>
<path fill-rule="evenodd" clip-rule="evenodd" d="M11.6282 7.51892H9.24172L10.6643 4.19991C10.6847 4.15229 10.693 4.10034 10.6884 4.04874C10.6838 3.99713 10.6664 3.94748 10.6379 3.90424C10.6094 3.86099 10.5705 3.82551 10.5249 3.80098C10.4793 3.77644 10.4282 3.76363 10.3764 3.76367H7.24706C7.18578 3.76362 7.12582 3.78156 7.07464 3.81527C7.02346 3.84898 6.98331 3.89698 6.95916 3.95331L5.08154 8.33443C5.06113 8.38205 5.05285 8.434 5.05747 8.4856C5.06208 8.53721 5.07944 8.58686 5.10798 8.6301C5.13652 8.67334 5.17535 8.70883 5.22098 8.73336C5.26662 8.75789 5.31763 8.77071 5.36944 8.77067H6.91785L5.07904 13.3483C4.95386 13.6594 5.34003 13.9229 5.58412 13.6925L8.72851 10.724L11.8316 8.06969C11.8802 8.02811 11.9149 7.97263 11.931 7.91072C11.9472 7.84881 11.9439 7.78345 11.9218 7.72344C11.8996 7.66343 11.8596 7.61165 11.8071 7.57508C11.7546 7.53851 11.6922 7.51891 11.6282 7.51892ZM8.76731 8.14479H10.7807L8.3098 10.259L6.19121 12.2587L7.67141 8.57414C7.69043 8.52666 7.69753 8.47524 7.69208 8.42438C7.68663 8.37352 7.6688 8.32477 7.64014 8.2824C7.61148 8.24003 7.57287 8.20533 7.5277 8.18134C7.48252 8.15735 7.43215 8.1448 7.381 8.14479H5.84385L7.4536 4.38955H9.90202L8.47941 7.70856C8.459 7.75618 8.45072 7.80812 8.45534 7.85973C8.45995 7.91133 8.47731 7.96098 8.50585 8.00423C8.53439 8.04747 8.57322 8.08295 8.61885 8.10748C8.66449 8.13202 8.7155 8.14484 8.76731 8.14479Z" fill="black"/>
</mask>
<g mask="url(#mask0_9685_33603)">
<path d="M8.49965 16.595C12.9932 16.595 16.636 12.9522 16.636 8.45863C16.636 3.96504 12.9932 0.322266 8.49965 0.322266C4.00606 0.322266 0.363281 3.96504 0.363281 8.45863C0.363281 12.9522 4.00606 16.595 8.49965 16.595Z" fill="url(#paint0_linear_9685_33603)"/>
</g>
<defs>
<linearGradient id="paint0_linear_9685_33603" x1="8.49965" y1="0.322266" x2="8.49965" y2="16.595" gradientUnits="userSpaceOnUse">
<stop stop-color="#CCCCCC"/>
<stop offset="1" stop-color="#666666"/>
</linearGradient>
</defs>
</svg>
