<svg width="48" height="48" viewBox="0 0 48 48" fill="none" xmlns="http://www.w3.org/2000/svg">
<rect x="0.5" y="0.5" width="47" height="47" rx="23.5" fill="#3A3A48"/>
<rect x="0.5" y="0.5" width="47" height="47" rx="23.5" stroke="#161618"/>
<path d="M23.9981 12.5703V21.017L31.1408 24.2116L23.9981 12.5703ZM23.9981 12.5703L16.8555 24.2103L23.9981 21.0183V12.5703ZM23.9981 29.685V35.4276L31.1408 25.5423L23.9981 29.685ZM23.9981 35.4276V29.685L16.8555 25.5423L23.9981 35.4276Z" fill="#BBB9FD"/>
<path d="M23.9981 28.353L31.1408 24.2103L23.9981 21.0156V28.353ZM16.8555 24.2103L23.9981 28.353V21.0156L16.8555 24.2103Z" fill="#BBB9FD"/>
<path fill-rule="evenodd" clip-rule="evenodd" d="M23.9981 28.3543L16.8555 24.2116L23.9981 12.5703L31.1408 24.2103L23.9981 28.3543ZM17.3315 23.8743L23.8861 13.1943V20.9596L17.3315 23.8743ZM17.2341 24.165L23.8861 21.2103V28.0223L17.2341 24.165ZM24.1141 21.2103V28.0223L30.7595 24.165L24.1141 21.2103ZM24.1141 20.9596L30.6688 23.8743L24.1141 13.1943V20.9596Z" fill="#BBB9FD"/>
<path fill-rule="evenodd" clip-rule="evenodd" d="M23.9981 29.5938L16.8555 25.5365L23.9981 35.4258L31.1408 25.5352L23.9981 29.5938ZM17.6555 26.2498L23.8848 29.7938V34.8792L17.6555 26.2498ZM24.1128 29.7938V34.8792L30.3408 26.2498L24.1128 29.7938Z" fill="#BBB9FD"/>
</svg>
