<svg width="20" height="14" viewBox="0 0 20 14" fill="none" xmlns="http://www.w3.org/2000/svg">
<path d="M9.99868 1.16797C4.74285 1.16797 2.19285 5.9038 1.74035 6.8413C1.71586 6.89108 1.70313 6.94582 1.70312 7.0013C1.70313 7.05678 1.71586 7.11152 1.74035 7.1613C2.19201 8.0988 4.74201 12.8346 9.99868 12.8346C15.2553 12.8346 17.8045 8.0988 18.257 7.1613C18.2815 7.11152 18.2942 7.05678 18.2942 7.0013C18.2942 6.94582 18.2815 6.89108 18.257 6.8413C17.8053 5.9038 15.2553 1.16797 9.99868 1.16797Z" stroke="#838383" stroke-width="1.5" stroke-linecap="round" stroke-linejoin="round"/>
<path d="M10 9.5C11.3807 9.5 12.5 8.38071 12.5 7C12.5 5.61929 11.3807 4.5 10 4.5C8.61929 4.5 7.5 5.61929 7.5 7C7.5 8.38071 8.61929 9.5 10 9.5Z" stroke="#838383" stroke-width="1.5" stroke-linecap="round" stroke-linejoin="round"/>
</svg>
