<svg width="16" height="17" viewBox="0 0 16 17" fill="none" xmlns="http://www.w3.org/2000/svg">
<path d="M9.68661 6.4002L6.31328 9.77353C5.87995 9.3402 5.61328 8.74686 5.61328 8.08686C5.61328 6.76686 6.67995 5.7002 7.99995 5.7002C8.65995 5.7002 9.25328 5.96686 9.68661 6.4002Z" stroke="#EDF1F3" stroke-width="1.5" stroke-linecap="round" stroke-linejoin="round"/>
<path d="M11.8799 3.93349C10.7132 3.05349 9.3799 2.57349 7.9999 2.57349C5.64656 2.57349 3.45323 3.96015 1.92656 6.36015C1.32656 7.30015 1.32656 8.88015 1.92656 9.82015C2.45323 10.6468 3.06656 11.3602 3.73323 11.9335" stroke="#EDF1F3" stroke-width="1.5" stroke-linecap="round" stroke-linejoin="round"/>
<path d="M5.61328 13.1069C6.37328 13.4269 7.17995 13.6002 7.99995 13.6002C10.3533 13.6002 12.5466 12.2135 14.0733 9.81354C14.6733 8.87354 14.6733 7.29354 14.0733 6.35354C13.8533 6.00687 13.6133 5.6802 13.3666 5.37354" stroke="#EDF1F3" stroke-width="1.5" stroke-linecap="round" stroke-linejoin="round"/>
<path d="M10.3409 8.55347C10.1676 9.49347 9.40094 10.2601 8.46094 10.4335" stroke="#EDF1F3" stroke-width="1.5" stroke-linecap="round" stroke-linejoin="round"/>
<path d="M6.31203 9.77368L1.33203 14.7537" stroke="#EDF1F3" stroke-width="1.5" stroke-linecap="round" stroke-linejoin="round"/>
<path d="M14.6675 1.42017L9.6875 6.40017" stroke="#EDF1F3" stroke-width="1.5" stroke-linecap="round" stroke-linejoin="round"/>
</svg>
