<svg width="17" height="16" viewBox="0 0 17 16" fill="none" xmlns="http://www.w3.org/2000/svg">
<rect x="0.5" width="16" height="16" rx="8" fill="#44444A"/>
<path d="M6.83594 9.16492C6.83594 9.80992 7.33094 10.3299 7.94594 10.3299H9.20094C9.73594 10.3299 10.1709 9.87492 10.1709 9.31492C10.1709 8.70492 9.90594 8.48992 9.51094 8.34992L7.49594 7.64992C7.10094 7.50992 6.83594 7.29492 6.83594 6.68492C6.83594 6.12492 7.27094 5.66992 7.80594 5.66992H9.06094C9.67594 5.66992 10.1709 6.18992 10.1709 6.83492" stroke="white" stroke-linecap="round" stroke-linejoin="round"/>
<path d="M8.5 5V11" stroke="white" stroke-linecap="round" stroke-linejoin="round"/>
<path d="M8.5 13C11.2614 13 13.5 10.7614 13.5 8C13.5 5.23858 11.2614 3 8.5 3C5.73858 3 3.5 5.23858 3.5 8C3.5 10.7614 5.73858 13 8.5 13Z" stroke="white" stroke-linecap="round" stroke-linejoin="round"/>
</svg>
