<svg width="16" height="16" viewBox="0 0 16 16" fill="none" xmlns="http://www.w3.org/2000/svg">
<rect width="16" height="16" rx="8" fill="#44444A"/>
<path d="M11.4096 7.05809C11.557 6.06009 10.8016 5.52743 9.76029 5.16609L10.0976 3.82143L9.27562 3.61676L8.94762 4.92876L8.29162 4.77143L8.62429 3.45009L7.80162 3.24609L7.46429 4.59609L6.94162 4.47209V4.46743L5.80562 4.18209L5.58696 5.06209C5.58696 5.06209 6.19496 5.20476 6.18562 5.20876C6.51896 5.29543 6.57562 5.51343 6.56562 5.68476L6.18562 7.22476L6.27162 7.25343L6.18096 7.23343L5.64362 9.38743C5.60562 9.48743 5.50096 9.63943 5.26829 9.57743C5.27762 9.59143 4.67429 9.43476 4.67429 9.43476L4.26562 10.3714L5.33496 10.6374L5.91962 10.7901L5.57696 12.1541L6.39963 12.3581L6.73296 11.0081L7.39296 11.1794L7.05562 12.5248L7.87762 12.7294L8.21496 11.3648C9.61762 11.6314 10.673 11.5268 11.115 10.2574C11.4716 9.23543 11.0963 8.65076 10.3596 8.26076C10.8963 8.14209 11.3003 7.78543 11.405 7.05809H11.4096ZM9.53229 9.69143C9.28029 10.7134 7.55896 10.1574 7.00362 10.0248L7.45496 8.21343C8.01096 8.35609 9.79829 8.62676 9.53229 9.68676V9.69143ZM9.78429 7.04409C9.55562 7.97076 8.12029 7.50009 7.65962 7.38609L8.06762 5.74609C8.53429 5.86076 10.0263 6.07943 9.78429 7.04409Z" fill="white"/>
</svg>
