<svg width="21" height="21" viewBox="0 0 21 21" fill="none" xmlns="http://www.w3.org/2000/svg">
<path d="M15.6333 19.8205H17.0397C17.7514 19.8205 18.3359 19.2698 18.4207 18.5751L19.8186 4.61289H15.5825V1.18164H13.9134V4.61289H9.70274L9.95691 6.59539C11.4057 6.99359 12.7612 7.71372 13.5745 8.51011C14.7945 9.71317 15.6333 10.9586 15.6333 12.9919V19.8205ZM1.17969 18.9733V18.1261H13.9134V18.9733C13.9134 19.4308 13.5322 19.8205 13.0408 19.8205H2.02691C1.56094 19.8205 1.17969 19.4308 1.17969 18.9733ZM13.9134 13.0428C13.9134 6.26497 1.17969 6.26497 1.17969 13.0428H13.9134ZM1.17969 14.7372H13.888V16.4316H1.17969V14.7372Z" fill="white"/>
</svg>
