<svg width="21" height="21" viewBox="0 0 21 21" fill="none" xmlns="http://www.w3.org/2000/svg">
<path d="M8.79093 17.3174L7.02024 13.9742L3.66016 12.1866L4.5777 11.2741L7.50231 11.7714L10.0863 9.18741L3.73048 6.47461L4.90642 5.30544L12.6373 6.63135L15.2807 3.97191C15.5179 3.73413 15.8088 3.61523 16.1533 3.61523C16.4978 3.61523 16.7887 3.73413 17.0259 3.97191C17.2643 4.2097 17.3835 4.50002 17.3835 4.84286C17.3835 5.1857 17.2646 5.47602 17.0268 5.7138L14.3623 8.36137L15.689 16.088L14.508 17.2691L11.8062 10.9132L9.22217 13.4972L9.70763 16.4007L8.79093 17.3174Z" fill="white"/>
</svg>
