<svg width="21" height="21" viewBox="0 0 21 21" fill="none" xmlns="http://www.w3.org/2000/svg">
<path d="M1.91854 6.25993L9.758 10.0454C9.96213 10.1427 10.2346 10.1936 10.5042 10.1936C10.7739 10.1936 11.0463 10.1427 11.25 10.0454L19.0895 6.25993C19.5017 6.06136 19.5017 5.7365 19.0895 5.53714L11.25 1.75165C11.0463 1.65435 10.7735 1.60352 10.5042 1.60352C10.235 1.60352 9.96213 1.65435 9.758 1.75165L1.91854 5.53714C1.50632 5.7365 1.50632 6.06057 1.91854 6.25993Z" fill="white"/>
<path d="M19.0881 10.1414C19.0881 10.1414 17.6564 9.45116 17.4666 9.35823C17.2768 9.2653 17.2255 9.27046 17.0262 9.363C16.8268 9.45553 11.2439 12.1521 11.2439 12.1521C11.0085 12.2537 10.7544 12.3043 10.4981 12.3006C10.2292 12.3006 9.95597 12.2494 9.75224 12.1521C9.75224 12.1521 4.31744 9.53099 4.06248 9.4047C3.78647 9.27166 3.70704 9.27166 3.45565 9.3908L1.90683 10.1366C1.4946 10.3352 1.4946 10.6604 1.90683 10.8594L9.74747 14.6449C9.9512 14.7422 10.224 14.793 10.4933 14.793C10.7625 14.793 11.0354 14.7422 11.2395 14.6449L19.079 10.8602C19.5003 10.6648 19.5003 10.3407 19.0881 10.1414Z" fill="white"/>
<path d="M19.0879 14.7368C19.0879 14.7368 17.6563 14.0466 17.4664 13.9524C17.2766 13.8583 17.2254 13.8647 17.026 13.9572C16.8266 14.0497 11.2485 16.7522 11.2485 16.7522C11.0131 16.8537 10.7589 16.9042 10.5027 16.9004C10.2338 16.9004 9.96057 16.8495 9.75644 16.7522C9.75644 16.7522 4.32164 14.1312 4.06708 14.0049C3.78908 13.8702 3.70966 13.8702 3.45986 13.991L1.91103 14.7368C1.49841 14.9354 1.49841 15.2602 1.91103 15.4596L9.75048 19.2451C9.95421 19.3467 10.227 19.3932 10.4963 19.3932C10.7656 19.3932 11.0384 19.3424 11.2421 19.2451L19.0832 15.4616C19.5002 15.2602 19.5002 14.9361 19.0879 14.7368Z" fill="white"/>
</svg>
