<svg width="21" height="21" viewBox="0 0 21 21" fill="none" xmlns="http://www.w3.org/2000/svg">
<path d="M17.4146 4.48085C17.7586 4.89598 18.0542 5.35264 18.2923 5.84149C18.1497 6.12019 17.9523 6.36729 17.7121 6.56802C17.4718 6.76875 17.1935 6.91899 16.8939 7.00978C16.5942 7.10056 16.2794 7.13002 15.9681 7.0964C15.6568 7.06278 15.3555 6.96677 15.0822 6.8141L17.4146 4.48085ZM16.5165 3.58279L14.1833 5.91435C14.0306 5.64106 13.9345 5.3398 13.9008 5.02856C13.8672 4.71732 13.8966 4.40248 13.9873 4.10286C14.078 3.80323 14.2281 3.52495 14.4288 3.28465C14.6294 3.04434 14.8764 2.84694 15.1551 2.70422C15.6423 2.94132 16.0994 3.23599 16.5165 3.58194M18.9718 8.80337C18.9718 8.28233 18.9125 7.77485 18.8015 7.28685C18.4661 7.63306 18.0645 7.90825 17.6206 8.09601C17.1767 8.28377 16.6995 8.38027 16.2175 8.37976C15.4822 8.38089 14.7643 8.1558 14.1613 7.73503L13.5165 8.37976L17.7797 12.643C18.5582 11.5141 18.9741 10.1747 18.9718 8.80337ZM12.6176 4.77907C12.6176 3.76579 13.0361 2.84994 13.7105 2.19504C12.7954 1.98675 11.847 1.97007 10.9251 2.14605C10.0032 2.32204 9.12764 2.68688 8.35355 3.21764L12.6176 7.48086L13.2624 6.83612C12.8414 6.23286 12.6163 5.51467 12.6176 4.77907ZM12.6176 9.27782L16.9605 13.6215C16.1089 14.465 15.0488 15.0675 13.8885 15.3677C13.8919 13.3962 13.1864 11.4892 11.9009 9.99457L12.6176 9.27782ZM11.0028 9.09651C9.50817 7.81095 7.60119 7.10553 5.62973 7.10893C5.92966 5.94863 6.53189 4.8886 7.37501 4.0369L11.7196 8.37976L11.0028 9.09651ZM3.93359 7.95615C3.42802 7.95615 2.94316 8.15699 2.58567 8.51448C2.22818 8.87197 2.02734 9.35683 2.02734 9.8624V11.5568C2.02734 13.5229 2.80837 15.4085 4.19862 16.7988C5.58886 18.189 7.47444 18.97 9.44054 18.97H11.135C11.6406 18.97 12.1254 18.7692 12.4829 18.4117C12.8404 18.0542 13.0412 17.5694 13.0412 17.0638V15.3693C13.0412 13.4032 12.2602 11.5177 10.87 10.1274C9.47971 8.73718 7.59414 7.95615 5.62804 7.95615H3.93359ZM6.02623 11.955C6.14537 11.836 6.30687 11.7692 6.47526 11.7692C6.64365 11.7692 6.80515 11.836 6.92429 11.955L9.04234 14.0731C9.10477 14.1313 9.15485 14.2014 9.18957 14.2794C9.2243 14.3573 9.24298 14.4414 9.24448 14.5268C9.24599 14.6121 9.23029 14.6968 9.19834 14.7759C9.16638 14.8551 9.11881 14.9269 9.05847 14.9873C8.99813 15.0476 8.92626 15.0952 8.84714 15.1271C8.76802 15.1591 8.68327 15.1748 8.59796 15.1733C8.51264 15.1718 8.4285 15.1531 8.35055 15.1184C8.27261 15.0837 8.20246 15.0336 8.14429 14.9712L6.02623 12.8531C5.90724 12.734 5.8404 12.5725 5.8404 12.4041C5.8404 12.2357 5.90724 12.0742 6.02623 11.955Z" fill="white"/>
</svg>
