<svg width="15" height="15" viewBox="0 0 15 15" fill="none" xmlns="http://www.w3.org/2000/svg">
<path d="M13.677 7.49935C12.8605 7.49935 12.071 7.13478 11.4531 6.47315C10.8522 5.82781 10.4853 4.96721 10.4205 4.05063C10.3514 3.07288 10.6497 2.17376 11.2601 1.51849C11.8705 0.863216 12.7239 0.509766 13.677 0.509766C14.6234 0.509766 15.4792 0.86957 16.0877 1.52326C16.702 2.18329 17.0011 3.08082 16.932 4.05023C16.8656 4.96801 16.4991 5.8282 15.8994 6.47275C15.2831 7.13478 14.4939 7.49935 13.677 7.49935ZM18.9125 14.4889H8.442C8.27366 14.4898 8.10735 14.4521 7.95588 14.3786C7.80442 14.3052 7.67182 14.1979 7.5683 14.0652C7.45849 13.9213 7.38266 13.7544 7.34649 13.577C7.31031 13.3997 7.31473 13.2164 7.35941 13.041C7.6938 11.6983 8.52222 10.5847 9.75493 9.821C10.849 9.14349 12.2418 8.77018 13.677 8.77018C15.1405 8.77018 16.4967 9.1276 17.5972 9.80472C18.8327 10.5644 19.6623 11.6844 19.9951 13.0434C20.0392 13.2189 20.0431 13.4022 20.0065 13.5794C19.97 13.7567 19.8938 13.9234 19.7838 14.0672C19.6804 14.1993 19.5481 14.306 19.3971 14.3791C19.246 14.4522 19.0803 14.4898 18.9125 14.4889ZM6.17118 7.6582C4.77366 7.6582 3.54492 6.35878 3.43094 4.7619C3.37455 3.9438 3.62951 3.18725 4.14579 2.63245C4.6565 2.08322 5.37691 1.7806 6.17118 1.7806C6.96545 1.7806 7.68029 2.08481 8.19379 2.63722C8.71404 3.19639 8.9682 3.95134 8.90863 4.76269C8.79465 6.35917 7.56632 7.6582 6.17118 7.6582ZM8.77877 8.9072C8.08021 8.56566 7.17355 8.39489 6.17158 8.39489C5.00161 8.39489 3.86541 8.69989 2.97186 9.2535C1.95876 9.88216 1.27728 10.7976 1.00206 11.9028C0.961789 12.0618 0.957979 12.2278 0.990921 12.3884C1.02386 12.5491 1.0927 12.7002 1.19229 12.8305C1.28679 12.9518 1.40785 13.0498 1.54617 13.117C1.68448 13.1842 1.83637 13.2188 1.99014 13.2181H6.39834C6.47274 13.2181 6.54478 13.192 6.6019 13.1443C6.65902 13.0966 6.69759 13.0304 6.71089 12.9572C6.71525 12.9322 6.72081 12.9071 6.72717 12.8825C7.06394 11.5299 7.85305 10.3869 9.01904 9.55373C9.06192 9.52282 9.09642 9.48169 9.11939 9.43408C9.14237 9.38647 9.1531 9.33388 9.15061 9.28107C9.14813 9.22826 9.13251 9.17691 9.10516 9.13167C9.07782 9.08642 9.03962 9.04872 8.99402 9.02197C8.93167 8.98543 8.86018 8.94691 8.77877 8.9072Z" fill="white"/>
</svg>
