<svg width="97" height="30" viewBox="0 0 97 30" fill="none" xmlns="http://www.w3.org/2000/svg">
<rect x="1.10853" y="1.19057" width="107.211" height="28.0494" rx="14.0247" fill="url(#paint0_linear_9685_47919)" fill-opacity="0.1"/>
<rect x="1.10853" y="1.19057" width="107.211" height="28.0494" rx="14.0247" stroke="url(#paint1_linear_9685_47919)" stroke-width="0.62332"/>
<g clip-path="url(#clip0_9685_47919)">
<mask id="mask0_9685_47919" style="mask-type:luminance" maskUnits="userSpaceOnUse" x="7" y="7" width="17" height="17">
<path d="M7.03125 7.11133H23.2376V23.3176H7.03125V7.11133Z" fill="white"/>
<path d="M17.2036 18.998H17.8073C18.1127 18.998 18.3636 18.7617 18.4 18.4635L19 12.4708H17.1818V10.998H16.4655V12.4708H14.6582L14.7673 13.3217C15.3891 13.4926 15.9709 13.8017 16.32 14.1435C16.8436 14.6599 17.2036 15.1944 17.2036 16.0671V18.998ZM11 18.6344V18.2708H16.4655V18.6344C16.4655 18.8308 16.3018 18.998 16.0909 18.998H11.3636C11.1636 18.998 11 18.8308 11 18.6344ZM16.4655 16.089C16.4655 13.1799 11 13.1799 11 16.089H16.4655ZM11 16.8162H16.4545V17.5435H11V16.8162Z" fill="#1A1A1A"/>
</mask>
<g mask="url(#mask0_9685_47919)">
<path d="M15.1344 23.3196C19.6097 23.3196 23.2376 19.6917 23.2376 15.2164C23.2376 10.7412 19.6097 7.11328 15.1344 7.11328C10.6592 7.11328 7.03125 10.7412 7.03125 15.2164C7.03125 19.6917 10.6592 23.3196 15.1344 23.3196Z" fill="url(#paint2_linear_9685_47919)"/>
</g>
<path d="M34.1827 11.7448V12.4848H31.1527V14.8348H33.6127V15.5748H31.1527V18.7148H30.2427V11.7448H34.1827ZM37.6717 18.8048C37.1584 18.8048 36.6917 18.6882 36.2717 18.4548C35.8584 18.2215 35.5317 17.8915 35.2917 17.4648C35.0584 17.0315 34.9417 16.5315 34.9417 15.9648C34.9417 15.4048 35.0617 14.9115 35.3017 14.4848C35.5484 14.0515 35.8817 13.7215 36.3017 13.4948C36.7217 13.2615 37.1917 13.1448 37.7117 13.1448C38.2317 13.1448 38.7017 13.2615 39.1217 13.4948C39.5417 13.7215 39.8717 14.0482 40.1117 14.4748C40.3584 14.9015 40.4817 15.3982 40.4817 15.9648C40.4817 16.5315 40.3551 17.0315 40.1017 17.4648C39.8551 17.8915 39.5184 18.2215 39.0917 18.4548C38.6651 18.6882 38.1917 18.8048 37.6717 18.8048ZM37.6717 18.0048C37.9984 18.0048 38.3051 17.9282 38.5917 17.7748C38.8784 17.6215 39.1084 17.3915 39.2817 17.0848C39.4617 16.7782 39.5517 16.4048 39.5517 15.9648C39.5517 15.5248 39.4651 15.1515 39.2917 14.8448C39.1184 14.5382 38.8917 14.3115 38.6117 14.1648C38.3317 14.0115 38.0284 13.9348 37.7017 13.9348C37.3684 13.9348 37.0617 14.0115 36.7817 14.1648C36.5084 14.3115 36.2884 14.5382 36.1217 14.8448C35.9551 15.1515 35.8717 15.5248 35.8717 15.9648C35.8717 16.4115 35.9517 16.7882 36.1117 17.0948C36.2784 17.4015 36.4984 17.6315 36.7717 17.7848C37.0451 17.9315 37.3451 18.0048 37.6717 18.0048ZM44.0682 18.8048C43.5549 18.8048 43.0882 18.6882 42.6682 18.4548C42.2549 18.2215 41.9282 17.8915 41.6882 17.4648C41.4549 17.0315 41.3382 16.5315 41.3382 15.9648C41.3382 15.4048 41.4582 14.9115 41.6982 14.4848C41.9449 14.0515 42.2782 13.7215 42.6982 13.4948C43.1182 13.2615 43.5882 13.1448 44.1082 13.1448C44.6282 13.1448 45.0982 13.2615 45.5182 13.4948C45.9382 13.7215 46.2682 14.0482 46.5082 14.4748C46.7549 14.9015 46.8782 15.3982 46.8782 15.9648C46.8782 16.5315 46.7515 17.0315 46.4982 17.4648C46.2515 17.8915 45.9149 18.2215 45.4882 18.4548C45.0615 18.6882 44.5882 18.8048 44.0682 18.8048ZM44.0682 18.0048C44.3949 18.0048 44.7015 17.9282 44.9882 17.7748C45.2749 17.6215 45.5049 17.3915 45.6782 17.0848C45.8582 16.7782 45.9482 16.4048 45.9482 15.9648C45.9482 15.5248 45.8615 15.1515 45.6882 14.8448C45.5149 14.5382 45.2882 14.3115 45.0082 14.1648C44.7282 14.0115 44.4249 13.9348 44.0982 13.9348C43.7649 13.9348 43.4582 14.0115 43.1782 14.1648C42.9049 14.3115 42.6849 14.5382 42.5182 14.8448C42.3515 15.1515 42.2682 15.5248 42.2682 15.9648C42.2682 16.4115 42.3482 16.7882 42.5082 17.0948C42.6749 17.4015 42.8949 17.6315 43.1682 17.7848C43.4415 17.9315 43.7415 18.0048 44.0682 18.0048ZM47.7347 15.9548C47.7347 15.3948 47.848 14.9048 48.0747 14.4848C48.3014 14.0582 48.6114 13.7282 49.0047 13.4948C49.4047 13.2615 49.8514 13.1448 50.3447 13.1448C50.7714 13.1448 51.168 13.2448 51.5347 13.4448C51.9014 13.6382 52.1814 13.8948 52.3747 14.2148V11.3148H53.2947V18.7148H52.3747V17.6848C52.1947 18.0115 51.928 18.2815 51.5747 18.4948C51.2214 18.7015 50.808 18.8048 50.3347 18.8048C49.848 18.8048 49.4047 18.6848 49.0047 18.4448C48.6114 18.2048 48.3014 17.8682 48.0747 17.4348C47.848 17.0015 47.7347 16.5082 47.7347 15.9548ZM52.3747 15.9648C52.3747 15.5515 52.2914 15.1915 52.1247 14.8848C51.958 14.5782 51.7314 14.3448 51.4447 14.1848C51.1647 14.0182 50.8547 13.9348 50.5147 13.9348C50.1747 13.9348 49.8647 14.0148 49.5847 14.1748C49.3047 14.3348 49.0814 14.5682 48.9147 14.8748C48.748 15.1815 48.6647 15.5415 48.6647 15.9548C48.6647 16.3748 48.748 16.7415 48.9147 17.0548C49.0814 17.3615 49.3047 17.5982 49.5847 17.7648C49.8647 17.9248 50.1747 18.0048 50.5147 18.0048C50.8547 18.0048 51.1647 17.9248 51.4447 17.7648C51.7314 17.5982 51.958 17.3615 52.1247 17.0548C52.2914 16.7415 52.3747 16.3782 52.3747 15.9648ZM57.1585 15.2248C57.1585 14.5448 57.3118 13.9348 57.6185 13.3948C57.9252 12.8482 58.3418 12.4215 58.8685 12.1148C59.4018 11.8082 59.9918 11.6548 60.6385 11.6548C61.3985 11.6548 62.0618 11.8382 62.6285 12.2048C63.1952 12.5715 63.6085 13.0915 63.8685 13.7648H62.7785C62.5852 13.3448 62.3052 13.0215 61.9385 12.7948C61.5785 12.5682 61.1452 12.4548 60.6385 12.4548C60.1518 12.4548 59.7152 12.5682 59.3285 12.7948C58.9418 13.0215 58.6385 13.3448 58.4185 13.7648C58.1985 14.1782 58.0885 14.6648 58.0885 15.2248C58.0885 15.7782 58.1985 16.2648 58.4185 16.6848C58.6385 17.0982 58.9418 17.4182 59.3285 17.6448C59.7152 17.8715 60.1518 17.9848 60.6385 17.9848C61.1452 17.9848 61.5785 17.8748 61.9385 17.6548C62.3052 17.4282 62.5852 17.1048 62.7785 16.6848H63.8685C63.6085 17.3515 63.1952 17.8682 62.6285 18.2348C62.0618 18.5948 61.3985 18.7748 60.6385 18.7748C59.9918 18.7748 59.4018 18.6248 58.8685 18.3248C58.3418 18.0182 57.9252 17.5948 57.6185 17.0548C57.3118 16.5148 57.1585 15.9048 57.1585 15.2248ZM64.8831 15.9548C64.8831 15.3948 64.9965 14.9048 65.2231 14.4848C65.4498 14.0582 65.7598 13.7282 66.1531 13.4948C66.5531 13.2615 66.9965 13.1448 67.4831 13.1448C67.9631 13.1448 68.3798 13.2482 68.7331 13.4548C69.0865 13.6615 69.3498 13.9215 69.5231 14.2348V13.2348H70.4431V18.7148H69.5231V17.6948C69.3431 18.0148 69.0731 18.2815 68.7131 18.4948C68.3598 18.7015 67.9465 18.8048 67.4731 18.8048C66.9865 18.8048 66.5465 18.6848 66.1531 18.4448C65.7598 18.2048 65.4498 17.8682 65.2231 17.4348C64.9965 17.0015 64.8831 16.5082 64.8831 15.9548ZM69.5231 15.9648C69.5231 15.5515 69.4398 15.1915 69.2731 14.8848C69.1065 14.5782 68.8798 14.3448 68.5931 14.1848C68.3131 14.0182 68.0031 13.9348 67.6631 13.9348C67.3231 13.9348 67.0131 14.0148 66.7331 14.1748C66.4531 14.3348 66.2298 14.5682 66.0631 14.8748C65.8965 15.1815 65.8131 15.5415 65.8131 15.9548C65.8131 16.3748 65.8965 16.7415 66.0631 17.0548C66.2298 17.3615 66.4531 17.5982 66.7331 17.7648C67.0131 17.9248 67.3231 18.0048 67.6631 18.0048C68.0031 18.0048 68.3131 17.9248 68.5931 17.7648C68.8798 17.5982 69.1065 17.3615 69.2731 17.0548C69.4398 16.7415 69.5231 16.3782 69.5231 15.9648ZM72.8909 14.1248C73.0509 13.8115 73.2776 13.5682 73.5709 13.3948C73.8709 13.2215 74.2343 13.1348 74.6609 13.1348V14.0748H74.4209C73.4009 14.0748 72.8909 14.6282 72.8909 15.7348V18.7148H71.9809V13.2348H72.8909V14.1248ZM75.3714 15.9548C75.3714 15.3948 75.4847 14.9048 75.7114 14.4848C75.9381 14.0582 76.2481 13.7282 76.6414 13.4948C77.0414 13.2615 77.4881 13.1448 77.9814 13.1448C78.4081 13.1448 78.8047 13.2448 79.1714 13.4448C79.5381 13.6382 79.8181 13.8948 80.0114 14.2148V11.3148H80.9314V18.7148H80.0114V17.6848C79.8314 18.0115 79.5647 18.2815 79.2114 18.4948C78.8581 18.7015 78.4447 18.8048 77.9714 18.8048C77.4847 18.8048 77.0414 18.6848 76.6414 18.4448C76.2481 18.2048 75.9381 17.8682 75.7114 17.4348C75.4847 17.0015 75.3714 16.5082 75.3714 15.9548ZM80.0114 15.9648C80.0114 15.5515 79.9281 15.1915 79.7614 14.8848C79.5947 14.5782 79.3681 14.3448 79.0814 14.1848C78.8014 14.0182 78.4914 13.9348 78.1514 13.9348C77.8114 13.9348 77.5014 14.0148 77.2214 14.1748C76.9414 14.3348 76.7181 14.5682 76.5514 14.8748C76.3847 15.1815 76.3014 15.5415 76.3014 15.9548C76.3014 16.3748 76.3847 16.7415 76.5514 17.0548C76.7181 17.3615 76.9414 17.5982 77.2214 17.7648C77.5014 17.9248 77.8114 18.0048 78.1514 18.0048C78.4914 18.0048 78.8014 17.9248 79.0814 17.7648C79.3681 17.5982 79.5947 17.3615 79.7614 17.0548C79.9281 16.7415 80.0114 16.3782 80.0114 15.9648Z" fill="#FAFAFA"/>
</g>
<defs>
<linearGradient id="paint0_linear_9685_47919" x1="13.0029" y1="-3.28375" x2="31.3363" y2="55.4693" gradientUnits="userSpaceOnUse">
<stop stop-color="#FCA509"/>
<stop offset="1" stop-color="#880306"/>
</linearGradient>
<linearGradient id="paint1_linear_9685_47919" x1="13.0029" y1="-3.28375" x2="31.3363" y2="55.4693" gradientUnits="userSpaceOnUse">
<stop stop-color="#FCA509"/>
<stop offset="1" stop-color="#880306"/>
</linearGradient>
<linearGradient id="paint2_linear_9685_47919" x1="15.1344" y1="7.11328" x2="15.1344" y2="23.3196" gradientUnits="userSpaceOnUse">
<stop stop-color="#CCCCCC"/>
<stop offset="1" stop-color="#666666"/>
</linearGradient>
<clipPath id="clip0_9685_47919">
<rect width="81.0316" height="16.2063" fill="white" transform="translate(7.03125 7.11133)"/>
</clipPath>
</defs>
</svg>
