<svg width="16" height="16" viewBox="0 0 16 16" fill="none" xmlns="http://www.w3.org/2000/svg">
<path d="M1.14294 1.85001L6.29294 7.00001V14.07C6.29294 14.47 6.74294 14.71 7.07294 14.49L9.07294 13.16C9.21294 13.07 9.29294 12.91 9.29294 12.74V7.00001L14.4429 1.85001C14.5115 1.78012 14.558 1.69166 14.5767 1.5956C14.5954 1.49953 14.5855 1.40009 14.5483 1.30958C14.511 1.21908 14.448 1.14151 14.367 1.08648C14.2861 1.03145 14.1908 1.00138 14.0929 1.00001H1.50294C1.40422 0.999429 1.30755 1.02808 1.22509 1.08236C1.14263 1.13663 1.07809 1.2141 1.03959 1.305C1.00109 1.3959 0.990363 1.49616 1.00875 1.59315C1.02715 1.69014 1.07383 1.77951 1.14294 1.85001Z" stroke="white"/>
</svg>
