<svg width="21" height="21" viewBox="0 0 21 21" fill="none" xmlns="http://www.w3.org/2000/svg">
<rect x="0.640625" y="0.125" width="20.028" height="20.028" rx="10.014" fill="url(#paint0_linear_9685_30861)"/>
<g clip-path="url(#clip0_9685_30861)">
<path d="M11 13.21L11.06 11.52L12.28 10.32H13.06V11.06L13.97 11.2C14.0433 11.0133 14.1017 10.82 14.1452 10.62C14.1887 10.42 14.2103 10.2133 14.21 10C14.21 9.40667 14.0617 8.86507 13.7652 8.3752C13.4687 7.88533 13.0803 7.50027 12.6 7.22V8.4H11.4V9.6H10.6V10.8H9.79L9 9.6H8.6V10L7.89 10.79C8.06333 11.4833 8.4384 12.06 9.0152 12.52C9.592 12.98 10.2536 13.21 11 13.21ZM12.6 10.8H11.4V10H12.6V10.8ZM12.6 8.4H13.41L13.01 9.6H12.19L12.6 8.4ZM11 14C10.4467 14 9.92667 13.8949 9.44 13.6848C8.95333 13.4747 8.53 13.1897 8.17 12.83C7.81 12.4703 7.52507 12.0469 7.3152 11.56C7.10533 11.0731 7.00027 10.5531 7 10C6.99973 9.44693 7.1048 8.92693 7.3152 8.44C7.5256 7.95307 7.81053 7.52973 8.17 7.17C8.52947 6.81027 8.9528 6.52533 9.44 6.3152C9.9272 6.10507 10.4472 6 11 6C11.5528 6 12.0728 6.10507 12.56 6.3152C13.0472 6.52533 13.4705 6.81027 13.83 7.17C14.1895 7.52973 14.4745 7.95307 14.6852 8.44C14.8959 8.92693 15.0008 9.44693 15 10C14.9992 10.5531 14.8941 11.0731 14.6848 11.56C14.4755 12.0469 14.1905 12.4703 13.83 12.83C13.4695 13.1897 13.0461 13.4748 12.56 13.6852C12.0739 13.8956 11.5539 14.0005 11 14Z" fill="#1A1A1A"/>
</g>
<defs>
<linearGradient id="paint0_linear_9685_30861" x1="10.6546" y1="0.125" x2="10.6546" y2="20.153" gradientUnits="userSpaceOnUse">
<stop stop-color="#CCCCCC"/>
<stop offset="1" stop-color="#666666"/>
</linearGradient>
<clipPath id="clip0_9685_30861">
<rect width="8" height="8" fill="white" transform="matrix(0 1 -1 0 15 6)"/>
</clipPath>
</defs>
</svg>
