<svg width="97" height="30" viewBox="0 0 97 30" fill="none" xmlns="http://www.w3.org/2000/svg">
<rect x="0.897597" y="1.18861" width="107.211" height="28.0494" rx="14.0247" fill="url(#paint0_linear_9685_54573)" fill-opacity="0.1"/>
<rect x="0.897597" y="1.18861" width="107.211" height="28.0494" rx="14.0247" stroke="url(#paint1_linear_9685_54573)" stroke-width="0.62332"/>
<g clip-path="url(#clip0_9685_54573)">
<mask id="mask0_9685_54573" style="mask-type:luminance" maskUnits="userSpaceOnUse" x="6" y="7" width="18" height="17">
<path d="M6.82031 7.10938H23.0266V23.3157H6.82031V7.10938Z" fill="white"/>
<path d="M18.962 12.3003C19.1447 12.5208 19.3017 12.7633 19.4282 13.023C19.3524 13.171 19.2476 13.3023 19.12 13.4089C18.9923 13.5155 18.8445 13.5953 18.6854 13.6435C18.5262 13.6917 18.359 13.7074 18.1937 13.6895C18.0283 13.6717 17.8683 13.6207 17.7231 13.5396L18.962 12.3003ZM18.485 11.8233L17.2457 13.0617C17.1646 12.9165 17.1135 12.7565 17.0956 12.5912C17.0778 12.4259 17.0934 12.2587 17.1415 12.0995C17.1897 11.9404 17.2695 11.7926 17.376 11.6649C17.4826 11.5373 17.6138 11.4325 17.7618 11.3566C18.0206 11.4826 18.2634 11.6391 18.485 11.8228M19.7891 14.5962C19.7891 14.3194 19.7576 14.0499 19.6986 13.7907C19.5205 13.9746 19.3072 14.1207 19.0714 14.2205C18.8356 14.3202 18.5821 14.3714 18.3261 14.3712C17.9355 14.3718 17.5543 14.2522 17.234 14.0287L16.8915 14.3712L19.1559 16.6355C19.5694 16.0359 19.7903 15.3245 19.7891 14.5962ZM16.4141 12.4587C16.4141 11.9205 16.6364 11.434 16.9946 11.0862C16.5085 10.9756 16.0048 10.9667 15.5151 11.0602C15.0254 11.1537 14.5604 11.3474 14.1492 11.6293L16.4141 13.8937L16.7565 13.5513C16.5329 13.2309 16.4134 12.8494 16.4141 12.4587ZM16.4141 14.8482L18.7208 17.1553C18.2684 17.6033 17.7054 17.9233 17.0891 18.0827C17.0909 17.0356 16.7162 16.0227 16.0334 15.2289L16.4141 14.8482ZM15.5564 14.7519C14.7625 14.069 13.7496 13.6944 12.7025 13.6962C12.8618 13.0799 13.1816 12.5169 13.6295 12.0645L15.9371 14.3712L15.5564 14.7519ZM11.8016 14.1462C11.533 14.1462 11.2755 14.2528 11.0856 14.4427C10.8957 14.6326 10.7891 14.8901 10.7891 15.1587V16.0586C10.7891 17.1029 11.2039 18.1044 11.9423 18.8428C12.6808 19.5813 13.6823 19.9961 14.7266 19.9961H15.6266C15.8951 19.9961 16.1526 19.8894 16.3425 19.6995C16.5324 19.5097 16.6391 19.2521 16.6391 18.9836V18.0836C16.6391 17.0393 16.2242 16.0378 15.4858 15.2994C14.7474 14.561 13.7459 14.1462 12.7016 14.1462H11.8016ZM12.9131 16.2701C12.9763 16.2069 13.0621 16.1714 13.1516 16.1714C13.241 16.1714 13.3268 16.2069 13.3901 16.2701L14.5151 17.3951C14.5482 17.426 14.5748 17.4633 14.5933 17.5047C14.6117 17.5461 14.6216 17.5908 14.6224 17.6361C14.6232 17.6814 14.6149 17.7264 14.5979 17.7684C14.5809 17.8105 14.5557 17.8486 14.5236 17.8807C14.4916 17.9127 14.4534 17.938 14.4114 17.955C14.3694 17.9719 14.3243 17.9803 14.279 17.9795C14.2337 17.9787 14.189 17.9688 14.1476 17.9503C14.1062 17.9319 14.069 17.9053 14.0381 17.8721L12.9131 16.7471C12.8499 16.6839 12.8144 16.5981 12.8144 16.5086C12.8144 16.4192 12.8499 16.3334 12.9131 16.2701Z" fill="#1A1A1A"/>
</mask>
<g mask="url(#mask0_9685_54573)">
<path d="M14.9235 23.3176C19.3987 23.3176 23.0266 19.6897 23.0266 15.2145C23.0266 10.7392 19.3987 7.11133 14.9235 7.11133C10.4482 7.11133 6.82031 10.7392 6.82031 15.2145C6.82031 19.6897 10.4482 23.3176 14.9235 23.3176Z" fill="url(#paint2_linear_9685_54573)"/>
</g>
<path d="M34.1641 13.7018C34.0075 13.3723 33.7806 13.1184 33.4835 12.9401C33.1863 12.7565 32.8406 12.6646 32.4463 12.6646C32.0519 12.6646 31.6954 12.7565 31.3766 12.9401C31.0633 13.1184 30.8148 13.3777 30.6312 13.718C30.4529 14.053 30.3637 14.4419 30.3637 14.8849C30.3637 15.3279 30.4529 15.7168 30.6312 16.0517C30.8148 16.3867 31.0633 16.646 31.3766 16.8296C31.6954 17.0079 32.0519 17.0971 32.4463 17.0971C32.9973 17.0971 33.4511 16.9323 33.8076 16.6028C34.1641 16.2732 34.3721 15.8276 34.4315 15.2657H32.1789V14.6661H35.2175V15.2333C35.1743 15.6979 35.0285 16.1247 34.78 16.5136C34.5315 16.8972 34.2046 17.2024 33.7995 17.4293C33.3943 17.6508 32.9433 17.7615 32.4463 17.7615C31.9223 17.7615 31.4442 17.64 31.012 17.3969C30.5798 17.1484 30.2368 16.8053 29.9829 16.3678C29.7344 15.9302 29.6102 15.4359 29.6102 14.8849C29.6102 14.3339 29.7344 13.8396 29.9829 13.402C30.2368 12.959 30.5798 12.616 31.012 12.3729C31.4442 12.1244 31.9223 12.0002 32.4463 12.0002C33.0459 12.0002 33.5753 12.1487 34.0345 12.4458C34.4991 12.743 34.8367 13.1616 35.0474 13.7018H34.1641ZM35.917 15.4764C35.917 15.0226 36.0088 14.6256 36.1925 14.2853C36.3762 13.9395 36.6274 13.6721 36.9461 13.483C37.2702 13.294 37.6295 13.1994 38.0238 13.1994C38.4128 13.1994 38.7504 13.2832 39.0367 13.4506C39.323 13.6181 39.5364 13.8288 39.6769 14.0827V13.2724H40.4224V17.7129H39.6769V16.8864C39.531 17.1457 39.3122 17.3618 39.0205 17.5346C38.7342 17.7021 38.3993 17.7858 38.0157 17.7858C37.6214 17.7858 37.2648 17.6886 36.9461 17.4941C36.6274 17.2996 36.3762 17.0268 36.1925 16.6757C36.0088 16.3245 35.917 15.9248 35.917 15.4764ZM39.6769 15.4845C39.6769 15.1496 39.6093 14.8579 39.4743 14.6094C39.3392 14.3609 39.1556 14.1718 38.9233 14.0422C38.6964 13.9071 38.4452 13.8396 38.1697 13.8396C37.8942 13.8396 37.643 13.9044 37.4161 14.0341C37.1892 14.1637 37.0082 14.3528 36.8732 14.6013C36.7381 14.8498 36.6706 15.1415 36.6706 15.4764C36.6706 15.8168 36.7381 16.1139 36.8732 16.3678C37.0082 16.6163 37.1892 16.808 37.4161 16.9431C37.643 17.0727 37.8942 17.1376 38.1697 17.1376C38.4452 17.1376 38.6964 17.0727 38.9233 16.9431C39.1556 16.808 39.3392 16.6163 39.4743 16.3678C39.6093 16.1139 39.6769 15.8195 39.6769 15.4845ZM47.0085 13.1913C47.3542 13.1913 47.6621 13.2643 47.9322 13.4101C48.2023 13.5506 48.4157 13.764 48.5724 14.0503C48.729 14.3366 48.8074 14.685 48.8074 15.0956V17.7129H48.0781V15.2009C48.0781 14.7579 47.9673 14.4203 47.7458 14.188C47.5298 13.9503 47.2353 13.8315 46.8626 13.8315C46.4791 13.8315 46.1738 13.9557 45.9469 14.2042C45.7201 14.4473 45.6066 14.8012 45.6066 15.2657V17.7129H44.8773V15.2009C44.8773 14.7579 44.7666 14.4203 44.5451 14.188C44.329 13.9503 44.0346 13.8315 43.6619 13.8315C43.2783 13.8315 42.9731 13.9557 42.7462 14.2042C42.5193 14.4473 42.4059 14.8012 42.4059 15.2657V17.7129H41.6685V13.2724H42.4059V13.9125C42.5517 13.6802 42.7462 13.5019 42.9893 13.3777C43.2378 13.2535 43.5106 13.1913 43.8077 13.1913C44.1805 13.1913 44.51 13.2751 44.7963 13.4425C45.0826 13.61 45.296 13.8558 45.4364 14.1799C45.5607 13.8666 45.766 13.6235 46.0523 13.4506C46.3386 13.2778 46.6573 13.1913 47.0085 13.1913ZM50.3978 12.5512C50.2573 12.5512 50.1385 12.5026 50.0413 12.4053C49.944 12.3081 49.8954 12.1892 49.8954 12.0488C49.8954 11.9083 49.944 11.7895 50.0413 11.6922C50.1385 11.595 50.2573 11.5464 50.3978 11.5464C50.5328 11.5464 50.6463 11.595 50.7381 11.6922C50.8354 11.7895 50.884 11.9083 50.884 12.0488C50.884 12.1892 50.8354 12.3081 50.7381 12.4053C50.6463 12.5026 50.5328 12.5512 50.3978 12.5512ZM50.7543 13.2724V17.7129H50.0169V13.2724H50.7543ZM54.1746 13.1913C54.7148 13.1913 55.1524 13.3561 55.4873 13.6856C55.8223 14.0097 55.9897 14.4797 55.9897 15.0956V17.7129H55.2604V15.2009C55.2604 14.7579 55.1497 14.4203 54.9282 14.188C54.7067 13.9503 54.4042 13.8315 54.0207 13.8315C53.6317 13.8315 53.3211 13.953 53.0888 14.1961C52.8619 14.4392 52.7485 14.7931 52.7485 15.2576V17.7129H52.0111V13.2724H52.7485V13.9044C52.8943 13.6775 53.0915 13.5019 53.34 13.3777C53.5939 13.2535 53.8721 13.1913 54.1746 13.1913ZM59.0256 13.1994C59.4091 13.1994 59.744 13.2832 60.0304 13.4506C60.3221 13.6181 60.5382 13.8288 60.6786 14.0827V13.2724H61.4241V17.8101C61.4241 18.2153 61.3377 18.5745 61.1648 18.8878C60.9919 19.2066 60.7434 19.4551 60.4193 19.6333C60.1006 19.8116 59.7278 19.9007 59.3011 19.9007C58.7176 19.9007 58.2315 19.763 57.8425 19.4875C57.4536 19.212 57.224 18.8365 57.1537 18.3611H57.883C57.9641 18.6312 58.1315 18.8473 58.3854 19.0094C58.6393 19.1769 58.9445 19.2606 59.3011 19.2606C59.7062 19.2606 60.0358 19.1336 60.2897 18.8797C60.549 18.6258 60.6786 18.2693 60.6786 17.8101V16.8783C60.5328 17.1376 60.3167 17.3537 60.0304 17.5265C59.744 17.6994 59.4091 17.7858 59.0256 17.7858C58.6312 17.7858 58.272 17.6886 57.9478 17.4941C57.6291 17.2996 57.3779 17.0268 57.1943 16.6757C57.0106 16.3245 56.9187 15.9248 56.9187 15.4764C56.9187 15.0226 57.0106 14.6256 57.1943 14.2853C57.3779 13.9395 57.6291 13.6721 57.9478 13.483C58.272 13.294 58.6312 13.1994 59.0256 13.1994ZM60.6786 15.4845C60.6786 15.1496 60.6111 14.8579 60.476 14.6094C60.341 14.3609 60.1573 14.1718 59.925 14.0422C59.6981 13.9071 59.4469 13.8396 59.1714 13.8396C58.8959 13.8396 58.6447 13.9044 58.4178 14.0341C58.1909 14.1637 58.01 14.3528 57.8749 14.6013C57.7399 14.8498 57.6723 15.1415 57.6723 15.4764C57.6723 15.8168 57.7399 16.1139 57.8749 16.3678C58.01 16.6163 58.1909 16.808 58.4178 16.9431C58.6447 17.0727 58.8959 17.1376 59.1714 17.1376C59.4469 17.1376 59.6981 17.0727 59.925 16.9431C60.1573 16.808 60.341 16.6163 60.476 16.3678C60.6111 16.1139 60.6786 15.8195 60.6786 15.4845ZM64.555 14.8849C64.555 14.3339 64.6793 13.8396 64.9278 13.402C65.1763 12.959 65.5139 12.6133 65.9407 12.3648C66.3728 12.1163 66.8509 11.9921 67.3749 11.9921C67.9908 11.9921 68.5283 12.1406 68.9875 12.4377C69.4466 12.7349 69.7816 13.1562 69.9922 13.7018H69.109C68.9523 13.3615 68.7255 13.0995 68.4283 12.9158C68.1366 12.7321 67.7855 12.6403 67.3749 12.6403C66.9806 12.6403 66.6267 12.7321 66.3134 12.9158C66.0001 13.0995 65.7543 13.3615 65.576 13.7018C65.3978 14.0368 65.3086 14.4311 65.3086 14.8849C65.3086 15.3333 65.3978 15.7276 65.576 16.0679C65.7543 16.4029 66.0001 16.6622 66.3134 16.8459C66.6267 17.0295 66.9806 17.1214 67.3749 17.1214C67.7855 17.1214 68.1366 17.0322 68.4283 16.854C68.7255 16.6703 68.9523 16.4083 69.109 16.0679H69.9922C69.7816 16.6082 69.4466 17.0268 68.9875 17.3239C68.5283 17.6157 67.9908 17.7615 67.3749 17.7615C66.8509 17.7615 66.3728 17.64 65.9407 17.3969C65.5139 17.1484 65.1763 16.8053 64.9278 16.3678C64.6793 15.9302 64.555 15.4359 64.555 14.8849ZM70.8144 15.4764C70.8144 15.0226 70.9062 14.6256 71.0899 14.2853C71.2736 13.9395 71.5248 13.6721 71.8435 13.483C72.1676 13.294 72.5269 13.1994 72.9212 13.1994C73.3102 13.1994 73.6478 13.2832 73.9341 13.4506C74.2204 13.6181 74.4338 13.8288 74.5743 14.0827V13.2724H75.3198V17.7129H74.5743V16.8864C74.4284 17.1457 74.2096 17.3618 73.9179 17.5346C73.6316 17.7021 73.2967 17.7858 72.9131 17.7858C72.5188 17.7858 72.1622 17.6886 71.8435 17.4941C71.5248 17.2996 71.2736 17.0268 71.0899 16.6757C70.9062 16.3245 70.8144 15.9248 70.8144 15.4764ZM74.5743 15.4845C74.5743 15.1496 74.5067 14.8579 74.3717 14.6094C74.2366 14.3609 74.053 14.1718 73.8207 14.0422C73.5938 13.9071 73.3426 13.8396 73.0671 13.8396C72.7916 13.8396 72.5404 13.9044 72.3135 14.0341C72.0866 14.1637 71.9056 14.3528 71.7706 14.6013C71.6355 14.8498 71.568 15.1415 71.568 15.4764C71.568 15.8168 71.6355 16.1139 71.7706 16.3678C71.9056 16.6163 72.0866 16.808 72.3135 16.9431C72.5404 17.0727 72.7916 17.1376 73.0671 17.1376C73.3426 17.1376 73.5938 17.0727 73.8207 16.9431C74.053 16.808 74.2366 16.6163 74.3717 16.3678C74.5067 16.1139 74.5743 15.8195 74.5743 15.4845ZM77.3033 13.9935C77.4329 13.7396 77.6166 13.5425 77.8543 13.402C78.0974 13.2616 78.3918 13.1913 78.7375 13.1913V13.953H78.543C77.7165 13.953 77.3033 14.4014 77.3033 15.2981V17.7129H76.5659V13.2724H77.3033V13.9935ZM79.3132 15.4764C79.3132 15.0226 79.4051 14.6256 79.5887 14.2853C79.7724 13.9395 80.0236 13.6721 80.3423 13.483C80.6664 13.294 81.0284 13.1994 81.4281 13.1994C81.7739 13.1994 82.0953 13.2805 82.3924 13.4425C82.6895 13.5992 82.9164 13.8072 83.0731 14.0665V11.7166H83.8186V17.7129H83.0731V16.8783C82.9272 17.143 82.7111 17.3618 82.4248 17.5346C82.1385 17.7021 81.8036 17.7858 81.42 17.7858C81.0257 17.7858 80.6664 17.6886 80.3423 17.4941C80.0236 17.2996 79.7724 17.0268 79.5887 16.6757C79.4051 16.3245 79.3132 15.9248 79.3132 15.4764ZM83.0731 15.4845C83.0731 15.1496 83.0056 14.8579 82.8705 14.6094C82.7354 14.3609 82.5518 14.1718 82.3195 14.0422C82.0926 13.9071 81.8414 13.8396 81.5659 13.8396C81.2904 13.8396 81.0392 13.9044 80.8123 14.0341C80.5854 14.1637 80.4044 14.3528 80.2694 14.6013C80.1343 14.8498 80.0668 15.1415 80.0668 15.4764C80.0668 15.8168 80.1343 16.1139 80.2694 16.3678C80.4044 16.6163 80.5854 16.808 80.8123 16.9431C81.0392 17.0727 81.2904 17.1376 81.5659 17.1376C81.8414 17.1376 82.0926 17.0727 82.3195 16.9431C82.5518 16.808 82.7354 16.6163 82.8705 16.3678C83.0056 16.1139 83.0731 15.8195 83.0731 15.4845ZM86.6367 17.7858C86.2964 17.7858 85.9911 17.7291 85.721 17.6157C85.4509 17.4968 85.2376 17.3347 85.0809 17.1295C84.9242 16.9188 84.8378 16.6784 84.8216 16.4083H85.5833C85.6049 16.6298 85.7075 16.8107 85.8912 16.9512C86.0803 17.0916 86.3261 17.1619 86.6286 17.1619C86.9095 17.1619 87.131 17.0998 87.2931 16.9755C87.4551 16.8513 87.5361 16.6946 87.5361 16.5055C87.5361 16.311 87.4497 16.1679 87.2768 16.0761C87.104 15.9788 86.8366 15.8843 86.4746 15.7924C86.1451 15.706 85.875 15.6196 85.6643 15.5331C85.459 15.4413 85.2808 15.309 85.1295 15.1361C84.9837 14.9578 84.9107 14.7255 84.9107 14.4392C84.9107 14.2123 84.9783 14.0043 85.1133 13.8153C85.2484 13.6262 85.4401 13.4776 85.6886 13.3696C85.9371 13.2562 86.2207 13.1994 86.5395 13.1994C87.0311 13.1994 87.4281 13.3237 87.7306 13.5722C88.0331 13.8207 88.1952 14.161 88.2168 14.5932H87.4794C87.4632 14.3609 87.3687 14.1745 87.1958 14.0341C87.0284 13.8936 86.8015 13.8234 86.5152 13.8234C86.2504 13.8234 86.0398 13.8801 85.8831 13.9935C85.7264 14.107 85.6481 14.2555 85.6481 14.4392C85.6481 14.5851 85.694 14.7066 85.7859 14.8039C85.8831 14.8957 86.002 14.9713 86.1424 15.0307C86.2883 15.0848 86.4881 15.1469 86.742 15.2171C87.0608 15.3036 87.3201 15.39 87.5199 15.4764C87.7198 15.5575 87.89 15.6817 88.0304 15.8492C88.1763 16.0166 88.2519 16.2354 88.2573 16.5055C88.2573 16.7486 88.1898 16.9674 88.0548 17.1619C87.9197 17.3564 87.7279 17.5103 87.4794 17.6238C87.2363 17.7318 86.9554 17.7858 86.6367 17.7858Z" fill="#FAFAFA"/>
</g>
<defs>
<linearGradient id="paint0_linear_9685_54573" x1="12.792" y1="-3.28571" x2="31.1254" y2="55.4674" gradientUnits="userSpaceOnUse">
<stop stop-color="#FCA509"/>
<stop offset="1" stop-color="#880306"/>
</linearGradient>
<linearGradient id="paint1_linear_9685_54573" x1="12.792" y1="-3.28571" x2="31.1254" y2="55.4674" gradientUnits="userSpaceOnUse">
<stop stop-color="#FCA509"/>
<stop offset="1" stop-color="#880306"/>
</linearGradient>
<linearGradient id="paint2_linear_9685_54573" x1="14.9235" y1="7.11133" x2="14.9235" y2="23.3176" gradientUnits="userSpaceOnUse">
<stop stop-color="#CCCCCC"/>
<stop offset="1" stop-color="#666666"/>
</linearGradient>
<clipPath id="clip0_9685_54573">
<rect width="81.0316" height="16.2063" fill="white" transform="translate(6.82031 7.10938)"/>
</clipPath>
</defs>
</svg>
