<svg width="110" height="33" viewBox="0 0 110 33" fill="none" xmlns="http://www.w3.org/2000/svg">
<rect x="0.373782" y="0.369876" width="121.862" height="31.8826" rx="15.9413" fill="url(#paint0_linear_9685_28637)" fill-opacity="0.1"/>
<rect x="0.373782" y="0.369876" width="121.862" height="31.8826" rx="15.9413" stroke="url(#paint1_linear_9685_28637)" stroke-width="0.708502"/>
<g clip-path="url(#clip0_9685_28637)">
<mask id="mask0_9685_28637" style="mask-type:luminance" maskUnits="userSpaceOnUse" x="7" y="7" width="19" height="19">
<path d="M7.10547 7.10156H25.5265V25.5226H7.10547V7.10156Z" fill="white"/>
</mask>
<g mask="url(#mask0_9685_28637)">
<path d="M16.316 25.5226C21.4028 25.5226 25.5265 21.3989 25.5265 16.3121C25.5265 11.2253 21.4028 7.10156 16.316 7.10156C11.2292 7.10156 7.10547 11.2253 7.10547 16.3121C7.10547 21.3989 11.2292 25.5226 16.316 25.5226Z" fill="url(#paint2_linear_9685_28637)"/>
<path d="M19.24 15.5557C19.1086 15.389 18.9486 15.2446 18.8 15.1001C18.4173 14.7668 17.9831 14.5279 17.6174 14.1779C16.7661 13.3667 16.5776 12.0278 17.1204 11C16.5776 11.1278 16.1034 11.4167 15.6978 11.7334C14.218 12.8889 13.6353 14.9279 14.3323 16.6779C14.3551 16.7335 14.378 16.7891 14.378 16.8613C14.378 16.9835 14.2923 17.0946 14.178 17.1391C14.0466 17.1946 13.9095 17.1613 13.801 17.0724C13.7685 17.046 13.7414 17.014 13.721 16.9779C13.0754 16.1835 12.9725 15.0446 13.4067 14.1334C12.4526 14.889 11.9327 16.1668 12.007 17.3724C12.0413 17.6502 12.0756 17.928 12.1727 18.2058C12.2527 18.5391 12.4069 18.8724 12.5783 19.1669C13.1954 20.128 14.2637 20.8169 15.4121 20.9558C16.6347 21.1058 17.9431 20.8892 18.88 20.0669C19.9256 19.1447 20.2912 17.6669 19.7542 16.4002L19.6799 16.2557C19.5599 16.0001 19.24 15.5557 19.24 15.5557ZM17.4346 19.0558C17.2746 19.1891 17.0118 19.3336 16.8061 19.3891C16.1662 19.6114 15.5264 19.3002 15.1493 18.9336C15.8292 18.778 16.2348 18.2891 16.3548 17.7946C16.4519 17.3502 16.2691 16.9835 16.1948 16.5557C16.1262 16.1446 16.1377 15.7946 16.2919 15.4112C16.4005 15.6224 16.5147 15.8335 16.6519 16.0001C17.0918 16.5557 17.7831 16.8002 17.9316 17.5557C17.9545 17.6335 17.9659 17.7113 17.9659 17.7946C17.9831 18.2502 17.7774 18.7502 17.4346 19.0558Z" fill="black"/>
</g>
<path d="M38.6633 14.3625C38.4699 13.9558 38.1899 13.6425 37.8233 13.4225C37.4566 13.1958 37.0299 13.0825 36.5433 13.0825C36.0566 13.0825 35.6166 13.1958 35.2233 13.4225C34.8366 13.6425 34.5299 13.9625 34.3033 14.3825C34.0833 14.7958 33.9733 15.2758 33.9733 15.8225C33.9733 16.3692 34.0833 16.8492 34.3033 17.2625C34.5299 17.6758 34.8366 17.9958 35.2233 18.2225C35.6166 18.4425 36.0566 18.5525 36.5433 18.5525C37.2233 18.5525 37.7833 18.3492 38.2233 17.9425C38.6633 17.5358 38.9199 16.9858 38.9933 16.2925H36.2133V15.5525H39.9633V16.2525C39.9099 16.8258 39.7299 17.3525 39.4233 17.8325C39.1166 18.3058 38.7133 18.6825 38.2133 18.9625C37.7133 19.2358 37.1566 19.3725 36.5433 19.3725C35.8966 19.3725 35.3066 19.2225 34.7733 18.9225C34.2399 18.6158 33.8166 18.1925 33.5033 17.6525C33.1966 17.1125 33.0433 16.5025 33.0433 15.8225C33.0433 15.1425 33.1966 14.5325 33.5033 13.9925C33.8166 13.4458 34.2399 13.0225 34.7733 12.7225C35.3066 12.4158 35.8966 12.2625 36.5433 12.2625C37.2833 12.2625 37.9366 12.4458 38.5033 12.8125C39.0766 13.1792 39.4933 13.6958 39.7533 14.3625H38.6633ZM40.8265 16.5525C40.8265 15.9925 40.9398 15.5025 41.1665 15.0825C41.3932 14.6558 41.7032 14.3258 42.0965 14.0925C42.4965 13.8592 42.9398 13.7425 43.4265 13.7425C43.9065 13.7425 44.3232 13.8458 44.6765 14.0525C45.0298 14.2592 45.2932 14.5192 45.4665 14.8325V13.8325H46.3865V19.3125H45.4665V18.2925C45.2865 18.6125 45.0165 18.8792 44.6565 19.0925C44.3032 19.2992 43.8898 19.4025 43.4165 19.4025C42.9298 19.4025 42.4898 19.2825 42.0965 19.0425C41.7032 18.8025 41.3932 18.4658 41.1665 18.0325C40.9398 17.5992 40.8265 17.1058 40.8265 16.5525ZM45.4665 16.5625C45.4665 16.1492 45.3832 15.7892 45.2165 15.4825C45.0498 15.1758 44.8232 14.9425 44.5365 14.7825C44.2565 14.6158 43.9465 14.5325 43.6065 14.5325C43.2665 14.5325 42.9565 14.6125 42.6765 14.7725C42.3965 14.9325 42.1732 15.1658 42.0065 15.4725C41.8398 15.7792 41.7565 16.1392 41.7565 16.5525C41.7565 16.9725 41.8398 17.3392 42.0065 17.6525C42.1732 17.9592 42.3965 18.1958 42.6765 18.3625C42.9565 18.5225 43.2665 18.6025 43.6065 18.6025C43.9465 18.6025 44.2565 18.5225 44.5365 18.3625C44.8232 18.1958 45.0498 17.9592 45.2165 17.6525C45.3832 17.3392 45.4665 16.9758 45.4665 16.5625ZM49.8643 19.4025C49.4443 19.4025 49.0676 19.3325 48.7343 19.1925C48.401 19.0458 48.1376 18.8458 47.9443 18.5925C47.751 18.3325 47.6443 18.0358 47.6243 17.7025H48.5643C48.591 17.9758 48.7176 18.1992 48.9443 18.3725C49.1776 18.5458 49.481 18.6325 49.8543 18.6325C50.201 18.6325 50.4743 18.5558 50.6743 18.4025C50.8743 18.2492 50.9743 18.0558 50.9743 17.8225C50.9743 17.5825 50.8676 17.4058 50.6543 17.2925C50.441 17.1725 50.111 17.0558 49.6643 16.9425C49.2576 16.8358 48.9243 16.7292 48.6643 16.6225C48.411 16.5092 48.191 16.3458 48.0043 16.1325C47.8243 15.9125 47.7343 15.6258 47.7343 15.2725C47.7343 14.9925 47.8176 14.7358 47.9843 14.5025C48.151 14.2692 48.3876 14.0858 48.6943 13.9525C49.001 13.8125 49.351 13.7425 49.7443 13.7425C50.351 13.7425 50.841 13.8958 51.2143 14.2025C51.5876 14.5092 51.7876 14.9292 51.8143 15.4625H50.9043C50.8843 15.1758 50.7676 14.9458 50.5543 14.7725C50.3476 14.5992 50.0676 14.5125 49.7143 14.5125C49.3876 14.5125 49.1276 14.5825 48.9343 14.7225C48.741 14.8625 48.6443 15.0458 48.6443 15.2725C48.6443 15.4525 48.701 15.6025 48.8143 15.7225C48.9343 15.8358 49.081 15.9292 49.2543 16.0025C49.4343 16.0692 49.681 16.1458 49.9943 16.2325C50.3876 16.3392 50.7076 16.4458 50.9543 16.5525C51.201 16.6525 51.411 16.8058 51.5843 17.0125C51.7643 17.2192 51.8576 17.4892 51.8643 17.8225C51.8643 18.1225 51.781 18.3925 51.6143 18.6325C51.4476 18.8725 51.211 19.0625 50.9043 19.2025C50.6043 19.3358 50.2576 19.4025 49.8643 19.4025ZM59.3049 15.7225C59.5583 15.7625 59.7883 15.8658 59.9949 16.0325C60.2083 16.1992 60.3749 16.4058 60.4949 16.6525C60.6216 16.8992 60.6849 17.1625 60.6849 17.4425C60.6849 17.7958 60.5949 18.1158 60.4149 18.4025C60.2349 18.6825 59.9716 18.9058 59.6249 19.0725C59.2849 19.2325 58.8816 19.3125 58.4149 19.3125H55.8149V12.3425H58.3149C58.7883 12.3425 59.1916 12.4225 59.5249 12.5825C59.8583 12.7358 60.1083 12.9458 60.2749 13.2125C60.4416 13.4792 60.5249 13.7792 60.5249 14.1125C60.5249 14.5258 60.4116 14.8692 60.1849 15.1425C59.9649 15.4092 59.6716 15.6025 59.3049 15.7225ZM56.7249 15.3525H58.2549C58.6816 15.3525 59.0116 15.2525 59.2449 15.0525C59.4783 14.8525 59.5949 14.5758 59.5949 14.2225C59.5949 13.8692 59.4783 13.5925 59.2449 13.3925C59.0116 13.1925 58.6749 13.0925 58.2349 13.0925H56.7249V15.3525ZM58.3349 18.5625C58.7883 18.5625 59.1416 18.4558 59.3949 18.2425C59.6483 18.0292 59.7749 17.7325 59.7749 17.3525C59.7749 16.9658 59.6416 16.6625 59.3749 16.4425C59.1083 16.2158 58.7516 16.1025 58.3049 16.1025H56.7249V18.5625H58.3349ZM62.4177 12.9425C62.2444 12.9425 62.0977 12.8825 61.9777 12.7625C61.8577 12.6425 61.7977 12.4958 61.7977 12.3225C61.7977 12.1492 61.8577 12.0025 61.9777 11.8825C62.0977 11.7625 62.2444 11.7025 62.4177 11.7025C62.5844 11.7025 62.7244 11.7625 62.8377 11.8825C62.9577 12.0025 63.0177 12.1492 63.0177 12.3225C63.0177 12.4958 62.9577 12.6425 62.8377 12.7625C62.7244 12.8825 62.5844 12.9425 62.4177 12.9425ZM62.8577 13.8325V19.3125H61.9477V13.8325H62.8577ZM65.3187 11.9125V19.3125H64.4087V11.9125H65.3187ZM67.7796 11.9125V19.3125H66.8696V11.9125H67.7796Z" fill="#FAFAFA"/>
</g>
<defs>
<linearGradient id="paint0_linear_9685_28637" x1="13.8936" y1="-4.7159" x2="34.7325" y2="62.0663" gradientUnits="userSpaceOnUse">
<stop stop-color="#FCA509"/>
<stop offset="1" stop-color="#880306"/>
</linearGradient>
<linearGradient id="paint1_linear_9685_28637" x1="13.8936" y1="-4.7159" x2="34.7325" y2="62.0663" gradientUnits="userSpaceOnUse">
<stop stop-color="#FCA509"/>
<stop offset="1" stop-color="#880306"/>
</linearGradient>
<linearGradient id="paint2_linear_9685_28637" x1="16.316" y1="7.10156" x2="16.316" y2="25.5226" gradientUnits="userSpaceOnUse">
<stop stop-color="#CCCCCC"/>
<stop offset="1" stop-color="#666666"/>
</linearGradient>
<clipPath id="clip0_9685_28637">
<rect width="92.1053" height="18.4211" fill="white" transform="translate(7.10547 7.10156)"/>
</clipPath>
</defs>
</svg>
