<svg width="32" height="32" viewBox="0 0 32 32" fill="none" xmlns="http://www.w3.org/2000/svg">
<rect width="32" height="32" rx="16" fill="#44444A"/>
<path d="M16 18C17.1046 18 18 17.1046 18 16C18 14.8954 17.1046 14 16 14C14.8954 14 14 14.8954 14 16C14 17.1046 14.8954 18 16 18Z" stroke="#EDF1F3" stroke-miterlimit="10" stroke-linecap="round" stroke-linejoin="round"/>
<path d="M9.33203 16.5863V15.413C9.33203 14.7196 9.8987 14.1463 10.5987 14.1463C11.8054 14.1463 12.2987 13.293 11.692 12.2463C11.3454 11.6463 11.552 10.8663 12.1587 10.5196L13.312 9.85963C13.8387 9.5463 14.5187 9.73297 14.832 10.2596L14.9054 10.3863C15.5054 11.433 16.492 11.433 17.0987 10.3863L17.172 10.2596C17.4854 9.73297 18.1654 9.5463 18.692 9.85963L19.8454 10.5196C20.452 10.8663 20.6587 11.6463 20.312 12.2463C19.7054 13.293 20.1987 14.1463 21.4054 14.1463C22.0987 14.1463 22.672 14.713 22.672 15.413V16.5863C22.672 17.2796 22.1054 17.853 21.4054 17.853C20.1987 17.853 19.7054 18.7063 20.312 19.753C20.6587 20.3596 20.452 21.133 19.8454 21.4796L18.692 22.1396C18.1654 22.453 17.4854 22.2663 17.172 21.7396L17.0987 21.613C16.4987 20.5663 15.512 20.5663 14.9054 21.613L14.832 21.7396C14.5187 22.2663 13.8387 22.453 13.312 22.1396L12.1587 21.4796C11.552 21.133 11.3454 20.353 11.692 19.753C12.2987 18.7063 11.8054 17.853 10.5987 17.853C9.8987 17.853 9.33203 17.2796 9.33203 16.5863Z" stroke="#EDF1F3" stroke-miterlimit="10" stroke-linecap="round" stroke-linejoin="round"/>
</svg>
