<svg width="48" height="61" viewBox="0 0 48 61" fill="none" xmlns="http://www.w3.org/2000/svg">
<path d="M16.25 27V31C16.25 34.3 16.25 35.95 17.275 36.975C18.3 38 19.95 38 23.25 38H25.25C28.55 38 30.2 38 31.225 36.975C32.25 35.95 32.25 34.3 32.25 31V27M24.25 21.857C24.25 20.8341 23.8436 19.853 23.1203 19.1297C22.397 18.4064 21.4159 18 20.393 18H20.036C19.05 18 18.25 18.799 18.25 19.786C18.25 20.6384 18.5886 21.4559 19.1914 22.0586C19.7941 22.6614 20.6116 23 21.464 23H24.25M24.25 21.857V23M24.25 21.857C24.25 20.8341 24.6564 19.853 25.3797 19.1297C26.103 18.4064 27.0841 18 28.107 18H28.464C29.45 18 30.25 18.799 30.25 19.786C30.25 20.2081 30.1669 20.626 30.0053 21.0159C29.8438 21.4059 29.6071 21.7602 29.3086 22.0586C29.0102 22.3571 28.6559 22.5938 28.2659 22.7553C27.876 22.9169 27.4581 23 27.036 23H24.25M24.25 27V38M15.25 25C15.25 24.252 15.25 23.878 15.451 23.6C15.5936 23.409 15.7825 23.2575 16 23.16C16.348 23 16.815 23 17.75 23H30.75C31.685 23 32.152 23 32.5 23.16C32.728 23.266 32.917 23.418 33.049 23.6C33.25 23.878 33.25 24.252 33.25 25C33.25 25.748 33.25 26.121 33.049 26.4C32.9064 26.591 32.7175 26.7425 32.5 26.84C32.152 27 31.685 27 30.75 27H17.75C16.815 27 16.348 27 16 26.84C15.7825 26.7425 15.5936 26.591 15.451 26.4C15.25 26.121 15.25 25.748 15.25 25Z" stroke="url(#paint0_linear_11855_2800)" stroke-width="1.5" stroke-linecap="round" stroke-linejoin="round"/>
<path d="M5.60227 52C5.52415 51.7609 5.42116 51.5466 5.29332 51.3572C5.16785 51.1655 5.01752 51.0021 4.84233 50.8672C4.66951 50.7322 4.47301 50.6293 4.25284 50.5582C4.03267 50.4872 3.79119 50.4517 3.52841 50.4517C3.09754 50.4517 2.70573 50.563 2.35298 50.7855C2.00024 51.008 1.7197 51.3359 1.51136 51.7692C1.30303 52.2024 1.19886 52.7339 1.19886 53.3636C1.19886 53.9934 1.30421 54.5249 1.51491 54.9581C1.72562 55.3913 2.01089 55.7192 2.37074 55.9418C2.73059 56.1643 3.13542 56.2756 3.58523 56.2756C4.00189 56.2756 4.36884 56.1868 4.68608 56.0092C5.00568 55.8293 5.25426 55.576 5.43182 55.2493C5.61174 54.9202 5.7017 54.5331 5.7017 54.0881L5.97159 54.1449H3.78409V53.3636H6.55398V54.1449C6.55398 54.7438 6.42614 55.2647 6.17045 55.7074C5.91714 56.1501 5.56676 56.4934 5.11932 56.7372C4.67424 56.9787 4.16288 57.0994 3.58523 57.0994C2.94129 57.0994 2.37547 56.9479 1.88778 56.6449C1.40246 56.3419 1.02367 55.911 0.75142 55.3523C0.481534 54.7936 0.346591 54.1307 0.346591 53.3636C0.346591 52.7884 0.423532 52.2711 0.577415 51.8118C0.733665 51.3501 0.953835 50.9571 1.23793 50.6328C1.52202 50.3085 1.85819 50.0599 2.24645 49.8871C2.63471 49.7143 3.06203 49.6278 3.52841 49.6278C3.91193 49.6278 4.26941 49.6858 4.60085 49.8018C4.93466 49.9155 5.23177 50.0777 5.49219 50.2884C5.75497 50.4967 5.97396 50.7464 6.14915 51.0376C6.32434 51.3265 6.44508 51.6473 6.51136 52H5.60227ZM8.29048 57V51.5455H9.12855V57H8.29048ZM8.71662 50.6364C8.55327 50.6364 8.41241 50.5807 8.29403 50.4695C8.17803 50.3582 8.12003 50.2244 8.12003 50.0682C8.12003 49.9119 8.17803 49.7782 8.29403 49.6669C8.41241 49.5556 8.55327 49.5 8.71662 49.5C8.87997 49.5 9.01965 49.5556 9.13565 49.6669C9.25402 49.7782 9.31321 49.9119 9.31321 50.0682C9.31321 50.2244 9.25402 50.3582 9.13565 50.4695C9.01965 50.5807 8.87997 50.6364 8.71662 50.6364ZM13.0925 51.5455V52.2557H10.1522V51.5455H13.0925ZM11.0328 57V50.7926C11.0328 50.4801 11.1062 50.2197 11.253 50.0114C11.3998 49.803 11.5904 49.6468 11.8248 49.5426C12.0591 49.4384 12.3065 49.3864 12.5669 49.3864C12.7729 49.3864 12.941 49.4029 13.0712 49.4361C13.2014 49.4692 13.2985 49.5 13.3624 49.5284L13.1209 50.2528C13.0783 50.2386 13.0191 50.2209 12.9434 50.1996C12.87 50.1783 12.7729 50.1676 12.6522 50.1676C12.3752 50.1676 12.1751 50.2375 12.052 50.3771C11.9313 50.5168 11.8709 50.7216 11.8709 50.9915V57H11.0328ZM16.6392 51.5455V52.2557H13.8125V51.5455H16.6392ZM14.6364 50.2386H15.4744V55.4375C15.4744 55.6742 15.5088 55.8518 15.5774 55.9702C15.6484 56.0862 15.7384 56.1643 15.8473 56.2045C15.9586 56.2424 16.0758 56.2614 16.1989 56.2614C16.2912 56.2614 16.367 56.2566 16.4261 56.2472C16.4853 56.2353 16.5327 56.2259 16.5682 56.2188L16.7386 56.9716C16.6818 56.9929 16.6025 57.0142 16.5007 57.0355C16.3989 57.0592 16.2699 57.071 16.1136 57.071C15.8769 57.071 15.6449 57.0201 15.4176 56.9183C15.1927 56.8165 15.0057 56.6615 14.8565 56.4531C14.7098 56.2448 14.6364 55.982 14.6364 55.6648V50.2386ZM26.6783 52H25.7976C25.7455 51.7467 25.6544 51.5241 25.5241 51.3324C25.3963 51.1406 25.2401 50.9796 25.0554 50.8494C24.8731 50.7169 24.6707 50.6174 24.4482 50.5511C24.2256 50.4848 23.9936 50.4517 23.7521 50.4517C23.3118 50.4517 22.9129 50.563 22.5554 50.7855C22.2003 51.008 21.9174 51.3359 21.7067 51.7692C21.4983 52.2024 21.3942 52.7339 21.3942 53.3636C21.3942 53.9934 21.4983 54.5249 21.7067 54.9581C21.9174 55.3913 22.2003 55.7192 22.5554 55.9418C22.9129 56.1643 23.3118 56.2756 23.7521 56.2756C23.9936 56.2756 24.2256 56.2424 24.4482 56.1761C24.6707 56.1098 24.8731 56.0116 25.0554 55.8814C25.2401 55.7488 25.3963 55.5866 25.5241 55.3949C25.6544 55.2008 25.7455 54.9782 25.7976 54.7273H26.6783C26.612 55.099 26.4912 55.4316 26.3161 55.7251C26.1409 56.0187 25.9231 56.2685 25.6626 56.4744C25.4022 56.678 25.1098 56.8331 24.7855 56.9396C24.4635 57.0462 24.1191 57.0994 23.7521 57.0994C23.1319 57.0994 22.5803 56.9479 22.0973 56.6449C21.6143 56.3419 21.2344 55.911 20.9574 55.3523C20.6804 54.7936 20.5419 54.1307 20.5419 53.3636C20.5419 52.5966 20.6804 51.9337 20.9574 51.375C21.2344 50.8163 21.6143 50.3854 22.0973 50.0824C22.5803 49.7794 23.1319 49.6278 23.7521 49.6278C24.1191 49.6278 24.4635 49.6811 24.7855 49.7876C25.1098 49.8942 25.4022 50.0504 25.6626 50.2564C25.9231 50.46 26.1409 50.7086 26.3161 51.0021C26.4912 51.2933 26.612 51.6259 26.6783 52ZM29.5929 57.1278C29.2472 57.1278 28.9335 57.0627 28.6518 56.9325C28.3701 56.8 28.1464 56.6094 27.9806 56.3608C27.8149 56.1098 27.7321 55.8068 27.7321 55.4517C27.7321 55.1392 27.7936 54.8859 27.9167 54.6918C28.0398 54.4953 28.2044 54.3414 28.4103 54.2301C28.6163 54.1188 28.8436 54.036 29.0922 53.9815C29.3431 53.9247 29.5952 53.8797 29.8485 53.8466C30.18 53.804 30.4487 53.772 30.6547 53.7507C30.863 53.727 31.0145 53.688 31.1092 53.6335C31.2063 53.5791 31.2548 53.4844 31.2548 53.3494V53.321C31.2548 52.9706 31.1589 52.6984 30.9672 52.5043C30.7778 52.3101 30.4901 52.2131 30.1042 52.2131C29.7041 52.2131 29.3904 52.3007 29.1632 52.4759C28.9359 52.651 28.7761 52.8381 28.6838 53.0369L27.8883 52.7528C28.0304 52.4214 28.2198 52.1634 28.4565 51.9787C28.6956 51.7917 28.956 51.6615 29.2377 51.5881C29.5218 51.5123 29.8012 51.4744 30.0758 51.4744C30.251 51.4744 30.4522 51.4957 30.6795 51.5384C30.9092 51.5786 31.1305 51.6626 31.3436 51.7905C31.559 51.9183 31.7377 52.1113 31.8798 52.3693C32.0218 52.6274 32.0929 52.973 32.0929 53.4062V57H31.2548V56.2614H31.2122C31.1554 56.3797 31.0607 56.5064 30.9281 56.6413C30.7955 56.7763 30.6191 56.8911 30.399 56.9858C30.1788 57.0805 29.9101 57.1278 29.5929 57.1278ZM29.7207 56.375C30.0521 56.375 30.3315 56.3099 30.5588 56.1797C30.7884 56.0495 30.9612 55.8814 31.0772 55.6754C31.1956 55.4695 31.2548 55.2528 31.2548 55.0256V54.2585C31.2193 54.3011 31.1412 54.3402 31.0204 54.3757C30.902 54.4089 30.7647 54.4384 30.6085 54.4645C30.4546 54.4882 30.3043 54.5095 30.1575 54.5284C30.0131 54.545 29.8959 54.5592 29.8059 54.571C29.5881 54.5994 29.3845 54.6456 29.1951 54.7095C29.0081 54.7711 28.8566 54.8646 28.7406 54.9901C28.627 55.1132 28.5701 55.2812 28.5701 55.4943C28.5701 55.7855 28.6779 56.0057 28.8933 56.1548C29.1111 56.3016 29.3869 56.375 29.7207 56.375ZM33.6225 57V51.5455H34.4322V52.3693H34.489C34.5884 52.0994 34.7683 51.8804 35.0288 51.7124C35.2892 51.5443 35.5827 51.4602 35.9094 51.4602C35.971 51.4602 36.0479 51.4614 36.1403 51.4638C36.2326 51.4661 36.3024 51.4697 36.3498 51.4744V52.3267C36.3214 52.3196 36.2563 52.3089 36.1545 52.2947C36.055 52.2782 35.9497 52.2699 35.8384 52.2699C35.5733 52.2699 35.3365 52.3255 35.1282 52.4368C34.9222 52.5457 34.7589 52.6972 34.6381 52.8913C34.5198 53.0831 34.4606 53.3021 34.4606 53.5483V57H33.6225ZM39.2369 57.1136C38.7823 57.1136 38.381 56.9988 38.033 56.7692C37.685 56.5372 37.4128 56.2105 37.2163 55.7891C37.0198 55.3653 36.9215 54.8646 36.9215 54.2869C36.9215 53.714 37.0198 53.2169 37.2163 52.7955C37.4128 52.3741 37.6862 52.0485 38.0366 51.8189C38.387 51.5893 38.7918 51.4744 39.2511 51.4744C39.6062 51.4744 39.8867 51.5336 40.0927 51.652C40.301 51.768 40.4596 51.9006 40.5685 52.0497C40.6798 52.1965 40.7662 52.3172 40.8278 52.4119H40.8988V49.7273H41.7369V57H40.9272V56.1619H40.8278C40.7662 56.2614 40.6786 56.3868 40.565 56.5384C40.4513 56.6875 40.2892 56.8213 40.0785 56.9396C39.8678 57.0556 39.5872 57.1136 39.2369 57.1136ZM39.3505 56.3608C39.6867 56.3608 39.9708 56.2732 40.2028 56.098C40.4348 55.9205 40.6112 55.6754 40.7319 55.3629C40.8526 55.0481 40.913 54.6847 40.913 54.2727C40.913 53.8655 40.8538 53.5092 40.7354 53.2038C40.6171 52.8961 40.4419 52.657 40.2099 52.4865C39.9779 52.3137 39.6914 52.2273 39.3505 52.2273C38.9954 52.2273 38.6995 52.3184 38.4627 52.5007C38.2283 52.6806 38.052 52.9257 37.9336 53.2358C37.8176 53.5436 37.7596 53.8892 37.7596 54.2727C37.7596 54.661 37.8188 55.0137 37.9371 55.331C38.0579 55.6458 38.2354 55.8968 38.4698 56.0838C38.7066 56.2685 39.0001 56.3608 39.3505 56.3608ZM47.2518 52.767L46.4989 52.9801C46.4516 52.8546 46.3817 52.7327 46.2894 52.6143C46.1995 52.4936 46.0763 52.3942 45.9201 52.3161C45.7638 52.2379 45.5638 52.1989 45.32 52.1989C44.9862 52.1989 44.708 52.2758 44.4854 52.4297C44.2653 52.5812 44.1552 52.7741 44.1552 53.0085C44.1552 53.2169 44.2309 53.3814 44.3825 53.5021C44.534 53.6229 44.7707 53.7235 45.0927 53.804L45.9023 54.0028C46.39 54.1212 46.7534 54.3023 46.9925 54.5462C47.2317 54.7876 47.3512 55.099 47.3512 55.4801C47.3512 55.7926 47.2612 56.072 47.0813 56.3182C46.9038 56.5644 46.6552 56.7585 46.3356 56.9006C46.016 57.0426 45.6443 57.1136 45.2205 57.1136C44.6642 57.1136 44.2037 56.9929 43.8391 56.7514C43.4746 56.5099 43.2437 56.1572 43.1467 55.6932L43.9421 55.4943C44.0179 55.7879 44.1611 56.008 44.3718 56.1548C44.5849 56.3016 44.863 56.375 45.2063 56.375C45.5969 56.375 45.9071 56.2921 46.1367 56.1264C46.3687 55.9583 46.4847 55.7571 46.4847 55.5227C46.4847 55.3333 46.4184 55.1747 46.2859 55.0469C46.1533 54.9167 45.9497 54.8196 45.6751 54.7557L44.766 54.5426C44.2665 54.4242 43.8995 54.2408 43.6651 53.9922C43.4331 53.7412 43.3171 53.4276 43.3171 53.0511C43.3171 52.7434 43.4035 52.4711 43.5763 52.2344C43.7515 51.9976 43.9895 51.8118 44.2901 51.6768C44.5932 51.5419 44.9364 51.4744 45.32 51.4744C45.8597 51.4744 46.2835 51.5928 46.5913 51.8295C46.9014 52.0663 47.1216 52.3788 47.2518 52.767Z" fill="url(#paint1_linear_11855_2800)"/>
<defs>
<linearGradient id="paint0_linear_11855_2800" x1="24.25" y1="18" x2="24.25" y2="38" gradientUnits="userSpaceOnUse">
<stop stop-color="#CCCCCC"/>
<stop offset="1" stop-color="#666666"/>
</linearGradient>
<linearGradient id="paint1_linear_11855_2800" x1="24.25" y1="46" x2="24.25" y2="61" gradientUnits="userSpaceOnUse">
<stop stop-color="#CCCCCC"/>
<stop offset="1" stop-color="#666666"/>
</linearGradient>
</defs>
</svg>
