<svg width="21" height="20" viewBox="0 0 21 20" fill="none" xmlns="http://www.w3.org/2000/svg">
<g clip-path="url(#clip0_9685_38915)">
<path d="M19.7436 8.26211L11.5858 8.26172C11.2256 8.26172 10.9336 8.55367 10.9336 8.91391V11.52C10.9336 11.8801 11.2256 12.1721 11.5858 12.1721H16.1798C15.6767 13.4777 14.7378 14.571 13.5399 15.2657L15.4988 18.6566C18.6411 16.8393 20.4988 13.6507 20.4988 10.0812C20.4988 9.57301 20.4613 9.20969 20.3864 8.80059C20.3295 8.48977 20.0596 8.26211 19.7436 8.26211Z" fill="#167EE6"/>
<path d="M10.4996 16.0851C8.25137 16.0851 6.28871 14.8568 5.23461 13.0391L1.84375 14.9935C3.56934 17.9842 6.80191 19.9982 10.4996 19.9982C12.3135 19.9982 14.0251 19.5098 15.4996 18.6586V18.654L13.5407 15.263C12.6447 15.7827 11.6078 16.0851 10.4996 16.0851Z" fill="#12B347"/>
<path d="M15.5 18.6613V18.6566L13.5411 15.2656C12.6451 15.7853 11.6083 16.0878 10.5 16.0878V20.0008C12.3139 20.0008 14.0256 19.5124 15.5 18.6613Z" fill="#0F993E"/>
<path d="M4.41305 9.99926C4.41305 8.89109 4.71547 7.85434 5.23504 6.95836L1.84418 5.00391C0.988359 6.47371 0.5 8.18066 0.5 9.99926C0.5 11.8179 0.988359 13.5248 1.84418 14.9946L5.23504 13.0402C4.71547 12.1442 4.41305 11.1074 4.41305 9.99926Z" fill="#FFD500"/>
<path d="M10.4996 3.91305C11.9656 3.91305 13.3123 4.43398 14.3641 5.30051C14.6236 5.51426 15.0007 5.49883 15.2384 5.26113L17.0849 3.41465C17.3546 3.14496 17.3354 2.70352 17.0473 2.45359C15.285 0.924727 12.992 0 10.4996 0C6.80191 0 3.56934 2.01395 1.84375 5.00465L5.23461 6.9591C6.28871 5.14141 8.25137 3.91305 10.4996 3.91305Z" fill="#FF4B26"/>
<path d="M14.3645 5.30051C14.624 5.51426 15.0012 5.49883 15.2389 5.26113L17.0854 3.41465C17.355 3.14496 17.3358 2.70352 17.0477 2.45359C15.2854 0.924688 12.9925 0 10.5 0V3.91305C11.966 3.91305 13.3127 4.43398 14.3645 5.30051Z" fill="#D93F21"/>
</g>
<defs>
<clipPath id="clip0_9685_38915">
<rect width="20" height="20" fill="white" transform="translate(0.5)"/>
</clipPath>
</defs>
</svg>
