<svg width="43" height="57" viewBox="0 0 43 57" fill="none" xmlns="http://www.w3.org/2000/svg">
<path d="M15.668 24.3346H17.3346C19.0013 24.3346 19.8346 23.5013 19.8346 21.8346V20.168C19.8346 18.5013 19.0013 17.668 17.3346 17.668H15.668C14.0013 17.668 13.168 18.5013 13.168 20.168V21.8346C13.168 23.5013 14.0013 24.3346 15.668 24.3346Z" stroke="url(#paint0_linear_11855_3042)" stroke-width="1.5" stroke-miterlimit="10" stroke-linecap="round" stroke-linejoin="round"/>
<path d="M25.668 24.3346H27.3346C29.0013 24.3346 29.8346 23.5013 29.8346 21.8346V20.168C29.8346 18.5013 29.0013 17.668 27.3346 17.668H25.668C24.0013 17.668 23.168 18.5013 23.168 20.168V21.8346C23.168 23.5013 24.0013 24.3346 25.668 24.3346Z" stroke="url(#paint1_linear_11855_3042)" stroke-width="1.5" stroke-miterlimit="10" stroke-linecap="round" stroke-linejoin="round"/>
<path d="M25.668 34.3346H27.3346C29.0013 34.3346 29.8346 33.5013 29.8346 31.8346V30.168C29.8346 28.5013 29.0013 27.668 27.3346 27.668H25.668C24.0013 27.668 23.168 28.5013 23.168 30.168V31.8346C23.168 33.5013 24.0013 34.3346 25.668 34.3346Z" stroke="url(#paint2_linear_11855_3042)" stroke-width="1.5" stroke-miterlimit="10" stroke-linecap="round" stroke-linejoin="round"/>
<path d="M15.668 34.3346H17.3346C19.0013 34.3346 19.8346 33.5013 19.8346 31.8346V30.168C19.8346 28.5013 19.0013 27.668 17.3346 27.668H15.668C14.0013 27.668 13.168 28.5013 13.168 30.168V31.8346C13.168 33.5013 14.0013 34.3346 15.668 34.3346Z" stroke="url(#paint3_linear_11855_3042)" stroke-width="1.5" stroke-miterlimit="10" stroke-linecap="round" stroke-linejoin="round"/>
<path d="M8.38068 53V45.7273H9.26136V48.9659H13.1392V45.7273H14.0199V53H13.1392V49.7472H9.26136V53H8.38068ZM17.8853 53.1136C17.3929 53.1136 16.9608 52.9964 16.5891 52.7621C16.2198 52.5277 15.931 52.1998 15.7227 51.7784C15.5167 51.357 15.4137 50.8646 15.4137 50.3011C15.4137 49.733 15.5167 49.237 15.7227 48.8132C15.931 48.3894 16.2198 48.0604 16.5891 47.826C16.9608 47.5916 17.3929 47.4744 17.8853 47.4744C18.3777 47.4744 18.8086 47.5916 19.1779 47.826C19.5496 48.0604 19.8384 48.3894 20.0444 48.8132C20.2527 49.237 20.3569 49.733 20.3569 50.3011C20.3569 50.8646 20.2527 51.357 20.0444 51.7784C19.8384 52.1998 19.5496 52.5277 19.1779 52.7621C18.8086 52.9964 18.3777 53.1136 17.8853 53.1136ZM17.8853 52.3608C18.2594 52.3608 18.5671 52.2649 18.8086 52.0732C19.0501 51.8814 19.2288 51.6293 19.3448 51.3168C19.4608 51.0043 19.5188 50.6657 19.5188 50.3011C19.5188 49.9366 19.4608 49.5968 19.3448 49.282C19.2288 48.9671 19.0501 48.7126 18.8086 48.5185C18.5671 48.3243 18.2594 48.2273 17.8853 48.2273C17.5112 48.2273 17.2035 48.3243 16.962 48.5185C16.7205 48.7126 16.5418 48.9671 16.4258 49.282C16.3098 49.5968 16.2518 49.9366 16.2518 50.3011C16.2518 50.6657 16.3098 51.0043 16.4258 51.3168C16.5418 51.6293 16.7205 51.8814 16.962 52.0732C17.2035 52.2649 17.5112 52.3608 17.8853 52.3608ZM21.6362 53V47.5455H22.4458V48.3977H22.5169C22.6305 48.1065 22.814 47.8804 23.0673 47.7195C23.3206 47.5561 23.6248 47.4744 23.9799 47.4744C24.3398 47.4744 24.6393 47.5561 24.8784 47.7195C25.1199 47.8804 25.3081 48.1065 25.443 48.3977H25.4998C25.6395 48.116 25.849 47.8923 26.1284 47.7266C26.4077 47.5585 26.7427 47.4744 27.1333 47.4744C27.621 47.4744 28.0199 47.6271 28.3301 47.9325C28.6402 48.2356 28.7953 48.7079 28.7953 49.3494V53H27.9572V49.3494C27.9572 48.947 27.8471 48.6593 27.627 48.4865C27.4068 48.3137 27.1475 48.2273 26.8493 48.2273C26.4657 48.2273 26.1686 48.3433 25.9579 48.5753C25.7472 48.8049 25.6419 49.0961 25.6419 49.4489V53H24.7896V49.2642C24.7896 48.9541 24.689 48.7043 24.4877 48.5149C24.2865 48.3232 24.0273 48.2273 23.71 48.2273C23.4922 48.2273 23.2886 48.2853 23.0993 48.4013C22.9122 48.5173 22.7607 48.6783 22.6447 48.8842C22.5311 49.0878 22.4743 49.3234 22.4743 49.5909V53H21.6362ZM32.6145 53.1136C32.089 53.1136 31.6356 52.9976 31.2544 52.7656C30.8757 52.5312 30.5833 52.2045 30.3773 51.7855C30.1737 51.3641 30.0719 50.8741 30.0719 50.3153C30.0719 49.7566 30.1737 49.2642 30.3773 48.8381C30.5833 48.4096 30.8697 48.0758 31.2367 47.8366C31.606 47.5952 32.0369 47.4744 32.5293 47.4744C32.8134 47.4744 33.0939 47.5218 33.3709 47.6165C33.6479 47.7112 33.9 47.8651 34.1273 48.0781C34.3546 48.2888 34.5357 48.5682 34.6706 48.9162C34.8056 49.2642 34.873 49.6927 34.873 50.2017V50.5568H30.6685V49.8324H34.0208C34.0208 49.5246 33.9592 49.25 33.8361 49.0085C33.7154 48.767 33.5426 48.5765 33.3176 48.4368C33.0951 48.2971 32.8323 48.2273 32.5293 48.2273C32.1955 48.2273 31.9067 48.3101 31.6628 48.4759C31.4213 48.6392 31.2355 48.8523 31.1053 49.1151C30.9751 49.3778 30.91 49.6596 30.91 49.9602V50.4432C30.91 50.8551 30.981 51.2043 31.123 51.4908C31.2675 51.7749 31.4675 51.9915 31.7232 52.1406C31.9789 52.2874 32.276 52.3608 32.6145 52.3608C32.8347 52.3608 33.0336 52.33 33.2111 52.2685C33.391 52.2045 33.5461 52.1098 33.6763 51.9844C33.8065 51.8565 33.9071 51.6979 33.9782 51.5085L34.7878 51.7358C34.7026 52.0104 34.5594 52.2519 34.3581 52.4602C34.1569 52.6662 33.9083 52.8272 33.6124 52.9432C33.3165 53.0568 32.9838 53.1136 32.6145 53.1136Z" fill="url(#paint4_linear_11855_3042)"/>
<defs>
<linearGradient id="paint0_linear_11855_3042" x1="16.5013" y1="17.668" x2="16.5013" y2="24.3346" gradientUnits="userSpaceOnUse">
<stop stop-color="#CCCCCC"/>
<stop offset="1" stop-color="#666666"/>
</linearGradient>
<linearGradient id="paint1_linear_11855_3042" x1="26.5013" y1="17.668" x2="26.5013" y2="24.3346" gradientUnits="userSpaceOnUse">
<stop stop-color="#CCCCCC"/>
<stop offset="1" stop-color="#666666"/>
</linearGradient>
<linearGradient id="paint2_linear_11855_3042" x1="26.5013" y1="27.668" x2="26.5013" y2="34.3346" gradientUnits="userSpaceOnUse">
<stop stop-color="#CCCCCC"/>
<stop offset="1" stop-color="#666666"/>
</linearGradient>
<linearGradient id="paint3_linear_11855_3042" x1="16.5013" y1="27.668" x2="16.5013" y2="34.3346" gradientUnits="userSpaceOnUse">
<stop stop-color="#CCCCCC"/>
<stop offset="1" stop-color="#666666"/>
</linearGradient>
<linearGradient id="paint4_linear_11855_3042" x1="21.5" y1="42" x2="21.5" y2="57" gradientUnits="userSpaceOnUse">
<stop stop-color="#CCCCCC"/>
<stop offset="1" stop-color="#666666"/>
</linearGradient>
</defs>
</svg>
