<svg width="22" height="23" viewBox="0 0 22 23" fill="none" xmlns="http://www.w3.org/2000/svg">
<path fill-rule="evenodd" clip-rule="evenodd" d="M6.875 0.457031H15.125C18.9214 0.457031 22 3.53566 22 7.33203V15.582C22 19.3784 18.9214 22.457 15.125 22.457H6.875C3.07862 22.457 0 19.3784 0 15.582V7.33203C0 3.53566 3.07862 0.457031 6.875 0.457031ZM15.125 20.3945C17.7787 20.3945 19.9375 18.2358 19.9375 15.582V7.33203C19.9375 4.67828 17.7787 2.51953 15.125 2.51953H6.875C4.22125 2.51953 2.0625 4.67828 2.0625 7.33203V15.582C2.0625 18.2358 4.22125 20.3945 6.875 20.3945H15.125Z" fill="#FAFAFA"/>
</svg>
