<svg width="14" height="14" viewBox="0 0 14 14" fill="none" xmlns="http://www.w3.org/2000/svg">
<g clip-path="url(#clip0_9685_36341)">
<path fill-rule="evenodd" clip-rule="evenodd" d="M7.00122 0.0419922C7.20013 0.0419922 7.3909 0.12101 7.53155 0.261662C7.6722 0.402314 7.75122 0.59308 7.75122 0.791992V3.19999H8.92122C9.02024 3.19982 9.11708 3.22904 9.19947 3.28397C9.28186 3.3389 9.34609 3.41706 9.384 3.50853C9.42192 3.6 9.43182 3.70067 9.41246 3.79778C9.39309 3.89489 9.34533 3.98406 9.27522 4.05399L7.35522 5.97399C7.30877 6.02056 7.2536 6.0575 7.19285 6.08271C7.13211 6.10791 7.06699 6.12089 7.00122 6.12089C6.93545 6.12089 6.87033 6.10791 6.80959 6.08271C6.74884 6.0575 6.69366 6.02056 6.64722 5.97399L4.72722 4.05399C4.65717 3.98412 4.60943 3.89504 4.59003 3.79803C4.57063 3.70101 4.58045 3.60042 4.61824 3.50899C4.65604 3.41756 4.72011 3.33939 4.80234 3.28439C4.88458 3.22938 4.98128 3.20001 5.08022 3.19999H6.25122V0.791992C6.25122 0.59308 6.33024 0.402314 6.47089 0.261662C6.61154 0.12101 6.80231 0.0419922 7.00122 0.0419922ZM2.08722 4.17199H3.39522C3.47522 4.45499 3.62522 4.71999 3.84322 4.93799L5.76322 6.85799C5.92572 7.02051 6.11865 7.14943 6.33098 7.23739C6.54331 7.32535 6.77089 7.37062 7.00072 7.37062C7.23055 7.37062 7.45812 7.32535 7.67046 7.23739C7.88279 7.14943 8.07571 7.02051 8.23822 6.85799L10.1592 4.93799C10.3772 4.71999 10.5282 4.45499 10.6072 4.17099H11.9152C12.8202 4.17099 13.5542 4.90499 13.5542 5.80899V5.95499L7.00122 9.77299L0.449219 5.95499V5.80899C0.449219 4.90499 1.18222 4.17199 2.08722 4.17199ZM0.449219 7.40099V12.361C0.449219 13.266 1.18222 13.999 2.08722 13.999H11.9152C12.8202 13.999 13.5542 13.266 13.5542 12.361V7.40099L7.31622 11.036C7.22045 11.0913 7.11181 11.1204 7.00122 11.1204C6.89063 11.1204 6.78199 11.0913 6.68622 11.036L0.449219 7.40099Z" fill="#FCA509"/>
</g>
<defs>
<clipPath id="clip0_9685_36341">
<rect width="14" height="14" fill="white"/>
</clipPath>
</defs>
</svg>
