<svg width="22" height="23" viewBox="0 0 22 23" fill="none" xmlns="http://www.w3.org/2000/svg">
<path fill-rule="evenodd" clip-rule="evenodd" d="M6.875 0.457031H15.125C18.9214 0.457031 22 3.53566 22 7.33203V15.582C22 19.3784 18.9214 22.457 15.125 22.457H6.875C3.07862 22.457 0 19.3784 0 15.582V7.33203C0 3.53566 3.07862 0.457031 6.875 0.457031ZM15.125 20.3945C17.7787 20.3945 19.9375 18.2358 19.9375 15.582V7.33203C19.9375 4.67828 17.7787 2.51953 15.125 2.51953H6.875C4.22125 2.51953 2.0625 4.67828 2.0625 7.33203V15.582C2.0625 18.2358 4.22125 20.3945 6.875 20.3945H15.125Z" fill="#FAFAFA"/>
<path fill-rule="evenodd" clip-rule="evenodd" d="M5.5 11.457C5.5 8.41966 7.96263 5.95703 11 5.95703C14.0374 5.95703 16.5 8.41966 16.5 11.457C16.5 14.4944 14.0374 16.957 11 16.957C7.96263 16.957 5.5 14.4944 5.5 11.457ZM7.5625 11.457C7.5625 13.3518 9.10525 14.8945 11 14.8945C12.8948 14.8945 14.4375 13.3518 14.4375 11.457C14.4375 9.56091 12.8948 8.01953 11 8.01953C9.10525 8.01953 7.5625 9.56091 7.5625 11.457Z" fill="#FAFAFA"/>
<circle cx="16.9126" cy="5.54537" r="0.732875" fill="#FAFAFA"/>
</svg>