<svg width="18" height="12" viewBox="0 0 18 12" fill="none" xmlns="http://www.w3.org/2000/svg">
<path d="M14.401 4.28619C14.401 4.05903 14.3061 3.84116 14.1373 3.68053C13.9685 3.5199 13.7396 3.42966 13.5008 3.42966H3.06792L5.1383 1.46818C5.3078 1.3069 5.40303 1.08814 5.40303 0.860043C5.40303 0.631945 5.3078 0.41319 5.1383 0.251901C4.9688 0.0906114 4.7389 1.69946e-09 4.49918 0C4.25947 -1.69946e-09 4.02957 0.0906114 3.86007 0.251901L0.259415 3.67805C0.13451 3.7985 0.0498983 3.95146 0.0162555 4.11762C-0.0173873 4.28377 0.00144647 4.45569 0.0703805 4.61168C0.137911 4.7681 0.25259 4.902 0.399965 4.9965C0.54734 5.09101 0.720816 5.14189 0.898531 5.14273H13.5008C13.7396 5.14273 13.9685 5.05249 14.1373 4.89186C14.3061 4.73123 14.401 4.51336 14.401 4.28619ZM17.9296 7.38686C17.8621 7.23044 17.7474 7.09654 17.6 7.00204C17.4527 6.90753 17.2792 6.85665 17.1015 6.85581H4.49918C4.26045 6.85581 4.03149 6.94605 3.86267 7.10668C3.69386 7.26731 3.59902 7.48518 3.59902 7.71234C3.59902 7.93951 3.69386 8.15738 3.86267 8.31801C4.03149 8.47864 4.26045 8.56888 4.49918 8.56888H14.9321L12.8617 10.5304C12.7773 10.61 12.7104 10.7047 12.6647 10.8091C12.619 10.9135 12.5954 11.0254 12.5954 11.1385C12.5954 11.2516 12.619 11.3635 12.6647 11.4679C12.7104 11.5723 12.7773 11.667 12.8617 11.7466C12.9454 11.8269 13.0449 11.8906 13.1546 11.9341C13.2643 11.9776 13.382 12 13.5008 12C13.6196 12 13.7373 11.9776 13.847 11.9341C13.9567 11.8906 14.0562 11.8269 14.1399 11.7466L17.7406 8.32049C17.8655 8.20004 17.9501 8.04708 17.9837 7.88092C18.0174 7.71476 17.9986 7.54285 17.9296 7.38686Z" fill="#F7F7F7"/>
</svg>
