<svg width="24" height="25" viewBox="0 0 24 25" fill="none" xmlns="http://www.w3.org/2000/svg">
<path d="M18.4386 3.51172H5.55859C4.89612 3.51357 4.26131 3.77755 3.79287 4.24599C3.32443 4.71443 3.06044 5.34925 3.05859 6.01172V18.8917C3.06044 19.5542 3.32443 20.189 3.79287 20.6574C4.26131 21.1259 4.89612 21.3899 5.55859 21.3917H18.4386C19.1016 21.3917 19.7375 21.1283 20.2064 20.6595C20.6752 20.1906 20.9386 19.5548 20.9386 18.8917V6.01172C20.9386 5.34868 20.6752 4.71279 20.2064 4.24395C19.7375 3.77511 19.1016 3.51172 18.4386 3.51172ZM19.9386 18.8917C19.936 19.2887 19.7771 19.6687 19.4964 19.9495C19.2156 20.2302 18.8356 20.3891 18.4386 20.3917H5.55859C5.16158 20.3891 4.78157 20.2302 4.50083 19.9495C4.22009 19.6687 4.06121 19.2887 4.05859 18.8917V6.01172C4.06121 5.6147 4.22009 5.23469 4.50083 4.95395C4.78157 4.67322 5.16158 4.51434 5.55859 4.51172H18.4386C18.8356 4.51434 19.2156 4.67322 19.4964 4.95395C19.7771 5.23469 19.936 5.6147 19.9386 6.01172V18.8917Z" fill="#FAFAFA"/>
<path d="M6.375 11.1992C6.375 10.934 6.48036 10.6796 6.66789 10.4921C6.85543 10.3046 7.10978 10.1992 7.375 10.1992C7.64022 10.1992 7.89457 10.3046 8.08211 10.4921C8.26964 10.6796 8.375 10.934 8.375 11.1992V17.6992C8.375 17.9644 8.26964 18.2188 8.08211 18.4063C7.89457 18.5939 7.64022 18.6992 7.375 18.6992C7.10978 18.6992 6.85543 18.5939 6.66789 18.4063C6.48036 18.2188 6.375 17.9644 6.375 17.6992V11.1992Z" fill="#FAFAFA"/>
<path d="M7.375 8.19922C7.92728 8.19922 8.375 7.7515 8.375 7.19922C8.375 6.64693 7.92728 6.19922 7.375 6.19922C6.82272 6.19922 6.375 6.64693 6.375 7.19922C6.375 7.7515 6.82272 8.19922 7.375 8.19922Z" fill="#FAFAFA"/>
<path d="M17.6206 13.8274V17.7074C17.6206 17.9726 17.5153 18.227 17.3277 18.4145C17.1402 18.602 16.8858 18.7074 16.6206 18.7074C16.3554 18.7074 16.1011 18.602 15.9135 18.4145C15.726 18.227 15.6206 17.9726 15.6206 17.7074V13.8274C15.6206 13.3991 15.4505 12.9883 15.1476 12.6854C14.8447 12.3825 14.4339 12.2124 14.0056 12.2124C13.5773 12.2124 13.1665 12.3825 12.8636 12.6854C12.5608 12.9883 12.3906 13.3991 12.3906 13.8274V17.7074C12.3906 17.9726 12.2853 18.227 12.0977 18.4145C11.9102 18.602 11.6558 18.7074 11.3906 18.7074C11.1254 18.7074 10.8711 18.602 10.6835 18.4145C10.496 18.227 10.3906 17.9726 10.3906 17.7074V11.2074C10.3947 10.9435 10.5014 10.6915 10.6881 10.5048C10.8747 10.3182 11.1267 10.2115 11.3906 10.2074C11.56 10.2027 11.7275 10.244 11.8753 10.3267C12.0232 10.4094 12.146 10.5306 12.2306 10.6774C12.7805 10.3657 13.4025 10.2039 14.0346 10.2081C14.6666 10.2123 15.2864 10.3824 15.8321 10.7013C16.3778 11.0202 16.8302 11.4767 17.1441 12.0254C17.4579 12.574 17.6223 13.1953 17.6206 13.8274Z" fill="#FAFAFA"/>
</svg>
