<svg width="38" height="38" viewBox="0 0 38 38" fill="none" xmlns="http://www.w3.org/2000/svg">
<path d="M18.9987 25.332C20.7404 25.332 22.1654 26.757 22.1654 28.4987C22.1654 30.2404 20.7404 31.6654 18.9987 31.6654C17.257 31.6654 15.832 30.2404 15.832 28.4987C15.832 26.757 17.257 25.332 18.9987 25.332ZM18.9987 15.832C20.7404 15.832 22.1654 17.257 22.1654 18.9987C22.1654 20.7404 20.7404 22.1654 18.9987 22.1654C17.257 22.1654 15.832 20.7404 15.832 18.9987C15.832 17.257 17.257 15.832 18.9987 15.832ZM18.9987 6.33203C20.7404 6.33203 22.1654 7.75703 22.1654 9.4987C22.1654 11.2404 20.7404 12.6654 18.9987 12.6654C17.257 12.6654 15.832 11.2404 15.832 9.4987C15.832 7.75703 17.257 6.33203 18.9987 6.33203ZM9.4987 25.332C11.2404 25.332 12.6654 26.757 12.6654 28.4987C12.6654 30.2404 11.2404 31.6654 9.4987 31.6654C7.75703 31.6654 6.33203 30.2404 6.33203 28.4987C6.33203 26.757 7.75703 25.332 9.4987 25.332ZM9.4987 15.832C11.2404 15.832 12.6654 17.257 12.6654 18.9987C12.6654 20.7404 11.2404 22.1654 9.4987 22.1654C7.75703 22.1654 6.33203 20.7404 6.33203 18.9987C6.33203 17.257 7.75703 15.832 9.4987 15.832ZM9.4987 6.33203C11.2404 6.33203 12.6654 7.75703 12.6654 9.4987C12.6654 11.2404 11.2404 12.6654 9.4987 12.6654C7.75703 12.6654 6.33203 11.2404 6.33203 9.4987C6.33203 7.75703 7.75703 6.33203 9.4987 6.33203ZM28.4987 25.332C30.2404 25.332 31.6654 26.757 31.6654 28.4987C31.6654 30.2404 30.2404 31.6654 28.4987 31.6654C26.757 31.6654 25.332 30.2404 25.332 28.4987C25.332 26.757 26.757 25.332 28.4987 25.332ZM28.4987 15.832C30.2404 15.832 31.6654 17.257 31.6654 18.9987C31.6654 20.7404 30.2404 22.1654 28.4987 22.1654C26.757 22.1654 25.332 20.7404 25.332 18.9987C25.332 17.257 26.757 15.832 28.4987 15.832ZM28.4987 6.33203C30.2404 6.33203 31.6654 7.75703 31.6654 9.4987C31.6654 11.2404 30.2404 12.6654 28.4987 12.6654C26.757 12.6654 25.332 11.2404 25.332 9.4987C25.332 7.75703 26.757 6.33203 28.4987 6.33203Z" fill="white"/>
</svg>
