<svg width="25" height="24" viewBox="0 0 25 24" fill="none" xmlns="http://www.w3.org/2000/svg">
<g clip-path="url(#clip0_9685_38935)">
<g clip-path="url(#clip1_9685_38935)">
<path d="M20.9099 0.196946C21.4309 -0.00208537 21.9908 0.391055 21.9666 0.948258C21.7712 5.43893 20.2254 9.31015 20.2254 9.31015L14.3867 5.21337C16.7146 2.40959 19.5314 0.723586 20.9099 0.196946Z" fill="#D26437"/>
<path d="M16.332 6.57893C17.8493 4.10796 20.1378 1.74865 20.8624 1.32771C21.1561 1.15709 21.414 1.57456 21.3482 2.12482C20.9983 5.05357 20.3636 7.68415 19.9728 9.13353L16.332 6.57893Z" fill="#B44632"/>
<path d="M3.67074 0.196946C3.14973 -0.00208537 2.58981 0.391055 2.61404 0.948258C2.80942 5.43893 4.35521 9.31015 4.35521 9.31015L10.1939 5.21337C7.86606 2.40959 5.04924 0.723586 3.67074 0.196946Z" fill="#D26437"/>
<path d="M8.24528 6.57893C6.72803 4.10796 4.4395 1.74865 3.71496 1.32771C3.42124 1.15709 3.16333 1.57456 3.2291 2.12482C3.57902 5.05357 4.21371 7.68415 4.60455 9.13353L8.24528 6.57893Z" fill="#B44632"/>
<path d="M12.2874 23.8583C13.5701 23.8583 14.61 23.1651 14.61 22.31C14.61 21.4549 13.5701 20.7617 12.2874 20.7617C11.0047 20.7617 9.96484 21.4549 9.96484 22.31C9.96484 23.1651 11.0047 23.8583 12.2874 23.8583Z" fill="#EBC9A0"/>
<path d="M9.57936 21.924C6.8697 20.3756 2.38062 18.6899 2.38062 18.6899L2.81141 17.3975C2.62981 17.3112 1.3858 17.295 0.289062 17.6659L1.45034 15.7305H9.57936V21.924ZM14.9987 21.924C17.7083 20.3756 22.1974 18.6899 22.1974 18.6899L21.7666 17.3975C21.9482 17.3112 23.1922 17.295 24.289 17.6659L23.1277 15.7305H14.9987V21.924Z" fill="#EBC9A0"/>
<path d="M12.2891 4.50366C17.9317 4.50366 22.7757 10.1573 24.2716 17.5776C24.2775 17.6067 24.2833 17.6358 24.2891 17.6649C24.2891 17.6649 21.4342 14.7133 18.3374 16.2859C17.189 16.8691 16.6439 18.1504 16.6439 19.5505C16.6439 21.8719 14.783 23.1564 12.5784 22.2641C12.3929 22.1885 12.1852 22.1885 11.9997 22.2641C9.79508 23.1564 7.93419 21.872 7.93419 19.5505C7.93419 18.1504 7.38898 16.8691 6.24064 16.2859C3.14389 14.7133 0.289062 17.6649 0.289062 17.6649C0.294828 17.6358 0.300641 17.6067 0.3065 17.5776C1.80238 10.1572 6.64639 4.50366 12.2891 4.50366Z" fill="#EB874B"/>
<path d="M8.22592 15.3432C7.48075 15.3432 6.87109 14.7336 6.87109 13.9884V13.2142C6.87109 12.469 7.48075 11.8594 8.22592 11.8594C8.97109 11.8594 9.58075 12.469 9.58075 13.2142V13.9884C9.5808 14.7336 8.97109 15.3432 8.22592 15.3432Z" fill="#4B3F4E"/>
<path d="M8.2248 11.8594C8.15856 11.8594 8.095 11.8697 8.03125 11.879V13.7948C8.03125 14.2224 8.37789 14.569 8.80544 14.569C9.23303 14.569 9.57962 14.2224 9.57962 13.7948V13.2142C9.57967 12.469 8.96997 11.8594 8.2248 11.8594Z" fill="#5D5360"/>
<path d="M8.22517 13.4071C8.54585 13.4071 8.80581 13.1472 8.80581 12.8265C8.80581 12.5058 8.54585 12.2458 8.22517 12.2458C7.90449 12.2458 7.64453 12.5058 7.64453 12.8265C7.64453 13.1472 7.90449 13.4071 8.22517 13.4071Z" fill="white"/>
<path d="M16.3548 15.3432C15.6097 15.3432 15 14.7336 15 13.9884V13.2142C15 12.469 15.6097 11.8594 16.3548 11.8594C17.1 11.8594 17.7097 12.469 17.7097 13.2142V13.9884C17.7097 14.7336 17.1 15.3432 16.3548 15.3432Z" fill="#4B3F4E"/>
<path d="M16.3537 11.8594C16.2875 11.8594 16.2239 11.8697 16.1602 11.879V13.7948C16.1602 14.2224 16.5068 14.569 16.9343 14.569C17.3619 14.569 17.7085 14.2224 17.7085 13.7948V13.2142C17.7085 12.469 17.0988 11.8594 16.3537 11.8594Z" fill="#5D5360"/>
<path d="M16.3541 13.4071C16.6748 13.4071 16.9347 13.1472 16.9347 12.8265C16.9347 12.5058 16.6748 12.2458 16.3541 12.2458C16.0334 12.2458 15.7734 12.5058 15.7734 12.8265C15.7734 13.1472 16.0334 13.4071 16.3541 13.4071Z" fill="white"/>
<path d="M11.9023 22.2999C11.9359 22.2872 11.9694 22.2743 12.0031 22.2609C12.187 22.1877 12.3919 22.1877 12.5758 22.2609C12.6095 22.2743 12.6431 22.2872 12.6766 22.2999V20.7617H11.9024L11.9023 22.2999Z" fill="#D26437"/>
<path d="M12.266 18.4375C13.1336 18.4375 13.8368 19.0123 13.8368 19.7214C13.8368 20.4052 13.1767 20.7652 12.7003 21.0315C12.4241 21.1858 12.1081 21.1858 11.8319 21.0315C11.3555 20.7652 10.6953 20.4052 10.6953 19.7214C10.6953 19.0123 11.3985 18.4375 12.266 18.4375Z" fill="#5D5360"/>
<path d="M12.6508 20.9985C12.1744 20.6563 11.5143 20.1933 11.5143 19.3141C11.5143 19.026 11.5908 18.7592 11.7142 18.5234C11.12 18.7065 10.6953 19.1718 10.6953 19.7215C10.6953 20.4053 11.3555 20.7654 11.8319 21.0316C12.1081 21.1859 12.4241 21.1859 12.7003 21.0316L12.7069 21.0279C12.6884 21.0166 12.669 21.0116 12.6508 20.9985Z" fill="#4B3F4E"/>
<path d="M12.2891 4.50366L11.5363 4.5413C6.21973 5.01779 1.73534 10.4897 0.3065 17.5775C0.300638 17.6066 0.294825 17.6358 0.289062 17.6649C0.289062 17.6649 2.59302 15.2852 5.30638 15.9406C5.64566 6.29987 11.659 4.50366 12.2891 4.50366Z" fill="#D26437"/>
</g>
</g>
<defs>
<clipPath id="clip0_9685_38935">
<rect width="24" height="24" fill="white" transform="translate(0.289062)"/>
</clipPath>
<clipPath id="clip1_9685_38935">
<rect width="24" height="24" fill="white" transform="translate(0.289062)"/>
</clipPath>
</defs>
</svg>
