<svg width="18" height="18" viewBox="0 0 18 18" fill="none" xmlns="http://www.w3.org/2000/svg">
<path fill-rule="evenodd" clip-rule="evenodd" d="M9.0013 0.0410156C4.05375 0.0410156 0.0429688 4.0518 0.0429688 8.99935C0.0429688 13.9469 4.05375 17.9577 9.0013 17.9577C13.9489 17.9577 17.9596 13.9469 17.9596 8.99935C17.9596 4.0518 13.9489 0.0410156 9.0013 0.0410156ZM1.29297 8.99935C1.29297 4.74215 4.74411 1.29102 9.0013 1.29102C13.2585 1.29102 16.7096 4.74215 16.7096 8.99935C16.7096 13.2565 13.2585 16.7077 9.0013 16.7077C4.74411 16.7077 1.29297 13.2565 1.29297 8.99935Z" fill="white" fill-opacity="0.36"/>
<path d="M6.5013 8.99935C6.5013 9.45959 6.12821 9.83268 5.66797 9.83268C5.20773 9.83268 4.83464 9.45959 4.83464 8.99935C4.83464 8.53911 5.20773 8.16602 5.66797 8.16602C6.12821 8.16602 6.5013 8.53911 6.5013 8.99935Z" fill="white" fill-opacity="0.36"/>
<path d="M9.83464 8.99935C9.83464 9.45959 9.46154 9.83268 9.0013 9.83268C8.54107 9.83268 8.16797 9.45959 8.16797 8.99935C8.16797 8.53911 8.54107 8.16602 9.0013 8.16602C9.46154 8.16602 9.83464 8.53911 9.83464 8.99935Z" fill="white" fill-opacity="0.36"/>
<path d="M13.168 8.99935C13.168 9.45959 12.7949 9.83268 12.3346 9.83268C11.8744 9.83268 11.5013 9.45959 11.5013 8.99935C11.5013 8.53911 11.8744 8.16602 12.3346 8.16602C12.7949 8.16602 13.168 8.53911 13.168 8.99935Z" fill="white" fill-opacity="0.36"/>
<path d="M0.542969 8.99935C0.542969 4.32794 4.32989 0.541016 9.0013 0.541016C13.6727 0.541016 17.4596 4.32794 17.4596 8.99935C17.4596 13.6708 13.6727 17.4577 9.0013 17.4577C4.32989 17.4577 0.542969 13.6708 0.542969 8.99935ZM9.0013 0.791016C4.46796 0.791016 0.792969 4.46601 0.792969 8.99935C0.792969 13.5327 4.46796 17.2077 9.0013 17.2077C13.5346 17.2077 17.2096 13.5327 17.2096 8.99935C17.2096 4.46601 13.5346 0.791016 9.0013 0.791016ZM6.0013 8.99935C6.0013 9.18344 5.85206 9.33268 5.66797 9.33268C5.48387 9.33268 5.33464 9.18344 5.33464 8.99935C5.33464 8.81525 5.48387 8.66602 5.66797 8.66602C5.85206 8.66602 6.0013 8.81525 6.0013 8.99935ZM9.33464 8.99935C9.33464 9.18344 9.1854 9.33268 9.0013 9.33268C8.81721 9.33268 8.66797 9.18344 8.66797 8.99935C8.66797 8.81525 8.81721 8.66602 9.0013 8.66602C9.1854 8.66602 9.33464 8.81525 9.33464 8.99935ZM12.668 8.99935C12.668 9.18344 12.5187 9.33268 12.3346 9.33268C12.1505 9.33268 12.0013 9.18344 12.0013 8.99935C12.0013 8.81525 12.1505 8.66602 12.3346 8.66602C12.5187 8.66602 12.668 8.81525 12.668 8.99935Z" stroke="white" stroke-opacity="0.36"/>
</svg>
