<svg width="28" height="28" viewBox="0 0 28 28" fill="none" xmlns="http://www.w3.org/2000/svg">
<path d="M7.0013 22.1641V11.6641C7.0013 9.80755 7.7388 8.02707 9.05155 6.71432C10.3643 5.40156 12.1448 4.66406 14.0013 4.66406C15.8578 4.66406 17.6383 5.40156 18.951 6.71432C20.2638 8.02707 21.0013 9.80755 21.0013 11.6641V22.1641M7.0013 22.1641H21.0013M7.0013 22.1641H4.66797M21.0013 22.1641H23.3346M12.8346 25.6641H15.168" stroke="white" stroke-width="2" stroke-linecap="round" stroke-linejoin="round"/>
<path d="M14.0026 4.66536C14.6469 4.66536 15.1693 4.14303 15.1693 3.4987C15.1693 2.85437 14.6469 2.33203 14.0026 2.33203C13.3583 2.33203 12.8359 2.85437 12.8359 3.4987C12.8359 4.14303 13.3583 4.66536 14.0026 4.66536Z" stroke="white" stroke-width="2"/>
</svg>
