<svg width="24" height="24" viewBox="0 0 24 24" fill="none" xmlns="http://www.w3.org/2000/svg">
<rect width="24" height="24" rx="12" fill="#2C2C30"/>
<path d="M12.185 7.07492L16.685 8.87491C16.86 8.94491 17 9.15491 17 9.33991V10.9999C17 11.2749 16.775 11.4999 16.5 11.4999H7.5C7.225 11.4999 7 11.2749 7 10.9999V9.33991C7 9.15491 7.14 8.94491 7.315 8.87491L11.815 7.07492C11.915 7.03492 12.085 7.03492 12.185 7.07492Z" stroke="#EDF1F3" stroke-miterlimit="10" stroke-linecap="round" stroke-linejoin="round"/>
<path d="M17 17H7V15.5C7 15.225 7.225 15 7.5 15H16.5C16.775 15 17 15.225 17 15.5V17Z" stroke="#EDF1F3" stroke-miterlimit="10" stroke-linecap="round" stroke-linejoin="round"/>
<path d="M8 15V11.5" stroke="#EDF1F3" stroke-miterlimit="10" stroke-linecap="round" stroke-linejoin="round"/>
<path d="M10 15V11.5" stroke="#EDF1F3" stroke-miterlimit="10" stroke-linecap="round" stroke-linejoin="round"/>
<path d="M12 15V11.5" stroke="#EDF1F3" stroke-miterlimit="10" stroke-linecap="round" stroke-linejoin="round"/>
<path d="M14 15V11.5" stroke="#EDF1F3" stroke-miterlimit="10" stroke-linecap="round" stroke-linejoin="round"/>
<path d="M16 15V11.5" stroke="#EDF1F3" stroke-miterlimit="10" stroke-linecap="round" stroke-linejoin="round"/>
<path d="M6.5 17H17.5" stroke="#EDF1F3" stroke-miterlimit="10" stroke-linecap="round" stroke-linejoin="round"/>
<path d="M12 10.25C12.4142 10.25 12.75 9.91421 12.75 9.5C12.75 9.08579 12.4142 8.75 12 8.75C11.5858 8.75 11.25 9.08579 11.25 9.5C11.25 9.91421 11.5858 10.25 12 10.25Z" stroke="#EDF1F3" stroke-miterlimit="10" stroke-linecap="round" stroke-linejoin="round"/>
</svg>
