<svg width="12" height="13" viewBox="0 0 12 13" fill="none" xmlns="http://www.w3.org/2000/svg">
<path d="M2.5275 2.12248C2.49456 2.08536 2.45459 2.05514 2.4099 2.03358C2.3652 2.01202 2.31667 1.99955 2.26712 1.99688C2.21756 1.99421 2.16798 2.00141 2.12122 2.01805C2.07447 2.03469 2.03149 2.06044 1.99477 2.09382C1.95804 2.12719 1.92831 2.16752 1.90728 2.21248C1.88626 2.25743 1.87437 2.3061 1.8723 2.35568C1.87023 2.40526 1.87802 2.45476 1.89522 2.50131C1.91242 2.54786 1.93868 2.59053 1.9725 2.62685L2.87437 3.6192C1.17187 4.66404 0.439683 6.27467 0.407339 6.34779C0.386017 6.39575 0.375 6.44765 0.375 6.50013C0.375 6.55262 0.386017 6.60452 0.407339 6.65248C0.423746 6.68951 0.820777 7.56982 1.70343 8.45248C2.87953 9.6281 4.365 10.2497 6 10.2497C6.84028 10.2545 7.67208 10.0814 8.44078 9.74201L9.47203 10.8769C9.50496 10.914 9.54493 10.9442 9.58963 10.9658C9.63432 10.9873 9.68285 10.9998 9.73241 11.0025C9.78196 11.0051 9.83155 10.9979 9.8783 10.9813C9.92505 10.9646 9.96803 10.9389 10.0048 10.9055C10.0415 10.8721 10.0712 10.8318 10.0922 10.7869C10.1133 10.7419 10.1252 10.6932 10.1272 10.6436C10.1293 10.5941 10.1215 10.5446 10.1043 10.498C10.0871 10.4515 10.0608 10.4088 10.027 10.3725L2.5275 2.12248ZM4.74609 5.67748L6.69937 7.8267C6.40523 7.98144 6.06802 8.03411 5.7407 7.97643C5.41338 7.91876 5.11448 7.754 4.89094 7.50804C4.6674 7.26208 4.53189 6.94884 4.50567 6.61752C4.47945 6.28619 4.56402 5.95553 4.74609 5.67748ZM6 9.49967C4.55718 9.49967 3.29671 8.97513 2.25328 7.94107C1.82499 7.51544 1.46072 7.02991 1.17187 6.49967C1.39171 6.08763 2.09343 4.93451 3.3914 4.18498L4.23515 5.11076C3.9085 5.52912 3.74026 6.04949 3.76018 6.5799C3.7801 7.11031 3.9869 7.6166 4.34401 8.00928C4.70113 8.40196 5.18557 8.65575 5.71171 8.72578C6.23785 8.79582 6.77181 8.6776 7.21921 8.39201L7.90968 9.15138C7.3003 9.38518 6.65267 9.50329 6 9.49967ZM6.28125 5.02638C6.18353 5.00774 6.09722 4.95103 6.04132 4.86875C5.98541 4.78647 5.96447 4.68535 5.98312 4.58763C6.00177 4.48992 6.05847 4.40361 6.14075 4.3477C6.22303 4.29179 6.32415 4.27086 6.42187 4.28951C6.89981 4.38217 7.33499 4.62684 7.66251 4.98705C7.99002 5.34725 8.19231 5.80368 8.23921 6.28826C8.24847 6.38728 8.21802 6.48592 8.15455 6.56249C8.09108 6.63906 7.9998 6.68728 7.90078 6.69654C7.88907 6.69723 7.87733 6.69723 7.86562 6.69654C7.77189 6.69694 7.68141 6.66223 7.612 6.59924C7.54259 6.53625 7.49929 6.44955 7.49062 6.35623C7.45906 6.03391 7.32431 5.73039 7.10642 5.49079C6.88853 5.2512 6.59912 5.08832 6.28125 5.02638ZM11.5912 6.65248C11.5716 6.69654 11.0967 7.74795 10.0275 8.7056C9.99096 8.73937 9.94807 8.76552 9.90133 8.78255C9.85459 8.79958 9.80493 8.80714 9.75523 8.80478C9.70554 8.80243 9.65682 8.79021 9.61189 8.76884C9.56697 8.74747 9.52674 8.71738 9.49356 8.68031C9.46039 8.64325 9.43491 8.59995 9.41863 8.55294C9.40235 8.50593 9.39558 8.45616 9.39873 8.40651C9.40187 8.35686 9.41486 8.30834 9.43694 8.26376C9.45902 8.21918 9.48975 8.17944 9.52734 8.14685C10.0519 7.67558 10.4925 7.11859 10.8305 6.49967C10.541 5.96893 10.1759 5.48308 9.74671 5.05732C8.70328 4.0242 7.44281 3.49967 6 3.49967C5.69599 3.49929 5.39247 3.52391 5.0925 3.57326C5.04371 3.58189 4.99371 3.58076 4.94536 3.56995C4.89702 3.55914 4.85129 3.53886 4.81083 3.51028C4.77037 3.4817 4.73597 3.44538 4.70963 3.40343C4.68328 3.36148 4.66551 3.31473 4.65733 3.26587C4.64916 3.21701 4.65075 3.16701 4.662 3.11877C4.67326 3.07053 4.69396 3.02499 4.72292 2.9848C4.75188 2.94461 4.78851 2.91055 4.8307 2.88459C4.87289 2.85863 4.91981 2.84129 4.96875 2.83357C5.3096 2.77729 5.65452 2.74923 6 2.74967C7.635 2.74967 9.12046 3.37123 10.2966 4.54732C11.1792 5.42998 11.5762 6.31076 11.5927 6.34779C11.614 6.39575 11.625 6.44765 11.625 6.50013C11.625 6.55262 11.614 6.60452 11.5927 6.65248H11.5912Z" fill="white"/>
</svg>
