<svg width="24" height="24" viewBox="0 0 24 24" fill="none" xmlns="http://www.w3.org/2000/svg">
<g clip-path="url(#clip0_9685_45126)">
<path d="M24 12C24 18.6275 18.6275 24 12 24C5.37248 24 0 18.6275 0 12C0 5.37248 5.37248 0 12 0C18.6275 0 24 5.37248 24 12Z" fill="#005FD2"/>
<path d="M23.9015 13.5394C21.9871 11.6198 18.5471 8.17294 18.5471 8.17294C18.3226 7.93636 18.0592 7.73714 17.757 7.57416L15.8148 5.62777C15.546 5.34439 15.2217 5.11373 14.8418 4.9358C14.4293 4.74314 13.9666 4.64648 13.4542 4.64648H8.55156C8.40454 4.64648 8.26185 4.6962 8.14666 4.78756C8.03148 4.87891 7.95058 5.00654 7.9171 5.14969L5.34174 16.1386C5.28549 16.3781 5.36884 16.6113 5.53178 16.7637L12.7181 23.9784C18.4969 23.6369 23.176 19.2067 23.9015 13.5394Z" fill="#003D8D"/>
<path d="M10.6514 7.69438C10.685 7.55125 10.766 7.42368 10.8812 7.33237C10.9964 7.24107 11.1391 7.19139 11.2861 7.19141H16.1886C16.7011 7.19141 17.1636 7.28784 17.5761 7.48072C17.9887 7.67369 18.3356 7.92894 18.6169 8.24647C18.8982 8.56428 19.1138 8.92723 19.2638 9.33575C19.414 9.74403 19.4888 10.1639 19.4888 10.595C19.4888 11.1736 19.3512 11.7495 19.0763 12.3224C18.8013 12.8953 18.4294 13.4058 17.9607 13.8539C17.4919 14.3022 16.9481 14.6681 16.3294 14.9516C15.7104 15.2352 15.0509 15.377 14.3509 15.377H12.2318L11.3403 18.9885C11.3053 19.13 11.224 19.2556 11.1093 19.3454C10.9946 19.4352 10.8531 19.484 10.7075 19.484H8.71072C8.29068 19.484 7.98032 19.0925 8.07604 18.6835L10.6514 7.69438Z" fill="#78B9EB"/>
<path d="M19.2629 9.33556C19.1127 8.92723 18.8972 8.56395 18.616 8.24609C18.3347 7.92875 17.9877 7.6737 17.5754 7.48072C17.2932 7.34853 16.9874 7.26172 16.659 7.22052C16.5069 7.20073 16.3495 7.19141 16.1873 7.19141H11.9062V16.6905L12.2307 15.3768H14.3498C15.0496 15.3768 15.7092 15.2352 16.3279 14.9516C16.9468 14.668 17.4904 14.3019 17.9597 13.8537C18.4285 13.4056 18.8002 12.8951 19.0754 12.3218C19.35 11.7496 19.4877 11.1734 19.4877 10.595C19.4877 10.1637 19.4129 9.7437 19.2629 9.33556Z" fill="#5698E1"/>
<path d="M7.9171 5.14969C7.95057 5.00654 8.03147 4.87891 8.14666 4.78756C8.26184 4.6962 8.40454 4.64648 8.55155 4.64648H13.4542C13.9665 4.64648 14.4292 4.74319 14.8418 4.9358C15.2544 5.12892 15.6013 5.38423 15.8826 5.70173C16.1638 6.01945 16.3794 6.38248 16.5294 6.79083C16.6794 7.1992 16.7545 7.619 16.7545 8.05022C16.7545 8.62884 16.6168 9.20475 16.342 9.77747C16.0668 10.3506 15.6951 10.8611 15.2261 11.3092C14.7573 11.7574 14.2136 12.1232 13.5949 12.4067C12.9759 12.6905 12.3164 12.8322 11.6166 12.8322H9.44583L8.60175 16.4361C8.56823 16.5792 8.4873 16.7068 8.37211 16.7981C8.25692 16.8894 8.11424 16.9391 7.96725 16.9391H5.97619C5.55614 16.9391 5.24578 16.5476 5.34174 16.1385L7.9171 5.14969Z" fill="white"/>
<path d="M16.6589 7.22128C16.6247 7.07521 16.5817 6.93135 16.53 6.7905C16.38 6.38213 16.1644 6.01941 15.8831 5.70155C15.6019 5.38387 15.255 5.12878 14.8425 4.93561C14.43 4.74292 13.9673 4.64655 13.4546 4.64648H11.9062V12.8233C12.4992 12.7896 13.0621 12.6508 13.5952 12.4067C14.2143 12.1231 14.7581 11.7574 15.2269 11.3088C15.6956 10.8608 16.0673 10.3502 16.3425 9.77733C16.6172 9.20456 16.755 8.62852 16.755 8.05008C16.755 7.76883 16.7232 7.49273 16.659 7.22133L16.6589 7.22128Z" fill="#FFF5CB"/>
</g>
<defs>
<clipPath id="clip0_9685_45126">
<rect width="24" height="24" fill="white"/>
</clipPath>
</defs>
</svg>
