<svg width="32" height="32" viewBox="0 0 32 32" fill="none" xmlns="http://www.w3.org/2000/svg">
<rect width="32" height="32" rx="16" fill="#44444A"/>
<path d="M16.0792 16.52C16.0325 16.5133 15.9725 16.5133 15.9192 16.52C14.7458 16.48 13.8125 15.52 13.8125 14.34C13.8125 13.1333 14.7858 12.1533 15.9992 12.1533C17.2058 12.1533 18.1858 13.1333 18.1858 14.34C18.1792 15.52 17.2525 16.48 16.0792 16.52Z" stroke="#EDF1F3" stroke-linecap="round" stroke-linejoin="round"/>
<path d="M20.4945 20.92C19.3078 22.0067 17.7345 22.6667 16.0011 22.6667C14.2678 22.6667 12.6945 22.0067 11.5078 20.92C11.5745 20.2934 11.9745 19.68 12.6878 19.2C14.5145 17.9867 17.5011 17.9867 19.3145 19.2C20.0278 19.68 20.4278 20.2934 20.4945 20.92Z" stroke="#EDF1F3" stroke-linecap="round" stroke-linejoin="round"/>
<path d="M15.9987 22.6663C19.6806 22.6663 22.6654 19.6816 22.6654 15.9997C22.6654 12.3178 19.6806 9.33301 15.9987 9.33301C12.3168 9.33301 9.33203 12.3178 9.33203 15.9997C9.33203 19.6816 12.3168 22.6663 15.9987 22.6663Z" stroke="#EDF1F3" stroke-linecap="round" stroke-linejoin="round"/>
</svg>
