<svg width="78" height="79" viewBox="0 0 78 79" fill="none" xmlns="http://www.w3.org/2000/svg">
<path d="M9.75 10.3125H19.4998V20.0623H9.75V10.3125Z" fill="#FAFAFA"/>
<path d="M29.2494 0.5625V29.8119H0V0.5625H29.2494ZM24.3745 5.4374H4.8749V24.937H24.3745V5.4374ZM19.4996 59.0613H9.7498V68.8111H19.4996V59.0613Z" fill="#FAFAFA"/>
<path d="M29.2494 49.3117V78.5611H0V49.3117H29.2494ZM4.8749 54.1866V73.6862H24.3745V54.1866H4.8749ZM58.4988 10.3125H68.2486V20.0623H58.4988V10.3125Z" fill="#FAFAFA"/>
<path d="M48.749 0.5625V29.8119H77.9984V0.5625H48.749ZM73.1235 5.4374V24.937H53.6239V5.4374H73.1235ZM38.9992 5.4374V0.5625H43.8741V10.3123H38.9992V20.0621H34.1243V5.4374H38.9992ZM38.9992 29.8119V20.0621H43.8741V29.8119H38.9992ZM29.2494 39.5617V34.6868H34.1243V29.8119H38.9992V39.5617H43.8741V34.6868H68.2486V39.5617H48.749V44.4366H34.1243V39.5617H29.2494ZM29.2494 39.5617V44.4366H9.7498V39.5617H4.8749V44.4366H0V34.6868H14.6247V39.5617H29.2494ZM77.9984 44.4366H73.1235V34.6868H77.9984V44.4366ZM73.1235 44.4366H68.2486V54.1864H77.9984V49.3115H73.1235V44.4366ZM53.6239 44.4366H63.3737V49.3115H58.4988V54.1864H53.6239V44.4366ZM63.3737 59.0613V54.1864H58.4988V59.0613H53.6239V63.9362H43.8741V68.8111H58.4988V59.0613H63.3737ZM63.3737 59.0613H77.9984V63.9362H68.2486V68.8111H63.3737V59.0613ZM43.8741 54.1864V59.0613H48.749V49.3115H34.1243V54.1864H43.8741Z" fill="#FAFAFA"/>
<path d="M34.125 59.0605H38.9999V73.6852H58.4995V78.5602H34.125V59.0605ZM77.9991 68.8103V78.5602H63.3744V73.6852H73.1242V68.8103H77.9991Z" fill="#FAFAFA"/>
</svg>
