<svg width="16" height="16" viewBox="0 0 16 16" fill="none" xmlns="http://www.w3.org/2000/svg">
<path d="M14.25 0.5H1.75C1.41848 0.5 1.10054 0.631696 0.866116 0.866116C0.631696 1.10054 0.5 1.41848 0.5 1.75V14.25C0.5 14.5815 0.631696 14.8995 0.866116 15.1339C1.10054 15.3683 1.41848 15.5 1.75 15.5H14.25C14.5815 15.5 14.8995 15.3683 15.1339 15.1339C15.3683 14.8995 15.5 14.5815 15.5 14.25V1.75C15.5 1.41848 15.3683 1.10054 15.1339 0.866116C14.8995 0.631696 14.5815 0.5 14.25 0.5ZM11.5672 6.56719L7.19219 10.9422C7.13414 11.0003 7.06521 11.0464 6.98934 11.0779C6.91346 11.1093 6.83213 11.1255 6.75 11.1255C6.66787 11.1255 6.58654 11.1093 6.51066 11.0779C6.43479 11.0464 6.36586 11.0003 6.30781 10.9422L4.43281 9.06719C4.31554 8.94991 4.24965 8.79085 4.24965 8.625C4.24965 8.45915 4.31554 8.30009 4.43281 8.18281C4.55009 8.06554 4.70915 7.99965 4.875 7.99965C5.04085 7.99965 5.19991 8.06554 5.31719 8.18281L6.75 9.61641L10.6828 5.68281C10.7409 5.62474 10.8098 5.57868 10.8857 5.54725C10.9616 5.51583 11.0429 5.49965 11.125 5.49965C11.2071 5.49965 11.2884 5.51583 11.3643 5.54725C11.4402 5.57868 11.5091 5.62474 11.5672 5.68281C11.6253 5.74088 11.6713 5.80982 11.7027 5.88569C11.7342 5.96156 11.7503 6.04288 11.7503 6.125C11.7503 6.20712 11.7342 6.28844 11.7027 6.36431C11.6713 6.44018 11.6253 6.50912 11.5672 6.56719Z" fill="#25C866"/>
</svg>
