<svg width="110" height="33" viewBox="0 0 110 33" fill="none" xmlns="http://www.w3.org/2000/svg">
<rect x="0.354251" y="0.354251" width="122.291" height="31.8815" rx="15.9407" fill="url(#paint0_linear_9685_46319)" fill-opacity="0.1"/>
<rect x="0.354251" y="0.354251" width="122.291" height="31.8815" rx="15.9407" stroke="url(#paint1_linear_9685_46319)" stroke-width="0.708502"/>
<g clip-path="url(#clip0_9685_46319)">
<mask id="mask0_9685_46319" style="mask-type:luminance" maskUnits="userSpaceOnUse" x="7" y="8" width="17" height="17">
<path d="M7.08594 8.19141H23.2923V24.3977H7.08594V8.19141Z" fill="white"/>
<path d="M19.2276 13.3823C19.4103 13.6028 19.5673 13.8454 19.6938 14.105C19.618 14.253 19.5132 14.3843 19.3856 14.4909C19.258 14.5975 19.1102 14.6773 18.951 14.7255C18.7919 14.7738 18.6246 14.7894 18.4593 14.7715C18.294 14.7537 18.1339 14.7027 17.9887 14.6216L19.2276 13.3823ZM18.7506 12.9053L17.5113 14.1437C17.4302 13.9986 17.3792 13.8385 17.3613 13.6732C17.3434 13.5079 17.359 13.3407 17.4072 13.1816C17.4553 13.0224 17.5351 12.8746 17.6417 12.747C17.7482 12.6193 17.8794 12.5145 18.0274 12.4387C18.2863 12.5646 18.529 12.7211 18.7506 12.9049M20.0547 15.6782C20.0547 15.4014 20.0232 15.1319 19.9642 14.8727C19.7861 15.0566 19.5728 15.2028 19.337 15.3025C19.1012 15.4022 18.8478 15.4535 18.5917 15.4532C18.2012 15.4538 17.8199 15.3342 17.4996 15.1107L17.1571 15.4532L19.4215 17.7176C19.835 17.118 20.0559 16.4065 20.0547 15.6782ZM16.6797 13.5407C16.6797 13.0025 16.902 12.5161 17.2602 12.1682C16.7741 12.0576 16.2704 12.0487 15.7807 12.1422C15.291 12.2357 14.826 12.4295 14.4148 12.7114L16.6797 14.9757L17.0221 14.6333C16.7986 14.3129 16.679 13.9314 16.6797 13.5407ZM16.6797 15.9302L18.9864 18.2373C18.5341 18.6853 17.971 19.0053 17.3547 19.1647C17.3565 18.1176 16.9818 17.1048 16.299 16.3109L16.6797 15.9302ZM15.822 15.8339C15.0281 15.1511 14.0152 14.7764 12.9681 14.7782C13.1274 14.1619 13.4473 13.5989 13.8951 13.1465L16.2027 15.4532L15.822 15.8339ZM12.0672 15.2282C11.7987 15.2282 11.5411 15.3349 11.3512 15.5247C11.1614 15.7146 11.0547 15.9722 11.0547 16.2407V17.1407C11.0547 18.185 11.4695 19.1865 12.208 19.9249C12.9464 20.6633 13.9479 21.0781 14.9922 21.0781H15.8922C16.1607 21.0781 16.4182 20.9715 16.6081 20.7816C16.798 20.5917 16.9047 20.3342 16.9047 20.0656V19.1656C16.9047 18.1214 16.4898 17.1199 15.7514 16.3814C15.013 15.643 14.0115 15.2282 12.9672 15.2282H12.0672ZM13.1787 17.3522C13.242 17.289 13.3277 17.2535 13.4172 17.2535C13.5066 17.2535 13.5924 17.289 13.6557 17.3522L14.7807 18.4772C14.8138 18.5081 14.8404 18.5453 14.8589 18.5867C14.8773 18.6281 14.8873 18.6728 14.8881 18.7181C14.8889 18.7634 14.8805 18.8084 14.8635 18.8505C14.8466 18.8925 14.8213 18.9307 14.7893 18.9627C14.7572 18.9948 14.719 19.02 14.677 19.037C14.635 19.054 14.59 19.0623 14.5447 19.0615C14.4993 19.0607 14.4546 19.0508 14.4132 19.0324C14.3718 19.0139 14.3346 18.9873 14.3037 18.9542L13.1787 17.8292C13.1155 17.7659 13.08 17.6801 13.08 17.5907C13.08 17.5012 13.1155 17.4155 13.1787 17.3522Z" fill="#1A1A1A"/>
</mask>
<g mask="url(#mask0_9685_46319)">
<path d="M15.1891 24.3997C19.6643 24.3997 23.2923 20.7718 23.2923 16.2965C23.2923 11.8213 19.6643 8.19336 15.1891 8.19336C10.7138 8.19336 7.08594 11.8213 7.08594 16.2965C7.08594 20.7718 10.7138 24.3997 15.1891 24.3997Z" fill="url(#paint2_linear_9685_46319)"/>
</g>
<path d="M31.9421 18.8516C31.5693 18.8516 31.2344 18.7868 30.9373 18.6572C30.6456 18.5221 30.416 18.3384 30.2485 18.1062C30.0811 17.8685 29.9946 17.5957 29.9892 17.2877H30.7752C30.8022 17.5524 30.9103 17.7766 31.0994 17.9603C31.2938 18.1386 31.5747 18.2277 31.9421 18.2277C32.2932 18.2277 32.5687 18.1413 32.7686 17.9684C32.9739 17.7901 33.0765 17.5632 33.0765 17.2877C33.0765 17.0717 33.0171 16.8961 32.8983 16.761C32.7794 16.626 32.6309 16.5233 32.4526 16.4531C32.2743 16.3829 32.0339 16.3073 31.7314 16.2262C31.3587 16.129 31.0588 16.0317 30.832 15.9345C30.6105 15.8373 30.4187 15.686 30.2566 15.4807C30.1 15.27 30.0216 14.9891 30.0216 14.638C30.0216 14.3301 30.1 14.0573 30.2566 13.8196C30.4133 13.5819 30.6321 13.3982 30.913 13.2686C31.1993 13.1389 31.5261 13.0741 31.8935 13.0741C32.4229 13.0741 32.855 13.2064 33.19 13.4711C33.5303 13.7359 33.7221 14.087 33.7653 14.5246H32.955C32.928 14.3085 32.8145 14.1194 32.6146 13.9573C32.4148 13.7899 32.1501 13.7061 31.8205 13.7061C31.5126 13.7061 31.2614 13.7872 31.0669 13.9492C30.8725 14.1059 30.7752 14.3274 30.7752 14.6137C30.7752 14.819 30.832 14.9864 30.9454 15.1161C31.0642 15.2457 31.2074 15.3457 31.3749 15.4159C31.5477 15.4807 31.7881 15.5564 32.096 15.6428C32.4688 15.7454 32.7686 15.8481 32.9955 15.9507C33.2224 16.048 33.4169 16.2019 33.5789 16.4126C33.741 16.6179 33.822 16.8988 33.822 17.2553C33.822 17.5308 33.7491 17.7901 33.6032 18.0332C33.4574 18.2763 33.2413 18.4735 32.955 18.6248C32.6687 18.776 32.331 18.8516 31.9421 18.8516ZM35.6445 15.1728C35.7904 14.9189 36.0065 14.7082 36.2928 14.5408C36.5845 14.3679 36.9221 14.2815 37.3057 14.2815C37.7 14.2815 38.0566 14.376 38.3753 14.5651C38.6994 14.7541 38.9533 15.0216 39.137 15.3673C39.3207 15.7076 39.4125 16.1047 39.4125 16.5585C39.4125 17.0068 39.3207 17.4066 39.137 17.7577C38.9533 18.1089 38.6994 18.3817 38.3753 18.5761C38.0566 18.7706 37.7 18.8679 37.3057 18.8679C36.9275 18.8679 36.5926 18.7841 36.3009 18.6167C36.0146 18.4438 35.7958 18.2304 35.6445 17.9765V20.9017H34.9071V14.3544H35.6445V15.1728ZM38.6589 16.5585C38.6589 16.2235 38.5914 15.9318 38.4563 15.6833C38.3213 15.4348 38.1376 15.2457 37.9053 15.1161C37.6784 14.9864 37.4272 14.9216 37.1517 14.9216C36.8816 14.9216 36.6304 14.9891 36.3981 15.1242C36.1712 15.2538 35.9876 15.4456 35.8471 15.6995C35.7121 15.948 35.6445 16.237 35.6445 16.5666C35.6445 16.9015 35.7121 17.1959 35.8471 17.4498C35.9876 17.6983 36.1712 17.8901 36.3981 18.0251C36.6304 18.1548 36.8816 18.2196 37.1517 18.2196C37.4272 18.2196 37.6784 18.1548 37.9053 18.0251C38.1376 17.8901 38.3213 17.6983 38.4563 17.4498C38.5914 17.1959 38.6589 16.8988 38.6589 16.5585ZM42.3198 18.8679C41.9038 18.8679 41.5257 18.7733 41.1853 18.5842C40.8504 18.3952 40.5857 18.1278 40.3912 17.782C40.2021 17.4309 40.1076 17.0257 40.1076 16.5666C40.1076 16.1128 40.2048 15.713 40.3993 15.3673C40.5992 15.0161 40.8693 14.7487 41.2096 14.5651C41.55 14.376 41.9308 14.2815 42.3522 14.2815C42.7735 14.2815 43.1544 14.376 43.4947 14.5651C43.8351 14.7487 44.1025 15.0134 44.2969 15.3592C44.4968 15.7049 44.5967 16.1074 44.5967 16.5666C44.5967 17.0257 44.4941 17.4309 44.2888 17.782C44.089 18.1278 43.8161 18.3952 43.4704 18.5842C43.1247 18.7733 42.7411 18.8679 42.3198 18.8679ZM42.3198 18.2196C42.5845 18.2196 42.833 18.1575 43.0653 18.0332C43.2975 17.909 43.4839 17.7226 43.6244 17.4741C43.7702 17.2256 43.8432 16.9231 43.8432 16.5666C43.8432 16.21 43.7729 15.9075 43.6325 15.659C43.492 15.4105 43.3083 15.2268 43.0815 15.108C42.8546 14.9837 42.6088 14.9216 42.3441 14.9216C42.074 14.9216 41.8255 14.9837 41.5986 15.108C41.3771 15.2268 41.1988 15.4105 41.0638 15.659C40.9287 15.9075 40.8612 16.21 40.8612 16.5666C40.8612 16.9285 40.926 17.2337 41.0557 17.4822C41.1907 17.7307 41.369 17.9171 41.5905 18.0413C41.812 18.1602 42.0551 18.2196 42.3198 18.2196ZM46.3037 15.0756C46.4333 14.8217 46.617 14.6245 46.8547 14.484C47.0978 14.3436 47.3922 14.2734 47.7379 14.2734V15.0351H47.5434C46.7169 15.0351 46.3037 15.4834 46.3037 16.3802V18.7949H45.5663V14.3544H46.3037V15.0756ZM49.4886 14.9621V17.5794C49.4886 17.7955 49.5345 17.9495 49.6263 18.0413C49.7182 18.1278 49.8775 18.171 50.1044 18.171H50.6473V18.7949H49.9829C49.5723 18.7949 49.2644 18.7004 49.0591 18.5113C48.8538 18.3222 48.7512 18.0116 48.7512 17.5794V14.9621H48.1759V14.3544H48.7512V13.2362H49.4886V14.3544H50.6473V14.9621H49.4886ZM53.1128 18.8679C52.7725 18.8679 52.4672 18.8111 52.1971 18.6977C51.927 18.5788 51.7136 18.4168 51.557 18.2115C51.4003 18.0008 51.3139 17.7604 51.2977 17.4903H52.0594C52.081 17.7118 52.1836 17.8928 52.3673 18.0332C52.5564 18.1737 52.8022 18.2439 53.1047 18.2439C53.3856 18.2439 53.6071 18.1818 53.7691 18.0575C53.9312 17.9333 54.0122 17.7766 54.0122 17.5876C54.0122 17.3931 53.9258 17.2499 53.7529 17.1581C53.5801 17.0608 53.3127 16.9663 52.9507 16.8745C52.6212 16.788 52.3511 16.7016 52.1404 16.6152C51.9351 16.5233 51.7569 16.391 51.6056 16.2181C51.4597 16.0398 51.3868 15.8076 51.3868 15.5212C51.3868 15.2944 51.4543 15.0864 51.5894 14.8973C51.7244 14.7082 51.9162 14.5597 52.1647 14.4516C52.4132 14.3382 52.6968 14.2815 53.0155 14.2815C53.5071 14.2815 53.9042 14.4057 54.2067 14.6542C54.5092 14.9027 54.6713 15.243 54.6929 15.6752H53.9555C53.9393 15.4429 53.8448 15.2565 53.6719 15.1161C53.5044 14.9756 53.2776 14.9054 52.9912 14.9054C52.7265 14.9054 52.5159 14.9621 52.3592 15.0756C52.2025 15.189 52.1242 15.3376 52.1242 15.5212C52.1242 15.6671 52.1701 15.7887 52.262 15.8859C52.3592 15.9777 52.478 16.0534 52.6185 16.1128C52.7644 16.1668 52.9642 16.2289 53.2181 16.2991C53.5369 16.3856 53.7962 16.472 53.996 16.5585C54.1959 16.6395 54.3661 16.7637 54.5065 16.9312C54.6524 17.0987 54.728 17.3174 54.7334 17.5876C54.7334 17.8306 54.6659 18.0494 54.5308 18.2439C54.3958 18.4384 54.204 18.5923 53.9555 18.7058C53.7124 18.8138 53.4315 18.8679 53.1128 18.8679ZM57.6592 15.9669C57.6592 15.4159 57.7834 14.9216 58.0319 14.484C58.2804 14.0411 58.618 13.6953 59.0448 13.4468C59.477 13.1983 59.9551 13.0741 60.4791 13.0741C61.0949 13.0741 61.6324 13.2227 62.0916 13.5198C62.5508 13.8169 62.8857 14.2382 63.0964 14.7839H62.2131C62.0565 14.4435 61.8296 14.1815 61.5325 13.9979C61.2408 13.8142 60.8896 13.7223 60.4791 13.7223C60.0847 13.7223 59.7309 13.8142 59.4176 13.9979C59.1042 14.1815 58.8584 14.4435 58.6802 14.7839C58.5019 15.1188 58.4128 15.5131 58.4128 15.9669C58.4128 16.4153 58.5019 16.8096 58.6802 17.15C58.8584 17.4849 59.1042 17.7442 59.4176 17.9279C59.7309 18.1116 60.0847 18.2034 60.4791 18.2034C60.8896 18.2034 61.2408 18.1143 61.5325 17.936C61.8296 17.7523 62.0565 17.4903 62.2131 17.15H63.0964C62.8857 17.6902 62.5508 18.1089 62.0916 18.406C61.6324 18.6977 61.0949 18.8435 60.4791 18.8435C59.9551 18.8435 59.477 18.722 59.0448 18.4789C58.618 18.2304 58.2804 17.8874 58.0319 17.4498C57.7834 17.0122 57.6592 16.5179 57.6592 15.9669ZM63.9185 16.5585C63.9185 16.1047 64.0104 15.7076 64.194 15.3673C64.3777 15.0216 64.6289 14.7541 64.9476 14.5651C65.2718 14.376 65.631 14.2815 66.0254 14.2815C66.4143 14.2815 66.7519 14.3652 67.0383 14.5327C67.3246 14.7001 67.5379 14.9108 67.6784 15.1647V14.3544H68.4239V18.7949H67.6784V17.9684C67.5325 18.2277 67.3138 18.4438 67.022 18.6167C66.7357 18.7841 66.4008 18.8679 66.0173 18.8679C65.6229 18.8679 65.2664 18.7706 64.9476 18.5761C64.6289 18.3817 64.3777 18.1089 64.194 17.7577C64.0104 17.4066 63.9185 17.0068 63.9185 16.5585ZM67.6784 16.5666C67.6784 16.2316 67.6109 15.9399 67.4758 15.6914C67.3408 15.4429 67.1571 15.2538 66.9248 15.1242C66.6979 14.9891 66.4467 14.9216 66.1712 14.9216C65.8957 14.9216 65.6445 14.9864 65.4176 15.1161C65.1907 15.2457 65.0098 15.4348 64.8747 15.6833C64.7397 15.9318 64.6721 16.2235 64.6721 16.5585C64.6721 16.8988 64.7397 17.1959 64.8747 17.4498C65.0098 17.6983 65.1907 17.8901 65.4176 18.0251C65.6445 18.1548 65.8957 18.2196 66.1712 18.2196C66.4467 18.2196 66.6979 18.1548 66.9248 18.0251C67.1571 17.8901 67.3408 17.6983 67.4758 17.4498C67.6109 17.1959 67.6784 16.9015 67.6784 16.5666ZM70.4074 15.0756C70.537 14.8217 70.7207 14.6245 70.9584 14.484C71.2015 14.3436 71.4959 14.2734 71.8417 14.2734V15.0351H71.6472C70.8207 15.0351 70.4074 15.4834 70.4074 16.3802V18.7949H69.67V14.3544H70.4074V15.0756ZM72.4174 16.5585C72.4174 16.1047 72.5092 15.7076 72.6929 15.3673C72.8765 15.0216 73.1277 14.7541 73.4465 14.5651C73.7706 14.376 74.1325 14.2815 74.5323 14.2815C74.878 14.2815 75.1994 14.3625 75.4966 14.5246C75.7937 14.6812 76.0206 14.8892 76.1772 15.1485V12.7986H76.9227V18.7949H76.1772V17.9603C76.0314 18.225 75.8153 18.4438 75.529 18.6167C75.2427 18.7841 74.9077 18.8679 74.5242 18.8679C74.1298 18.8679 73.7706 18.7706 73.4465 18.5761C73.1277 18.3817 72.8765 18.1089 72.6929 17.7577C72.5092 17.4066 72.4174 17.0068 72.4174 16.5585ZM76.1772 16.5666C76.1772 16.2316 76.1097 15.9399 75.9746 15.6914C75.8396 15.4429 75.6559 15.2538 75.4236 15.1242C75.1967 14.9891 74.9455 14.9216 74.67 14.9216C74.3945 14.9216 74.1433 14.9864 73.9164 15.1161C73.6896 15.2457 73.5086 15.4348 73.3735 15.6833C73.2385 15.9318 73.171 16.2235 73.171 16.5585C73.171 16.8988 73.2385 17.1959 73.3735 17.4498C73.5086 17.6983 73.6896 17.8901 73.9164 18.0251C74.1433 18.1548 74.3945 18.2196 74.67 18.2196C74.9455 18.2196 75.1967 18.1548 75.4236 18.0251C75.6559 17.8901 75.8396 17.6983 75.9746 17.4498C76.1097 17.1959 76.1772 16.9015 76.1772 16.5666Z" fill="#FAFAFA"/>
</g>
<defs>
<linearGradient id="paint0_linear_9685_46319" x1="13.9227" y1="-4.73137" x2="34.7004" y2="62.0903" gradientUnits="userSpaceOnUse">
<stop stop-color="#FCA509"/>
<stop offset="1" stop-color="#880306"/>
</linearGradient>
<linearGradient id="paint1_linear_9685_46319" x1="13.9227" y1="-4.73137" x2="34.7004" y2="62.0903" gradientUnits="userSpaceOnUse">
<stop stop-color="#FCA509"/>
<stop offset="1" stop-color="#880306"/>
</linearGradient>
<linearGradient id="paint2_linear_9685_46319" x1="15.1891" y1="8.19336" x2="15.1891" y2="24.3997" gradientUnits="userSpaceOnUse">
<stop stop-color="#CCCCCC"/>
<stop offset="1" stop-color="#666666"/>
</linearGradient>
<clipPath id="clip0_9685_46319">
<rect width="81.0316" height="16.2063" fill="white" transform="translate(7.08594 8.19141)"/>
</clipPath>
</defs>
</svg>
