<svg width="15" height="15" viewBox="0 0 15 15" fill="none" xmlns="http://www.w3.org/2000/svg">
<path d="M6.56499 14.2107V7.89439M8.67042 5.08716H4.81048C4.34515 5.08716 3.89888 4.90231 3.56984 4.57327C3.24081 4.24424 3.05596 3.79797 3.05596 3.33264C3.05596 2.86732 3.24081 2.42105 3.56984 2.09201C3.89888 1.76298 4.34515 1.57813 4.81048 1.57812C5.86319 1.57812 6.82817 2.45538 7.52998 3.33264M9.37222 14.2107V7.89439M3.05596 7.89439H12.8813V13.5088C12.8813 13.695 12.8073 13.8735 12.6757 14.0051C12.5441 14.1367 12.3656 14.2107 12.1795 14.2107H3.75777C3.57163 14.2107 3.39313 14.1367 3.26151 14.0051C3.1299 13.8735 3.05596 13.695 3.05596 13.5088V7.89439ZM2.35415 5.08716H13.5831C13.7692 5.08716 13.9477 5.1611 14.0793 5.29272C14.2109 5.42433 14.2849 5.60284 14.2849 5.78897V7.89439H1.65234V5.78897C1.65234 5.60284 1.72628 5.42433 1.8579 5.29272C1.98951 5.1611 2.16802 5.08716 2.35415 5.08716ZM10.8846 1.57812C8.7792 1.57812 7.02468 5.08716 7.02468 5.08716H10.8846C11.3499 5.08716 11.7962 4.90231 12.1253 4.57327C12.4543 4.24424 12.6391 3.79797 12.6391 3.33264C12.6391 2.86732 12.4543 2.42105 12.1253 2.09201C11.7962 1.76298 11.3499 1.57812 10.8846 1.57812Z" stroke="white" stroke-width="1.40361" stroke-linecap="round" stroke-linejoin="round"/>
</svg>
