<svg width="32" height="32" viewBox="0 0 32 32" fill="none" xmlns="http://www.w3.org/2000/svg">
<rect width="32" height="32" rx="16" fill="#44444A"/>
<path d="M14.9934 9.48703L11.6668 10.7404C10.9001 11.027 10.2734 11.9337 10.2734 12.747V17.7004C10.2734 18.487 10.7934 19.5204 11.4268 19.9937L14.2934 22.1337C15.2334 22.8404 16.7801 22.8404 17.7201 22.1337L20.5868 19.9937C21.2201 19.5204 21.7401 18.487 21.7401 17.7004V12.747C21.7401 11.927 21.1134 11.0204 20.3468 10.7337L17.0201 9.48703C16.4534 9.28036 15.5468 9.28036 14.9934 9.48703Z" stroke="#EDF1F3" stroke-linecap="round" stroke-linejoin="round"/>
<path d="M16.0013 16.3337C16.7377 16.3337 17.3346 15.7367 17.3346 15.0003C17.3346 14.2639 16.7377 13.667 16.0013 13.667C15.2649 13.667 14.668 14.2639 14.668 15.0003C14.668 15.7367 15.2649 16.3337 16.0013 16.3337Z" stroke="#EDF1F3" stroke-miterlimit="10" stroke-linecap="round" stroke-linejoin="round"/>
<path d="M16 16.333V18.333" stroke="#EDF1F3" stroke-width="1.5" stroke-miterlimit="10" stroke-linecap="round" stroke-linejoin="round"/>
</svg>
