<svg width="164" height="54" viewBox="0 0 164 54" fill="none" xmlns="http://www.w3.org/2000/svg">
<g filter="url(#filter0_di_9685_45065)">
<rect x="4" y="4" width="156" height="46" rx="6" fill="#161618" shape-rendering="crispEdges"/>
<rect x="4.5" y="4.5" width="155" height="45" rx="5.5" stroke="#2C2C30" shape-rendering="crispEdges"/>
<path d="M69.4717 25.1172C69.4253 24.683 69.2297 24.3449 68.885 24.103C68.5436 23.861 68.0995 23.7401 67.5526 23.7401C67.1682 23.7401 66.8384 23.7981 66.5633 23.9141C66.2882 24.0301 66.0777 24.1875 65.9319 24.3864C65.7861 24.5852 65.7115 24.8123 65.7082 25.0675C65.7082 25.2796 65.7562 25.4635 65.8523 25.6193C65.9518 25.7751 66.086 25.9077 66.255 26.017C66.4241 26.1231 66.6113 26.2126 66.8168 26.2855C67.0223 26.3584 67.2295 26.4197 67.4383 26.4695L68.3928 26.7081C68.7773 26.7976 69.1469 26.9186 69.5015 27.071C69.8594 27.2235 70.1793 27.4157 70.461 27.6477C70.746 27.8797 70.9714 28.1598 71.1371 28.4879C71.3029 28.8161 71.3857 29.2005 71.3857 29.6413C71.3857 30.2379 71.2333 30.7633 70.9283 31.2173C70.6234 31.6681 70.1826 32.0211 69.6059 32.2763C69.0325 32.5282 68.3381 32.6541 67.5228 32.6541C66.7307 32.6541 66.0429 32.5315 65.4596 32.2862C64.8796 32.041 64.4255 31.683 64.0974 31.2124C63.7726 30.7417 63.5969 30.1683 63.5704 29.4922H65.385C65.4115 29.8468 65.5209 30.1418 65.7131 30.3771C65.9054 30.6125 66.1556 30.7881 66.4639 30.9041C66.7754 31.0201 67.1234 31.0781 67.5079 31.0781C67.9089 31.0781 68.2603 31.0185 68.5619 30.8991C68.8668 30.7765 69.1054 30.6075 69.2778 30.392C69.4501 30.1733 69.538 29.9181 69.5413 29.6264C69.538 29.3613 69.4601 29.1425 69.3076 28.9702C69.1551 28.7945 68.9414 28.6487 68.6663 28.5327C68.3945 28.4134 68.0763 28.3073 67.7117 28.2145L66.5533 27.9162C65.7148 27.7008 65.0519 27.3743 64.5647 26.9368C64.0808 26.496 63.8389 25.911 63.8389 25.1818C63.8389 24.5819 64.0013 24.0566 64.3261 23.6058C64.6542 23.1551 65.1 22.8054 65.6634 22.5568C66.2269 22.3049 66.8649 22.179 67.5775 22.179C68.3 22.179 68.9331 22.3049 69.4766 22.5568C70.0235 22.8054 70.4527 23.1518 70.7643 23.5959C71.0758 24.0367 71.2366 24.5438 71.2465 25.1172H69.4717ZM74.4703 28.0256V32.5H72.6705V22.3182H74.4305V26.1612H74.52C74.6989 25.7304 74.9757 25.3906 75.3502 25.142C75.7281 24.8902 76.2087 24.7642 76.792 24.7642C77.3223 24.7642 77.7846 24.8752 78.1791 25.0973C78.5735 25.3194 78.8784 25.6442 79.0938 26.0717C79.3126 26.4993 79.422 27.0213 79.422 27.6378V32.5H77.6222V27.9162C77.6222 27.4025 77.4897 27.0031 77.2245 26.718C76.9627 26.4297 76.5948 26.2855 76.1208 26.2855C75.8026 26.2855 75.5176 26.3551 75.2657 26.4943C75.0171 26.6302 74.8216 26.8274 74.6791 27.0859C74.5399 27.3445 74.4703 27.6577 74.4703 28.0256ZM83.1739 32.6541C82.69 32.6541 82.2542 32.5679 81.8664 32.3956C81.4819 32.2199 81.177 31.9614 80.9516 31.62C80.7296 31.2786 80.6185 30.8577 80.6185 30.3572C80.6185 29.9264 80.6981 29.5701 80.8572 29.2884C81.0162 29.0066 81.2333 28.7812 81.5084 28.6122C81.7835 28.4432 82.0934 28.3156 82.4381 28.2294C82.7861 28.1399 83.1457 28.0753 83.517 28.0355C83.9644 27.9891 84.3273 27.9477 84.6057 27.9112C84.8841 27.8714 85.0863 27.8118 85.2123 27.7322C85.3415 27.6494 85.4062 27.5218 85.4062 27.3494V27.3196C85.4062 26.9451 85.2951 26.6551 85.0731 26.4496C84.851 26.2441 84.5312 26.1413 84.1135 26.1413C83.6727 26.1413 83.3231 26.2375 83.0645 26.4297C82.8093 26.6219 82.637 26.849 82.5475 27.1108L80.8671 26.8722C80.9997 26.4081 81.2184 26.0204 81.5233 25.7088C81.8283 25.3939 82.2011 25.1586 82.642 25.0028C83.0828 24.8438 83.57 24.7642 84.1036 24.7642C84.4715 24.7642 84.8377 24.8073 85.2023 24.8935C85.5669 24.9796 85.9 25.1222 86.2016 25.321C86.5032 25.5166 86.7452 25.7834 86.9275 26.1214C87.1131 26.4595 87.2059 26.8821 87.2059 27.3892V32.5H85.4758V31.451H85.4161C85.3067 31.6631 85.1526 31.862 84.9537 32.0476C84.7582 32.2299 84.5113 32.3774 84.213 32.4901C83.918 32.5994 83.5716 32.6541 83.1739 32.6541ZM83.6412 31.3317C84.0025 31.3317 84.3157 31.2604 84.5809 31.1179C84.846 30.9721 85.0499 30.7798 85.1924 30.5412C85.3382 30.3026 85.4111 30.0424 85.4111 29.7607V28.8608C85.3548 28.9072 85.2587 28.9503 85.1228 28.9901C84.9902 29.0298 84.8411 29.0646 84.6753 29.0945C84.5096 29.1243 84.3456 29.1508 84.1831 29.174C84.0207 29.1972 83.8799 29.2171 83.7606 29.2337C83.4921 29.2701 83.2518 29.3298 83.0397 29.4126C82.8276 29.4955 82.6602 29.6115 82.5376 29.7607C82.4149 29.9065 82.3536 30.0954 82.3536 30.3274C82.3536 30.6589 82.4746 30.9091 82.7165 31.0781C82.9585 31.2472 83.2667 31.3317 83.6412 31.3317ZM88.7355 32.5V24.8636H90.4806V26.1364H90.5601C90.6993 25.6955 90.938 25.3558 91.276 25.1172C91.6174 24.8752 92.0068 24.7543 92.4443 24.7543C92.5438 24.7543 92.6548 24.7592 92.7774 24.7692C92.9034 24.7758 93.0078 24.7874 93.0906 24.804V26.4595C93.0144 26.433 92.8934 26.4098 92.7277 26.3899C92.5653 26.3667 92.4079 26.3551 92.2554 26.3551C91.9273 26.3551 91.6323 26.4264 91.3705 26.5689C91.112 26.7081 90.9081 26.902 90.759 27.1506C90.6098 27.3991 90.5353 27.6858 90.5353 28.0107V32.5H88.7355ZM97.0725 32.6491C96.3069 32.6491 95.6457 32.4901 95.0889 32.1719C94.5354 31.8504 94.1095 31.3963 93.8112 30.8097C93.5129 30.2197 93.3637 29.5253 93.3637 28.7266C93.3637 27.9411 93.5129 27.2517 93.8112 26.6584C94.1128 26.0618 94.5337 25.5978 95.074 25.2663C95.6142 24.9316 96.2489 24.7642 96.9781 24.7642C97.4487 24.7642 97.8929 24.8404 98.3105 24.9929C98.7314 25.142 99.1026 25.3741 99.4241 25.6889C99.7489 26.0038 100.004 26.4048 100.19 26.892C100.375 27.3759 100.468 27.9527 100.468 28.6222V29.174H94.2089V27.9609H98.743C98.7397 27.6162 98.6651 27.3097 98.5193 27.0412C98.3734 26.7694 98.1696 26.5556 97.9078 26.3999C97.6492 26.2441 97.3476 26.1662 97.0029 26.1662C96.635 26.1662 96.3119 26.2557 96.0335 26.4347C95.7551 26.6103 95.538 26.8423 95.3822 27.1307C95.2297 27.4157 95.1519 27.7289 95.1485 28.0703V29.1293C95.1485 29.5734 95.2297 29.9545 95.3921 30.2727C95.5546 30.5876 95.7816 30.8295 96.0733 30.9986C96.3649 31.1643 96.7063 31.2472 97.0974 31.2472C97.3592 31.2472 97.5962 31.2107 97.8083 31.1378C98.0205 31.0616 98.2044 30.9505 98.3602 30.8047C98.516 30.6589 98.6336 30.4782 98.7132 30.2628L100.394 30.4517C100.288 30.8958 100.085 31.2836 99.787 31.6151C99.4921 31.9432 99.1142 32.1984 98.6535 32.3807C98.1928 32.5597 97.6658 32.6491 97.0725 32.6491Z" fill="white"/>
</g>
<defs>
<filter id="filter0_di_9685_45065" x="0.3" y="0.3" width="163.4" height="57.1" filterUnits="userSpaceOnUse" color-interpolation-filters="sRGB">
<feFlood flood-opacity="0" result="BackgroundImageFix"/>
<feColorMatrix in="SourceAlpha" type="matrix" values="0 0 0 0 0 0 0 0 0 0 0 0 0 0 0 0 0 0 127 0" result="hardAlpha"/>
<feMorphology radius="3.7" operator="dilate" in="SourceAlpha" result="effect1_dropShadow_9685_45065"/>
<feOffset/>
<feComposite in2="hardAlpha" operator="out"/>
<feColorMatrix type="matrix" values="0 0 0 0 0.745098 0 0 0 0 0.792157 0 0 0 0 0.917647 0 0 0 0.03 0"/>
<feBlend mode="normal" in2="BackgroundImageFix" result="effect1_dropShadow_9685_45065"/>
<feBlend mode="normal" in="SourceGraphic" in2="effect1_dropShadow_9685_45065" result="shape"/>
<feColorMatrix in="SourceAlpha" type="matrix" values="0 0 0 0 0 0 0 0 0 0 0 0 0 0 0 0 0 0 127 0" result="hardAlpha"/>
<feOffset dy="7.4"/>
<feGaussianBlur stdDeviation="9.25"/>
<feComposite in2="hardAlpha" operator="arithmetic" k2="-1" k3="1"/>
<feColorMatrix type="matrix" values="0 0 0 0 1 0 0 0 0 1 0 0 0 0 1 0 0 0 0.11 0"/>
<feBlend mode="normal" in2="shape" result="effect2_innerShadow_9685_45065"/>
</filter>
</defs>
</svg>
