<svg width="164" height="54" viewBox="0 0 164 54" fill="none" xmlns="http://www.w3.org/2000/svg">
<g filter="url(#filter0_di_9685_45067)">
<rect x="4" y="4" width="156" height="46" rx="6" fill="#161618" shape-rendering="crispEdges"/>
<rect x="4.5" y="4.5" width="155" height="45" rx="5.5" stroke="#2C2C30" shape-rendering="crispEdges"/>
<path d="M67.534 32.5V22.3182H71.3522C72.1344 22.3182 72.7906 22.464 73.3209 22.7557C73.8545 23.0473 74.2572 23.4484 74.529 23.9588C74.8041 24.4659 74.9417 25.0426 74.9417 25.6889C74.9417 26.3419 74.8041 26.9219 74.529 27.429C74.2539 27.9361 73.8479 28.3355 73.311 28.6271C72.774 28.9155 72.1128 29.0597 71.3273 29.0597H68.7968V27.5433H71.0787C71.5361 27.5433 71.9106 27.4638 72.2023 27.3047C72.494 27.1456 72.7094 26.9268 72.8486 26.6484C72.9911 26.37 73.0624 26.0502 73.0624 25.6889C73.0624 25.3277 72.9911 25.0095 72.8486 24.7344C72.7094 24.4593 72.4923 24.2455 72.1973 24.093C71.9057 23.9373 71.5295 23.8594 71.0688 23.8594H69.3784V32.5H67.534ZM76.1842 32.5V24.8636H77.9292V26.1364H78.0088C78.148 25.6955 78.3866 25.3558 78.7247 25.1172C79.0661 24.8752 79.4555 24.7543 79.893 24.7543C79.9924 24.7543 80.1035 24.7592 80.2261 24.7692C80.3521 24.7758 80.4565 24.7874 80.5393 24.804V26.4595C80.4631 26.433 80.3421 26.4098 80.1764 26.3899C80.014 26.3667 79.8566 26.3551 79.7041 26.3551C79.376 26.3551 79.081 26.4264 78.8192 26.5689C78.5606 26.7081 78.3568 26.902 78.2076 27.1506C78.0585 27.3991 77.9839 27.6858 77.9839 28.0107V32.5H76.1842ZM81.455 32.5V24.8636H83.2547V32.5H81.455ZM82.3598 23.7798C82.0748 23.7798 81.8295 23.6854 81.624 23.4964C81.4185 23.3042 81.3158 23.0739 81.3158 22.8054C81.3158 22.5336 81.4185 22.3033 81.624 22.1143C81.8295 21.9221 82.0748 21.826 82.3598 21.826C82.6482 21.826 82.8934 21.9221 83.0956 22.1143C83.3011 22.3033 83.4039 22.5336 83.4039 22.8054C83.4039 23.0739 83.3011 23.3042 83.0956 23.4964C82.8934 23.6854 82.6482 23.7798 82.3598 23.7798ZM86.6251 28.0256V32.5H84.8254V24.8636H86.5456V26.1612H86.635C86.8107 25.7337 87.0908 25.3939 87.4752 25.142C87.863 24.8902 88.342 24.7642 88.912 24.7642C89.439 24.7642 89.8981 24.8769 90.2892 25.1023C90.6836 25.3277 90.9885 25.6541 91.2039 26.0817C91.4227 26.5092 91.5304 27.0279 91.5271 27.6378V32.5H89.7274V27.9162C89.7274 27.4058 89.5948 27.0064 89.3296 26.718C89.0678 26.4297 88.7049 26.2855 88.2409 26.2855C87.926 26.2855 87.6459 26.3551 87.4007 26.4943C87.1587 26.6302 86.9681 26.8274 86.8289 27.0859C86.693 27.3445 86.6251 27.6577 86.6251 28.0256ZM96.8898 24.8636V26.2557H92.4999V24.8636H96.8898ZM93.5837 23.0341H95.3834V30.2031C95.3834 30.4451 95.4199 30.6307 95.4928 30.7599C95.5691 30.8859 95.6685 30.9721 95.7911 31.0185C95.9138 31.0649 96.0496 31.0881 96.1988 31.0881C96.3115 31.0881 96.4142 31.0798 96.507 31.0632C96.6031 31.0466 96.6761 31.0317 96.7258 31.0185L97.029 32.4254C96.9329 32.4586 96.7954 32.495 96.6164 32.5348C96.4407 32.5746 96.2253 32.5978 95.9701 32.6044C95.5193 32.6177 95.1133 32.5497 94.7521 32.4006C94.3908 32.2481 94.1041 32.0128 93.892 31.6946C93.6832 31.3764 93.5804 30.9787 93.5837 30.5014V23.0341Z" fill="white"/>
</g>
<defs>
<filter id="filter0_di_9685_45067" x="0.3" y="0.3" width="163.4" height="57.1" filterUnits="userSpaceOnUse" color-interpolation-filters="sRGB">
<feFlood flood-opacity="0" result="BackgroundImageFix"/>
<feColorMatrix in="SourceAlpha" type="matrix" values="0 0 0 0 0 0 0 0 0 0 0 0 0 0 0 0 0 0 127 0" result="hardAlpha"/>
<feMorphology radius="3.7" operator="dilate" in="SourceAlpha" result="effect1_dropShadow_9685_45067"/>
<feOffset/>
<feComposite in2="hardAlpha" operator="out"/>
<feColorMatrix type="matrix" values="0 0 0 0 0.745098 0 0 0 0 0.792157 0 0 0 0 0.917647 0 0 0 0.03 0"/>
<feBlend mode="normal" in2="BackgroundImageFix" result="effect1_dropShadow_9685_45067"/>
<feBlend mode="normal" in="SourceGraphic" in2="effect1_dropShadow_9685_45067" result="shape"/>
<feColorMatrix in="SourceAlpha" type="matrix" values="0 0 0 0 0 0 0 0 0 0 0 0 0 0 0 0 0 0 127 0" result="hardAlpha"/>
<feOffset dy="7.4"/>
<feGaussianBlur stdDeviation="9.25"/>
<feComposite in2="hardAlpha" operator="arithmetic" k2="-1" k3="1"/>
<feColorMatrix type="matrix" values="0 0 0 0 1 0 0 0 0 1 0 0 0 0 1 0 0 0 0.11 0"/>
<feBlend mode="normal" in2="shape" result="effect2_innerShadow_9685_45067"/>
</filter>
</defs>
</svg>
