<svg width="97" height="30" viewBox="0 0 97 30" fill="none" xmlns="http://www.w3.org/2000/svg">
<rect x="1.10853" y="1.18861" width="107.211" height="28.0494" rx="14.0247" fill="url(#paint0_linear_9685_50237)" fill-opacity="0.1"/>
<rect x="1.10853" y="1.18861" width="107.211" height="28.0494" rx="14.0247" stroke="url(#paint1_linear_9685_50237)" stroke-width="0.62332"/>
<g clip-path="url(#clip0_9685_50237)">
<mask id="mask0_9685_50237" style="mask-type:luminance" maskUnits="userSpaceOnUse" x="7" y="7" width="17" height="17">
<path d="M7.03125 7.10938H23.2376V23.3157H7.03125V7.10938Z" fill="white"/>
<path d="M15.125 15.8479C14.6093 15.8479 14.1147 15.6222 13.7501 15.2203C13.3854 14.8184 13.1806 14.2734 13.1806 13.7051H13.9583C13.9583 14.0461 14.0812 14.3731 14.3 14.6142C14.5188 14.8553 14.8156 14.9908 15.125 14.9908C15.4344 14.9908 15.7312 14.8553 15.95 14.6142C16.1688 14.3731 16.2917 14.0461 16.2917 13.7051H17.0694C17.0694 14.2734 16.8646 14.8184 16.4999 15.2203C16.1353 15.6222 15.6407 15.8479 15.125 15.8479ZM15.125 11.5622C15.4344 11.5622 15.7312 11.6977 15.95 11.9388C16.1688 12.1799 16.2917 12.5069 16.2917 12.8479H13.9583C13.9583 12.5069 14.0812 12.1799 14.3 11.9388C14.5188 11.6977 14.8156 11.5622 15.125 11.5622ZM17.8472 12.8479H17.0694C17.0694 12.5665 17.0192 12.2879 16.9214 12.0279C16.8237 11.7679 16.6805 11.5317 16.4999 11.3327C16.3194 11.1337 16.105 10.9759 15.8691 10.8682C15.6332 10.7605 15.3803 10.7051 15.125 10.7051C14.6093 10.7051 14.1147 10.9308 13.7501 11.3327C13.3854 11.7346 13.1806 12.2796 13.1806 12.8479H12.4028C11.9711 12.8479 11.625 13.2294 11.625 13.7051V18.8479C11.625 19.0753 11.7069 19.2933 11.8528 19.454C11.9987 19.6148 12.1965 19.7051 12.4028 19.7051H17.8472C18.0535 19.7051 18.2513 19.6148 18.3972 19.454C18.5431 19.2933 18.625 19.0753 18.625 18.8479V13.7051C18.625 13.4777 18.5431 13.2597 18.3972 13.099C18.2513 12.9382 18.0535 12.8479 17.8472 12.8479Z" fill="#1A1A1A"/>
</mask>
<g mask="url(#mask0_9685_50237)">
<path d="M15.1344 23.3176C19.6097 23.3176 23.2376 19.6897 23.2376 15.2145C23.2376 10.7392 19.6097 7.11133 15.1344 7.11133C10.6592 7.11133 7.03125 10.7392 7.03125 15.2145C7.03125 19.6897 10.6592 23.3176 15.1344 23.3176Z" fill="url(#paint2_linear_9685_50237)"/>
</g>
<path d="M31.8874 17.7696C31.5147 17.7696 31.1797 17.7048 30.8826 17.5751C30.5909 17.4401 30.3613 17.2564 30.1938 17.0241C30.0264 16.7864 29.9399 16.5136 29.9345 16.2057H30.7205C30.7476 16.4704 30.8556 16.6946 31.0447 16.8783C31.2391 17.0565 31.5201 17.1457 31.8874 17.1457C32.2385 17.1457 32.514 17.0592 32.7139 16.8864C32.9192 16.7081 33.0218 16.4812 33.0218 16.2057C33.0218 15.9896 32.9624 15.8141 32.8436 15.679C32.7247 15.5439 32.5762 15.4413 32.3979 15.3711C32.2196 15.3009 31.9792 15.2252 31.6767 15.1442C31.304 15.047 31.0042 14.9497 30.7773 14.8525C30.5558 14.7552 30.364 14.604 30.2019 14.3987C30.0453 14.188 29.9669 13.9071 29.9669 13.556C29.9669 13.2481 30.0453 12.9752 30.2019 12.7376C30.3586 12.4999 30.5774 12.3162 30.8583 12.1865C31.1446 12.0569 31.4714 11.9921 31.8388 11.9921C32.3682 11.9921 32.8004 12.1244 33.1353 12.3891C33.4756 12.6538 33.6674 13.005 33.7106 13.4425H32.9003C32.8733 13.2264 32.7598 13.0374 32.56 12.8753C32.3601 12.7078 32.0954 12.6241 31.7659 12.6241C31.4579 12.6241 31.2067 12.7051 31.0123 12.8672C30.8178 13.0239 30.7205 13.2453 30.7205 13.5317C30.7205 13.7369 30.7773 13.9044 30.8907 14.0341C31.0096 14.1637 31.1527 14.2636 31.3202 14.3339C31.493 14.3987 31.7334 14.4743 32.0414 14.5608C32.4141 14.6634 32.7139 14.766 32.9408 14.8687C33.1677 14.9659 33.3622 15.1199 33.5242 15.3306C33.6863 15.5358 33.7673 15.8168 33.7673 16.1733C33.7673 16.4488 33.6944 16.7081 33.5485 16.9512C33.4027 17.1943 33.1866 17.3915 32.9003 17.5427C32.614 17.694 32.2763 17.7696 31.8874 17.7696ZM37.0565 13.1913C37.3914 13.1913 37.694 13.2643 37.9641 13.4101C38.2342 13.5506 38.4449 13.764 38.5961 14.0503C38.7528 14.3366 38.8311 14.685 38.8311 15.0956V17.7129H38.1018V15.2009C38.1018 14.7579 37.9911 14.4203 37.7696 14.188C37.5481 13.9503 37.2456 13.8315 36.862 13.8315C36.4731 13.8315 36.1625 13.953 35.9302 14.1961C35.7033 14.4392 35.5898 14.7931 35.5898 15.2576V17.7129H34.8525V11.7166H35.5898V13.9044C35.7357 13.6775 35.9356 13.5019 36.1895 13.3777C36.4488 13.2535 36.7378 13.1913 37.0565 13.1913ZM41.9723 17.7858C41.5563 17.7858 41.1782 17.6913 40.8378 17.5022C40.5029 17.3131 40.2382 17.0457 40.0437 16.7C39.8547 16.3489 39.7601 15.9437 39.7601 15.4845C39.7601 15.0307 39.8574 14.631 40.0518 14.2853C40.2517 13.9341 40.5218 13.6667 40.8622 13.483C41.2025 13.294 41.5833 13.1994 42.0047 13.1994C42.4261 13.1994 42.8069 13.294 43.1472 13.483C43.4876 13.6667 43.755 13.9314 43.9495 14.2772C44.1493 14.6229 44.2493 15.0253 44.2493 15.4845C44.2493 15.9437 44.1466 16.3489 43.9414 16.7C43.7415 17.0457 43.4687 17.3131 43.1229 17.5022C42.7772 17.6913 42.3936 17.7858 41.9723 17.7858ZM41.9723 17.1376C42.237 17.1376 42.4855 17.0754 42.7178 16.9512C42.9501 16.8269 43.1364 16.6406 43.2769 16.3921C43.4227 16.1436 43.4957 15.8411 43.4957 15.4845C43.4957 15.128 43.4255 14.8255 43.285 14.577C43.1445 14.3285 42.9609 14.1448 42.734 14.026C42.5071 13.9017 42.2613 13.8396 41.9966 13.8396C41.7265 13.8396 41.478 13.9017 41.2511 14.026C41.0296 14.1448 40.8513 14.3285 40.7163 14.577C40.5812 14.8255 40.5137 15.128 40.5137 15.4845C40.5137 15.8465 40.5785 16.1517 40.7082 16.4002C40.8432 16.6487 41.0215 16.835 41.243 16.9593C41.4645 17.0781 41.7076 17.1376 41.9723 17.1376ZM45.9562 14.0908C46.102 13.8369 46.3181 13.6262 46.6044 13.4587C46.8962 13.2859 47.2338 13.1994 47.6173 13.1994C48.0117 13.1994 48.3682 13.294 48.687 13.483C49.0111 13.6721 49.265 13.9395 49.4487 14.2853C49.6323 14.6256 49.7242 15.0226 49.7242 15.4764C49.7242 15.9248 49.6323 16.3245 49.4487 16.6757C49.265 17.0268 49.0111 17.2996 48.687 17.4941C48.3682 17.6886 48.0117 17.7858 47.6173 17.7858C47.2392 17.7858 46.9043 17.7021 46.6125 17.5346C46.3262 17.3618 46.1074 17.1484 45.9562 16.8945V19.8197H45.2188V13.2724H45.9562V14.0908ZM48.9706 15.4764C48.9706 15.1415 48.903 14.8498 48.768 14.6013C48.6329 14.3528 48.4493 14.1637 48.217 14.0341C47.9901 13.9044 47.7389 13.8396 47.4634 13.8396C47.1933 13.8396 46.9421 13.9071 46.7098 14.0422C46.4829 14.1718 46.2992 14.3636 46.1588 14.6175C46.0237 14.866 45.9562 15.155 45.9562 15.4845C45.9562 15.8195 46.0237 16.1139 46.1588 16.3678C46.2992 16.6163 46.4829 16.808 46.7098 16.9431C46.9421 17.0727 47.1933 17.1376 47.4634 17.1376C47.7389 17.1376 47.9901 17.0727 48.217 16.9431C48.4493 16.808 48.6329 16.6163 48.768 16.3678C48.903 16.1139 48.9706 15.8168 48.9706 15.4764ZM51.4322 14.0908C51.578 13.8369 51.7941 13.6262 52.0804 13.4587C52.3721 13.2859 52.7097 13.1994 53.0933 13.1994C53.4877 13.1994 53.8442 13.294 54.1629 13.483C54.487 13.6721 54.7409 13.9395 54.9246 14.2853C55.1083 14.6256 55.2001 15.0226 55.2001 15.4764C55.2001 15.9248 55.1083 16.3245 54.9246 16.6757C54.7409 17.0268 54.487 17.2996 54.1629 17.4941C53.8442 17.6886 53.4877 17.7858 53.0933 17.7858C52.7152 17.7858 52.3802 17.7021 52.0885 17.5346C51.8022 17.3618 51.5834 17.1484 51.4322 16.8945V19.8197H50.6948V13.2724H51.4322V14.0908ZM54.4465 15.4764C54.4465 15.1415 54.379 14.8498 54.2439 14.6013C54.1089 14.3528 53.9252 14.1637 53.6929 14.0341C53.466 13.9044 53.2148 13.8396 52.9393 13.8396C52.6692 13.8396 52.418 13.9071 52.1857 14.0422C51.9589 14.1718 51.7752 14.3636 51.6347 14.6175C51.4997 14.866 51.4322 15.155 51.4322 15.4845C51.4322 15.8195 51.4997 16.1139 51.6347 16.3678C51.7752 16.6163 51.9589 16.808 52.1857 16.9431C52.418 17.0727 52.6692 17.1376 52.9393 17.1376C53.2148 17.1376 53.466 17.0727 53.6929 16.9431C53.9252 16.808 54.1089 16.6163 54.2439 16.3678C54.379 16.1139 54.4465 15.8168 54.4465 15.4764ZM56.5516 12.5512C56.4111 12.5512 56.2923 12.5026 56.195 12.4053C56.0978 12.3081 56.0492 12.1892 56.0492 12.0488C56.0492 11.9083 56.0978 11.7895 56.195 11.6922C56.2923 11.595 56.4111 11.5464 56.5516 11.5464C56.6866 11.5464 56.8001 11.595 56.8919 11.6922C56.9891 11.7895 57.0378 11.9083 57.0378 12.0488C57.0378 12.1892 56.9891 12.3081 56.8919 12.4053C56.8001 12.5026 56.6866 12.5512 56.5516 12.5512ZM56.9081 13.2724V17.7129H56.1707V13.2724H56.9081ZM60.3284 13.1913C60.8686 13.1913 61.3062 13.3561 61.6411 13.6856C61.976 14.0097 62.1435 14.4797 62.1435 15.0956V17.7129H61.4142V15.2009C61.4142 14.7579 61.3035 14.4203 61.082 14.188C60.8605 13.9503 60.558 13.8315 60.1744 13.8315C59.7855 13.8315 59.4749 13.953 59.2426 14.1961C59.0157 14.4392 58.9022 14.7931 58.9022 15.2576V17.7129H58.1649V13.2724H58.9022V13.9044C59.0481 13.6775 59.2453 13.5019 59.4938 13.3777C59.7477 13.2535 60.0259 13.1913 60.3284 13.1913ZM65.1793 13.1994C65.5629 13.1994 65.8978 13.2832 66.1841 13.4506C66.4759 13.6181 66.6919 13.8288 66.8324 14.0827V13.2724H67.5779V17.8101C67.5779 18.2153 67.4914 18.5745 67.3186 18.8878C67.1457 19.2066 66.8972 19.4551 66.5731 19.6333C66.2544 19.8116 65.8816 19.9007 65.4549 19.9007C64.8714 19.9007 64.3852 19.763 63.9963 19.4875C63.6073 19.212 63.3777 18.8365 63.3075 18.3611H64.0368C64.1178 18.6312 64.2853 18.8473 64.5392 19.0094C64.7931 19.1769 65.0983 19.2606 65.4549 19.2606C65.86 19.2606 66.1895 19.1336 66.4434 18.8797C66.7027 18.6258 66.8324 18.2693 66.8324 17.8101V16.8783C66.6865 17.1376 66.4705 17.3537 66.1841 17.5265C65.8978 17.6994 65.5629 17.7858 65.1793 17.7858C64.785 17.7858 64.4258 17.6886 64.1016 17.4941C63.7829 17.2996 63.5317 17.0268 63.348 16.6757C63.1644 16.3245 63.0725 15.9248 63.0725 15.4764C63.0725 15.0226 63.1644 14.6256 63.348 14.2853C63.5317 13.9395 63.7829 13.6721 64.1016 13.483C64.4258 13.294 64.785 13.1994 65.1793 13.1994ZM66.8324 15.4845C66.8324 15.1496 66.7649 14.8579 66.6298 14.6094C66.4948 14.3609 66.3111 14.1718 66.0788 14.0422C65.8519 13.9071 65.6007 13.8396 65.3252 13.8396C65.0497 13.8396 64.7985 13.9044 64.5716 14.0341C64.3447 14.1637 64.1638 14.3528 64.0287 14.6013C63.8936 14.8498 63.8261 15.1415 63.8261 15.4764C63.8261 15.8168 63.8936 16.1139 64.0287 16.3678C64.1638 16.6163 64.3447 16.808 64.5716 16.9431C64.7985 17.0727 65.0497 17.1376 65.3252 17.1376C65.6007 17.1376 65.8519 17.0727 66.0788 16.9431C66.3111 16.808 66.4948 16.6163 66.6298 16.3678C66.7649 16.1139 66.8324 15.8195 66.8324 15.4845ZM70.7088 14.8849C70.7088 14.3339 70.8331 13.8396 71.0815 13.402C71.33 12.959 71.6677 12.6133 72.0944 12.3648C72.5266 12.1163 73.0047 11.9921 73.5287 11.9921C74.1445 11.9921 74.6821 12.1406 75.1412 12.4377C75.6004 12.7349 75.9353 13.1562 76.146 13.7018H75.2628C75.1061 13.3615 74.8792 13.0995 74.5821 12.9158C74.2904 12.7321 73.9393 12.6403 73.5287 12.6403C73.1343 12.6403 72.7805 12.7321 72.4672 12.9158C72.1539 13.0995 71.9081 13.3615 71.7298 13.7018C71.5515 14.0368 71.4624 14.4311 71.4624 14.8849C71.4624 15.3333 71.5515 15.7276 71.7298 16.0679C71.9081 16.4029 72.1539 16.6622 72.4672 16.8459C72.7805 17.0295 73.1343 17.1214 73.5287 17.1214C73.9393 17.1214 74.2904 17.0322 74.5821 16.854C74.8792 16.6703 75.1061 16.4083 75.2628 16.0679H76.146C75.9353 16.6082 75.6004 17.0268 75.1412 17.3239C74.6821 17.6157 74.1445 17.7615 73.5287 17.7615C73.0047 17.7615 72.5266 17.64 72.0944 17.3969C71.6677 17.1484 71.33 16.8053 71.0815 16.3678C70.8331 15.9302 70.7088 15.4359 70.7088 14.8849ZM76.9682 15.4764C76.9682 15.0226 77.06 14.6256 77.2437 14.2853C77.4274 13.9395 77.6786 13.6721 77.9973 13.483C78.3214 13.294 78.6806 13.1994 79.075 13.1994C79.4639 13.1994 79.8016 13.2832 80.0879 13.4506C80.3742 13.6181 80.5876 13.8288 80.728 14.0827V13.2724H81.4735V17.7129H80.728V16.8864C80.5822 17.1457 80.3634 17.3618 80.0717 17.5346C79.7854 17.7021 79.4504 17.7858 79.0669 17.7858C78.6725 17.7858 78.316 17.6886 77.9973 17.4941C77.6786 17.2996 77.4274 17.0268 77.2437 16.6757C77.06 16.3245 76.9682 15.9248 76.9682 15.4764ZM80.728 15.4845C80.728 15.1496 80.6605 14.8579 80.5255 14.6094C80.3904 14.3609 80.2067 14.1718 79.9744 14.0422C79.7476 13.9071 79.4964 13.8396 79.2209 13.8396C78.9453 13.8396 78.6941 13.9044 78.4673 14.0341C78.2404 14.1637 78.0594 14.3528 77.9243 14.6013C77.7893 14.8498 77.7218 15.1415 77.7218 15.4764C77.7218 15.8168 77.7893 16.1139 77.9243 16.3678C78.0594 16.6163 78.2404 16.808 78.4673 16.9431C78.6941 17.0727 78.9453 17.1376 79.2209 17.1376C79.4964 17.1376 79.7476 17.0727 79.9744 16.9431C80.2067 16.808 80.3904 16.6163 80.5255 16.3678C80.6605 16.1139 80.728 15.8195 80.728 15.4845ZM83.457 13.9935C83.5867 13.7396 83.7704 13.5425 84.008 13.402C84.2511 13.2616 84.5456 13.1913 84.8913 13.1913V13.953H84.6968C83.8703 13.953 83.457 14.4014 83.457 15.2981V17.7129H82.7196V13.2724H83.457V13.9935ZM85.467 15.4764C85.467 15.0226 85.5588 14.6256 85.7425 14.2853C85.9262 13.9395 86.1774 13.6721 86.4961 13.483C86.8202 13.294 87.1822 13.1994 87.5819 13.1994C87.9277 13.1994 88.2491 13.2805 88.5462 13.4425C88.8433 13.5992 89.0702 13.8072 89.2269 14.0665V11.7166H89.9724V17.7129H89.2269V16.8783C89.081 17.143 88.8649 17.3618 88.5786 17.5346C88.2923 17.7021 87.9574 17.7858 87.5738 17.7858C87.1795 17.7858 86.8202 17.6886 86.4961 17.4941C86.1774 17.2996 85.9262 17.0268 85.7425 16.6757C85.5588 16.3245 85.467 15.9248 85.467 15.4764ZM89.2269 15.4845C89.2269 15.1496 89.1593 14.8579 89.0243 14.6094C88.8892 14.3609 88.7056 14.1718 88.4733 14.0422C88.2464 13.9071 87.9952 13.8396 87.7197 13.8396C87.4442 13.8396 87.193 13.9044 86.9661 14.0341C86.7392 14.1637 86.5582 14.3528 86.4232 14.6013C86.2881 14.8498 86.2206 15.1415 86.2206 15.4764C86.2206 15.8168 86.2881 16.1139 86.4232 16.3678C86.5582 16.6163 86.7392 16.808 86.9661 16.9431C87.193 17.0727 87.4442 17.1376 87.7197 17.1376C87.9952 17.1376 88.2464 17.0727 88.4733 16.9431C88.7056 16.808 88.8892 16.6163 89.0243 16.3678C89.1593 16.1139 89.2269 15.8195 89.2269 15.4845Z" fill="#FAFAFA"/>
</g>
<defs>
<linearGradient id="paint0_linear_9685_50237" x1="13.0029" y1="-3.28571" x2="31.3363" y2="55.4674" gradientUnits="userSpaceOnUse">
<stop stop-color="#FCA509"/>
<stop offset="1" stop-color="#880306"/>
</linearGradient>
<linearGradient id="paint1_linear_9685_50237" x1="13.0029" y1="-3.28571" x2="31.3363" y2="55.4674" gradientUnits="userSpaceOnUse">
<stop stop-color="#FCA509"/>
<stop offset="1" stop-color="#880306"/>
</linearGradient>
<linearGradient id="paint2_linear_9685_50237" x1="15.1344" y1="7.11133" x2="15.1344" y2="23.3176" gradientUnits="userSpaceOnUse">
<stop stop-color="#CCCCCC"/>
<stop offset="1" stop-color="#666666"/>
</linearGradient>
<clipPath id="clip0_9685_50237">
<rect width="84" height="16.2063" fill="white" transform="translate(7.03125 7.10938)"/>
</clipPath>
</defs>
</svg>
