<svg width="97" height="30" viewBox="0 0 97 30" fill="none" xmlns="http://www.w3.org/2000/svg">
<rect x="1.10853" y="1.18861" width="107.211" height="28.0494" rx="14.0247" fill="url(#paint0_linear_9685_56009)" fill-opacity="0.1"/>
<rect x="1.10853" y="1.18861" width="107.211" height="28.0494" rx="14.0247" stroke="url(#paint1_linear_9685_56009)" stroke-width="0.62332"/>
<g clip-path="url(#clip0_9685_56009)">
<mask id="mask0_9685_56009" style="mask-type:luminance" maskUnits="userSpaceOnUse" x="7" y="7" width="17" height="17">
<path d="M7.03125 7.10938H23.2376V23.3157H7.03125V7.10938Z" fill="white"/>
<path fill-rule="evenodd" clip-rule="evenodd" d="M18.2498 14.2731H15.8731L17.2899 10.9677C17.3102 10.9202 17.3184 10.8685 17.3138 10.8171C17.3093 10.7657 17.292 10.7163 17.2635 10.6732C17.2351 10.6301 17.1965 10.5948 17.151 10.5704C17.1056 10.5459 17.0548 10.5332 17.0032 10.5332H13.8866C13.8255 10.5331 13.7658 10.551 13.7148 10.5846C13.6639 10.6182 13.6239 10.666 13.5998 10.7221L11.7299 15.0853C11.7095 15.1327 11.7013 15.1845 11.7059 15.2359C11.7105 15.2873 11.7278 15.3367 11.7562 15.3798C11.7846 15.4228 11.8233 15.4582 11.8687 15.4826C11.9142 15.507 11.965 15.5198 12.0166 15.5198H13.5587L11.7274 20.0787C11.6027 20.3885 11.9873 20.6509 12.2304 20.4215L15.362 17.4651L18.4524 14.8216C18.5008 14.7802 18.5354 14.725 18.5514 14.6633C18.5675 14.6017 18.5642 14.5366 18.5422 14.4768C18.5201 14.417 18.4802 14.3655 18.428 14.3291C18.3757 14.2926 18.3135 14.2731 18.2498 14.2731ZM15.4006 14.8964H17.4058L14.9449 17.002L12.835 18.9935L14.3092 15.324C14.3281 15.2768 14.3352 15.2255 14.3298 15.1749C14.3243 15.1242 14.3066 15.0757 14.278 15.0335C14.2495 14.9913 14.211 14.9567 14.166 14.9328C14.121 14.909 14.0709 14.8965 14.0199 14.8964H12.4891L14.0922 11.1565H16.5307L15.1139 14.462C15.0935 14.5094 15.0853 14.5611 15.0899 14.6125C15.0945 14.6639 15.1118 14.7134 15.1402 14.7565C15.1686 14.7995 15.2073 14.8349 15.2527 14.8593C15.2982 14.8837 15.349 14.8965 15.4006 14.8964Z" fill="black"/>
</mask>
<g mask="url(#mask0_9685_56009)">
<path d="M15.1344 23.3176C19.6097 23.3176 23.2376 19.6897 23.2376 15.2145C23.2376 10.7392 19.6097 7.11133 15.1344 7.11133C10.6592 7.11133 7.03125 10.7392 7.03125 15.2145C7.03125 19.6897 10.6592 23.3176 15.1344 23.3176Z" fill="url(#paint2_linear_9685_56009)"/>
</g>
<path d="M31.8874 17.7696C31.5147 17.7696 31.1797 17.7048 30.8826 17.5751C30.5909 17.4401 30.3613 17.2564 30.1938 17.0241C30.0264 16.7864 29.9399 16.5136 29.9345 16.2057H30.7205C30.7476 16.4704 30.8556 16.6946 31.0447 16.8783C31.2391 17.0565 31.5201 17.1457 31.8874 17.1457C32.2385 17.1457 32.514 17.0592 32.7139 16.8864C32.9192 16.7081 33.0218 16.4812 33.0218 16.2057C33.0218 15.9896 32.9624 15.8141 32.8436 15.679C32.7247 15.5439 32.5762 15.4413 32.3979 15.3711C32.2196 15.3009 31.9792 15.2252 31.6767 15.1442C31.304 15.047 31.0042 14.9497 30.7773 14.8525C30.5558 14.7552 30.364 14.604 30.2019 14.3987C30.0453 14.188 29.9669 13.9071 29.9669 13.556C29.9669 13.2481 30.0453 12.9752 30.2019 12.7376C30.3586 12.4999 30.5774 12.3162 30.8583 12.1865C31.1446 12.0569 31.4714 11.9921 31.8388 11.9921C32.3682 11.9921 32.8004 12.1244 33.1353 12.3891C33.4756 12.6538 33.6674 13.005 33.7106 13.4425H32.9003C32.8733 13.2264 32.7598 13.0374 32.56 12.8753C32.3601 12.7078 32.0954 12.6241 31.7659 12.6241C31.4579 12.6241 31.2067 12.7051 31.0123 12.8672C30.8178 13.0239 30.7205 13.2453 30.7205 13.5317C30.7205 13.7369 30.7773 13.9044 30.8907 14.0341C31.0096 14.1637 31.1527 14.2636 31.3202 14.3339C31.493 14.3987 31.7334 14.4743 32.0414 14.5608C32.4141 14.6634 32.7139 14.766 32.9408 14.8687C33.1677 14.9659 33.3622 15.1199 33.5242 15.3306C33.6863 15.5358 33.7673 15.8168 33.7673 16.1733C33.7673 16.4488 33.6944 16.7081 33.5485 16.9512C33.4027 17.1943 33.1866 17.3915 32.9003 17.5427C32.614 17.694 32.2763 17.7696 31.8874 17.7696ZM36.7891 17.7858C36.3731 17.7858 35.995 17.6913 35.6547 17.5022C35.3197 17.3131 35.055 17.0457 34.8606 16.7C34.6715 16.3489 34.5769 15.9437 34.5769 15.4845C34.5769 15.0307 34.6742 14.631 34.8687 14.2853C35.0685 13.9341 35.3386 13.6667 35.679 13.483C36.0193 13.294 36.4002 13.1994 36.8215 13.1994C37.2429 13.1994 37.6237 13.294 37.9641 13.483C38.3044 13.6667 38.5718 13.9314 38.7663 14.2772C38.9662 14.6229 39.0661 15.0253 39.0661 15.4845C39.0661 15.9437 38.9635 16.3489 38.7582 16.7C38.5583 17.0457 38.2855 17.3131 37.9398 17.5022C37.594 17.6913 37.2105 17.7858 36.7891 17.7858ZM36.7891 17.1376C37.0538 17.1376 37.3023 17.0754 37.5346 16.9512C37.7669 16.8269 37.9533 16.6406 38.0937 16.3921C38.2396 16.1436 38.3125 15.8411 38.3125 15.4845C38.3125 15.128 38.2423 14.8255 38.1018 14.577C37.9614 14.3285 37.7777 14.1448 37.5508 14.026C37.3239 13.9017 37.0781 13.8396 36.8134 13.8396C36.5433 13.8396 36.2948 13.9017 36.0679 14.026C35.8464 14.1448 35.6682 14.3285 35.5331 14.577C35.3981 14.8255 35.3305 15.128 35.3305 15.4845C35.3305 15.8465 35.3954 16.1517 35.525 16.4002C35.6601 16.6487 35.8383 16.835 36.0598 16.9593C36.2813 17.0781 36.5244 17.1376 36.7891 17.1376ZM39.7601 15.4845C39.7601 15.0253 39.852 14.6256 40.0356 14.2853C40.2193 13.9395 40.4732 13.6721 40.7973 13.483C41.1269 13.294 41.5023 13.1994 41.9237 13.1994C42.4693 13.1994 42.9177 13.3318 43.2688 13.5965C43.6253 13.8612 43.8603 14.2285 43.9738 14.6985H43.1797C43.104 14.4284 42.9555 14.215 42.734 14.0584C42.5179 13.9017 42.2478 13.8234 41.9237 13.8234C41.5023 13.8234 41.162 13.9692 40.9027 14.2609C40.6434 14.5473 40.5137 14.9551 40.5137 15.4845C40.5137 16.0193 40.6434 16.4326 40.9027 16.7243C41.162 17.016 41.5023 17.1619 41.9237 17.1619C42.2478 17.1619 42.5179 17.0862 42.734 16.935C42.9501 16.7837 43.0986 16.5676 43.1797 16.2867H43.9738C43.8549 16.7405 43.6172 17.1052 43.2607 17.3807C42.9041 17.6508 42.4585 17.7858 41.9237 17.7858C41.5023 17.7858 41.1269 17.6913 40.7973 17.5022C40.4732 17.3131 40.2193 17.0457 40.0356 16.7C39.852 16.3543 39.7601 15.9491 39.7601 15.4845ZM45.3385 12.5512C45.1981 12.5512 45.0792 12.5026 44.982 12.4053C44.8847 12.3081 44.8361 12.1892 44.8361 12.0488C44.8361 11.9083 44.8847 11.7895 44.982 11.6922C45.0792 11.595 45.1981 11.5464 45.3385 11.5464C45.4736 11.5464 45.587 11.595 45.6788 11.6922C45.7761 11.7895 45.8247 11.9083 45.8247 12.0488C45.8247 12.1892 45.7761 12.3081 45.6788 12.4053C45.587 12.5026 45.4736 12.5512 45.3385 12.5512ZM45.6951 13.2724V17.7129H44.9577V13.2724H45.6951ZM46.6763 15.4764C46.6763 15.0226 46.7681 14.6256 46.9518 14.2853C47.1355 13.9395 47.3867 13.6721 47.7054 13.483C48.0295 13.294 48.3888 13.1994 48.7831 13.1994C49.1721 13.1994 49.5097 13.2832 49.796 13.4506C50.0823 13.6181 50.2957 13.8288 50.4362 14.0827V13.2724H51.1816V17.7129H50.4362V16.8864C50.2903 17.1457 50.0715 17.3618 49.7798 17.5346C49.4935 17.7021 49.1586 17.7858 48.775 17.7858C48.3807 17.7858 48.0241 17.6886 47.7054 17.4941C47.3867 17.2996 47.1355 17.0268 46.9518 16.6757C46.7681 16.3245 46.6763 15.9248 46.6763 15.4764ZM50.4362 15.4845C50.4362 15.1496 50.3686 14.8579 50.2336 14.6094C50.0985 14.3609 49.9149 14.1718 49.6826 14.0422C49.4557 13.9071 49.2045 13.8396 48.929 13.8396C48.6535 13.8396 48.4023 13.9044 48.1754 14.0341C47.9485 14.1637 47.7675 14.3528 47.6325 14.6013C47.4974 14.8498 47.4299 15.1415 47.4299 15.4764C47.4299 15.8168 47.4974 16.1139 47.6325 16.3678C47.7675 16.6163 47.9485 16.808 48.1754 16.9431C48.4023 17.0727 48.6535 17.1376 48.929 17.1376C49.2045 17.1376 49.4557 17.0727 49.6826 16.9431C49.9149 16.808 50.0985 16.6163 50.2336 16.3678C50.3686 16.1139 50.4362 15.8195 50.4362 15.4845ZM53.1652 11.7166V17.7129H52.4278V11.7166H53.1652ZM56.3067 14.8849C56.3067 14.3339 56.431 13.8396 56.6795 13.402C56.9279 12.959 57.2656 12.6133 57.6923 12.3648C58.1245 12.1163 58.6026 11.9921 59.1266 11.9921C59.7424 11.9921 60.28 12.1406 60.7391 12.4377C61.1983 12.7349 61.5332 13.1562 61.7439 13.7018H60.8607C60.704 13.3615 60.4771 13.0995 60.18 12.9158C59.8883 12.7321 59.5372 12.6403 59.1266 12.6403C58.7323 12.6403 58.3784 12.7321 58.0651 12.9158C57.7518 13.0995 57.506 13.3615 57.3277 13.7018C57.1494 14.0368 57.0603 14.4311 57.0603 14.8849C57.0603 15.3333 57.1494 15.7276 57.3277 16.0679C57.506 16.4029 57.7518 16.6622 58.0651 16.8459C58.3784 17.0295 58.7323 17.1214 59.1266 17.1214C59.5372 17.1214 59.8883 17.0322 60.18 16.854C60.4771 16.6703 60.704 16.4083 60.8607 16.0679H61.7439C61.5332 16.6082 61.1983 17.0268 60.7391 17.3239C60.28 17.6157 59.7424 17.7615 59.1266 17.7615C58.6026 17.7615 58.1245 17.64 57.6923 17.3969C57.2656 17.1484 56.9279 16.8053 56.6795 16.3678C56.431 15.9302 56.3067 15.4359 56.3067 14.8849ZM62.5661 15.4764C62.5661 15.0226 62.6579 14.6256 62.8416 14.2853C63.0253 13.9395 63.2765 13.6721 63.5952 13.483C63.9193 13.294 64.2785 13.1994 64.6729 13.1994C65.0619 13.1994 65.3995 13.2832 65.6858 13.4506C65.9721 13.6181 66.1855 13.8288 66.3259 14.0827V13.2724H67.0714V17.7129H66.3259V16.8864C66.1801 17.1457 65.9613 17.3618 65.6696 17.5346C65.3833 17.7021 65.0483 17.7858 64.6648 17.7858C64.2704 17.7858 63.9139 17.6886 63.5952 17.4941C63.2765 17.2996 63.0253 17.0268 62.8416 16.6757C62.6579 16.3245 62.5661 15.9248 62.5661 15.4764ZM66.3259 15.4845C66.3259 15.1496 66.2584 14.8579 66.1234 14.6094C65.9883 14.3609 65.8046 14.1718 65.5724 14.0422C65.3455 13.9071 65.0943 13.8396 64.8188 13.8396C64.5433 13.8396 64.2921 13.9044 64.0652 14.0341C63.8383 14.1637 63.6573 14.3528 63.5223 14.6013C63.3872 14.8498 63.3197 15.1415 63.3197 15.4764C63.3197 15.8168 63.3872 16.1139 63.5223 16.3678C63.6573 16.6163 63.8383 16.808 64.0652 16.9431C64.2921 17.0727 64.5433 17.1376 64.8188 17.1376C65.0943 17.1376 65.3455 17.0727 65.5724 16.9431C65.8046 16.808 65.9883 16.6163 66.1234 16.3678C66.2584 16.1139 66.3259 15.8195 66.3259 15.4845ZM69.0549 13.9935C69.1846 13.7396 69.3683 13.5425 69.606 13.402C69.849 13.2616 70.1435 13.1913 70.4892 13.1913V13.953H70.2947C69.4682 13.953 69.0549 14.4014 69.0549 15.2981V17.7129H68.3176V13.2724H69.0549V13.9935ZM71.0649 15.4764C71.0649 15.0226 71.1567 14.6256 71.3404 14.2853C71.5241 13.9395 71.7753 13.6721 72.094 13.483C72.4181 13.294 72.7801 13.1994 73.1798 13.1994C73.5256 13.1994 73.847 13.2805 74.1441 13.4425C74.4412 13.5992 74.6681 13.8072 74.8248 14.0665V11.7166H75.5703V17.7129H74.8248V16.8783C74.6789 17.143 74.4628 17.3618 74.1765 17.5346C73.8902 17.7021 73.5553 17.7858 73.1717 17.7858C72.7774 17.7858 72.4181 17.6886 72.094 17.4941C71.7753 17.2996 71.5241 17.0268 71.3404 16.6757C71.1567 16.3245 71.0649 15.9248 71.0649 15.4764ZM74.8248 15.4845C74.8248 15.1496 74.7572 14.8579 74.6222 14.6094C74.4871 14.3609 74.3035 14.1718 74.0712 14.0422C73.8443 13.9071 73.5931 13.8396 73.3176 13.8396C73.0421 13.8396 72.7909 13.9044 72.564 14.0341C72.3371 14.1637 72.1561 14.3528 72.0211 14.6013C71.886 14.8498 71.8185 15.1415 71.8185 15.4764C71.8185 15.8168 71.886 16.1139 72.0211 16.3678C72.1561 16.6163 72.3371 16.808 72.564 16.9431C72.7909 17.0727 73.0421 17.1376 73.3176 17.1376C73.5931 17.1376 73.8443 17.0727 74.0712 16.9431C74.3035 16.808 74.4871 16.6163 74.6222 16.3678C74.7572 16.1139 74.8248 15.8195 74.8248 15.4845ZM78.3884 17.7858C78.048 17.7858 77.7428 17.7291 77.4727 17.6157C77.2026 17.4968 76.9892 17.3347 76.8326 17.1295C76.6759 16.9188 76.5895 16.6784 76.5733 16.4083H77.335C77.3566 16.6298 77.4592 16.8107 77.6429 16.9512C77.832 17.0916 78.0778 17.1619 78.3803 17.1619C78.6612 17.1619 78.8827 17.0998 79.0447 16.9755C79.2068 16.8513 79.2878 16.6946 79.2878 16.5055C79.2878 16.311 79.2014 16.1679 79.0285 16.0761C78.8557 15.9788 78.5883 15.8843 78.2263 15.7924C77.8968 15.706 77.6267 15.6196 77.416 15.5331C77.2107 15.4413 77.0325 15.309 76.8812 15.1361C76.7353 14.9578 76.6624 14.7255 76.6624 14.4392C76.6624 14.2123 76.7299 14.0043 76.865 13.8153C77 13.6262 77.1918 13.4776 77.4403 13.3696C77.6888 13.2562 77.9724 13.1994 78.2911 13.1994C78.7827 13.1994 79.1798 13.3237 79.4823 13.5722C79.7848 13.8207 79.9469 14.161 79.9685 14.5932H79.2311C79.2149 14.3609 79.1204 14.1745 78.9475 14.0341C78.78 13.8936 78.5531 13.8234 78.2668 13.8234C78.0021 13.8234 77.7914 13.8801 77.6348 13.9935C77.4781 14.107 77.3998 14.2555 77.3998 14.4392C77.3998 14.5851 77.4457 14.7066 77.5375 14.8039C77.6348 14.8957 77.7536 14.9713 77.8941 15.0307C78.0399 15.0848 78.2398 15.1469 78.4937 15.2171C78.8124 15.3036 79.0717 15.39 79.2716 15.4764C79.4715 15.5575 79.6417 15.6817 79.7821 15.8492C79.928 16.0166 80.0036 16.2354 80.009 16.5055C80.009 16.7486 79.9415 16.9674 79.8064 17.1619C79.6714 17.3564 79.4796 17.5103 79.2311 17.6238C78.988 17.7318 78.7071 17.7858 78.3884 17.7858Z" fill="#FAFAFA"/>
</g>
<defs>
<linearGradient id="paint0_linear_9685_56009" x1="13.0029" y1="-3.28571" x2="31.3363" y2="55.4674" gradientUnits="userSpaceOnUse">
<stop stop-color="#FCA509"/>
<stop offset="1" stop-color="#880306"/>
</linearGradient>
<linearGradient id="paint1_linear_9685_56009" x1="13.0029" y1="-3.28571" x2="31.3363" y2="55.4674" gradientUnits="userSpaceOnUse">
<stop stop-color="#FCA509"/>
<stop offset="1" stop-color="#880306"/>
</linearGradient>
<linearGradient id="paint2_linear_9685_56009" x1="15.1344" y1="7.11133" x2="15.1344" y2="23.3176" gradientUnits="userSpaceOnUse">
<stop stop-color="#CCCCCC"/>
<stop offset="1" stop-color="#666666"/>
</linearGradient>
<clipPath id="clip0_9685_56009">
<rect width="81.0316" height="16.2063" fill="white" transform="translate(7.03125 7.10938)"/>
</clipPath>
</defs>
</svg>
