<svg width="146" height="49" viewBox="0 0 146 49" fill="none" xmlns="http://www.w3.org/2000/svg">
<path d="M67.1832 45.7817C67.6618 45.7817 68.1089 45.6863 68.5245 45.4937C68.9437 45.3028 69.314 45.0436 69.6353 44.716C69.7087 44.6583 69.7838 44.6583 69.8589 44.716L71.1304 46.0409C71.1618 46.0662 71.1793 46.0986 71.1793 46.1418C71.1793 46.185 71.1618 46.2192 71.1304 46.2426C70.6413 46.7575 70.0562 47.1643 69.3768 47.4668C68.7009 47.7638 67.9692 47.9132 67.1832 47.9132C66.4095 47.9132 65.683 47.7764 65.0036 47.5028C64.3224 47.2291 63.7269 46.8331 63.2151 46.3146C62.7016 45.7961 62.2999 45.175 62.0065 44.4495C61.7131 43.7204 61.5664 42.9067 61.5664 42.0084C61.5664 40.8526 61.8074 39.8319 62.293 38.9479C62.7767 38.0604 63.4404 37.3637 64.284 36.8596C65.1258 36.3556 66.0934 36.1035 67.1832 36.1035C67.9692 36.1035 68.7009 36.2547 69.3768 36.5572C70.0562 36.8596 70.6413 37.2737 71.1304 37.7958C71.1618 37.8156 71.1793 37.8498 71.1793 37.8966C71.1793 37.9398 71.1618 37.9722 71.1304 37.9902L69.8589 39.3008C69.7838 39.3584 69.7087 39.3584 69.6353 39.3008C69.314 38.9749 68.9437 38.7157 68.5245 38.5231C68.1089 38.3322 67.6618 38.235 67.1832 38.235C66.4741 38.235 65.8594 38.4006 65.3389 38.7319C64.8167 39.0595 64.4185 39.5024 64.1443 40.0641C63.8683 40.6258 63.7321 41.2739 63.7321 42.0084C63.7321 42.7861 63.8858 43.4558 64.1932 44.0175C64.5006 44.5791 64.9145 45.0148 65.4367 45.3208C65.9624 45.6287 66.544 45.7817 67.1832 45.7817Z" fill="white"/>
<path d="M81.8934 47.7468C81.8183 47.7468 81.7694 47.7252 81.7467 47.682L78.9523 43.0733H78.1698V47.6171C78.1698 47.7036 78.1157 47.7468 78.0091 47.7468H76.1997C76.0915 47.7468 76.0391 47.7036 76.0391 47.6171V41.0714C76.0391 40.985 76.0915 40.9418 76.1997 40.9418H77.6738L76.0391 38.2846V36.3979C76.0391 36.3115 76.0915 36.2683 76.1997 36.2683H79.8255C79.8255 36.2683 79.9128 36.2755 80.091 36.2899C80.2726 36.3007 80.5102 36.3367 80.8036 36.3979C81.097 36.4555 81.4009 36.5564 81.7187 36.7004C82.0349 36.8408 82.337 37.0316 82.6269 37.2765C82.9204 37.5213 83.1579 37.8381 83.3395 38.227C83.5212 38.6158 83.612 39.0947 83.612 39.66C83.612 40.3279 83.4897 40.8752 83.2487 41.3018C83.0112 41.7303 82.7108 42.0615 82.3475 42.2956C81.9877 42.5314 81.6297 42.7096 81.2716 42.8285L84.1359 47.5523C84.1674 47.5955 84.1709 47.6388 84.1429 47.682C84.115 47.7252 84.0748 47.7468 84.0242 47.7468H81.8934ZM80.0281 40.9274C80.2325 40.913 80.4438 40.8734 80.6638 40.805C80.8874 40.733 81.0778 40.6087 81.2367 40.4305C81.3991 40.2487 81.4812 39.9912 81.4812 39.66C81.4812 39.3432 81.4131 39.0983 81.2786 38.9255C81.1476 38.7527 80.987 38.6303 80.7966 38.5582C80.6045 38.4862 80.4193 38.443 80.2377 38.4286C80.0561 38.4106 79.9181 38.3998 79.8255 38.3998H78.4912L80.0281 40.9274Z" fill="white"/>
<path d="M97.7317 36.2681C97.8051 36.2681 97.854 36.2897 97.8784 36.3329C97.9063 36.3761 97.8994 36.4265 97.8574 36.4841L93.8055 42.3529V47.6169C93.8055 47.7033 93.7514 47.7465 93.6448 47.7465H91.8285C91.7254 47.7465 91.6748 47.7033 91.6748 47.6169V42.3529C91.0041 41.37 90.3264 40.3871 89.6418 39.4077C88.9572 38.4284 88.2813 37.4544 87.6158 36.4841C87.5739 36.4265 87.5669 36.3761 87.5949 36.3329C87.6193 36.2897 87.6682 36.2681 87.7416 36.2681H89.9562C89.9737 36.2681 89.9981 36.2717 90.026 36.2753C90.054 36.2807 90.0715 36.2951 90.0819 36.3185L92.7366 40.135L95.3914 36.3185C95.4141 36.2861 95.4507 36.2681 95.5031 36.2681H97.7317Z" fill="white"/>
<path d="M105.908 36.2683C105.908 36.2683 105.995 36.2755 106.173 36.2899C106.355 36.3007 106.587 36.3367 106.872 36.3979C107.16 36.4555 107.465 36.5564 107.787 36.7004C108.112 36.8408 108.417 37.0316 108.702 37.2765C108.99 37.5213 109.222 37.8381 109.401 38.227C109.582 38.6158 109.673 39.0947 109.673 39.66C109.673 40.2325 109.582 40.715 109.401 41.1074C109.222 41.5017 108.99 41.8203 108.702 42.0651C108.417 42.31 108.112 42.5044 107.787 42.6484C107.465 42.7889 107.16 42.8897 106.872 42.9509C106.587 43.0139 106.355 43.0499 106.173 43.0589C105.995 43.0697 105.908 43.0733 105.908 43.0733H104.252V47.6171C104.252 47.7036 104.198 47.7468 104.091 47.7468H102.275C102.172 47.7468 102.121 47.7036 102.121 47.6171V41.0714C102.121 40.985 102.172 40.9418 102.275 40.9418H103.756C103.48 40.5061 103.207 40.0633 102.938 39.6168C102.668 39.1667 102.395 38.7221 102.121 38.2846V36.3979C102.121 36.3115 102.172 36.2683 102.275 36.2683H105.908ZM104.503 38.3998L106.047 40.9274C106.238 40.9274 106.452 40.8878 106.69 40.805C106.931 40.724 107.137 40.5889 107.305 40.4017C107.472 40.2145 107.556 39.9678 107.556 39.66C107.556 39.3432 107.486 39.0983 107.347 38.9255C107.21 38.7527 107.048 38.6303 106.858 38.5582C106.666 38.4862 106.48 38.443 106.299 38.4286C106.121 38.4106 105.991 38.3998 105.908 38.3998H104.503Z" fill="white"/>
<path d="M120.204 38.1046C120.204 38.191 120.149 38.2342 120.043 38.2342H117.912V47.6171C117.912 47.7036 117.858 47.7468 117.751 47.7468H115.956C115.848 47.7468 115.795 47.7036 115.795 47.6171V38.2342H113.665C113.556 38.2342 113.504 38.191 113.504 38.1046V36.3979C113.504 36.3115 113.556 36.2683 113.665 36.2683H120.043C120.149 36.2683 120.204 36.3115 120.204 36.3979V38.1046Z" fill="white"/>
<path d="M126.756 38.3494V40.9418H131.129C131.222 40.9418 131.269 40.985 131.269 41.0714V42.8933C131.269 42.9797 131.222 43.0229 131.129 43.0229H126.756V45.6153H132.037C132.144 45.6153 132.198 45.6585 132.198 45.7449V47.6171C132.198 47.7036 132.144 47.7468 132.037 47.7468H124.779C124.676 47.7468 124.625 47.7036 124.625 47.6171V36.3979C124.625 36.3115 124.676 36.2683 124.779 36.2683H131.891C131.997 36.2683 132.051 36.3115 132.051 36.3979V38.2198C132.051 38.3062 131.997 38.3494 131.891 38.3494H126.756Z" fill="white"/>
<path d="M138.997 36.2683C139.537 36.2683 140.105 36.3079 140.702 36.3835C141.303 36.4609 141.89 36.6104 142.463 36.83C143.035 37.046 143.549 37.3665 144.006 37.7877C144.462 38.2054 144.827 38.7599 145.103 39.4512C145.383 40.1389 145.522 40.9904 145.522 42.0075C145.522 42.9923 145.384 43.8204 145.11 44.4919C144.84 45.1652 144.476 45.7161 144.02 46.1481C143.568 46.5802 143.058 46.9114 142.49 47.1419C141.921 47.3723 141.334 47.5307 140.73 47.6171C140.124 47.7036 139.546 47.7468 138.997 47.7468H137.181C137.078 47.7468 137.027 47.7036 137.027 47.6171V36.3979C137.027 36.3115 137.078 36.2683 137.181 36.2683H138.997ZM139.158 45.6297C139.432 45.6441 139.748 45.6405 140.108 45.6153C140.471 45.5919 140.843 45.5198 141.226 45.3992C141.607 45.2804 141.96 45.0896 142.281 44.8303C142.606 44.5675 142.869 44.2093 143.07 43.7574C143.269 43.3019 143.371 42.7186 143.371 42.0075C143.371 41.1002 143.186 40.3711 142.819 39.8184C142.456 39.2675 141.954 38.8751 141.317 38.6447C140.683 38.4142 139.963 38.3242 139.158 38.371V45.6297Z" fill="white"/>
<mask id="mask0_9685_27055" style="mask-type:luminance" maskUnits="userSpaceOnUse" x="0" y="0" width="62" height="49">
<path d="M0 0H61.6068V48.9131H0V0Z" fill="white"/>
</mask>
<g mask="url(#mask0_9685_27055)">
<path fill-rule="evenodd" clip-rule="evenodd" d="M41.0254 48.915C36.9996 48.915 33.5223 48.1841 30.5917 46.6898C31.2047 46.6898 32.2998 46.6898 32.2998 45.5287C32.2998 44.8986 31.7845 44.3675 31.1715 44.3675H23.155C21.6739 44.3675 21.6739 42.0434 23.155 42.0434H33.4577C34.9387 42.0434 34.9387 39.721 33.4577 39.721C28.8853 39.721 24.3461 39.721 19.7737 39.721C18.2927 39.721 18.2927 37.3969 19.7737 37.3969H28.5325C30.0136 37.3969 30.0136 35.0746 28.5325 35.0746C24.9259 35.0746 21.3194 35.0746 17.7442 35.0746C16.2632 35.0746 16.2632 32.7504 17.7442 32.7504H22.9943C24.4753 32.7504 24.4753 30.4281 22.9943 30.4281H20.6435C19.2585 30.4281 18.9371 28.104 20.8688 28.104C22.0599 28.104 23.2825 28.104 24.4753 28.104C25.9564 28.104 25.9564 25.7816 24.4753 25.7816H19.1292C17.6482 25.7816 17.6482 23.4575 19.1292 23.4575H22.9297C24.4107 23.4575 24.4107 21.1352 22.9297 21.1352H18.132C16.6509 21.1352 16.6509 18.811 18.132 18.811H27.5021C28.9831 18.811 28.9831 16.4869 27.5021 16.4869C24.1208 16.4869 20.7395 16.4869 17.3583 16.4869C15.8772 16.4869 15.8772 14.1645 17.3583 14.1645H21.1255C22.6066 14.1645 22.5751 11.9736 21.3194 11.8404H17.1976C15.7165 11.8404 15.7165 9.51807 17.1976 9.51807L24.9574 9.41906C26.793 9.65129 26.7615 7.22815 25.4726 7.09493H20.9334C19.4523 7.09493 19.4523 4.77259 20.9334 4.77259C22.6712 4.77259 19.8698 4.77259 21.6093 4.77259C23.0903 4.77259 23.0572 2.58167 21.8014 2.44846C20.7081 2.34944 18.614 2.91292 18.614 1.28729C18.614 -0.073709 20.0951 0.12432 20.8688 0.12432C24.2815 0.12432 27.6942 0.12432 31.1069 0.12432V27.3082C31.1069 34.4769 34.2628 39.19 41.1546 39.19C47.98 39.19 51.2006 34.7757 51.2006 27.6719V0.12432H61.4719V27.2416C61.4719 40.9488 54.3548 48.915 41.0254 48.915ZM1.41952 14.0655H3.22368C4.70473 14.0655 4.70473 16.3879 3.22368 16.3879H1.41952C-0.0929655 16.3879 -0.0929655 14.0655 1.41952 14.0655ZM18.614 42.0434C19.4838 42.0434 21.0295 41.8111 21.0295 43.2063C21.0295 44.5997 19.4838 44.3675 18.614 44.3675C17.1015 44.3675 17.1015 42.0434 18.614 42.0434ZM7.85894 28.0373H17.1015C18.5826 28.0373 18.5826 30.3615 17.1015 30.3615H7.85894C6.34646 30.3939 6.34646 28.0373 7.85894 28.0373ZM15.2659 0.12432H16.9409C18.4219 0.12432 18.4219 2.44846 16.9409 2.44846H15.2659C13.7517 2.48086 13.7517 0.12432 15.2659 0.12432ZM8.95401 9.38486H14.59C16.0711 9.38486 16.0711 11.709 14.59 11.709H8.95401C7.44152 11.7414 7.44152 9.38486 8.95401 9.38486ZM11.7554 18.712H14.976C16.4571 18.712 16.4571 21.0343 14.976 21.0343H11.7554C10.2744 21.0343 10.2744 18.712 11.7554 18.712ZM6.73244 14.0655H13.3011C14.7822 14.0655 14.7822 16.3879 13.3011 16.3879H6.73244C5.25139 16.3879 5.25139 14.0655 6.73244 14.0655ZM13.3343 32.718C14.3001 32.718 15.9418 32.4516 15.9418 33.8792C15.9418 35.3068 14.3315 35.0404 13.3343 35.0404C11.8201 35.0404 11.8201 32.718 13.3343 32.718Z" fill="url(#paint0_linear_9685_27055)"/>
</g>
<defs>
<linearGradient id="paint0_linear_9685_27055" x1="7.21104" y1="-6.97055" x2="61.9582" y2="51.5208" gradientUnits="userSpaceOnUse">
<stop stop-color="#FCA509"/>
<stop offset="1" stop-color="#880306"/>
</linearGradient>
</defs>
</svg>
