<svg width="130" height="55" viewBox="0 0 130 55" fill="none" xmlns="http://www.w3.org/2000/svg">
<g filter="url(#filter0_di_9685_59111)">
<rect x="4.5" y="4.5" width="121" height="46" rx="23" fill="#222223" shape-rendering="crispEdges"/>
<path d="M38.2861 26.2536H36.4267C36.3737 25.9486 36.2759 25.6785 36.1334 25.4432C35.9909 25.2045 35.8136 25.0024 35.6014 24.8366C35.3893 24.6709 35.1474 24.5466 34.8756 24.4638C34.6071 24.3776 34.3171 24.3345 34.0056 24.3345C33.4521 24.3345 32.9615 24.4737 32.534 24.7521C32.1064 25.0272 31.7717 25.4316 31.5297 25.9652C31.2878 26.4955 31.1668 27.1435 31.1668 27.9091C31.1668 28.688 31.2878 29.3442 31.5297 29.8778C31.775 30.4081 32.1097 30.8092 32.534 31.081C32.9615 31.3494 33.4504 31.4837 34.0006 31.4837C34.3055 31.4837 34.5906 31.4439 34.8557 31.3643C35.1242 31.2815 35.3645 31.1605 35.5766 31.0014C35.792 30.8423 35.9727 30.6468 36.1185 30.4148C36.2676 30.1828 36.3704 29.9176 36.4267 29.6193L38.2861 29.6293C38.2165 30.1132 38.0657 30.5672 37.8337 30.9915C37.605 31.4157 37.305 31.7902 36.9338 32.1151C36.5626 32.4366 36.1284 32.6884 35.6313 32.8707C35.1341 33.0497 34.5823 33.1392 33.9757 33.1392C33.0808 33.1392 32.2821 32.9321 31.5794 32.5178C30.8768 32.1035 30.3233 31.5052 29.9189 30.723C29.5146 29.9408 29.3124 29.0028 29.3124 27.9091C29.3124 26.812 29.5162 25.8741 29.9239 25.0952C30.3316 24.313 30.8867 23.7147 31.5894 23.3004C32.292 22.8861 33.0875 22.679 33.9757 22.679C34.5425 22.679 35.0695 22.7585 35.5567 22.9176C36.0439 23.0767 36.4781 23.3104 36.8593 23.6186C37.2404 23.9235 37.5536 24.2981 37.7989 24.7422C38.0475 25.183 38.2099 25.6868 38.2861 26.2536ZM39.6157 33V25.3636H41.3607V26.6364H41.4402C41.5794 26.1955 41.8181 25.8558 42.1561 25.6172C42.4975 25.3752 42.887 25.2543 43.3245 25.2543C43.4239 25.2543 43.5349 25.2592 43.6576 25.2692C43.7835 25.2758 43.8879 25.2874 43.9708 25.304V26.9595C43.8945 26.933 43.7736 26.9098 43.6078 26.8899C43.4454 26.8667 43.288 26.8551 43.1355 26.8551C42.8074 26.8551 42.5124 26.9264 42.2506 27.0689C41.9921 27.2081 41.7882 27.402 41.6391 27.6506C41.4899 27.8991 41.4154 28.1858 41.4154 28.5107V33H39.6157ZM47.9527 33.1491C47.187 33.1491 46.5258 32.9901 45.969 32.6719C45.4155 32.3504 44.9896 31.8963 44.6913 31.3097C44.393 30.7197 44.2439 30.0253 44.2439 29.2266C44.2439 28.4411 44.393 27.7517 44.6913 27.1584C44.9929 26.5618 45.4138 26.0978 45.9541 25.7663C46.4943 25.4316 47.129 25.2642 47.8582 25.2642C48.3288 25.2642 48.773 25.3404 49.1906 25.4929C49.6115 25.642 49.9827 25.8741 50.3042 26.1889C50.629 26.5038 50.8842 26.9048 51.0698 27.392C51.2555 27.8759 51.3483 28.4527 51.3483 29.1222V29.674H45.089V28.4609H49.6231C49.6198 28.1162 49.5452 27.8097 49.3994 27.5412C49.2536 27.2694 49.0497 27.0556 48.7879 26.8999C48.5294 26.7441 48.2278 26.6662 47.8831 26.6662C47.5152 26.6662 47.192 26.7557 46.9136 26.9347C46.6352 27.1103 46.4181 27.3423 46.2623 27.6307C46.1099 27.9157 46.032 28.2289 46.0287 28.5703V29.6293C46.0287 30.0734 46.1099 30.4545 46.2723 30.7727C46.4347 31.0876 46.6617 31.3295 46.9534 31.4986C47.245 31.6643 47.5864 31.7472 47.9775 31.7472C48.2394 31.7472 48.4763 31.7107 48.6885 31.6378C48.9006 31.5616 49.0845 31.4505 49.2403 31.3047C49.3961 31.1589 49.5137 30.9782 49.5933 30.7628L51.2737 30.9517C51.1676 31.3958 50.9654 31.7836 50.6672 32.1151C50.3722 32.4432 49.9943 32.6984 49.5336 32.8807C49.0729 33.0597 48.5459 33.1491 47.9527 33.1491ZM54.7883 33.1541C54.3043 33.1541 53.8685 33.0679 53.4807 32.8956C53.0963 32.7199 52.7913 32.4614 52.5659 32.12C52.3439 31.7786 52.2329 31.3577 52.2329 30.8572C52.2329 30.4264 52.3124 30.0701 52.4715 29.7884C52.6306 29.5066 52.8477 29.2812 53.1228 29.1122C53.3979 28.9432 53.7078 28.8156 54.0525 28.7294C54.4005 28.6399 54.7601 28.5753 55.1313 28.5355C55.5787 28.4891 55.9417 28.4477 56.2201 28.4112C56.4985 28.3714 56.7007 28.3118 56.8266 28.2322C56.9559 28.1494 57.0205 28.0218 57.0205 27.8494V27.8196C57.0205 27.4451 56.9095 27.1551 56.6874 26.9496C56.4653 26.7441 56.1455 26.6413 55.7279 26.6413C55.2871 26.6413 54.9374 26.7375 54.6789 26.9297C54.4237 27.1219 54.2513 27.349 54.1618 27.6108L52.4814 27.3722C52.614 26.9081 52.8328 26.5204 53.1377 26.2088C53.4426 25.8939 53.8155 25.6586 54.2563 25.5028C54.6971 25.3438 55.1843 25.2642 55.7179 25.2642C56.0858 25.2642 56.4521 25.3073 56.8167 25.3935C57.1812 25.4796 57.5143 25.6222 57.816 25.821C58.1176 26.0166 58.3595 26.2834 58.5418 26.6214C58.7274 26.9595 58.8202 27.3821 58.8202 27.8892V33H57.0901V31.951H57.0304C56.9211 32.1631 56.7669 32.362 56.5681 32.5476C56.3725 32.7299 56.1256 32.8774 55.8273 32.9901C55.5323 33.0994 55.186 33.1541 54.7883 33.1541ZM55.2556 31.8317C55.6168 31.8317 55.9301 31.7604 56.1952 31.6179C56.4604 31.4721 56.6642 31.2798 56.8067 31.0412C56.9526 30.8026 57.0255 30.5424 57.0255 30.2607V29.3608C56.9691 29.4072 56.873 29.4503 56.7371 29.4901C56.6045 29.5298 56.4554 29.5646 56.2897 29.5945C56.124 29.6243 55.9599 29.6508 55.7975 29.674C55.6351 29.6972 55.4942 29.7171 55.3749 29.7337C55.1064 29.7701 54.8661 29.8298 54.654 29.9126C54.4419 29.9955 54.2745 30.1115 54.1519 30.2607C54.0293 30.4065 53.9679 30.5954 53.9679 30.8274C53.9679 31.1589 54.0889 31.4091 54.3309 31.5781C54.5728 31.7472 54.8811 31.8317 55.2556 31.8317ZM64.1631 25.3636V26.7557H59.7732V25.3636H64.1631ZM60.857 23.5341H62.6567V30.7031C62.6567 30.9451 62.6931 31.1307 62.7661 31.2599C62.8423 31.3859 62.9417 31.4721 63.0644 31.5185C63.187 31.5649 63.3229 31.5881 63.472 31.5881C63.5847 31.5881 63.6875 31.5798 63.7803 31.5632C63.8764 31.5466 63.9493 31.5317 63.999 31.5185L64.3023 32.9254C64.2062 32.9586 64.0686 32.995 63.8896 33.0348C63.714 33.0746 63.4985 33.0978 63.2433 33.1044C62.7926 33.1177 62.3866 33.0497 62.0253 32.9006C61.664 32.7481 61.3773 32.5128 61.1652 32.1946C60.9564 31.8764 60.8537 31.4787 60.857 31.0014V23.5341ZM68.6869 33.1491C67.9213 33.1491 67.26 32.9901 66.7032 32.6719C66.1497 32.3504 65.7238 31.8963 65.4255 31.3097C65.1272 30.7197 64.9781 30.0253 64.9781 29.2266C64.9781 28.4411 65.1272 27.7517 65.4255 27.1584C65.7271 26.5618 66.1481 26.0978 66.6883 25.7663C67.2285 25.4316 67.8633 25.2642 68.5924 25.2642C69.0631 25.2642 69.5072 25.3404 69.9248 25.4929C70.3457 25.642 70.7169 25.8741 71.0384 26.1889C71.3633 26.5038 71.6185 26.9048 71.8041 27.392C71.9897 27.8759 72.0825 28.4527 72.0825 29.1222V29.674H65.8232V28.4609H70.3573C70.354 28.1162 70.2794 27.8097 70.1336 27.5412C69.9878 27.2694 69.7839 27.0556 69.5221 26.8999C69.2636 26.7441 68.962 26.6662 68.6173 26.6662C68.2494 26.6662 67.9262 26.7557 67.6478 26.9347C67.3694 27.1103 67.1523 27.3423 66.9965 27.6307C66.8441 27.9157 66.7662 28.2289 66.7629 28.5703V29.6293C66.7629 30.0734 66.8441 30.4545 67.0065 30.7727C67.1689 31.0876 67.3959 31.3295 67.6876 31.4986C67.9793 31.6643 68.3206 31.7472 68.7117 31.7472C68.9736 31.7472 69.2106 31.7107 69.4227 31.6378C69.6348 31.5616 69.8187 31.4505 69.9745 31.3047C70.1303 31.1589 70.248 30.9782 70.3275 30.7628L72.0079 30.9517C71.9018 31.3958 71.6997 31.7836 71.4014 32.1151C71.1064 32.4432 70.7285 32.6984 70.2678 32.8807C69.8071 33.0597 69.2802 33.1491 68.6869 33.1491ZM77.9048 33H75.936L79.5205 22.8182H81.7975L85.387 33H83.4183L80.6988 24.9062H80.6192L77.9048 33ZM77.9694 29.0078H83.3387V30.4893H77.9694V29.0078ZM88.9699 33.1342C88.37 33.1342 87.8331 32.9801 87.3591 32.6719C86.8852 32.3636 86.5106 31.9162 86.2356 31.3295C85.9605 30.7429 85.8229 30.0303 85.8229 29.1918C85.8229 28.3433 85.9621 27.6274 86.2405 27.044C86.5222 26.4574 86.9017 26.0149 87.379 25.7166C87.8563 25.415 88.3882 25.2642 88.9749 25.2642C89.4223 25.2642 89.7902 25.3404 90.0786 25.4929C90.3669 25.642 90.5956 25.8227 90.7647 26.0348C90.9337 26.2436 91.0646 26.4408 91.1574 26.6264H91.232V22.8182H93.0367V33H91.2668V31.7969H91.1574C91.0646 31.9825 90.9304 32.1797 90.7547 32.3885C90.5791 32.594 90.3471 32.7696 90.0587 32.9155C89.7704 33.0613 89.4074 33.1342 88.9699 33.1342ZM89.4721 31.6577C89.8532 31.6577 90.178 31.5549 90.4465 31.3494C90.715 31.1406 90.9188 30.8506 91.058 30.4794C91.1972 30.1082 91.2668 29.6757 91.2668 29.1818C91.2668 28.688 91.1972 28.2588 91.058 27.8942C90.9221 27.5296 90.7199 27.2462 90.4515 27.044C90.1863 26.8419 89.8598 26.7408 89.4721 26.7408C89.071 26.7408 88.7363 26.8452 88.4678 27.054C88.1993 27.2628 87.9972 27.5511 87.8613 27.919C87.7254 28.2869 87.6574 28.7079 87.6574 29.1818C87.6574 29.6591 87.7254 30.085 87.8613 30.4595C88.0005 30.8307 88.2043 31.1241 88.4728 31.3395C88.7445 31.5516 89.0776 31.6577 89.4721 31.6577ZM100.71 27.3821L99.0694 27.5611C99.023 27.3954 98.9418 27.2396 98.8258 27.0938C98.7131 26.9479 98.5606 26.8303 98.3684 26.7408C98.1761 26.6513 97.9408 26.6065 97.6624 26.6065C97.2879 26.6065 96.973 26.6877 96.7178 26.8501C96.4659 27.0125 96.3416 27.223 96.3449 27.4815C96.3416 27.7036 96.4228 27.8842 96.5885 28.0234C96.7576 28.1626 97.036 28.277 97.4238 28.3665L98.7263 28.6449C99.4489 28.8007 99.9858 29.0476 100.337 29.3857C100.692 29.7237 100.871 30.1662 100.874 30.7131C100.871 31.1937 100.73 31.6179 100.451 31.9858C100.176 32.3504 99.7936 32.6354 99.303 32.8409C98.8125 33.0464 98.2491 33.1491 97.6127 33.1491C96.678 33.1491 95.9257 32.9536 95.3556 32.5625C94.7855 32.1681 94.4458 31.6196 94.3364 30.9169L96.0914 30.7479C96.1709 31.0926 96.34 31.3527 96.5985 31.5284C96.857 31.7041 97.1934 31.7919 97.6077 31.7919C98.0353 31.7919 98.3783 31.7041 98.6368 31.5284C98.8987 31.3527 99.0296 31.1357 99.0296 30.8771C99.0296 30.6584 98.9451 30.4777 98.776 30.3352C98.6103 30.1927 98.3518 30.0833 98.0005 30.0071L96.6979 29.7337C95.9654 29.5812 95.4235 29.3243 95.0722 28.9631C94.7209 28.5985 94.5469 28.1378 94.5502 27.581C94.5469 27.1103 94.6745 26.7027 94.933 26.358C95.1948 26.0099 95.5578 25.7415 96.0218 25.5526C96.4891 25.3603 97.0277 25.2642 97.6376 25.2642C98.5324 25.2642 99.2368 25.4548 99.7505 25.8359C100.268 26.2171 100.587 26.7325 100.71 27.3821Z" fill="white"/>
</g>
<defs>
<filter id="filter0_di_9685_59111" x="0.8" y="0.8" width="128.4" height="57.1" filterUnits="userSpaceOnUse" color-interpolation-filters="sRGB">
<feFlood flood-opacity="0" result="BackgroundImageFix"/>
<feColorMatrix in="SourceAlpha" type="matrix" values="0 0 0 0 0 0 0 0 0 0 0 0 0 0 0 0 0 0 127 0" result="hardAlpha"/>
<feMorphology radius="3.7" operator="dilate" in="SourceAlpha" result="effect1_dropShadow_9685_59111"/>
<feOffset/>
<feComposite in2="hardAlpha" operator="out"/>
<feColorMatrix type="matrix" values="0 0 0 0 0.745098 0 0 0 0 0.792157 0 0 0 0 0.917647 0 0 0 0.03 0"/>
<feBlend mode="normal" in2="BackgroundImageFix" result="effect1_dropShadow_9685_59111"/>
<feBlend mode="normal" in="SourceGraphic" in2="effect1_dropShadow_9685_59111" result="shape"/>
<feColorMatrix in="SourceAlpha" type="matrix" values="0 0 0 0 0 0 0 0 0 0 0 0 0 0 0 0 0 0 127 0" result="hardAlpha"/>
<feOffset dy="7.4"/>
<feGaussianBlur stdDeviation="9.25"/>
<feComposite in2="hardAlpha" operator="arithmetic" k2="-1" k3="1"/>
<feColorMatrix type="matrix" values="0 0 0 0 1 0 0 0 0 1 0 0 0 0 1 0 0 0 0.11 0"/>
<feBlend mode="normal" in2="shape" result="effect2_innerShadow_9685_59111"/>
</filter>
</defs>
</svg>
