<svg width="99" height="30" viewBox="0 0 99 30" fill="none" xmlns="http://www.w3.org/2000/svg">
<path d="M0.31166 15.2153C0.31166 7.46963 6.59073 1.19057 14.3364 1.19057H107.523V29.24H14.3364C6.59074 29.24 0.31166 22.9609 0.31166 15.2153Z" fill="url(#paint0_linear_9685_57304)" fill-opacity="0.1"/>
<path d="M0.31166 15.2153C0.31166 7.46963 6.59073 1.19057 14.3364 1.19057H107.523V29.24H14.3364C6.59074 29.24 0.31166 22.9609 0.31166 15.2153Z" stroke="url(#paint1_linear_9685_57304)" stroke-width="0.62332"/>
<g clip-path="url(#clip0_9685_57304)">
<mask id="mask0_9685_57304" style="mask-type:luminance" maskUnits="userSpaceOnUse" x="6" y="7" width="17" height="17">
<path d="M6.23438 7.11133H22.4407V23.3176H6.23438V7.11133Z" fill="white"/>
<path d="M18.3849 10.998H11.0213C10.5672 10.998 10.2031 11.3936 10.2031 11.8869V13.2203H11.0213V11.8869H18.3849V18.1092H15.5213V18.998H18.3849C18.6019 18.998 18.81 18.9044 18.9635 18.7377C19.1169 18.571 19.2031 18.3449 19.2031 18.1092V11.8869C19.2031 11.6512 19.1169 11.4251 18.9635 11.2584C18.81 11.0917 18.6019 10.998 18.3849 10.998ZM10.2031 14.1092V14.998C10.6866 14.998 11.1654 15.1015 11.6121 15.3025C12.0588 15.5035 12.4647 15.7982 12.8066 16.1696C13.1485 16.5411 13.4197 16.982 13.6047 17.4673C13.7897 17.9526 13.8849 18.4728 13.8849 18.998H14.7031C14.7031 16.2958 12.6863 14.1092 10.2031 14.1092ZM17.5668 12.7758H11.8395V13.5003C13.4595 14.0692 14.7399 15.4603 15.2636 17.2203H17.5668M10.2031 15.8869V16.7758C10.4717 16.7758 10.7377 16.8333 10.9859 16.945C11.2341 17.0567 11.4595 17.2203 11.6495 17.4267C11.8394 17.6331 11.9901 17.878 12.0929 18.1476C12.1957 18.4173 12.2486 18.7062 12.2486 18.998H13.0668C13.0668 18.1729 12.7651 17.3816 12.228 16.7982C11.691 16.2147 10.9626 15.8869 10.2031 15.8869ZM10.2031 17.6647V18.998H11.4304C11.4304 18.6444 11.3011 18.3053 11.0709 18.0552C10.8408 17.8052 10.5286 17.6647 10.2031 17.6647Z" fill="#1A1A1A"/>
</mask>
<g mask="url(#mask0_9685_57304)">
<path d="M14.3375 23.3196C18.8128 23.3196 22.4407 19.6917 22.4407 15.2164C22.4407 10.7412 18.8128 7.11328 14.3375 7.11328C9.86228 7.11328 6.23438 10.7412 6.23438 15.2164C6.23438 19.6917 9.86228 23.3196 14.3375 23.3196Z" fill="url(#paint2_linear_9685_57304)"/>
</g>
<path d="M31.0598 17.7708C30.6918 17.7708 30.3611 17.7068 30.0678 17.5788C29.7798 17.4455 29.5531 17.2642 29.3878 17.0348C29.2224 16.8002 29.1371 16.5308 29.1318 16.2268H29.9078C29.9344 16.4882 30.0411 16.7095 30.2278 16.8908C30.4198 17.0668 30.6971 17.1548 31.0598 17.1548C31.4064 17.1548 31.6784 17.0695 31.8758 16.8988C32.0784 16.7228 32.1798 16.4988 32.1798 16.2268C32.1798 16.0135 32.1211 15.8402 32.0038 15.7068C31.8864 15.5735 31.7398 15.4722 31.5638 15.4028C31.3878 15.3335 31.1504 15.2588 30.8518 15.1788C30.4838 15.0828 30.1878 14.9868 29.9638 14.8908C29.7451 14.7948 29.5558 14.6455 29.3958 14.4428C29.2411 14.2348 29.1638 13.9575 29.1638 13.6108C29.1638 13.3068 29.2411 13.0375 29.3958 12.8028C29.5504 12.5682 29.7664 12.3868 30.0438 12.2588C30.3264 12.1308 30.6491 12.0668 31.0118 12.0668C31.5344 12.0668 31.9611 12.1975 32.2918 12.4588C32.6278 12.7202 32.8171 13.0668 32.8598 13.4988H32.0598C32.0331 13.2855 31.9211 13.0988 31.7238 12.9388C31.5264 12.7735 31.2651 12.6908 30.9398 12.6908C30.6358 12.6908 30.3878 12.7708 30.1958 12.9308C30.0038 13.0855 29.9078 13.3042 29.9078 13.5868C29.9078 13.7895 29.9638 13.9548 30.0758 14.0828C30.1931 14.2108 30.3344 14.3095 30.4998 14.3788C30.6704 14.4428 30.9078 14.5175 31.2118 14.6028C31.5798 14.7042 31.8758 14.8055 32.0998 14.9068C32.3238 15.0028 32.5158 15.1548 32.6758 15.3628C32.8358 15.5655 32.9158 15.8428 32.9158 16.1948C32.9158 16.4668 32.8438 16.7228 32.6998 16.9628C32.5558 17.2028 32.3424 17.3975 32.0598 17.5468C31.7771 17.6962 31.4438 17.7708 31.0598 17.7708ZM34.8751 13.9308V16.5148C34.8751 16.7282 34.9204 16.8802 35.0111 16.9708C35.1018 17.0562 35.2591 17.0988 35.4831 17.0988H36.0191V17.7148H35.3631C34.9578 17.7148 34.6538 17.6215 34.4511 17.4348C34.2484 17.2482 34.1471 16.9415 34.1471 16.5148V13.9308H33.5791V13.3308H34.1471V12.2268H34.8751V13.3308H36.0191V13.9308H34.8751ZM37.6292 14.0428C37.7572 13.7922 37.9385 13.5975 38.1732 13.4588C38.4132 13.3202 38.7038 13.2508 39.0452 13.2508V14.0028H38.8532C38.0372 14.0028 37.6292 14.4455 37.6292 15.3308V17.7148H36.9012V13.3308H37.6292V14.0428ZM43.8855 15.3548C43.8855 15.4935 43.8775 15.6402 43.8615 15.7948H40.3575C40.3842 16.2268 40.5309 16.5655 40.7975 16.8108C41.0695 17.0508 41.3975 17.1708 41.7815 17.1708C42.0962 17.1708 42.3575 17.0988 42.5655 16.9548C42.7789 16.8055 42.9282 16.6082 43.0135 16.3628H43.7975C43.6802 16.7842 43.4455 17.1282 43.0935 17.3948C42.7415 17.6562 42.3042 17.7868 41.7815 17.7868C41.3655 17.7868 40.9922 17.6935 40.6615 17.5068C40.3362 17.3202 40.0802 17.0562 39.8935 16.7148C39.7069 16.3682 39.6135 15.9682 39.6135 15.5148C39.6135 15.0615 39.7042 14.6642 39.8855 14.3228C40.0669 13.9815 40.3202 13.7202 40.6455 13.5388C40.9762 13.3522 41.3549 13.2588 41.7815 13.2588C42.1975 13.2588 42.5655 13.3495 42.8855 13.5308C43.2055 13.7122 43.4509 13.9628 43.6215 14.2828C43.7975 14.5975 43.8855 14.9548 43.8855 15.3548ZM43.1335 15.2028C43.1335 14.9255 43.0722 14.6882 42.9495 14.4908C42.8269 14.2882 42.6589 14.1362 42.4455 14.0348C42.2375 13.9282 42.0055 13.8748 41.7495 13.8748C41.3815 13.8748 41.0669 13.9922 40.8055 14.2268C40.5495 14.4615 40.4029 14.7868 40.3655 15.2028H43.1335ZM44.5745 15.5068C44.5745 15.0588 44.6651 14.6668 44.8465 14.3308C45.0278 13.9895 45.2758 13.7255 45.5905 13.5388C45.9105 13.3522 46.2651 13.2588 46.6545 13.2588C47.0385 13.2588 47.3718 13.3415 47.6545 13.5068C47.9371 13.6722 48.1478 13.8802 48.2865 14.1308V13.3308H49.0225V17.7148H48.2865V16.8988C48.1425 17.1548 47.9265 17.3682 47.6385 17.5388C47.3558 17.7042 47.0251 17.7868 46.6465 17.7868C46.2571 17.7868 45.9051 17.6908 45.5905 17.4988C45.2758 17.3068 45.0278 17.0375 44.8465 16.6908C44.6651 16.3442 44.5745 15.9495 44.5745 15.5068ZM48.2865 15.5148C48.2865 15.1842 48.2198 14.8962 48.0865 14.6508C47.9531 14.4055 47.7718 14.2188 47.5425 14.0908C47.3185 13.9575 47.0705 13.8908 46.7985 13.8908C46.5265 13.8908 46.2785 13.9548 46.0545 14.0828C45.8305 14.2108 45.6518 14.3975 45.5185 14.6428C45.3851 14.8882 45.3185 15.1762 45.3185 15.5068C45.3185 15.8428 45.3851 16.1362 45.5185 16.3868C45.6518 16.6322 45.8305 16.8215 46.0545 16.9548C46.2785 17.0828 46.5265 17.1468 46.7985 17.1468C47.0705 17.1468 47.3185 17.0828 47.5425 16.9548C47.7718 16.8215 47.9531 16.6322 48.0865 16.3868C48.2198 16.1362 48.2865 15.8455 48.2865 15.5148ZM55.5247 13.2508C55.8661 13.2508 56.1701 13.3228 56.4367 13.4668C56.7034 13.6055 56.9141 13.8162 57.0687 14.0988C57.2234 14.3815 57.3007 14.7255 57.3007 15.1308V17.7148H56.5807V15.2348C56.5807 14.7975 56.4714 14.4642 56.2527 14.2348C56.0394 14.0002 55.7487 13.8828 55.3807 13.8828C55.0021 13.8828 54.7007 14.0055 54.4767 14.2508C54.2527 14.4908 54.1407 14.8402 54.1407 15.2988V17.7148H53.4207V15.2348C53.4207 14.7975 53.3114 14.4642 53.0927 14.2348C52.8794 14.0002 52.5887 13.8828 52.2207 13.8828C51.8421 13.8828 51.5407 14.0055 51.3167 14.2508C51.0927 14.4908 50.9807 14.8402 50.9807 15.2988V17.7148H50.2527V13.3308H50.9807V13.9628C51.1247 13.7335 51.3167 13.5575 51.5567 13.4348C51.8021 13.3122 52.0714 13.2508 52.3647 13.2508C52.7327 13.2508 53.0581 13.3335 53.3407 13.4988C53.6234 13.6642 53.8341 13.9068 53.9727 14.2268C54.0954 13.9175 54.2981 13.6775 54.5807 13.5068C54.8634 13.3362 55.1781 13.2508 55.5247 13.2508ZM58.8709 12.6188C58.7322 12.6188 58.6149 12.5708 58.5189 12.4748C58.4229 12.3788 58.3749 12.2615 58.3749 12.1228C58.3749 11.9842 58.4229 11.8668 58.5189 11.7708C58.6149 11.6748 58.7322 11.6268 58.8709 11.6268C59.0042 11.6268 59.1162 11.6748 59.2069 11.7708C59.3029 11.8668 59.3509 11.9842 59.3509 12.1228C59.3509 12.2615 59.3029 12.3788 59.2069 12.4748C59.1162 12.5708 59.0042 12.6188 58.8709 12.6188ZM59.2229 13.3308V17.7148H58.4949V13.3308H59.2229ZM62.5997 13.2508C63.133 13.2508 63.565 13.4135 63.8957 13.7388C64.2263 14.0588 64.3917 14.5228 64.3917 15.1308V17.7148H63.6717V15.2348C63.6717 14.7975 63.5623 14.4642 63.3437 14.2348C63.125 14.0002 62.8263 13.8828 62.4477 13.8828C62.0637 13.8828 61.757 14.0028 61.5277 14.2428C61.3037 14.4828 61.1917 14.8322 61.1917 15.2908V17.7148H60.4637V13.3308H61.1917V13.9548C61.3357 13.7308 61.5303 13.5575 61.7757 13.4348C62.0263 13.3122 62.301 13.2508 62.5997 13.2508ZM67.3888 13.2588C67.7675 13.2588 68.0982 13.3415 68.3808 13.5068C68.6688 13.6722 68.8822 13.8802 69.0208 14.1308V13.3308H69.7568V17.8108C69.7568 18.2108 69.6715 18.5655 69.5008 18.8748C69.3302 19.1895 69.0848 19.4348 68.7648 19.6108C68.4502 19.7868 68.0822 19.8748 67.6608 19.8748C67.0848 19.8748 66.6048 19.7388 66.2208 19.4668C65.8368 19.1948 65.6102 18.8242 65.5408 18.3548H66.2608C66.3408 18.6215 66.5062 18.8348 66.7568 18.9948C67.0075 19.1602 67.3088 19.2428 67.6608 19.2428C68.0608 19.2428 68.3862 19.1175 68.6368 18.8668C68.8928 18.6162 69.0208 18.2642 69.0208 17.8108V16.8908C68.8768 17.1468 68.6635 17.3602 68.3808 17.5308C68.0982 17.7015 67.7675 17.7868 67.3888 17.7868C66.9995 17.7868 66.6448 17.6908 66.3248 17.4988C66.0102 17.3068 65.7622 17.0375 65.5808 16.6908C65.3995 16.3442 65.3088 15.9495 65.3088 15.5068C65.3088 15.0588 65.3995 14.6668 65.5808 14.3308C65.7622 13.9895 66.0102 13.7255 66.3248 13.5388C66.6448 13.3522 66.9995 13.2588 67.3888 13.2588ZM69.0208 15.5148C69.0208 15.1842 68.9542 14.8962 68.8208 14.6508C68.6875 14.4055 68.5062 14.2188 68.2768 14.0908C68.0528 13.9575 67.8048 13.8908 67.5328 13.8908C67.2608 13.8908 67.0128 13.9548 66.7888 14.0828C66.5648 14.2108 66.3862 14.3975 66.2528 14.6428C66.1195 14.8882 66.0528 15.1762 66.0528 15.5068C66.0528 15.8428 66.1195 16.1362 66.2528 16.3868C66.3862 16.6322 66.5648 16.8215 66.7888 16.9548C67.0128 17.0828 67.2608 17.1468 67.5328 17.1468C67.8048 17.1468 68.0528 17.0828 68.2768 16.9548C68.5062 16.8215 68.6875 16.6322 68.8208 16.3868C68.9542 16.1362 69.0208 15.8455 69.0208 15.5148ZM72.8479 14.9228C72.8479 14.3788 72.9706 13.8908 73.2159 13.4588C73.4612 13.0215 73.7946 12.6802 74.2159 12.4348C74.6426 12.1895 75.1146 12.0668 75.6319 12.0668C76.2399 12.0668 76.7706 12.2135 77.2239 12.5068C77.6772 12.8002 78.0079 13.2162 78.2159 13.7548H77.3439C77.1892 13.4188 76.9652 13.1602 76.6719 12.9788C76.3839 12.7975 76.0372 12.7068 75.6319 12.7068C75.2426 12.7068 74.8932 12.7975 74.5839 12.9788C74.2746 13.1602 74.0319 13.4188 73.8559 13.7548C73.6799 14.0855 73.5919 14.4748 73.5919 14.9228C73.5919 15.3655 73.6799 15.7548 73.8559 16.0908C74.0319 16.4215 74.2746 16.6775 74.5839 16.8588C74.8932 17.0402 75.2426 17.1308 75.6319 17.1308C76.0372 17.1308 76.3839 17.0428 76.6719 16.8668C76.9652 16.6855 77.1892 16.4268 77.3439 16.0908H78.2159C78.0079 16.6242 77.6772 17.0375 77.2239 17.3308C76.7706 17.6188 76.2399 17.7628 75.6319 17.7628C75.1146 17.7628 74.6426 17.6428 74.2159 17.4028C73.7946 17.1575 73.4612 16.8188 73.2159 16.3868C72.9706 15.9548 72.8479 15.4668 72.8479 14.9228ZM79.0276 15.5068C79.0276 15.0588 79.1183 14.6668 79.2996 14.3308C79.4809 13.9895 79.7289 13.7255 80.0436 13.5388C80.3636 13.3522 80.7183 13.2588 81.1076 13.2588C81.4916 13.2588 81.8249 13.3415 82.1076 13.5068C82.3903 13.6722 82.6009 13.8802 82.7396 14.1308V13.3308H83.4756V17.7148H82.7396V16.8988C82.5956 17.1548 82.3796 17.3682 82.0916 17.5388C81.8089 17.7042 81.4783 17.7868 81.0996 17.7868C80.7103 17.7868 80.3583 17.6908 80.0436 17.4988C79.7289 17.3068 79.4809 17.0375 79.2996 16.6908C79.1183 16.3442 79.0276 15.9495 79.0276 15.5068ZM82.7396 15.5148C82.7396 15.1842 82.6729 14.8962 82.5396 14.6508C82.4063 14.4055 82.2249 14.2188 81.9956 14.0908C81.7716 13.9575 81.5236 13.8908 81.2516 13.8908C80.9796 13.8908 80.7316 13.9548 80.5076 14.0828C80.2836 14.2108 80.1049 14.3975 79.9716 14.6428C79.8383 14.8882 79.7716 15.1762 79.7716 15.5068C79.7716 15.8428 79.8383 16.1362 79.9716 16.3868C80.1049 16.6322 80.2836 16.8215 80.5076 16.9548C80.7316 17.0828 80.9796 17.1468 81.2516 17.1468C81.5236 17.1468 81.7716 17.0828 81.9956 16.9548C82.2249 16.8215 82.4063 16.6322 82.5396 16.3868C82.6729 16.1362 82.7396 15.8455 82.7396 15.5148ZM85.4338 14.0428C85.5618 13.7922 85.7432 13.5975 85.9778 13.4588C86.2178 13.3202 86.5085 13.2508 86.8498 13.2508V14.0028H86.6578C85.8418 14.0028 85.4338 14.4455 85.4338 15.3308V17.7148H84.7058V13.3308H85.4338V14.0428ZM87.4182 15.5068C87.4182 15.0588 87.5089 14.6668 87.6902 14.3308C87.8716 13.9895 88.1196 13.7255 88.4342 13.5388C88.7542 13.3522 89.1116 13.2588 89.5062 13.2588C89.8476 13.2588 90.1649 13.3388 90.4582 13.4988C90.7516 13.6535 90.9756 13.8588 91.1302 14.1148V11.7948H91.8662V17.7148H91.1302V16.8908C90.9862 17.1522 90.7729 17.3682 90.4902 17.5388C90.2076 17.7042 89.8769 17.7868 89.4982 17.7868C89.1089 17.7868 88.7542 17.6908 88.4342 17.4988C88.1196 17.3068 87.8716 17.0375 87.6902 16.6908C87.5089 16.3442 87.4182 15.9495 87.4182 15.5068ZM91.1302 15.5148C91.1302 15.1842 91.0636 14.8962 90.9302 14.6508C90.7969 14.4055 90.6156 14.2188 90.3862 14.0908C90.1622 13.9575 89.9142 13.8908 89.6422 13.8908C89.3702 13.8908 89.1222 13.9548 88.8982 14.0828C88.6742 14.2108 88.4956 14.3975 88.3622 14.6428C88.2289 14.8882 88.1622 15.1762 88.1622 15.5068C88.1622 15.8428 88.2289 16.1362 88.3622 16.3868C88.4956 16.6322 88.6742 16.8215 88.8982 16.9548C89.1222 17.0828 89.3702 17.1468 89.6422 17.1468C89.9142 17.1468 90.1622 17.0828 90.3862 16.9548C90.6156 16.8215 90.7969 16.6322 90.9302 16.3868C91.0636 16.1362 91.1302 15.8455 91.1302 15.5148ZM94.6485 17.7868C94.3125 17.7868 94.0111 17.7308 93.7445 17.6188C93.4778 17.5015 93.2671 17.3415 93.1125 17.1388C92.9578 16.9308 92.8725 16.6935 92.8565 16.4268H93.6085C93.6298 16.6455 93.7311 16.8242 93.9125 16.9628C94.0991 17.1015 94.3418 17.1708 94.6405 17.1708C94.9178 17.1708 95.1365 17.1095 95.2965 16.9868C95.4565 16.8642 95.5365 16.7095 95.5365 16.5228C95.5365 16.3308 95.4511 16.1895 95.2805 16.0988C95.1098 16.0028 94.8458 15.9095 94.4885 15.8188C94.1631 15.7335 93.8965 15.6482 93.6885 15.5628C93.4858 15.4722 93.3098 15.3415 93.1605 15.1708C93.0165 14.9948 92.9445 14.7655 92.9445 14.4828C92.9445 14.2588 93.0111 14.0535 93.1445 13.8668C93.2778 13.6802 93.4671 13.5335 93.7125 13.4268C93.9578 13.3148 94.2378 13.2588 94.5525 13.2588C95.0378 13.2588 95.4298 13.3815 95.7285 13.6268C96.0271 13.8722 96.1871 14.2082 96.2085 14.6348H95.4805C95.4645 14.4055 95.3711 14.2215 95.2005 14.0828C95.0351 13.9442 94.8111 13.8748 94.5285 13.8748C94.2671 13.8748 94.0591 13.9308 93.9045 14.0428C93.7498 14.1548 93.6725 14.3015 93.6725 14.4828C93.6725 14.6268 93.7178 14.7468 93.8085 14.8428C93.9045 14.9335 94.0218 15.0082 94.1605 15.0668C94.3045 15.1202 94.5018 15.1815 94.7525 15.2508C95.0671 15.3362 95.3231 15.4215 95.5205 15.5068C95.7178 15.5868 95.8858 15.7095 96.0245 15.8748C96.1685 16.0402 96.2431 16.2562 96.2485 16.5228C96.2485 16.7628 96.1818 16.9788 96.0485 17.1708C95.9151 17.3628 95.7258 17.5148 95.4805 17.6268C95.2405 17.7335 94.9631 17.7868 94.6485 17.7868Z" fill="#FAFAFA"/>
</g>
<defs>
<linearGradient id="paint0_linear_9685_57304" x1="12.206" y1="-3.28375" x2="30.5394" y2="55.4693" gradientUnits="userSpaceOnUse">
<stop stop-color="#FCA509"/>
<stop offset="1" stop-color="#880306"/>
</linearGradient>
<linearGradient id="paint1_linear_9685_57304" x1="12.206" y1="-3.28375" x2="30.5394" y2="55.4693" gradientUnits="userSpaceOnUse">
<stop stop-color="#FCA509"/>
<stop offset="1" stop-color="#880306"/>
</linearGradient>
<linearGradient id="paint2_linear_9685_57304" x1="14.3375" y1="7.11328" x2="14.3375" y2="23.3196" gradientUnits="userSpaceOnUse">
<stop stop-color="#CCCCCC"/>
<stop offset="1" stop-color="#666666"/>
</linearGradient>
<clipPath id="clip0_9685_57304">
<rect width="91" height="16.2063" fill="white" transform="translate(6.23438 7.11133)"/>
</clipPath>
</defs>
</svg>
