<svg width="48" height="49" viewBox="0 0 48 49" fill="none" xmlns="http://www.w3.org/2000/svg">
<path d="M24 0.5C27.1517 0.5 30.2726 1.12078 33.1844 2.32689C36.0962 3.533 38.742 5.30083 40.9706 7.52944C43.1992 9.75804 44.967 12.4038 46.1731 15.3156C47.3792 18.2274 48 21.3483 48 24.5C48 27.6517 47.3792 30.7726 46.1731 33.6844C44.967 36.5962 43.1992 39.242 40.9706 41.4706C38.742 43.6992 36.0962 45.467 33.1844 46.6731C30.2726 47.8792 27.1517 48.5 24 48.5C17.6348 48.5 11.5303 45.9714 7.02944 41.4706C2.52856 36.9697 0 30.8652 0 24.5C0 18.1348 2.52856 12.0303 7.02944 7.52944C11.5303 3.02856 17.6348 0.5 24 0.5ZM32.48 17.156L21 28.668L15.416 23.084C15.23 22.898 15.0093 22.7505 14.7663 22.6499C14.5234 22.5493 14.263 22.4975 14 22.4975C13.737 22.4975 13.4766 22.5493 13.2337 22.6499C12.9907 22.7505 12.77 22.898 12.584 23.084C12.398 23.27 12.2505 23.4907 12.1499 23.7337C12.0493 23.9766 11.9975 24.237 11.9975 24.5C11.9975 24.763 12.0493 25.0234 12.1499 25.2663C12.2505 25.5093 12.398 25.73 12.584 25.916L19.584 32.916C19.7698 33.1023 19.9905 33.25 20.2335 33.3508C20.4764 33.4517 20.7369 33.5036 21 33.5036C21.2631 33.5036 21.5236 33.4517 21.7665 33.3508C22.0095 33.25 22.2302 33.1023 22.416 32.916L35.312 19.98C35.6758 19.6023 35.8767 19.0968 35.8714 18.5724C35.8662 18.048 35.6551 17.5466 35.2838 17.1763C34.9124 16.806 34.4104 16.5964 33.886 16.5926C33.3616 16.5888 32.8567 16.7911 32.48 17.156Z" fill="#43DF9E"/>
</svg>
