<svg width="64" height="65" viewBox="0 0 64 65" fill="none" xmlns="http://www.w3.org/2000/svg">
<path d="M32 8.5C35.1517 8.5 38.2726 9.12078 41.1844 10.3269C44.0962 11.533 46.742 13.3008 48.9706 15.5294C51.1992 17.758 52.967 20.4038 54.1731 23.3156C55.3792 26.2274 56 29.3483 56 32.5C56 35.6517 55.3792 38.7726 54.1731 41.6844C52.967 44.5962 51.1992 47.242 48.9706 49.4706C46.742 51.6992 44.0962 53.467 41.1844 54.6731C38.2726 55.8792 35.1517 56.5 32 56.5C25.6348 56.5 19.5303 53.9714 15.0294 49.4706C10.5286 44.9697 8 38.8652 8 32.5C8 26.1348 10.5286 20.0303 15.0294 15.5294C19.5303 11.0286 25.6348 8.5 32 8.5ZM40.48 25.156L29 36.668L23.416 31.084C23.23 30.898 23.0093 30.7505 22.7663 30.6499C22.5234 30.5493 22.263 30.4975 22 30.4975C21.737 30.4975 21.4766 30.5493 21.2337 30.6499C20.9907 30.7505 20.77 30.898 20.584 31.084C20.398 31.27 20.2505 31.4907 20.1499 31.7337C20.0493 31.9766 19.9975 32.237 19.9975 32.5C19.9975 32.763 20.0493 33.0234 20.1499 33.2663C20.2505 33.5093 20.398 33.73 20.584 33.916L27.584 40.916C27.7698 41.1023 27.9905 41.25 28.2335 41.3508C28.4764 41.4517 28.7369 41.5036 29 41.5036C29.2631 41.5036 29.5236 41.4517 29.7665 41.3508C30.0095 41.25 30.2302 41.1023 30.416 40.916L43.312 27.98C43.6758 27.6023 43.8767 27.0968 43.8714 26.5724C43.8662 26.048 43.6551 25.5466 43.2838 25.1763C42.9124 24.806 42.4104 24.5964 41.886 24.5926C41.3616 24.5888 40.8567 24.7911 40.48 25.156Z" fill="#43DF9E"/>
</svg>
