<svg width="24" height="25" viewBox="0 0 24 25" fill="none" xmlns="http://www.w3.org/2000/svg">
<path d="M19.8898 7.79497C19.7998 8.12497 19.3998 8.95497 18.7198 9.74497C18.2698 18.425 9.84975 21.245 4.07975 18.335C3.28975 17.285 6.92975 17.715 8.25975 15.705C3.22975 13.135 3.62975 6.26497 4.63975 6.54497C7.00975 9.73497 10.8298 10.025 11.4498 9.73497C11.4498 9.00497 11.1398 7.41497 12.8598 6.08497C13.8498 5.37497 15.9198 4.74497 17.7898 6.77497C18.1098 6.98497 18.5698 7.07497 19.2598 6.92497C19.6698 6.71497 20.2098 6.85497 19.9298 7.58497L19.8898 7.79497Z" stroke="#FAFAFA" stroke-width="2" stroke-linecap="round" stroke-linejoin="round"/>
</svg>
