<svg width="97" height="30" viewBox="0 0 97 30" fill="none" xmlns="http://www.w3.org/2000/svg">
<rect x="1.10853" y="1.19057" width="107.211" height="28.0494" rx="14.0247" fill="url(#paint0_linear_9685_49357)" fill-opacity="0.1"/>
<rect x="1.10853" y="1.19057" width="107.211" height="28.0494" rx="14.0247" stroke="url(#paint1_linear_9685_49357)" stroke-width="0.62332"/>
<g clip-path="url(#clip0_9685_49357)">
<mask id="mask0_9685_49357" style="mask-type:luminance" maskUnits="userSpaceOnUse" x="7" y="7" width="17" height="17">
<path d="M7.03125 7.11133H23.2376V23.3176H7.03125V7.11133Z" fill="white"/>
<path d="M14.3649 19.998L13.2036 17.8022L11 16.628L11.6017 16.0287L13.5198 16.3553L15.2144 14.658L11.0461 12.8762L11.8173 12.1082L16.8874 12.9791L18.6209 11.2323C18.7765 11.0761 18.9673 10.998 19.1932 10.998C19.4192 10.998 19.61 11.0761 19.7655 11.2323C19.9218 11.3885 20 11.5792 20 11.8044C20 12.0296 19.922 12.2203 19.7661 12.3765L18.0186 14.1155L18.8888 19.1906L18.1142 19.9663L16.3423 15.7916L14.6477 17.4889L14.966 19.3959L14.3649 19.998Z" fill="#1A1A1A"/>
</mask>
<g mask="url(#mask0_9685_49357)">
<path d="M15.1344 23.3196C19.6097 23.3196 23.2376 19.6917 23.2376 15.2164C23.2376 10.7412 19.6097 7.11328 15.1344 7.11328C10.6592 7.11328 7.03125 10.7412 7.03125 15.2164C7.03125 19.6917 10.6592 23.3196 15.1344 23.3196Z" fill="url(#paint2_linear_9685_49357)"/>
</g>
<path d="M33.5729 12.0669V12.6666H32.0333V17.7148H31.2959V12.6666H29.7482V12.0669H33.5729ZM35.2179 13.9955C35.3476 13.7416 35.5312 13.5444 35.7689 13.404C36.012 13.2635 36.3064 13.1933 36.6522 13.1933V13.955H36.4577C35.6312 13.955 35.2179 14.4034 35.2179 15.3001V17.7148H34.4805V13.2743H35.2179V13.9955ZM37.2279 15.4784C37.2279 15.0246 37.3197 14.6275 37.5034 14.2872C37.6871 13.9415 37.9383 13.6741 38.257 13.485C38.5811 13.2959 38.9404 13.2014 39.3347 13.2014C39.7237 13.2014 40.0613 13.2851 40.3476 13.4526C40.6339 13.62 40.8473 13.8307 40.9878 14.0846V13.2743H41.7332V17.7148H40.9878V16.8883C40.8419 17.1476 40.6231 17.3637 40.3314 17.5366C40.0451 17.704 39.7102 17.7878 39.3266 17.7878C38.9322 17.7878 38.5757 17.6905 38.257 17.4961C37.9383 17.3016 37.6871 17.0288 37.5034 16.6776C37.3197 16.3265 37.2279 15.9267 37.2279 15.4784ZM40.9878 15.4865C40.9878 15.1515 40.9202 14.8598 40.7852 14.6113C40.6501 14.3628 40.4664 14.1738 40.2342 14.0441C40.0073 13.9091 39.7561 13.8415 39.4806 13.8415C39.2051 13.8415 38.9539 13.9064 38.727 14.036C38.5001 14.1657 38.3191 14.3547 38.1841 14.6032C38.049 14.8517 37.9815 15.1434 37.9815 15.4784C37.9815 15.8187 38.049 16.1158 38.1841 16.3697C38.3191 16.6182 38.5001 16.81 38.727 16.945C38.9539 17.0747 39.2051 17.1395 39.4806 17.1395C39.7561 17.1395 40.0073 17.0747 40.2342 16.945C40.4664 16.81 40.6501 16.6182 40.7852 16.3697C40.9202 16.1158 40.9878 15.8214 40.9878 15.4865ZM44.6324 17.0342L46.0099 13.2743H46.7959L45.0538 17.7148H44.1948L42.4526 13.2743H43.2468L44.6324 17.0342ZM51.5731 15.3244C51.5731 15.4649 51.565 15.6134 51.5488 15.7701H47.9996C48.0267 16.2077 48.1752 16.5507 48.4453 16.7992C48.7208 17.0423 49.0531 17.1638 49.442 17.1638C49.7607 17.1638 50.0254 17.0909 50.2361 16.945C50.4522 16.7938 50.6035 16.5939 50.6899 16.3454H51.484C51.3652 16.7722 51.1275 17.1206 50.7709 17.3907C50.4144 17.6554 49.9714 17.7878 49.442 17.7878C49.0206 17.7878 48.6425 17.6932 48.3076 17.5042C47.978 17.3151 47.7187 17.0477 47.5297 16.7019C47.3406 16.3508 47.246 15.9457 47.246 15.4865C47.246 15.0273 47.3379 14.6248 47.5216 14.2791C47.7052 13.9334 47.9618 13.6687 48.2914 13.485C48.6263 13.2959 49.0098 13.2014 49.442 13.2014C49.8634 13.2014 50.2361 13.2932 50.5602 13.4769C50.8844 13.6606 51.1329 13.9145 51.3057 14.2386C51.484 14.5573 51.5731 14.9193 51.5731 15.3244ZM50.8114 15.1705C50.8114 14.8895 50.7493 14.6491 50.6251 14.4493C50.5008 14.244 50.3306 14.09 50.1146 13.9874C49.9039 13.8793 49.6689 13.8253 49.4096 13.8253C49.0368 13.8253 48.7181 13.9442 48.4534 14.1819C48.1941 14.4196 48.0456 14.7491 48.0077 15.1705H50.8114ZM53.2839 11.7185V17.7148H52.5465V11.7185H53.2839ZM56.4254 14.8868C56.4254 14.3358 56.5497 13.8415 56.7982 13.404C57.0466 12.961 57.3843 12.6153 57.811 12.3668C58.2432 12.1183 58.7213 11.994 59.2453 11.994C59.8611 11.994 60.3987 12.1426 60.8578 12.4397C61.317 12.7368 61.6519 13.1582 61.8626 13.7038H60.9794C60.8227 13.3634 60.5958 13.1014 60.2987 12.9178C60.007 12.7341 59.6559 12.6423 59.2453 12.6423C58.851 12.6423 58.4971 12.7341 58.1838 12.9178C57.8705 13.1014 57.6247 13.3634 57.4464 13.7038C57.2681 14.0387 57.179 14.4331 57.179 14.8868C57.179 15.3352 57.2681 15.7296 57.4464 16.0699C57.6247 16.4048 57.8705 16.6641 58.1838 16.8478C58.4971 17.0315 58.851 17.1233 59.2453 17.1233C59.6559 17.1233 60.007 17.0342 60.2987 16.8559C60.5958 16.6722 60.8227 16.4102 60.9794 16.0699H61.8626C61.6519 16.6101 61.317 17.0288 60.8578 17.3259C60.3987 17.6176 59.8611 17.7635 59.2453 17.7635C58.7213 17.7635 58.2432 17.6419 57.811 17.3988C57.3843 17.1503 57.0466 16.8073 56.7982 16.3697C56.5497 15.9321 56.4254 15.4379 56.4254 14.8868ZM62.6848 15.4784C62.6848 15.0246 62.7766 14.6275 62.9603 14.2872C63.144 13.9415 63.3952 13.6741 63.7139 13.485C64.038 13.2959 64.3972 13.2014 64.7916 13.2014C65.1806 13.2014 65.5182 13.2851 65.8045 13.4526C66.0908 13.62 66.3042 13.8307 66.4446 14.0846V13.2743H67.1901V17.7148H66.4446V16.8883C66.2988 17.1476 66.08 17.3637 65.7883 17.5366C65.502 17.704 65.167 17.7878 64.7835 17.7878C64.3891 17.7878 64.0326 17.6905 63.7139 17.4961C63.3952 17.3016 63.144 17.0288 62.9603 16.6776C62.7766 16.3265 62.6848 15.9267 62.6848 15.4784ZM66.4446 15.4865C66.4446 15.1515 66.3771 14.8598 66.2421 14.6113C66.107 14.3628 65.9233 14.1738 65.691 14.0441C65.4642 13.9091 65.213 13.8415 64.9375 13.8415C64.6619 13.8415 64.4108 13.9064 64.1839 14.036C63.957 14.1657 63.776 14.3547 63.641 14.6032C63.5059 14.8517 63.4384 15.1434 63.4384 15.4784C63.4384 15.8187 63.5059 16.1158 63.641 16.3697C63.776 16.6182 63.957 16.81 64.1839 16.945C64.4108 17.0747 64.6619 17.1395 64.9375 17.1395C65.213 17.1395 65.4642 17.0747 65.691 16.945C65.9233 16.81 66.107 16.6182 66.2421 16.3697C66.3771 16.1158 66.4446 15.8214 66.4446 15.4865ZM69.1736 13.9955C69.3033 13.7416 69.487 13.5444 69.7247 13.404C69.9677 13.2635 70.2622 13.1933 70.6079 13.1933V13.955H70.4134C69.5869 13.955 69.1736 14.4034 69.1736 15.3001V17.7148H68.4362V13.2743H69.1736V13.9955ZM71.1836 15.4784C71.1836 15.0246 71.2754 14.6275 71.4591 14.2872C71.6428 13.9415 71.894 13.6741 72.2127 13.485C72.5368 13.2959 72.8988 13.2014 73.2985 13.2014C73.6443 13.2014 73.9657 13.2824 74.2628 13.4445C74.5599 13.6011 74.7868 13.8091 74.9435 14.0684V11.7185H75.689V17.7148H74.9435V16.8802C74.7976 17.1449 74.5815 17.3637 74.2952 17.5366C74.0089 17.704 73.674 17.7878 73.2904 17.7878C72.8961 17.7878 72.5368 17.6905 72.2127 17.4961C71.894 17.3016 71.6428 17.0288 71.4591 16.6776C71.2754 16.3265 71.1836 15.9267 71.1836 15.4784ZM74.9435 15.4865C74.9435 15.1515 74.8759 14.8598 74.7409 14.6113C74.6058 14.3628 74.4222 14.1738 74.1899 14.0441C73.963 13.9091 73.7118 13.8415 73.4363 13.8415C73.1608 13.8415 72.9096 13.9064 72.6827 14.036C72.4558 14.1657 72.2748 14.3547 72.1398 14.6032C72.0047 14.8517 71.9372 15.1434 71.9372 15.4784C71.9372 15.8187 72.0047 16.1158 72.1398 16.3697C72.2748 16.6182 72.4558 16.81 72.6827 16.945C72.9096 17.0747 73.1608 17.1395 73.4363 17.1395C73.7118 17.1395 73.963 17.0747 74.1899 16.945C74.4222 16.81 74.6058 16.6182 74.7409 16.3697C74.8759 16.1158 74.9435 15.8214 74.9435 15.4865Z" fill="#FAFAFA"/>
</g>
<defs>
<linearGradient id="paint0_linear_9685_49357" x1="13.0029" y1="-3.28375" x2="31.3363" y2="55.4693" gradientUnits="userSpaceOnUse">
<stop stop-color="#FCA509"/>
<stop offset="1" stop-color="#880306"/>
</linearGradient>
<linearGradient id="paint1_linear_9685_49357" x1="13.0029" y1="-3.28375" x2="31.3363" y2="55.4693" gradientUnits="userSpaceOnUse">
<stop stop-color="#FCA509"/>
<stop offset="1" stop-color="#880306"/>
</linearGradient>
<linearGradient id="paint2_linear_9685_49357" x1="15.1344" y1="7.11328" x2="15.1344" y2="23.3196" gradientUnits="userSpaceOnUse">
<stop stop-color="#CCCCCC"/>
<stop offset="1" stop-color="#666666"/>
</linearGradient>
<clipPath id="clip0_9685_49357">
<rect width="81.0316" height="16.2063" fill="white" transform="translate(7.03125 7.11133)"/>
</clipPath>
</defs>
</svg>
