<svg width="97" height="30" viewBox="0 0 97 30" fill="none" xmlns="http://www.w3.org/2000/svg">
<rect x="1.10853" y="1.19057" width="107.211" height="28.0494" rx="14.0247" fill="url(#paint0_linear_9685_51682)" fill-opacity="0.1"/>
<rect x="1.10853" y="1.19057" width="107.211" height="28.0494" rx="14.0247" stroke="url(#paint1_linear_9685_51682)" stroke-width="0.62332"/>
<g clip-path="url(#clip0_9685_51682)">
<mask id="mask0_9685_51682" style="mask-type:luminance" maskUnits="userSpaceOnUse" x="7" y="7" width="17" height="17">
<path d="M7.03125 7.11133H23.2376V23.3176H7.03125V7.11133Z" fill="white"/>
<g clip-path="url(#clip1_9685_51682)">
<path d="M11.7033 13.6216L15.1732 15.2971C15.2635 15.3402 15.3841 15.3627 15.5035 15.3627C15.6228 15.3627 15.7434 15.3402 15.8336 15.2971L19.3035 13.6216C19.486 13.5337 19.486 13.3899 19.3035 13.3017L15.8336 11.6261C15.7434 11.583 15.6226 11.5605 15.5035 11.5605C15.3843 11.5605 15.2635 11.583 15.1732 11.6261L11.7033 13.3017C11.5208 13.3899 11.5208 13.5333 11.7033 13.6216Z" fill="#1A1A1A"/>
<path d="M19.3042 15.3373C19.3042 15.3373 18.6705 15.0318 18.5865 14.9907C18.5024 14.9496 18.4798 14.9518 18.3915 14.9928C18.3033 15.0338 15.8321 16.2273 15.8321 16.2273C15.728 16.2723 15.6155 16.2947 15.502 16.2931C15.383 16.2931 15.2621 16.2704 15.1719 16.2273C15.1719 16.2273 12.7663 15.0672 12.6535 15.0113C12.5313 14.9524 12.4962 14.9524 12.3849 15.0051L11.6993 15.3352C11.5169 15.4231 11.5169 15.5671 11.6993 15.6551L15.1698 17.3307C15.26 17.3738 15.3807 17.3963 15.4999 17.3963C15.6191 17.3963 15.7399 17.3738 15.8302 17.3307L19.3001 15.6555C19.4866 15.569 19.4866 15.4256 19.3042 15.3373Z" fill="#1A1A1A"/>
<path d="M19.3024 17.3752C19.3024 17.3752 18.6687 17.0697 18.5847 17.028C18.5006 16.9863 18.478 16.9892 18.3897 17.0301C18.3015 17.0711 15.8324 18.2673 15.8324 18.2673C15.7283 18.3122 15.6158 18.3345 15.5023 18.3328C15.3833 18.3328 15.2624 18.3103 15.172 18.2673C15.172 18.2673 12.7665 17.1071 12.6538 17.0512C12.5307 16.9916 12.4956 16.9916 12.385 17.0451L11.6995 17.3752C11.5168 17.4631 11.5168 17.6068 11.6995 17.6951L15.1694 19.3706C15.2596 19.4156 15.3803 19.4362 15.4995 19.4362C15.6187 19.4362 15.7395 19.4137 15.8296 19.3706L19.3003 17.696C19.4848 17.6068 19.4848 17.4634 19.3024 17.3752Z" fill="#1A1A1A"/>
</g>
</mask>
<g mask="url(#mask0_9685_51682)">
<path d="M15.1344 23.3196C19.6097 23.3196 23.2376 19.6917 23.2376 15.2164C23.2376 10.7412 19.6097 7.11328 15.1344 7.11328C10.6592 7.11328 7.03125 10.7412 7.03125 15.2164C7.03125 19.6917 10.6592 23.3196 15.1344 23.3196Z" fill="url(#paint2_linear_9685_51682)"/>
</g>
<path d="M33.5729 12.0669V12.6666H32.0333V17.7148H31.2959V12.6666H29.7482V12.0669H33.5729ZM38.5321 15.3244C38.5321 15.4649 38.524 15.6134 38.5078 15.7701H34.9586C34.9856 16.2077 35.1342 16.5507 35.4043 16.7992C35.6798 17.0423 36.012 17.1638 36.401 17.1638C36.7197 17.1638 36.9844 17.0909 37.1951 16.945C37.4112 16.7938 37.5624 16.5939 37.6489 16.3454H38.443C38.3241 16.7722 38.0864 17.1206 37.7299 17.3907C37.3734 17.6554 36.9304 17.7878 36.401 17.7878C35.9796 17.7878 35.6015 17.6932 35.2665 17.5042C34.937 17.3151 34.6777 17.0477 34.4886 16.7019C34.2996 16.3508 34.205 15.9457 34.205 15.4865C34.205 15.0273 34.2969 14.6248 34.4805 14.2791C34.6642 13.9334 34.9208 13.6687 35.2503 13.485C35.5853 13.2959 35.9688 13.2014 36.401 13.2014C36.8223 13.2014 37.1951 13.2932 37.5192 13.4769C37.8433 13.6606 38.0918 13.9145 38.2647 14.2386C38.443 14.5573 38.5321 14.9193 38.5321 15.3244ZM37.7704 15.1705C37.7704 14.8895 37.7083 14.6491 37.584 14.4493C37.4598 14.244 37.2896 14.09 37.0735 13.9874C36.8629 13.8793 36.6279 13.8253 36.3686 13.8253C35.9958 13.8253 35.6771 13.9442 35.4124 14.1819C35.1531 14.4196 35.0045 14.7491 34.9667 15.1705H37.7704ZM39.2299 15.4865C39.2299 15.0273 39.3218 14.6275 39.5054 14.2872C39.6891 13.9415 39.943 13.6741 40.2671 13.485C40.5967 13.2959 40.9721 13.2014 41.3935 13.2014C41.9391 13.2014 42.3875 13.3337 42.7386 13.5984C43.0951 13.8631 43.3301 14.2305 43.4436 14.7005H42.6495C42.5738 14.4304 42.4253 14.217 42.2038 14.0603C41.9877 13.9037 41.7176 13.8253 41.3935 13.8253C40.9721 13.8253 40.6318 13.9712 40.3725 14.2629C40.1132 14.5492 39.9835 14.9571 39.9835 15.4865C39.9835 16.0213 40.1132 16.4345 40.3725 16.7263C40.6318 17.018 40.9721 17.1638 41.3935 17.1638C41.7176 17.1638 41.9877 17.0882 42.2038 16.9369C42.4199 16.7857 42.5684 16.5696 42.6495 16.2887H43.4436C43.3247 16.7425 43.087 17.1071 42.7305 17.3826C42.374 17.6527 41.9283 17.7878 41.3935 17.7878C40.9721 17.7878 40.5967 17.6932 40.2671 17.5042C39.943 17.3151 39.6891 17.0477 39.5054 16.7019C39.3218 16.3562 39.2299 15.9511 39.2299 15.4865ZM46.6315 13.1933C46.9665 13.1933 47.269 13.2662 47.5391 13.4121C47.8092 13.5525 48.0199 13.7659 48.1711 14.0522C48.3278 14.3385 48.4061 14.687 48.4061 15.0975V17.7148H47.6768V15.2029C47.6768 14.7599 47.5661 14.4223 47.3446 14.19C47.1231 13.9523 46.8206 13.8334 46.4371 13.8334C46.0481 13.8334 45.7375 13.955 45.5052 14.1981C45.2783 14.4412 45.1649 14.795 45.1649 15.2596V17.7148H44.4275V11.7185H45.1649V13.9064C45.3107 13.6795 45.5106 13.5039 45.7645 13.3797C46.0238 13.2554 46.3128 13.1933 46.6315 13.1933ZM51.4955 14.8868C51.4955 14.3358 51.6197 13.8415 51.8682 13.404C52.1167 12.961 52.4543 12.6153 52.8811 12.3668C53.3133 12.1183 53.7914 11.994 54.3154 11.994C54.9312 11.994 55.4687 12.1426 55.9279 12.4397C56.3871 12.7368 56.722 13.1582 56.9327 13.7038H56.0494C55.8928 13.3634 55.6659 13.1014 55.3688 12.9178C55.0771 12.7341 54.7259 12.6423 54.3154 12.6423C53.921 12.6423 53.5672 12.7341 53.2538 12.9178C52.9405 13.1014 52.6947 13.3634 52.5165 13.7038C52.3382 14.0387 52.249 14.4331 52.249 14.8868C52.249 15.3352 52.3382 15.7296 52.5165 16.0699C52.6947 16.4048 52.9405 16.6641 53.2538 16.8478C53.5672 17.0315 53.921 17.1233 54.3154 17.1233C54.7259 17.1233 55.0771 17.0342 55.3688 16.8559C55.6659 16.6722 55.8928 16.4102 56.0494 16.0699H56.9327C56.722 16.6101 56.3871 17.0288 55.9279 17.3259C55.4687 17.6176 54.9312 17.7635 54.3154 17.7635C53.7914 17.7635 53.3133 17.6419 52.8811 17.3988C52.4543 17.1503 52.1167 16.8073 51.8682 16.3697C51.6197 15.9321 51.4955 15.4379 51.4955 14.8868ZM57.7548 15.4784C57.7548 15.0246 57.8467 14.6275 58.0303 14.2872C58.214 13.9415 58.4652 13.6741 58.7839 13.485C59.1081 13.2959 59.4673 13.2014 59.8617 13.2014C60.2506 13.2014 60.5882 13.2851 60.8745 13.4526C61.1609 13.62 61.3742 13.8307 61.5147 14.0846V13.2743H62.2602V17.7148H61.5147V16.8883C61.3688 17.1476 61.1501 17.3637 60.8583 17.5366C60.572 17.704 60.2371 17.7878 59.8535 17.7878C59.4592 17.7878 59.1027 17.6905 58.7839 17.4961C58.4652 17.3016 58.214 17.0288 58.0303 16.6776C57.8467 16.3265 57.7548 15.9267 57.7548 15.4784ZM61.5147 15.4865C61.5147 15.1515 61.4472 14.8598 61.3121 14.6113C61.1771 14.3628 60.9934 14.1738 60.7611 14.0441C60.5342 13.9091 60.283 13.8415 60.0075 13.8415C59.732 13.8415 59.4808 13.9064 59.2539 14.036C59.027 14.1657 58.8461 14.3547 58.711 14.6032C58.576 14.8517 58.5084 15.1434 58.5084 15.4784C58.5084 15.8187 58.576 16.1158 58.711 16.3697C58.8461 16.6182 59.027 16.81 59.2539 16.945C59.4808 17.0747 59.732 17.1395 60.0075 17.1395C60.283 17.1395 60.5342 17.0747 60.7611 16.945C60.9934 16.81 61.1771 16.6182 61.3121 16.3697C61.4472 16.1158 61.5147 15.8214 61.5147 15.4865ZM64.2437 13.9955C64.3733 13.7416 64.557 13.5444 64.7947 13.404C65.0378 13.2635 65.3322 13.1933 65.6779 13.1933V13.955H65.4835C64.6569 13.955 64.2437 14.4034 64.2437 15.3001V17.7148H63.5063V13.2743H64.2437V13.9955ZM66.2536 15.4784C66.2536 15.0246 66.3455 14.6275 66.5292 14.2872C66.7128 13.9415 66.964 13.6741 67.2827 13.485C67.6069 13.2959 67.9688 13.2014 68.3686 13.2014C68.7143 13.2014 69.0357 13.2824 69.3328 13.4445C69.63 13.6011 69.8569 13.8091 70.0135 14.0684V11.7185H70.759V17.7148H70.0135V16.8802C69.8677 17.1449 69.6516 17.3637 69.3653 17.5366C69.0789 17.704 68.744 17.7878 68.3605 17.7878C67.9661 17.7878 67.6069 17.6905 67.2827 17.4961C66.964 17.3016 66.7128 17.0288 66.5292 16.6776C66.3455 16.3265 66.2536 15.9267 66.2536 15.4784ZM70.0135 15.4865C70.0135 15.1515 69.946 14.8598 69.8109 14.6113C69.6759 14.3628 69.4922 14.1738 69.2599 14.0441C69.033 13.9091 68.7818 13.8415 68.5063 13.8415C68.2308 13.8415 67.9796 13.9064 67.7527 14.036C67.5258 14.1657 67.3449 14.3547 67.2098 14.6032C67.0748 14.8517 67.0072 15.1434 67.0072 15.4784C67.0072 15.8187 67.0748 16.1158 67.2098 16.3697C67.3449 16.6182 67.5258 16.81 67.7527 16.945C67.9796 17.0747 68.2308 17.1395 68.5063 17.1395C68.7818 17.1395 69.033 17.0747 69.2599 16.945C69.4922 16.81 69.6759 16.6182 69.8109 16.3697C69.946 16.1158 70.0135 15.8214 70.0135 15.4865ZM73.5771 17.7878C73.2368 17.7878 72.9316 17.7311 72.6615 17.6176C72.3914 17.4988 72.178 17.3367 72.0213 17.1314C71.8647 16.9207 71.7782 16.6803 71.762 16.4102H72.5237C72.5453 16.6317 72.648 16.8127 72.8316 16.9531C73.0207 17.0936 73.2665 17.1638 73.569 17.1638C73.8499 17.1638 74.0714 17.1017 74.2335 16.9775C74.3956 16.8532 74.4766 16.6965 74.4766 16.5075C74.4766 16.313 74.3901 16.1698 74.2173 16.078C74.0444 15.9808 73.777 15.8862 73.4151 15.7944C73.0855 15.708 72.8154 15.6215 72.6048 15.5351C72.3995 15.4433 72.2212 15.3109 72.0699 15.138C71.9241 14.9598 71.8512 14.7275 71.8512 14.4412C71.8512 14.2143 71.9187 14.0063 72.0537 13.8172C72.1888 13.6282 72.3806 13.4796 72.6291 13.3716C72.8776 13.2581 73.1612 13.2014 73.4799 13.2014C73.9715 13.2014 74.3685 13.3256 74.6711 13.5741C74.9736 13.8226 75.1356 14.163 75.1572 14.5951H74.4199C74.4037 14.3628 74.3091 14.1765 74.1362 14.036C73.9688 13.8956 73.7419 13.8253 73.4556 13.8253C73.1909 13.8253 72.9802 13.882 72.8235 13.9955C72.6669 14.1089 72.5885 14.2575 72.5885 14.4412C72.5885 14.587 72.6345 14.7086 72.7263 14.8058C72.8235 14.8976 72.9424 14.9733 73.0828 15.0327C73.2287 15.0867 73.4286 15.1488 73.6825 15.2191C74.0012 15.3055 74.2605 15.3919 74.4604 15.4784C74.6603 15.5594 74.8304 15.6837 74.9709 15.8511C75.1167 16.0186 75.1924 16.2374 75.1978 16.5075C75.1978 16.7506 75.1302 16.9694 74.9952 17.1638C74.8601 17.3583 74.6684 17.5123 74.4199 17.6257C74.1768 17.7338 73.8959 17.7878 73.5771 17.7878Z" fill="#FAFAFA"/>
</g>
<defs>
<linearGradient id="paint0_linear_9685_51682" x1="13.0029" y1="-3.28375" x2="31.3363" y2="55.4693" gradientUnits="userSpaceOnUse">
<stop stop-color="#FCA509"/>
<stop offset="1" stop-color="#880306"/>
</linearGradient>
<linearGradient id="paint1_linear_9685_51682" x1="13.0029" y1="-3.28375" x2="31.3363" y2="55.4693" gradientUnits="userSpaceOnUse">
<stop stop-color="#FCA509"/>
<stop offset="1" stop-color="#880306"/>
</linearGradient>
<linearGradient id="paint2_linear_9685_51682" x1="15.1344" y1="7.11328" x2="15.1344" y2="23.3196" gradientUnits="userSpaceOnUse">
<stop stop-color="#CCCCCC"/>
<stop offset="1" stop-color="#666666"/>
</linearGradient>
<clipPath id="clip0_9685_51682">
<rect width="81.0316" height="16.2063" fill="white" transform="translate(7.03125 7.11133)"/>
</clipPath>
<clipPath id="clip1_9685_51682">
<rect width="9" height="9" fill="white" transform="translate(11 10.998)"/>
</clipPath>
</defs>
</svg>
