<svg width="32" height="33" viewBox="0 0 32 33" fill="none" xmlns="http://www.w3.org/2000/svg">
<path d="M0.207031 16.5297C0.207031 25.2502 7.27598 32.3192 15.9965 32.3192C24.717 32.3192 31.786 25.2502 31.786 16.5297C31.786 7.80918 24.717 0.740234 15.9965 0.740234C7.27598 0.740234 0.207031 7.80918 0.207031 16.5297ZM28.6281 16.5297C28.6281 19.8798 27.2973 23.0927 24.9284 25.4616C22.5595 27.8305 19.3466 29.1613 15.9965 29.1613C12.6464 29.1613 9.43351 27.8305 7.06463 25.4616C4.69575 23.0927 3.36493 19.8798 3.36493 16.5297C3.36493 13.1796 4.69575 9.96671 7.06463 7.59783C9.43351 5.22895 12.6464 3.89813 15.9965 3.89813C19.3466 3.89813 22.5595 5.22895 24.9284 7.59783C27.2973 9.96671 28.6281 13.1796 28.6281 16.5297ZM25.4702 16.5297C25.4721 17.7741 25.2279 19.0066 24.7518 20.1564C24.2757 21.3061 23.5771 22.3504 22.696 23.2292L15.9965 16.5297V7.05602C18.5091 7.05602 20.9188 8.05414 22.6954 9.8308C24.4721 11.6075 25.4702 14.0171 25.4702 16.5297Z" fill="#F4A810"/>
</svg>
