<svg width="21" height="20" viewBox="0 0 21 20" fill="none" xmlns="http://www.w3.org/2000/svg">
<path d="M14.762 8.82164C14.9462 7.57414 14.002 6.90831 12.7004 6.45664L13.122 4.77581L12.0945 4.51997L11.6845 6.15997L10.8645 5.96331L11.2804 4.31164L10.252 4.05664L9.83036 5.74414L9.17703 5.58914V5.58331L7.75703 5.22664L7.4837 6.32664C7.4837 6.32664 8.2437 6.50497 8.23203 6.50997C8.6487 6.61831 8.71953 6.89081 8.70703 7.10497L8.23203 9.02997L8.33953 9.06581L8.2262 9.04081L7.55453 11.7333C7.50703 11.8583 7.3762 12.0483 7.08536 11.9708C7.09703 11.9883 6.34286 11.7925 6.34286 11.7925L5.83203 12.9633L7.1687 13.2958L7.89953 13.4866L7.4712 15.1916L8.49953 15.4466L8.9162 13.7591L9.7412 13.9733L9.31953 15.655L10.347 15.9108L10.7687 14.205C12.522 14.5383 13.8412 14.4075 14.3937 12.8208C14.8395 11.5433 14.3704 10.8125 13.4495 10.325C14.1204 10.1766 14.6254 9.73081 14.7562 8.82164H14.762ZM12.4154 12.1133C12.1004 13.3908 9.9487 12.6958 9.25453 12.53L9.8187 10.2658C10.5137 10.4441 12.7479 10.7825 12.4154 12.1075V12.1133ZM12.7304 8.80414C12.4445 9.96247 10.6504 9.37414 10.0745 9.23164L10.5845 7.18164C11.1679 7.32497 13.0329 7.59831 12.7304 8.80414Z" fill="white"/>
</svg>
