<svg width="125" height="35" viewBox="0 0 125 35" fill="none" xmlns="http://www.w3.org/2000/svg">
<rect x="1.13891" y="1.135" width="122.615" height="33.005" rx="16.5025" fill="url(#paint0_linear_9685_30228)" fill-opacity="0.1"/>
<rect x="1.13891" y="1.135" width="122.615" height="33.005" rx="16.5025" stroke="url(#paint1_linear_9685_30228)" stroke-width="0.895"/>
<path d="M16.2879 14.1402V15.3538H14.2902V21.6367H12.7866V15.3538H10.789V14.1402H16.2879ZM18.8885 16.6104C19.0819 16.2954 19.3325 16.0483 19.6403 15.8693C19.9554 15.6903 20.3134 15.6008 20.7143 15.6008V17.1796H20.317C19.8444 17.1796 19.4864 17.2906 19.243 17.5126C19.0067 17.7345 18.8885 18.1212 18.8885 18.6725V21.6367H17.3849V15.6868H18.8885V16.6104ZM21.3405 18.6403C21.3405 18.0388 21.4586 17.5054 21.6949 17.04C21.9383 16.5746 22.2641 16.2166 22.6722 15.966C23.0875 15.7154 23.5493 15.5901 24.0577 15.5901C24.5016 15.5901 24.8882 15.6796 25.2176 15.8586C25.5541 16.0376 25.8226 16.2631 26.0231 16.5352V15.6868H27.5374V21.6367H26.0231V20.7668C25.8298 21.046 25.5613 21.2787 25.2176 21.4649C24.8811 21.6439 24.4909 21.7334 24.0469 21.7334C23.5457 21.7334 23.0875 21.6045 22.6722 21.3467C22.2641 21.089 21.9383 20.7274 21.6949 20.262C21.4586 19.7894 21.3405 19.2489 21.3405 18.6403ZM26.0231 18.6617C26.0231 18.2966 25.9515 17.9851 25.8083 17.7274C25.6651 17.4624 25.4718 17.262 25.2283 17.1259C24.9849 16.9827 24.7236 16.9111 24.4443 16.9111C24.1651 16.9111 23.9073 16.9791 23.671 17.1152C23.4348 17.2512 23.2414 17.4517 23.0911 17.7166C22.9479 17.9744 22.8763 18.2823 22.8763 18.6403C22.8763 18.9983 22.9479 19.3133 23.0911 19.5854C23.2414 19.8503 23.4348 20.0544 23.671 20.1976C23.9145 20.3408 24.1722 20.4124 24.4443 20.4124C24.7236 20.4124 24.9849 20.3443 25.2283 20.2083C25.4718 20.0651 25.6651 19.8646 25.8083 19.6069C25.9515 19.3419 26.0231 19.0269 26.0231 18.6617ZM28.6193 18.6617C28.6193 18.046 28.7446 17.509 28.9952 17.0507C29.2458 16.5853 29.5931 16.2273 30.037 15.9767C30.4809 15.719 30.9893 15.5901 31.5621 15.5901C32.2996 15.5901 32.9082 15.7763 33.3879 16.1486C33.8748 16.5137 34.2005 17.0293 34.3652 17.6951H32.7435C32.6576 17.4374 32.5108 17.2369 32.3031 17.0937C32.1027 16.9433 31.8521 16.8682 31.5513 16.8682C31.1217 16.8682 30.7816 17.0257 30.531 17.3407C30.2804 17.6486 30.1551 18.0889 30.1551 18.6617C30.1551 19.2274 30.2804 19.6677 30.531 19.9828C30.7816 20.2906 31.1217 20.4446 31.5513 20.4446C32.1599 20.4446 32.5573 20.1725 32.7435 19.6283H34.3652C34.2005 20.2727 33.8748 20.7847 33.3879 21.1642C32.901 21.5436 32.2924 21.7334 31.5621 21.7334C30.9893 21.7334 30.4809 21.6081 30.037 21.3575C29.5931 21.0997 29.2458 20.7417 28.9952 20.2835C28.7446 19.8181 28.6193 19.2775 28.6193 18.6617ZM38.9895 21.6367L36.9703 19.1021V21.6367H35.4667V13.6891H36.9703V18.2107L38.968 15.6868H40.9227L38.3021 18.6725L40.9441 21.6367H38.9895ZM47.7776 21.7119C47.076 21.7119 46.4316 21.5472 45.8444 21.2179C45.2573 20.8885 44.7919 20.4338 44.4482 19.8539C44.1046 19.2668 43.9327 18.6045 43.9327 17.867C43.9327 17.1367 44.1046 16.4815 44.4482 15.9016C44.7919 15.3144 45.2573 14.8562 45.8444 14.5268C46.4316 14.1975 47.076 14.0328 47.7776 14.0328C48.4865 14.0328 49.1309 14.1975 49.7108 14.5268C50.298 14.8562 50.7598 15.3144 51.0963 15.9016C51.44 16.4815 51.6118 17.1367 51.6118 17.867C51.6118 18.6045 51.44 19.2668 51.0963 19.8539C50.7598 20.4338 50.298 20.8885 49.7108 21.2179C49.1237 21.5472 48.4793 21.7119 47.7776 21.7119ZM47.7776 20.3694C48.2287 20.3694 48.6261 20.2692 48.9698 20.0687C49.3135 19.861 49.582 19.5675 49.7753 19.188C49.9686 18.8085 50.0653 18.3682 50.0653 17.867C50.0653 17.3658 49.9686 16.929 49.7753 16.5567C49.582 16.1772 49.3135 15.8872 48.9698 15.6868C48.6261 15.4863 48.2287 15.386 47.7776 15.386C47.3266 15.386 46.9256 15.4863 46.5748 15.6868C46.2311 15.8872 45.9626 16.1772 45.7693 16.5567C45.5759 16.929 45.4793 17.3658 45.4793 17.867C45.4793 18.3682 45.5759 18.8085 45.7693 19.188C45.9626 19.5675 46.2311 19.861 46.5748 20.0687C46.9256 20.2692 47.3266 20.3694 47.7776 20.3694ZM58.3475 15.6868V21.6367H56.8331V20.8849C56.6398 21.1427 56.3856 21.3467 56.0706 21.4971C55.7627 21.6403 55.4262 21.7119 55.061 21.7119C54.5956 21.7119 54.1839 21.6152 53.8259 21.4219C53.4679 21.2214 53.1851 20.9315 52.9775 20.552C52.777 20.1653 52.6768 19.7071 52.6768 19.1773V15.6868H54.1804V18.9625C54.1804 19.435 54.2985 19.8002 54.5348 20.0579C54.7711 20.3085 55.0933 20.4338 55.5014 20.4338C55.9167 20.4338 56.2424 20.3085 56.4787 20.0579C56.715 19.8002 56.8331 19.435 56.8331 18.9625V15.6868H58.3475ZM61.3346 16.6104C61.5279 16.2954 61.7785 16.0483 62.0864 15.8693C62.4015 15.6903 62.7595 15.6008 63.1604 15.6008V17.1796H62.763C62.2905 17.1796 61.9325 17.2906 61.689 17.5126C61.4528 17.7345 61.3346 18.1212 61.3346 18.6725V21.6367H59.831V15.6868H61.3346V16.6104ZM72.199 16.46C72.199 16.861 72.1023 17.2369 71.909 17.5877C71.7228 17.9386 71.4257 18.2214 71.0176 18.4362C70.6166 18.651 70.1083 18.7584 69.4925 18.7584H68.2359V21.6367H66.7323V14.1402H69.4925C70.0725 14.1402 70.5665 14.2404 70.9746 14.4409C71.3827 14.6414 71.687 14.9171 71.8875 15.2679C72.0952 15.6187 72.199 16.0161 72.199 16.46ZM69.4281 17.5448C69.8433 17.5448 70.1512 17.4517 70.3517 17.2655C70.5522 17.0722 70.6524 16.8037 70.6524 16.46C70.6524 15.7297 70.2443 15.3646 69.4281 15.3646H68.2359V17.5448H69.4281ZM74.7701 16.6104C74.9634 16.2954 75.214 16.0483 75.5219 15.8693C75.837 15.6903 76.195 15.6008 76.5959 15.6008V17.1796H76.1985C75.726 17.1796 75.368 17.2906 75.1245 17.5126C74.8883 17.7345 74.7701 18.1212 74.7701 18.6725V21.6367H73.2665V15.6868H74.7701V16.6104ZM80.2507 21.7334C79.6779 21.7334 79.1624 21.6081 78.7041 21.3575C78.2459 21.0997 77.8843 20.7381 77.6194 20.2727C77.3616 19.8073 77.2328 19.2703 77.2328 18.6617C77.2328 18.0531 77.3652 17.5161 77.6301 17.0507C77.9022 16.5853 78.271 16.2273 78.7364 15.9767C79.2018 15.719 79.7209 15.5901 80.2937 15.5901C80.8665 15.5901 81.3856 15.719 81.851 15.9767C82.3164 16.2273 82.6815 16.5853 82.9464 17.0507C83.2185 17.5161 83.3546 18.0531 83.3546 18.6617C83.3546 19.2703 83.2149 19.8073 82.9357 20.2727C82.6636 20.7381 82.2913 21.0997 81.8187 21.3575C81.3533 21.6081 80.8307 21.7334 80.2507 21.7334ZM80.2507 20.4231C80.5228 20.4231 80.777 20.3587 81.0132 20.2298C81.2567 20.0937 81.45 19.8933 81.5932 19.6283C81.7364 19.3634 81.808 19.0412 81.808 18.6617C81.808 18.0961 81.6576 17.6629 81.3569 17.3622C81.0634 17.0543 80.7018 16.9004 80.2722 16.9004C79.8426 16.9004 79.481 17.0543 79.1874 17.3622C78.901 17.6629 78.7578 18.0961 78.7578 18.6617C78.7578 19.2274 78.8975 19.6641 79.1767 19.972C79.4631 20.2727 79.8211 20.4231 80.2507 20.4231ZM86.7881 15.5901C87.232 15.5901 87.6222 15.6796 87.9588 15.8586C88.2953 16.0304 88.5602 16.256 88.7535 16.5352V15.6868H90.2679V21.6797C90.2679 22.231 90.1569 22.7215 89.9349 23.1511C89.713 23.5878 89.38 23.9315 88.9361 24.1821C88.4922 24.4399 87.9552 24.5687 87.3251 24.5687C86.4802 24.5687 85.7857 24.3718 85.2415 23.978C84.7045 23.5842 84.4002 23.0472 84.3286 22.367H85.8215C85.9003 22.6391 86.0685 22.8539 86.3263 23.0114C86.5912 23.1761 86.9098 23.2585 87.2821 23.2585C87.7189 23.2585 88.0733 23.126 88.3454 22.8611C88.6175 22.6033 88.7535 22.2095 88.7535 21.6797V20.756C88.5602 21.0353 88.2917 21.268 87.948 21.4541C87.6115 21.6403 87.2249 21.7334 86.7881 21.7334C86.2869 21.7334 85.8287 21.6045 85.4134 21.3467C84.9981 21.089 84.6687 20.7274 84.4253 20.262C84.189 19.7894 84.0709 19.2489 84.0709 18.6403C84.0709 18.0388 84.189 17.5054 84.4253 17.04C84.6687 16.5746 84.9945 16.2166 85.4026 15.966C85.8179 15.7154 86.2797 15.5901 86.7881 15.5901ZM88.7535 18.6617C88.7535 18.2966 88.6819 17.9851 88.5387 17.7274C88.3955 17.4624 88.2022 17.262 87.9588 17.1259C87.7153 16.9827 87.454 16.9111 87.1747 16.9111C86.8955 16.9111 86.6377 16.9791 86.4015 17.1152C86.1652 17.2512 85.9719 17.4517 85.8215 17.7166C85.6783 17.9744 85.6067 18.2823 85.6067 18.6403C85.6067 18.9983 85.6783 19.3133 85.8215 19.5854C85.9719 19.8503 86.1652 20.0544 86.4015 20.1976C86.6449 20.3408 86.9027 20.4124 87.1747 20.4124C87.454 20.4124 87.7153 20.3443 87.9588 20.2083C88.2022 20.0651 88.3955 19.8646 88.5387 19.6069C88.6819 19.3419 88.7535 19.0269 88.7535 18.6617ZM93.24 16.6104C93.4333 16.2954 93.6839 16.0483 93.9918 15.8693C94.3068 15.6903 94.6648 15.6008 95.0658 15.6008V17.1796H94.6684C94.1958 17.1796 93.8378 17.2906 93.5944 17.5126C93.3581 17.7345 93.24 18.1212 93.24 18.6725V21.6367H91.7364V15.6868H93.24V16.6104ZM101.61 18.5329C101.61 18.7477 101.595 18.941 101.567 19.1128H97.217C97.2528 19.5424 97.4031 19.8789 97.6681 20.1224C97.933 20.3658 98.2588 20.4875 98.6454 20.4875C99.2039 20.4875 99.6013 20.2477 99.8375 19.768H101.459C101.287 20.3408 100.958 20.8133 100.471 21.1856C99.9843 21.5508 99.3865 21.7334 98.6776 21.7334C98.1048 21.7334 97.5893 21.6081 97.1311 21.3575C96.68 21.0997 96.3256 20.7381 96.0678 20.2727C95.8172 19.8073 95.6919 19.2703 95.6919 18.6617C95.6919 18.046 95.8172 17.5054 96.0678 17.04C96.3184 16.5746 96.6692 16.2166 97.1203 15.966C97.5714 15.7154 98.0905 15.5901 98.6776 15.5901C99.2433 15.5901 99.748 15.7118 100.192 15.9553C100.643 16.1987 100.99 16.546 101.234 16.997C101.484 17.441 101.61 17.9529 101.61 18.5329ZM100.052 18.1033C100.045 17.7166 99.9056 17.4087 99.6335 17.1796C99.3614 16.9433 99.0285 16.8252 98.6347 16.8252C98.2623 16.8252 97.9473 16.9398 97.6895 17.1689C97.4389 17.3908 97.285 17.7023 97.2277 18.1033H100.052ZM104.984 21.7334C104.497 21.7334 104.06 21.6475 103.674 21.4756C103.287 21.2966 102.979 21.0568 102.75 20.756C102.528 20.4553 102.406 20.1224 102.385 19.7572H103.899C103.928 19.9863 104.039 20.1761 104.232 20.3264C104.433 20.4768 104.68 20.552 104.973 20.552C105.26 20.552 105.482 20.4947 105.639 20.3801C105.804 20.2656 105.886 20.1188 105.886 19.9398C105.886 19.7465 105.786 19.6033 105.585 19.5102C105.392 19.41 105.081 19.3026 104.651 19.188C104.207 19.0806 103.842 18.9696 103.556 18.8551C103.276 18.7405 103.033 18.5651 102.825 18.3288C102.625 18.0925 102.525 17.7739 102.525 17.3729C102.525 17.0436 102.618 16.7429 102.804 16.4708C102.997 16.1987 103.269 15.9839 103.62 15.8264C103.978 15.6689 104.397 15.5901 104.877 15.5901C105.585 15.5901 106.151 15.7691 106.574 16.1271C106.996 16.4779 107.229 16.9541 107.272 17.5555H105.832C105.811 17.3192 105.711 17.1331 105.532 16.997C105.36 16.8538 105.127 16.7822 104.834 16.7822C104.562 16.7822 104.35 16.8324 104.2 16.9326C104.057 17.0328 103.985 17.1725 103.985 17.3515C103.985 17.5519 104.085 17.7059 104.286 17.8133C104.486 17.9135 104.798 18.0173 105.22 18.1247C105.65 18.2321 106.004 18.3431 106.284 18.4577C106.563 18.5722 106.803 18.7512 107.003 18.9947C107.211 19.231 107.318 19.546 107.325 19.9398C107.325 20.2835 107.229 20.5914 107.035 20.8634C106.849 21.1355 106.577 21.3503 106.219 21.5078C105.868 21.6582 105.457 21.7334 104.984 21.7334ZM110.836 21.7334C110.35 21.7334 109.913 21.6475 109.526 21.4756C109.14 21.2966 108.832 21.0568 108.603 20.756C108.381 20.4553 108.259 20.1224 108.237 19.7572H109.752C109.78 19.9863 109.891 20.1761 110.085 20.3264C110.285 20.4768 110.532 20.552 110.826 20.552C111.112 20.552 111.334 20.4947 111.492 20.3801C111.656 20.2656 111.739 20.1188 111.739 19.9398C111.739 19.7465 111.638 19.6033 111.438 19.5102C111.245 19.41 110.933 19.3026 110.504 19.188C110.06 19.0806 109.694 18.9696 109.408 18.8551C109.129 18.7405 108.885 18.5651 108.678 18.3288C108.477 18.0925 108.377 17.7739 108.377 17.3729C108.377 17.0436 108.47 16.7429 108.656 16.4708C108.85 16.1987 109.122 15.9839 109.472 15.8264C109.83 15.6689 110.249 15.5901 110.729 15.5901C111.438 15.5901 112.004 15.7691 112.426 16.1271C112.848 16.4779 113.081 16.9541 113.124 17.5555H111.685C111.663 17.3192 111.563 17.1331 111.384 16.997C111.212 16.8538 110.98 16.7822 110.686 16.7822C110.414 16.7822 110.203 16.8324 110.052 16.9326C109.909 17.0328 109.838 17.1725 109.838 17.3515C109.838 17.5519 109.938 17.7059 110.138 17.8133C110.339 17.9135 110.65 18.0173 111.073 18.1247C111.502 18.2321 111.857 18.3431 112.136 18.4577C112.415 18.5722 112.655 18.7512 112.856 18.9947C113.063 19.231 113.171 19.546 113.178 19.9398C113.178 20.2835 113.081 20.5914 112.888 20.8634C112.702 21.1355 112.43 21.3503 112.072 21.5078C111.721 21.6582 111.309 21.7334 110.836 21.7334Z" fill="url(#paint2_linear_9685_30228)"/>
<defs>
<linearGradient id="paint0_linear_9685_30228" x1="14.6718" y1="-4.23405" x2="36.9173" y2="64.8286" gradientUnits="userSpaceOnUse">
<stop stop-color="#FCA509"/>
<stop offset="1" stop-color="#880306"/>
</linearGradient>
<linearGradient id="paint1_linear_9685_30228" x1="14.6718" y1="-4.23405" x2="36.9173" y2="64.8286" gradientUnits="userSpaceOnUse">
<stop stop-color="#FCA509"/>
<stop offset="1" stop-color="#880306"/>
</linearGradient>
<linearGradient id="paint2_linear_9685_30228" x1="22.2173" y1="7.31386" x2="28.5079" y2="42.1559" gradientUnits="userSpaceOnUse">
<stop stop-color="#FCA509"/>
<stop offset="1" stop-color="#880306"/>
</linearGradient>
</defs>
</svg>
