<svg width="43" height="57" viewBox="0 0 43 57" fill="none" xmlns="http://www.w3.org/2000/svg">
<path d="M17.3562 32.418C18.0396 31.6846 19.0812 31.743 19.6812 32.543L20.5229 33.668C21.1979 34.5596 22.2896 34.5596 22.9646 33.668L23.8062 32.543C24.4062 31.743 25.4479 31.6846 26.1312 32.418C27.6146 34.0013 28.8229 33.4763 28.8229 31.2596V21.868C28.8229 18.5096 28.0396 17.668 24.8896 17.668H18.5896C15.4396 17.668 14.6562 18.5096 14.6562 21.868V31.2513C14.6646 33.4763 15.8812 33.993 17.3562 32.418Z" stroke="url(#paint0_linear_11855_4217)" stroke-width="1.5" stroke-linecap="round" stroke-linejoin="round"/>
<path d="M19.457 24.332H24.0404" stroke="url(#paint1_linear_11855_4217)" stroke-width="1.5" stroke-linecap="round" stroke-linejoin="round"/>
<path d="M8.23295 46.5085V45.7273H13.6875V46.5085H11.4006V53H10.5199V46.5085H8.23295ZM14.3667 53V47.5455H15.1763V48.3693H15.2331C15.3326 48.0994 15.5125 47.8804 15.7729 47.7124C16.0333 47.5443 16.3269 47.4602 16.6536 47.4602C16.7151 47.4602 16.7921 47.4614 16.8844 47.4638C16.9767 47.4661 17.0466 47.4697 17.0939 47.4744V48.3267C17.0655 48.3196 17.0004 48.3089 16.8986 48.2947C16.7992 48.2782 16.6938 48.2699 16.5826 48.2699C16.3174 48.2699 16.0807 48.3255 15.8723 48.4368C15.6664 48.5457 15.503 48.6972 15.3823 48.8913C15.2639 49.0831 15.2047 49.3021 15.2047 49.5483V53H14.3667ZM19.6925 53.1278C19.3468 53.1278 19.0331 53.0627 18.7514 52.9325C18.4697 52.8 18.246 52.6094 18.0803 52.3608C17.9145 52.1098 17.8317 51.8068 17.8317 51.4517C17.8317 51.1392 17.8932 50.8859 18.0163 50.6918C18.1394 50.4953 18.304 50.3414 18.5099 50.2301C18.7159 50.1188 18.9432 50.036 19.1918 49.9815C19.4427 49.9247 19.6948 49.8797 19.9482 49.8466C20.2796 49.804 20.5483 49.772 20.7543 49.7507C20.9626 49.727 21.1141 49.688 21.2088 49.6335C21.3059 49.5791 21.3544 49.4844 21.3544 49.3494V49.321C21.3544 48.9706 21.2585 48.6984 21.0668 48.5043C20.8774 48.3101 20.5897 48.2131 20.2038 48.2131C19.8037 48.2131 19.4901 48.3007 19.2628 48.4759C19.0355 48.651 18.8757 48.8381 18.7834 49.0369L17.9879 48.7528C18.13 48.4214 18.3194 48.1634 18.5561 47.9787C18.7952 47.7917 19.0556 47.6615 19.3374 47.5881C19.6214 47.5123 19.9008 47.4744 20.1754 47.4744C20.3506 47.4744 20.5518 47.4957 20.7791 47.5384C21.0088 47.5786 21.2301 47.6626 21.4432 47.7905C21.6586 47.9183 21.8374 48.1113 21.9794 48.3693C22.1214 48.6274 22.1925 48.973 22.1925 49.4062V53H21.3544V52.2614H21.3118C21.255 52.3797 21.1603 52.5064 21.0277 52.6413C20.8951 52.7763 20.7188 52.8911 20.4986 52.9858C20.2784 53.0805 20.0097 53.1278 19.6925 53.1278ZM19.8203 52.375C20.1518 52.375 20.4311 52.3099 20.6584 52.1797C20.888 52.0495 21.0608 51.8814 21.1768 51.6754C21.2952 51.4695 21.3544 51.2528 21.3544 51.0256V50.2585C21.3189 50.3011 21.2408 50.3402 21.12 50.3757C21.0017 50.4089 20.8643 50.4384 20.7081 50.4645C20.5542 50.4882 20.4039 50.5095 20.2571 50.5284C20.1127 50.545 19.9955 50.5592 19.9055 50.571C19.6877 50.5994 19.4841 50.6456 19.2947 50.7095C19.1077 50.7711 18.9562 50.8646 18.8402 50.9901C18.7266 51.1132 18.6697 51.2812 18.6697 51.4943C18.6697 51.7855 18.7775 52.0057 18.9929 52.1548C19.2107 52.3016 19.4865 52.375 19.8203 52.375ZM25.7818 53.1136C25.3272 53.1136 24.926 52.9988 24.5779 52.7692C24.2299 52.5372 23.9577 52.2105 23.7612 51.7891C23.5647 51.3653 23.4664 50.8646 23.4664 50.2869C23.4664 49.714 23.5647 49.2169 23.7612 48.7955C23.9577 48.3741 24.2311 48.0485 24.5815 47.8189C24.9319 47.5893 25.3367 47.4744 25.796 47.4744C26.1511 47.4744 26.4316 47.5336 26.6376 47.652C26.8459 47.768 27.0046 47.9006 27.1135 48.0497C27.2247 48.1965 27.3111 48.3172 27.3727 48.4119H27.4437V45.7273H28.2818V53H27.4721V52.1619H27.3727C27.3111 52.2614 27.2235 52.3868 27.1099 52.5384C26.9963 52.6875 26.8341 52.8213 26.6234 52.9396C26.4127 53.0556 26.1322 53.1136 25.7818 53.1136ZM25.8954 52.3608C26.2316 52.3608 26.5157 52.2732 26.7477 52.098C26.9797 51.9205 27.1561 51.6754 27.2768 51.3629C27.3975 51.0481 27.4579 50.6847 27.4579 50.2727C27.4579 49.8655 27.3987 49.5092 27.2804 49.2038C27.162 48.8961 26.9868 48.657 26.7548 48.4865C26.5228 48.3137 26.2363 48.2273 25.8954 48.2273C25.5403 48.2273 25.2444 48.3184 25.0076 48.5007C24.7733 48.6806 24.5969 48.9257 24.4785 49.2358C24.3625 49.5436 24.3045 49.8892 24.3045 50.2727C24.3045 50.661 24.3637 51.0137 24.4821 51.331C24.6028 51.6458 24.7804 51.8968 25.0147 52.0838C25.2515 52.2685 25.545 52.3608 25.8954 52.3608ZM32.22 53.1136C31.6944 53.1136 31.2411 52.9976 30.8599 52.7656C30.4811 52.5312 30.1887 52.2045 29.9828 51.7855C29.7792 51.3641 29.6774 50.8741 29.6774 50.3153C29.6774 49.7566 29.7792 49.2642 29.9828 48.8381C30.1887 48.4096 30.4752 48.0758 30.8422 47.8366C31.2115 47.5952 31.6423 47.4744 32.1348 47.4744C32.4189 47.4744 32.6994 47.5218 32.9764 47.6165C33.2534 47.7112 33.5055 47.8651 33.7328 48.0781C33.96 48.2888 34.1412 48.5682 34.2761 48.9162C34.411 49.2642 34.4785 49.6927 34.4785 50.2017V50.5568H30.274V49.8324H33.6262C33.6262 49.5246 33.5647 49.25 33.4416 49.0085C33.3208 48.767 33.148 48.5765 32.9231 48.4368C32.7006 48.2971 32.4378 48.2273 32.1348 48.2273C31.801 48.2273 31.5121 48.3101 31.2683 48.4759C31.0268 48.6392 30.841 48.8523 30.7108 49.1151C30.5806 49.3778 30.5154 49.6596 30.5154 49.9602V50.4432C30.5154 50.8551 30.5865 51.2043 30.7285 51.4908C30.8729 51.7749 31.073 51.9915 31.3287 52.1406C31.5843 52.2874 31.8815 52.3608 32.22 52.3608C32.4402 52.3608 32.639 52.33 32.8166 52.2685C32.9965 52.2045 33.1516 52.1098 33.2818 51.9844C33.412 51.8565 33.5126 51.6979 33.5836 51.5085L34.3933 51.7358C34.3081 52.0104 34.1648 52.2519 33.9636 52.4602C33.7624 52.6662 33.5138 52.8272 33.2179 52.9432C32.9219 53.0568 32.5893 53.1136 32.22 53.1136Z" fill="url(#paint2_linear_11855_4217)"/>
<defs>
<linearGradient id="paint0_linear_11855_4217" x1="21.7396" y1="17.668" x2="21.7396" y2="34.3367" gradientUnits="userSpaceOnUse">
<stop stop-color="#CCCCCC"/>
<stop offset="1" stop-color="#666666"/>
</linearGradient>
<linearGradient id="paint1_linear_11855_4217" x1="21.7487" y1="24.332" x2="21.7487" y2="25.332" gradientUnits="userSpaceOnUse">
<stop stop-color="#CCCCCC"/>
<stop offset="1" stop-color="#666666"/>
</linearGradient>
<linearGradient id="paint2_linear_11855_4217" x1="21.75" y1="42" x2="21.75" y2="57" gradientUnits="userSpaceOnUse">
<stop stop-color="#CCCCCC"/>
<stop offset="1" stop-color="#666666"/>
</linearGradient>
</defs>
</svg>
