<svg width="46" height="46" viewBox="0 0 46 46" fill="none" xmlns="http://www.w3.org/2000/svg">
<rect x="0.5" y="0.5" width="45" height="45" rx="22.5" fill="#161618"/>
<rect x="0.5" y="0.5" width="45" height="45" rx="22.5" stroke="#2C2C30"/>
<path d="M29 18.9867C26.78 18.7667 24.5467 18.6533 22.32 18.6533C21 18.6533 19.68 18.72 18.36 18.8533L17 18.9867" stroke="white" stroke-width="1.5" stroke-linecap="round" stroke-linejoin="round"/>
<path d="M20.668 18.313L20.8146 17.4397C20.9213 16.8063 21.0013 16.333 22.128 16.333H23.8746C25.0013 16.333 25.088 16.833 25.188 17.4463L25.3346 18.313" stroke="white" stroke-width="1.5" stroke-linecap="round" stroke-linejoin="round"/>
<path d="M27.5669 21.0938L27.1336 27.8071C27.0603 28.8537 27.0003 29.6671 25.1403 29.6671H20.8603C19.0003 29.6671 18.9403 28.8537 18.8669 27.8071L18.4336 21.0938" stroke="white" stroke-width="1.5" stroke-linecap="round" stroke-linejoin="round"/>
<path d="M21.8867 26H24.1067" stroke="#161618" stroke-width="1.5" stroke-linecap="round" stroke-linejoin="round"/>
<path d="M21.332 23.333H24.6654" stroke="white" stroke-width="1.5" stroke-linecap="round" stroke-linejoin="round"/>
</svg>
