<svg width="16" height="16" viewBox="0 0 16 16" fill="none" xmlns="http://www.w3.org/2000/svg">
<path d="M8.44193 1.67941L8.42193 1.72607L6.48859 6.21274H4.58859C4.13526 6.21274 3.70193 6.30607 3.30859 6.47274L4.47526 3.68607L4.50193 3.61941L4.54859 3.51274C4.56193 3.47274 4.57526 3.43274 4.59526 3.39941C5.46859 1.37941 6.45526 0.919408 8.44193 1.67941Z" stroke="#6C7278" stroke-width="1.5" stroke-linecap="round" stroke-linejoin="round"/>
<path d="M12.0349 6.34635C11.7349 6.25302 11.4149 6.21302 11.0949 6.21302H6.48828L8.42161 1.72635L8.44161 1.67969C8.54161 1.71302 8.63495 1.75969 8.73495 1.79969L10.2083 2.41969C11.0283 2.75969 11.6016 3.11302 11.9483 3.53969C12.0149 3.61969 12.0683 3.69302 12.1149 3.77969C12.1749 3.87302 12.2216 3.96635 12.2483 4.06635C12.2749 4.12635 12.2949 4.18635 12.3083 4.23969C12.4883 4.79969 12.3816 5.48635 12.0349 6.34635Z" stroke="#6C7278" stroke-width="1.5" stroke-linecap="round" stroke-linejoin="round"/>
<path d="M14.3465 9.46622V10.7662C14.3465 10.8996 14.3398 11.0329 14.3332 11.1662C14.2065 13.4929 12.9065 14.6662 10.4398 14.6662H5.23984C5.07984 14.6662 4.91984 14.6529 4.76651 14.6329C2.64651 14.4929 1.51318 13.3596 1.37318 11.2396C1.35318 11.0862 1.33984 10.9262 1.33984 10.7662V9.46622C1.33984 8.12622 2.15318 6.97289 3.31318 6.47289C3.71318 6.30622 4.13984 6.21289 4.59318 6.21289H11.0998C11.4265 6.21289 11.7465 6.25956 12.0398 6.34622C13.3665 6.75289 14.3465 7.99289 14.3465 9.46622Z" stroke="#6C7278" stroke-width="1.5" stroke-linecap="round" stroke-linejoin="round"/>
<path d="M4.47203 3.68555L3.30536 6.47221C2.14536 6.97221 1.33203 8.12555 1.33203 9.46555V7.51221C1.33203 5.61888 2.6787 4.03888 4.47203 3.68555Z" stroke="#6C7278" stroke-width="1.5" stroke-linecap="round" stroke-linejoin="round"/>
<path d="M14.3457 7.51112V9.46445C14.3457 7.99779 13.3724 6.75112 12.0391 6.35112C12.3857 5.48445 12.4857 4.80445 12.3191 4.23779C12.3057 4.17779 12.2857 4.11779 12.2591 4.06445C13.4991 4.70445 14.3457 6.01779 14.3457 7.51112Z" stroke="#6C7278" stroke-width="1.5" stroke-linecap="round" stroke-linejoin="round"/>
</svg>
