<svg width="149" height="48" viewBox="0 0 149 48" fill="none" xmlns="http://www.w3.org/2000/svg">
<g filter="url(#filter0_di_9685_40843)">
<rect x="4" y="4" width="140.5" height="40" rx="6" fill="url(#paint0_linear_9685_40843)" shape-rendering="crispEdges"/>
<rect x="4.5" y="4.5" width="139.5" height="39" rx="5.5" stroke="white" stroke-opacity="0.15" shape-rendering="crispEdges"/>
<path d="M49.5863 28.5L47.1232 19.7727H48.8235L50.3959 26.1861H50.4769L52.1559 19.7727H53.7027L55.386 26.1903H55.4627L57.0351 19.7727H58.7354L56.2724 28.5H54.7127L52.9655 22.3764H52.8974L51.1459 28.5H49.5863ZM59.5235 28.5V21.9545H61.0661V28.5H59.5235ZM60.299 21.0256C60.0547 21.0256 59.8445 20.9446 59.6684 20.7827C59.4922 20.6179 59.4042 20.4205 59.4042 20.1903C59.4042 19.9574 59.4922 19.7599 59.6684 19.598C59.8445 19.4332 60.0547 19.3509 60.299 19.3509C60.5462 19.3509 60.7564 19.4332 60.9297 19.598C61.1059 19.7599 61.1939 19.9574 61.1939 20.1903C61.1939 20.4205 61.1059 20.6179 60.9297 20.7827C60.7564 20.9446 60.5462 21.0256 60.299 21.0256ZM65.6808 21.9545V23.1477H61.9181V21.9545H65.6808ZM62.847 20.3864H64.3897V26.5312C64.3897 26.7386 64.4209 26.8977 64.4834 27.0085C64.5487 27.1165 64.634 27.1903 64.7391 27.2301C64.8442 27.2699 64.9607 27.2898 65.0885 27.2898C65.1851 27.2898 65.2732 27.2827 65.3527 27.2685C65.4351 27.2543 65.4976 27.2415 65.5402 27.2301L65.8002 28.4361C65.7178 28.4645 65.5999 28.4957 65.4465 28.5298C65.2959 28.5639 65.1112 28.5838 64.8925 28.5895C64.5061 28.6009 64.1581 28.5426 63.8485 28.4148C63.5388 28.2841 63.2931 28.0824 63.1112 27.8097C62.9323 27.5369 62.8442 27.196 62.847 26.7869V20.3864ZM68.4142 24.6648V28.5H66.8716V19.7727H68.3801V23.0668H68.4568C68.6102 22.6974 68.8475 22.4062 69.1685 22.1932C69.4923 21.9773 69.9043 21.8693 70.4043 21.8693C70.8588 21.8693 71.2551 21.9645 71.5932 22.1548C71.9313 22.3452 72.1926 22.6236 72.3773 22.9901C72.5648 23.3565 72.6585 23.804 72.6585 24.3324V28.5H71.1159V24.571C71.1159 24.1307 71.0023 23.7884 70.775 23.544C70.5506 23.2969 70.2352 23.1733 69.829 23.1733C69.5563 23.1733 69.3119 23.233 69.096 23.3523C68.883 23.4687 68.7153 23.6378 68.5932 23.8594C68.4739 24.081 68.4142 24.3494 68.4142 24.6648ZM76.42 28.6151C75.9057 28.6151 75.4455 28.483 75.0393 28.2188C74.633 27.9545 74.312 27.571 74.0762 27.0682C73.8404 26.5653 73.7225 25.9545 73.7225 25.2358C73.7225 24.5085 73.8418 23.8949 74.0805 23.3949C74.3219 22.892 74.6472 22.5128 75.0563 22.2571C75.4654 21.9986 75.9214 21.8693 76.4242 21.8693C76.8077 21.8693 77.1231 21.9347 77.3702 22.0653C77.6174 22.1932 77.8134 22.348 77.9583 22.5298C78.1032 22.7088 78.2154 22.8778 78.295 23.0369H78.3589V19.7727H79.9057V28.5H78.3887V27.4688H78.295C78.2154 27.6278 78.1003 27.7969 77.9498 27.9759C77.7992 28.152 77.6003 28.3026 77.3532 28.4276C77.106 28.5526 76.795 28.6151 76.42 28.6151ZM76.8503 27.3494C77.1771 27.3494 77.4555 27.2614 77.6856 27.0852C77.9157 26.9062 78.0904 26.6577 78.2097 26.3395C78.329 26.0213 78.3887 25.6506 78.3887 25.2273C78.3887 24.804 78.329 24.4361 78.2097 24.1236C78.0932 23.8111 77.92 23.5682 77.6898 23.3949C77.4626 23.2216 77.1827 23.1349 76.8503 23.1349C76.5066 23.1349 76.2197 23.2244 75.9896 23.4034C75.7594 23.5824 75.5861 23.8295 75.4697 24.1449C75.3532 24.4602 75.295 24.821 75.295 25.2273C75.295 25.6364 75.3532 26.0014 75.4697 26.3224C75.589 26.6406 75.7637 26.892 75.9938 27.0767C76.2268 27.2585 76.5123 27.3494 76.8503 27.3494ZM81.3096 28.5V21.9545H82.8053V23.0455H82.8735C82.9928 22.6676 83.1974 22.3764 83.4871 22.1719C83.7797 21.9645 84.1135 21.8608 84.4885 21.8608C84.5738 21.8608 84.6689 21.8651 84.7741 21.8736C84.882 21.8793 84.9715 21.8892 85.0425 21.9034V23.3224C84.9772 23.2997 84.8735 23.2798 84.7314 23.2628C84.5922 23.2429 84.4573 23.233 84.3266 23.233C84.0454 23.233 83.7925 23.294 83.5681 23.4162C83.3465 23.5355 83.1718 23.7017 83.0439 23.9148C82.9161 24.1278 82.8522 24.3736 82.8522 24.652V28.5H81.3096ZM87.5937 28.6321C87.1789 28.6321 86.8054 28.5582 86.473 28.4105C86.1434 28.2599 85.8821 28.0384 85.6889 27.7457C85.4985 27.4531 85.4034 27.0923 85.4034 26.6634C85.4034 26.294 85.4716 25.9886 85.6079 25.7472C85.7443 25.5057 85.9304 25.3125 86.1662 25.1676C86.402 25.0227 86.6676 24.9134 86.963 24.8395C87.2613 24.7628 87.5696 24.7074 87.8878 24.6733C88.2713 24.6335 88.5824 24.598 88.821 24.5668C89.0596 24.5327 89.2329 24.4815 89.3409 24.4134C89.4517 24.3423 89.5071 24.233 89.5071 24.0852V24.0597C89.5071 23.7386 89.4119 23.4901 89.2216 23.3139C89.0312 23.1378 88.7571 23.0497 88.3991 23.0497C88.0213 23.0497 87.7216 23.1321 87.5 23.2969C87.2812 23.4616 87.1335 23.6562 87.0568 23.8807L85.6164 23.6761C85.7301 23.2784 85.9176 22.946 86.1789 22.679C86.4403 22.4091 86.7599 22.2074 87.1378 22.0739C87.5156 21.9375 87.9332 21.8693 88.3906 21.8693C88.7059 21.8693 89.0199 21.9062 89.3324 21.9801C89.6449 22.054 89.9304 22.1761 90.1889 22.3466C90.4474 22.5142 90.6548 22.7429 90.811 23.0327C90.9701 23.3224 91.0497 23.6847 91.0497 24.1193V28.5H89.5667V27.6009H89.5156C89.4218 27.7827 89.2897 27.9531 89.1193 28.1122C88.9517 28.2685 88.74 28.3949 88.4843 28.4915C88.2315 28.5852 87.9346 28.6321 87.5937 28.6321ZM87.9943 27.4986C88.3039 27.4986 88.5724 27.4375 88.7997 27.3153C89.027 27.1903 89.2017 27.0256 89.3238 26.821C89.4488 26.6165 89.5113 26.3935 89.5113 26.152V25.3807C89.463 25.4205 89.3806 25.4574 89.2642 25.4915C89.1505 25.5256 89.0227 25.5554 88.8806 25.581C88.7386 25.6065 88.598 25.6293 88.4588 25.6491C88.3196 25.669 88.1988 25.6861 88.0966 25.7003C87.8664 25.7315 87.6605 25.7827 87.4787 25.8537C87.2968 25.9247 87.1534 26.0241 87.0483 26.152C86.9431 26.277 86.8906 26.4389 86.8906 26.6378C86.8906 26.9219 86.9943 27.1364 87.2017 27.2812C87.4091 27.4261 87.6733 27.4986 87.9943 27.4986ZM93.7117 28.5L91.8622 21.9545H93.4347L94.5852 26.5568H94.6449L95.821 21.9545H97.3764L98.5526 26.5312H98.6165L99.75 21.9545H101.327L99.473 28.5H97.8665L96.6392 24.0767H96.5497L95.3225 28.5H93.7117Z" fill="white"/>
</g>
<defs>
<filter id="filter0_di_9685_40843" x="0.3" y="0.3" width="147.9" height="51.1" filterUnits="userSpaceOnUse" color-interpolation-filters="sRGB">
<feFlood flood-opacity="0" result="BackgroundImageFix"/>
<feColorMatrix in="SourceAlpha" type="matrix" values="0 0 0 0 0 0 0 0 0 0 0 0 0 0 0 0 0 0 127 0" result="hardAlpha"/>
<feMorphology radius="3.7" operator="dilate" in="SourceAlpha" result="effect1_dropShadow_9685_40843"/>
<feOffset/>
<feComposite in2="hardAlpha" operator="out"/>
<feColorMatrix type="matrix" values="0 0 0 0 0.745098 0 0 0 0 0.792157 0 0 0 0 0.917647 0 0 0 0.03 0"/>
<feBlend mode="normal" in2="BackgroundImageFix" result="effect1_dropShadow_9685_40843"/>
<feBlend mode="normal" in="SourceGraphic" in2="effect1_dropShadow_9685_40843" result="shape"/>
<feColorMatrix in="SourceAlpha" type="matrix" values="0 0 0 0 0 0 0 0 0 0 0 0 0 0 0 0 0 0 127 0" result="hardAlpha"/>
<feOffset dy="7.4"/>
<feGaussianBlur stdDeviation="9.25"/>
<feComposite in2="hardAlpha" operator="arithmetic" k2="-1" k3="1"/>
<feColorMatrix type="matrix" values="0 0 0 0 1 0 0 0 0 1 0 0 0 0 1 0 0 0 0.11 0"/>
<feBlend mode="normal" in2="shape" result="effect2_innerShadow_9685_40843"/>
</filter>
<linearGradient id="paint0_linear_9685_40843" x1="19.9036" y1="-1.80714" x2="46.9369" y2="79.1054" gradientUnits="userSpaceOnUse">
<stop stop-color="#FCA509"/>
<stop offset="1" stop-color="#880306"/>
</linearGradient>
</defs>
</svg>
