<svg width="149" height="48" viewBox="0 0 149 48" fill="none" xmlns="http://www.w3.org/2000/svg">
<g filter="url(#filter0_di_9685_40844)">
<rect x="4.5" y="4" width="140.5" height="40" rx="6" fill="#161618" shape-rendering="crispEdges"/>
<rect x="5" y="4.5" width="139.5" height="39" rx="5.5" stroke="#2C2C30" shape-rendering="crispEdges"/>
<path d="M53.4453 28.5H50.4879V19.7727H53.505C54.3714 19.7727 55.1157 19.9474 55.7379 20.2969C56.3629 20.6435 56.843 21.142 57.1782 21.7926C57.5135 22.4432 57.6811 23.2216 57.6811 24.1278C57.6811 25.0369 57.5121 25.8182 57.174 26.4716C56.8388 27.125 56.3544 27.6264 55.7209 27.9759C55.0902 28.3253 54.3317 28.5 53.4453 28.5ZM52.0689 27.1321H53.3686C53.9765 27.1321 54.4836 27.0213 54.8899 26.7997C55.2961 26.5753 55.6015 26.2415 55.8061 25.7983C56.0106 25.3523 56.1129 24.7955 56.1129 24.1278C56.1129 23.4602 56.0106 22.9062 55.8061 22.4659C55.6015 22.0227 55.299 21.6918 54.8984 21.473C54.5007 21.2514 54.0064 21.1406 53.4155 21.1406H52.0689V27.1321ZM61.7728 28.6278C61.1165 28.6278 60.5498 28.4915 60.0725 28.2188C59.598 27.9432 59.233 27.554 58.9773 27.0511C58.7216 26.5455 58.5938 25.9503 58.5938 25.2656C58.5938 24.5923 58.7216 24.0014 58.9773 23.4929C59.2358 22.9815 59.5966 22.5838 60.0597 22.2997C60.5228 22.0128 61.0668 21.8693 61.6918 21.8693C62.0952 21.8693 62.4759 21.9347 62.8338 22.0653C63.1946 22.1932 63.5128 22.392 63.7884 22.6619C64.0668 22.9318 64.2855 23.2756 64.4446 23.6932C64.6037 24.108 64.6833 24.6023 64.6833 25.1761V25.6491H59.3182V24.6094H63.2046C63.2017 24.3139 63.1378 24.0511 63.0128 23.821C62.8878 23.5881 62.7131 23.4048 62.4887 23.2713C62.2671 23.1378 62.0086 23.071 61.7131 23.071C61.3978 23.071 61.1208 23.1477 60.8821 23.3011C60.6435 23.4517 60.4574 23.6506 60.3239 23.8977C60.1932 24.142 60.1265 24.4105 60.1236 24.7031V25.6108C60.1236 25.9915 60.1932 26.3182 60.3324 26.5909C60.4716 26.8608 60.6662 27.0682 60.9162 27.2131C61.1662 27.3551 61.4588 27.4261 61.7941 27.4261C62.0185 27.4261 62.2216 27.3949 62.4034 27.3324C62.5853 27.267 62.7429 27.1719 62.8765 27.0469C63.01 26.9219 63.1108 26.767 63.179 26.5824L64.6194 26.7443C64.5284 27.125 64.3551 27.4574 64.0995 27.7415C63.8466 28.0227 63.5228 28.2415 63.1279 28.3977C62.733 28.5511 62.2813 28.6278 61.7728 28.6278ZM65.7483 30.9545V21.9545H67.2654V23.0369H67.3549C67.4344 22.8778 67.5466 22.7088 67.6915 22.5298C67.8364 22.348 68.0324 22.1932 68.2796 22.0653C68.5267 21.9347 68.8421 21.8693 69.2256 21.8693C69.7313 21.8693 70.1872 21.9986 70.5935 22.2571C71.0026 22.5128 71.3264 22.892 71.5651 23.3949C71.8066 23.8949 71.9273 24.5085 71.9273 25.2358C71.9273 25.9545 71.8094 26.5653 71.5736 27.0682C71.3378 27.571 71.0168 27.9545 70.6105 28.2188C70.2043 28.483 69.7441 28.6151 69.2299 28.6151C68.8549 28.6151 68.5438 28.5526 68.2966 28.4276C68.0495 28.3026 67.8506 28.152 67.7 27.9759C67.5523 27.7969 67.4372 27.6278 67.3549 27.4688H67.2909V30.9545H65.7483ZM67.2611 25.2273C67.2611 25.6506 67.3208 26.0213 67.4401 26.3395C67.5622 26.6577 67.737 26.9062 67.9642 27.0852C68.1943 27.2614 68.4727 27.3494 68.7995 27.3494C69.1404 27.3494 69.4259 27.2585 69.656 27.0767C69.8861 26.892 70.0594 26.6406 70.1759 26.3224C70.2952 26.0014 70.3549 25.6364 70.3549 25.2273C70.3549 24.821 70.2966 24.4602 70.1801 24.1449C70.0637 23.8295 69.8904 23.5824 69.6602 23.4034C69.4301 23.2244 69.1432 23.1349 68.7995 23.1349C68.4699 23.1349 68.1901 23.2216 67.96 23.3949C67.7299 23.5682 67.5551 23.8111 67.4358 24.1236C67.3193 24.4361 67.2611 24.804 67.2611 25.2273ZM75.8634 28.6278C75.2242 28.6278 74.6702 28.4872 74.2015 28.206C73.7327 27.9247 73.3691 27.5312 73.1106 27.0256C72.8549 26.5199 72.7271 25.929 72.7271 25.2528C72.7271 24.5767 72.8549 23.9844 73.1106 23.4759C73.3691 22.9673 73.7327 22.5724 74.2015 22.2912C74.6702 22.0099 75.2242 21.8693 75.8634 21.8693C76.5026 21.8693 77.0566 22.0099 77.5254 22.2912C77.9941 22.5724 78.3563 22.9673 78.612 23.4759C78.8705 23.9844 78.9998 24.5767 78.9998 25.2528C78.9998 25.929 78.8705 26.5199 78.612 27.0256C78.3563 27.5312 77.9941 27.9247 77.5254 28.206C77.0566 28.4872 76.5026 28.6278 75.8634 28.6278ZM75.872 27.392C76.2185 27.392 76.5083 27.2969 76.7413 27.1065C76.9742 26.9134 77.1475 26.6548 77.2612 26.331C77.3776 26.0071 77.4359 25.6463 77.4359 25.2486C77.4359 24.848 77.3776 24.4858 77.2612 24.1619C77.1475 23.8352 76.9742 23.5753 76.7413 23.3821C76.5083 23.1889 76.2185 23.0923 75.872 23.0923C75.5168 23.0923 75.2214 23.1889 74.9856 23.3821C74.7526 23.5753 74.5779 23.8352 74.4614 24.1619C74.3478 24.4858 74.291 24.848 74.291 25.2486C74.291 25.6463 74.3478 26.0071 74.4614 26.331C74.5779 26.6548 74.7526 26.9134 74.9856 27.1065C75.2214 27.2969 75.5168 27.392 75.872 27.392ZM85.2424 23.6847L83.8361 23.8381C83.7964 23.696 83.7268 23.5625 83.6273 23.4375C83.5307 23.3125 83.4001 23.2116 83.2353 23.1349C83.0705 23.0582 82.8688 23.0199 82.6302 23.0199C82.3092 23.0199 82.0393 23.0895 81.8205 23.2287C81.6046 23.3679 81.4981 23.5483 81.5009 23.7699C81.4981 23.9602 81.5677 24.1151 81.7097 24.2344C81.8546 24.3537 82.0932 24.4517 82.4256 24.5284L83.5421 24.767C84.1614 24.9006 84.6217 25.1122 84.9228 25.402C85.2268 25.6918 85.3802 26.071 85.383 26.5398C85.3802 26.9517 85.2594 27.3153 85.0208 27.6307C84.785 27.9432 84.4569 28.1875 84.0364 28.3636C83.616 28.5398 83.133 28.6278 82.5876 28.6278C81.7864 28.6278 81.1415 28.4602 80.6529 28.125C80.1643 27.7869 79.8731 27.3168 79.7793 26.7145L81.2836 26.5696C81.3518 26.8651 81.4967 27.0881 81.7182 27.2386C81.9398 27.3892 82.2282 27.4645 82.5833 27.4645C82.9498 27.4645 83.2438 27.3892 83.4654 27.2386C83.6898 27.0881 83.8021 26.902 83.8021 26.6804C83.8021 26.4929 83.7296 26.3381 83.5847 26.2159C83.4427 26.0937 83.2211 26 82.92 25.9347L81.8035 25.7003C81.1756 25.5696 80.7111 25.3494 80.41 25.0398C80.1089 24.7273 79.9597 24.3324 79.9626 23.8551C79.9597 23.4517 80.0691 23.1023 80.2907 22.8068C80.5151 22.5085 80.8262 22.2784 81.2239 22.1165C81.6245 21.9517 82.0861 21.8693 82.6089 21.8693C83.3759 21.8693 83.9796 22.0327 84.42 22.3594C84.8631 22.6861 85.1373 23.1278 85.2424 23.6847ZM86.415 28.5V21.9545H87.9576V28.5H86.415ZM87.1906 21.0256C86.9463 21.0256 86.7361 20.9446 86.5599 20.7827C86.3838 20.6179 86.2957 20.4205 86.2957 20.1903C86.2957 19.9574 86.3838 19.7599 86.5599 19.598C86.7361 19.4332 86.9463 19.3509 87.1906 19.3509C87.4378 19.3509 87.648 19.4332 87.8213 19.598C87.9974 19.7599 88.0855 19.9574 88.0855 20.1903C88.0855 20.4205 87.9974 20.6179 87.8213 20.7827C87.648 20.9446 87.4378 21.0256 87.1906 21.0256ZM92.5724 21.9545V23.1477H88.8096V21.9545H92.5724ZM89.7386 20.3864H91.2812V26.5312C91.2812 26.7386 91.3125 26.8977 91.375 27.0085C91.4403 27.1165 91.5255 27.1903 91.6306 27.2301C91.7358 27.2699 91.8522 27.2898 91.9801 27.2898C92.0767 27.2898 92.1647 27.2827 92.2443 27.2685C92.3267 27.2543 92.3892 27.2415 92.4318 27.2301L92.6917 28.4361C92.6093 28.4645 92.4914 28.4957 92.338 28.5298C92.1875 28.5639 92.0028 28.5838 91.7841 28.5895C91.3977 28.6009 91.0497 28.5426 90.74 28.4148C90.4304 28.2841 90.1846 28.0824 90.0028 27.8097C89.8238 27.5369 89.7358 27.196 89.7386 26.7869V20.3864ZM96.45 28.6278C95.7937 28.6278 95.2269 28.4915 94.7497 28.2188C94.2752 27.9432 93.9102 27.554 93.6545 27.0511C93.3988 26.5455 93.271 25.9503 93.271 25.2656C93.271 24.5923 93.3988 24.0014 93.6545 23.4929C93.913 22.9815 94.2738 22.5838 94.7369 22.2997C95.2 22.0128 95.744 21.8693 96.369 21.8693C96.7724 21.8693 97.1531 21.9347 97.511 22.0653C97.8718 22.1932 98.19 22.392 98.4656 22.6619C98.744 22.9318 98.9627 23.2756 99.1218 23.6932C99.2809 24.108 99.3605 24.6023 99.3605 25.1761V25.6491H93.9954V24.6094H97.8818C97.8789 24.3139 97.815 24.0511 97.69 23.821C97.565 23.5881 97.3903 23.4048 97.1659 23.2713C96.9443 23.1378 96.6857 23.071 96.3903 23.071C96.075 23.071 95.798 23.1477 95.5593 23.3011C95.3207 23.4517 95.1346 23.6506 95.0011 23.8977C94.8704 24.142 94.8036 24.4105 94.8008 24.7031V25.6108C94.8008 25.9915 94.8704 26.3182 95.0096 26.5909C95.1488 26.8608 95.3434 27.0682 95.5934 27.2131C95.8434 27.3551 96.136 27.4261 96.4713 27.4261C96.6957 27.4261 96.8988 27.3949 97.0806 27.3324C97.2625 27.267 97.4201 27.1719 97.5536 27.0469C97.6872 26.9219 97.788 26.767 97.8562 26.5824L99.2965 26.7443C99.2056 27.125 99.0323 27.4574 98.7767 27.7415C98.5238 28.0227 98.2 28.2415 97.8051 28.3977C97.4102 28.5511 96.9585 28.6278 96.45 28.6278Z" fill="white"/>
</g>
<defs>
<filter id="filter0_di_9685_40844" x="0.8" y="0.3" width="147.9" height="51.1" filterUnits="userSpaceOnUse" color-interpolation-filters="sRGB">
<feFlood flood-opacity="0" result="BackgroundImageFix"/>
<feColorMatrix in="SourceAlpha" type="matrix" values="0 0 0 0 0 0 0 0 0 0 0 0 0 0 0 0 0 0 127 0" result="hardAlpha"/>
<feMorphology radius="3.7" operator="dilate" in="SourceAlpha" result="effect1_dropShadow_9685_40844"/>
<feOffset/>
<feComposite in2="hardAlpha" operator="out"/>
<feColorMatrix type="matrix" values="0 0 0 0 0.745098 0 0 0 0 0.792157 0 0 0 0 0.917647 0 0 0 0.03 0"/>
<feBlend mode="normal" in2="BackgroundImageFix" result="effect1_dropShadow_9685_40844"/>
<feBlend mode="normal" in="SourceGraphic" in2="effect1_dropShadow_9685_40844" result="shape"/>
<feColorMatrix in="SourceAlpha" type="matrix" values="0 0 0 0 0 0 0 0 0 0 0 0 0 0 0 0 0 0 127 0" result="hardAlpha"/>
<feOffset dy="7.4"/>
<feGaussianBlur stdDeviation="9.25"/>
<feComposite in2="hardAlpha" operator="arithmetic" k2="-1" k3="1"/>
<feColorMatrix type="matrix" values="0 0 0 0 1 0 0 0 0 1 0 0 0 0 1 0 0 0 0.11 0"/>
<feBlend mode="normal" in2="shape" result="effect2_innerShadow_9685_40844"/>
</filter>
</defs>
</svg>
