<svg width="13" height="13" viewBox="0 0 13 13" fill="none" xmlns="http://www.w3.org/2000/svg">
<path d="M6.62626 12.5611C5.817 12.5611 5.05588 12.4076 4.3429 12.1005C3.63035 11.7931 3.01039 11.3759 2.48303 10.8489C1.95567 10.322 1.53824 9.70269 1.23076 8.99101C0.923274 8.27933 0.769531 7.51842 0.769531 6.7083C0.769531 5.89817 0.923274 5.13705 1.23076 4.42493C1.53781 3.71238 1.95437 3.09243 2.48043 2.56506C3.00649 2.0377 3.62601 1.62027 4.339 1.31279C5.05198 1.0053 5.8131 0.851562 6.62236 0.851562C7.43162 0.851562 8.19274 1.0053 8.90573 1.31279C9.61827 1.61984 10.2382 2.03661 10.7656 2.56311C11.293 3.08961 11.7104 3.70913 12.0179 4.42168C12.3254 5.13423 12.4791 5.89513 12.4791 6.70439C12.4791 7.51365 12.3256 8.27478 12.0185 8.98776C11.7115 9.70074 11.2943 10.3207 10.7669 10.8476C10.2395 11.3746 9.62023 11.792 8.90898 12.0999C8.19773 12.4078 7.43683 12.5616 6.62626 12.5611ZM6.62431 11.9106C8.07717 11.9106 9.30775 11.4064 10.3161 10.3981C11.3244 9.38978 11.8286 8.1592 11.8286 6.70634C11.8286 6.63045 11.8279 6.5539 11.8266 6.47671C11.8253 6.39951 11.8205 6.32557 11.8123 6.25488C11.7832 6.54414 11.6683 6.78354 11.4675 6.97306C11.2663 7.16215 11.0197 7.25669 10.7279 7.25669H9.07617C8.77345 7.25669 8.51432 7.14914 8.29878 6.93403C8.08324 6.71892 7.97547 6.46023 7.97547 6.15795V5.60825H5.77342V4.50885C5.77342 4.20657 5.88141 3.94679 6.09738 3.72951C6.31292 3.51224 6.57205 3.4036 6.87477 3.4036H7.42512V2.90269C7.42512 2.58696 7.52833 2.33846 7.73477 2.15718C7.94121 1.9759 8.18776 1.87138 8.47442 1.84362C8.18255 1.73086 7.88331 1.64586 7.57669 1.58861C7.27007 1.53137 6.95261 1.50253 6.62431 1.50209C5.17146 1.50209 3.94087 2.00626 2.93255 3.01458C1.92422 4.0229 1.42006 5.25349 1.42006 6.70634V6.89435C1.42006 6.95246 1.4244 7.01491 1.43307 7.0817H4.34745C4.96329 7.0817 5.48415 7.29486 5.91003 7.72117C6.33634 8.14705 6.5495 8.66596 6.5495 9.27789V9.8341H4.8978V11.61C5.16495 11.7063 5.44382 11.7805 5.73439 11.8325C6.02496 11.8846 6.3216 11.9106 6.62431 11.9106Z" fill="white"/>
</svg>
