<svg width="24" height="18" viewBox="0 0 24 18" fill="none" xmlns="http://www.w3.org/2000/svg">
<path d="M22.54 3.87703C22.4151 3.40931 22.1698 2.9825 21.8285 2.63913C21.4872 2.29576 21.0619 2.04782 20.595 1.92003C18.88 1.45703 12 1.45703 12 1.45703C12 1.45703 5.12 1.45703 3.405 1.92003C2.93806 2.04782 2.51276 2.29576 2.1715 2.63913C1.83023 2.9825 1.58492 3.40931 1.46 3.87703C1 5.60503 1 9.20703 1 9.20703C1 9.20703 1 12.809 1.46 14.537C1.58476 15.0049 1.83001 15.432 2.17129 15.7755C2.51256 16.1191 2.93794 16.3672 3.405 16.495C5.121 16.957 12 16.957 12 16.957C12 16.957 18.88 16.957 20.595 16.495C21.0621 16.3672 21.4874 16.1191 21.8287 15.7755C22.17 15.432 22.4152 15.0049 22.54 14.537C23 12.811 23 9.20703 23 9.20703C23 9.20703 23 5.60503 22.54 3.87703ZM9.75 12.478V5.93703L15.5 9.20803L9.75 12.478Z" stroke="#FAFAFA" stroke-width="1.5" stroke-miterlimit="10" stroke-linejoin="round"/>
</svg>
