<svg width="22" height="22" viewBox="0 0 22 22" fill="none" xmlns="http://www.w3.org/2000/svg">
<path d="M1.66797 11.0013C1.66797 8.52595 2.6513 6.15198 4.40164 4.40164C6.15198 2.6513 8.52595 1.66797 11.0013 1.66797C13.4767 1.66797 15.8506 2.6513 17.601 4.40164C19.3513 6.15198 20.3346 8.52595 20.3346 11.0013V16.9396C20.3346 17.929 20.3346 18.4213 20.1876 18.8168C20.0707 19.1302 19.8878 19.4148 19.6513 19.6513C19.4148 19.8878 19.1302 20.0707 18.8168 20.1876C18.4213 20.3346 17.9278 20.3346 16.9396 20.3346H11.0013C8.52595 20.3346 6.15198 19.3513 4.40164 17.601C2.6513 15.8506 1.66797 13.4767 1.66797 11.0013Z" stroke="white" stroke-width="2"/>
</svg>
